<?xml version="1.0" encoding="utf-8" standalone="no"?>
<!DOCTYPE svg PUBLIC "-//W3C//DTD SVG 1.1//EN"
  "http://www.w3.org/Graphics/SVG/1.1/DTD/svg11.dtd">
<svg height="345.6pt" version="1.1" viewBox="0 0 460.8 345.6" width="460.8pt" xmlns="http://www.w3.org/2000/svg" xmlns:xlink="http://www.w3.org/1999/xlink">
 <metadata>
  <rdf:RDF xmlns:cc="http://creativecommons.org/ns#" xmlns:dc="http://purl.org/dc/elements/1.1/" xmlns:rdf="http://www.w3.org/1999/02/22-rdf-syntax-ns#">
   <cc:Work>
    <dc:type rdf:resource="http://purl.org/dc/dcmitype/StillImage"/>
    <dc:date>2021-08-18T15:14:07.315684</dc:date>
    <dc:format>image/svg+xml</dc:format>
    <dc:creator>
     <cc:Agent>
      <dc:title>Matplotlib v3.4.2, https://matplotlib.org/</dc:title>
     </cc:Agent>
    </dc:creator>
   </cc:Work>
  </rdf:RDF>
 </metadata>
 <defs>
  <style type="text/css">*{stroke-linecap:butt;stroke-linejoin:round;}</style>
 </defs>
 <g id="figure_1">
  <g id="patch_1">
   <path d="M 0 345.6 
L 460.8 345.6 
L 460.8 0 
L 0 0 
z
" style="fill:#ffffff;"/>
  </g>
  <g id="axes_1">
   <g id="patch_2">
    <path d="M 57.6 307.584 
L 414.72 307.584 
L 414.72 41.472 
L 57.6 41.472 
z
" style="fill:#ffffff;"/>
   </g>
   <g id="matplotlib.axis_1">
    <g id="xtick_1">
     <g id="line2d_1">
      <defs>
       <path d="M 0 0 
L 0 3.5 
" id="m4b1c7fca55" style="stroke:#000000;stroke-width:0.8;"/>
      </defs>
      <g>
       <use style="stroke:#000000;stroke-width:0.8;" x="73.832727" xlink:href="#m4b1c7fca55" y="307.584"/>
      </g>
     </g>
     <g id="text_1">
      <!-- 0 -->
      <g transform="translate(70.651477 322.182437)scale(0.1 -0.1)">
       <defs>
        <path d="M 2034 4250 
Q 1547 4250 1301 3770 
Q 1056 3291 1056 2328 
Q 1056 1369 1301 889 
Q 1547 409 2034 409 
Q 2525 409 2770 889 
Q 3016 1369 3016 2328 
Q 3016 3291 2770 3770 
Q 2525 4250 2034 4250 
z
M 2034 4750 
Q 2819 4750 3233 4129 
Q 3647 3509 3647 2328 
Q 3647 1150 3233 529 
Q 2819 -91 2034 -91 
Q 1250 -91 836 529 
Q 422 1150 422 2328 
Q 422 3509 836 4129 
Q 1250 4750 2034 4750 
z
" id="DejaVuSans-30" transform="scale(0.015625)"/>
       </defs>
       <use xlink:href="#DejaVuSans-30"/>
      </g>
     </g>
    </g>
    <g id="xtick_2">
     <g id="line2d_2">
      <g>
       <use style="stroke:#000000;stroke-width:0.8;" x="114.414545" xlink:href="#m4b1c7fca55" y="307.584"/>
      </g>
     </g>
     <g id="text_2">
      <!-- 25 -->
      <g transform="translate(108.052045 322.182437)scale(0.1 -0.1)">
       <defs>
        <path d="M 1228 531 
L 3431 531 
L 3431 0 
L 469 0 
L 469 531 
Q 828 903 1448 1529 
Q 2069 2156 2228 2338 
Q 2531 2678 2651 2914 
Q 2772 3150 2772 3378 
Q 2772 3750 2511 3984 
Q 2250 4219 1831 4219 
Q 1534 4219 1204 4116 
Q 875 4013 500 3803 
L 500 4441 
Q 881 4594 1212 4672 
Q 1544 4750 1819 4750 
Q 2544 4750 2975 4387 
Q 3406 4025 3406 3419 
Q 3406 3131 3298 2873 
Q 3191 2616 2906 2266 
Q 2828 2175 2409 1742 
Q 1991 1309 1228 531 
z
" id="DejaVuSans-32" transform="scale(0.015625)"/>
        <path d="M 691 4666 
L 3169 4666 
L 3169 4134 
L 1269 4134 
L 1269 2991 
Q 1406 3038 1543 3061 
Q 1681 3084 1819 3084 
Q 2600 3084 3056 2656 
Q 3513 2228 3513 1497 
Q 3513 744 3044 326 
Q 2575 -91 1722 -91 
Q 1428 -91 1123 -41 
Q 819 9 494 109 
L 494 744 
Q 775 591 1075 516 
Q 1375 441 1709 441 
Q 2250 441 2565 725 
Q 2881 1009 2881 1497 
Q 2881 1984 2565 2268 
Q 2250 2553 1709 2553 
Q 1456 2553 1204 2497 
Q 953 2441 691 2322 
L 691 4666 
z
" id="DejaVuSans-35" transform="scale(0.015625)"/>
       </defs>
       <use xlink:href="#DejaVuSans-32"/>
       <use x="63.623047" xlink:href="#DejaVuSans-35"/>
      </g>
     </g>
    </g>
    <g id="xtick_3">
     <g id="line2d_3">
      <g>
       <use style="stroke:#000000;stroke-width:0.8;" x="154.996364" xlink:href="#m4b1c7fca55" y="307.584"/>
      </g>
     </g>
     <g id="text_3">
      <!-- 50 -->
      <g transform="translate(148.633864 322.182437)scale(0.1 -0.1)">
       <use xlink:href="#DejaVuSans-35"/>
       <use x="63.623047" xlink:href="#DejaVuSans-30"/>
      </g>
     </g>
    </g>
    <g id="xtick_4">
     <g id="line2d_4">
      <g>
       <use style="stroke:#000000;stroke-width:0.8;" x="195.578182" xlink:href="#m4b1c7fca55" y="307.584"/>
      </g>
     </g>
     <g id="text_4">
      <!-- 75 -->
      <g transform="translate(189.215682 322.182437)scale(0.1 -0.1)">
       <defs>
        <path d="M 525 4666 
L 3525 4666 
L 3525 4397 
L 1831 0 
L 1172 0 
L 2766 4134 
L 525 4134 
L 525 4666 
z
" id="DejaVuSans-37" transform="scale(0.015625)"/>
       </defs>
       <use xlink:href="#DejaVuSans-37"/>
       <use x="63.623047" xlink:href="#DejaVuSans-35"/>
      </g>
     </g>
    </g>
    <g id="xtick_5">
     <g id="line2d_5">
      <g>
       <use style="stroke:#000000;stroke-width:0.8;" x="236.16" xlink:href="#m4b1c7fca55" y="307.584"/>
      </g>
     </g>
     <g id="text_5">
      <!-- 100 -->
      <g transform="translate(226.61625 322.182437)scale(0.1 -0.1)">
       <defs>
        <path d="M 794 531 
L 1825 531 
L 1825 4091 
L 703 3866 
L 703 4441 
L 1819 4666 
L 2450 4666 
L 2450 531 
L 3481 531 
L 3481 0 
L 794 0 
L 794 531 
z
" id="DejaVuSans-31" transform="scale(0.015625)"/>
       </defs>
       <use xlink:href="#DejaVuSans-31"/>
       <use x="63.623047" xlink:href="#DejaVuSans-30"/>
       <use x="127.246094" xlink:href="#DejaVuSans-30"/>
      </g>
     </g>
    </g>
    <g id="xtick_6">
     <g id="line2d_6">
      <g>
       <use style="stroke:#000000;stroke-width:0.8;" x="276.741818" xlink:href="#m4b1c7fca55" y="307.584"/>
      </g>
     </g>
     <g id="text_6">
      <!-- 125 -->
      <g transform="translate(267.198068 322.182437)scale(0.1 -0.1)">
       <use xlink:href="#DejaVuSans-31"/>
       <use x="63.623047" xlink:href="#DejaVuSans-32"/>
       <use x="127.246094" xlink:href="#DejaVuSans-35"/>
      </g>
     </g>
    </g>
    <g id="xtick_7">
     <g id="line2d_7">
      <g>
       <use style="stroke:#000000;stroke-width:0.8;" x="317.323636" xlink:href="#m4b1c7fca55" y="307.584"/>
      </g>
     </g>
     <g id="text_7">
      <!-- 150 -->
      <g transform="translate(307.779886 322.182437)scale(0.1 -0.1)">
       <use xlink:href="#DejaVuSans-31"/>
       <use x="63.623047" xlink:href="#DejaVuSans-35"/>
       <use x="127.246094" xlink:href="#DejaVuSans-30"/>
      </g>
     </g>
    </g>
    <g id="xtick_8">
     <g id="line2d_8">
      <g>
       <use style="stroke:#000000;stroke-width:0.8;" x="357.905455" xlink:href="#m4b1c7fca55" y="307.584"/>
      </g>
     </g>
     <g id="text_8">
      <!-- 175 -->
      <g transform="translate(348.361705 322.182437)scale(0.1 -0.1)">
       <use xlink:href="#DejaVuSans-31"/>
       <use x="63.623047" xlink:href="#DejaVuSans-37"/>
       <use x="127.246094" xlink:href="#DejaVuSans-35"/>
      </g>
     </g>
    </g>
    <g id="xtick_9">
     <g id="line2d_9">
      <g>
       <use style="stroke:#000000;stroke-width:0.8;" x="398.487273" xlink:href="#m4b1c7fca55" y="307.584"/>
      </g>
     </g>
     <g id="text_9">
      <!-- 200 -->
      <g transform="translate(388.943523 322.182437)scale(0.1 -0.1)">
       <use xlink:href="#DejaVuSans-32"/>
       <use x="63.623047" xlink:href="#DejaVuSans-30"/>
       <use x="127.246094" xlink:href="#DejaVuSans-30"/>
      </g>
     </g>
    </g>
   </g>
   <g id="matplotlib.axis_2">
    <g id="ytick_1">
     <g id="line2d_10">
      <defs>
       <path d="M 0 0 
L -3.5 0 
" id="m96a7b90d03" style="stroke:#000000;stroke-width:0.8;"/>
      </defs>
      <g>
       <use style="stroke:#000000;stroke-width:0.8;" x="57.6" xlink:href="#m96a7b90d03" y="280.149716"/>
      </g>
     </g>
     <g id="text_10">
      <!-- −4 -->
      <g transform="translate(35.857813 283.948934)scale(0.1 -0.1)">
       <defs>
        <path d="M 678 2272 
L 4684 2272 
L 4684 1741 
L 678 1741 
L 678 2272 
z
" id="DejaVuSans-2212" transform="scale(0.015625)"/>
        <path d="M 2419 4116 
L 825 1625 
L 2419 1625 
L 2419 4116 
z
M 2253 4666 
L 3047 4666 
L 3047 1625 
L 3713 1625 
L 3713 1100 
L 3047 1100 
L 3047 0 
L 2419 0 
L 2419 1100 
L 313 1100 
L 313 1709 
L 2253 4666 
z
" id="DejaVuSans-34" transform="scale(0.015625)"/>
       </defs>
       <use xlink:href="#DejaVuSans-2212"/>
       <use x="83.789062" xlink:href="#DejaVuSans-34"/>
      </g>
     </g>
    </g>
    <g id="ytick_2">
     <g id="line2d_11">
      <g>
       <use style="stroke:#000000;stroke-width:0.8;" x="57.6" xlink:href="#m96a7b90d03" y="225.766178"/>
      </g>
     </g>
     <g id="text_11">
      <!-- −2 -->
      <g transform="translate(35.857813 229.565397)scale(0.1 -0.1)">
       <use xlink:href="#DejaVuSans-2212"/>
       <use x="83.789062" xlink:href="#DejaVuSans-32"/>
      </g>
     </g>
    </g>
    <g id="ytick_3">
     <g id="line2d_12">
      <g>
       <use style="stroke:#000000;stroke-width:0.8;" x="57.6" xlink:href="#m96a7b90d03" y="171.38264"/>
      </g>
     </g>
     <g id="text_12">
      <!-- 0 -->
      <g transform="translate(44.2375 175.181859)scale(0.1 -0.1)">
       <use xlink:href="#DejaVuSans-30"/>
      </g>
     </g>
    </g>
    <g id="ytick_4">
     <g id="line2d_13">
      <g>
       <use style="stroke:#000000;stroke-width:0.8;" x="57.6" xlink:href="#m96a7b90d03" y="116.999103"/>
      </g>
     </g>
     <g id="text_13">
      <!-- 2 -->
      <g transform="translate(44.2375 120.798322)scale(0.1 -0.1)">
       <use xlink:href="#DejaVuSans-32"/>
      </g>
     </g>
    </g>
    <g id="ytick_5">
     <g id="line2d_14">
      <g>
       <use style="stroke:#000000;stroke-width:0.8;" x="57.6" xlink:href="#m96a7b90d03" y="62.615565"/>
      </g>
     </g>
     <g id="text_14">
      <!-- 4 -->
      <g transform="translate(44.2375 66.414784)scale(0.1 -0.1)">
       <use xlink:href="#DejaVuSans-34"/>
      </g>
     </g>
    </g>
   </g>
   <g id="line2d_15">
    <path clip-path="url(#pe0c06fa9c8)" d="M 73.832727 148.133914 
L 75.456 148.183766 
L 77.079273 148.379268 
L 80.325818 149.128746 
L 83.572364 150.245982 
L 88.442182 152.259281 
L 91.688727 153.72743 
L 94.935273 154.909816 
L 101.428364 156.85773 
L 104.674909 158.21134 
L 106.298182 159.072764 
L 109.544727 161.180327 
L 112.791273 163.741519 
L 116.037818 166.587344 
L 119.284364 168.78867 
L 122.530909 170.936807 
L 124.154182 172.036534 
L 125.777455 172.896783 
L 127.400727 173.529693 
L 129.024 173.94643 
L 132.270545 174.264399 
L 140.386909 174.846783 
L 142.010182 174.588596 
L 146.88 173.242152 
L 148.503273 172.712033 
L 151.749818 170.984796 
L 153.373091 170.086681 
L 154.996364 169.365638 
L 156.619636 168.836681 
L 158.242909 168.443366 
L 159.866182 168.240259 
L 161.489455 168.283181 
L 163.112727 168.63009 
L 171.229091 171.302165 
L 172.852364 171.853332 
L 174.475636 172.175417 
L 176.098909 172.298994 
L 177.722182 172.253276 
L 180.968727 171.815869 
L 189.085091 170.713713 
L 200.448 169.439235 
L 208.564364 168.612252 
L 210.187636 168.581213 
L 211.810909 168.836777 
L 213.434182 169.368004 
L 215.057455 170.165282 
L 218.304 172.302703 
L 219.927273 173.147239 
L 221.550545 173.765784 
L 223.173818 174.169451 
L 224.797091 174.368323 
L 226.420364 174.31027 
L 228.043636 173.976182 
L 232.913455 172.409372 
L 234.536727 172.108297 
L 237.783273 172.110301 
L 239.406545 172.103077 
L 242.653091 171.64371 
L 245.899636 171.759532 
L 247.522909 171.804408 
L 250.769455 171.440783 
L 254.016 171.642736 
L 255.639273 171.72757 
L 257.262545 171.59441 
L 262.132364 170.796791 
L 268.625455 169.985103 
L 281.611636 168.587499 
L 283.234909 168.551181 
L 284.858182 168.801577 
L 286.481455 169.32773 
L 288.104727 170.120014 
L 291.351273 172.247668 
L 292.974545 173.087413 
L 294.597818 173.701195 
L 296.221091 174.100101 
L 297.844364 174.294193 
L 299.467636 174.231302 
L 301.090909 173.8923 
L 305.960727 172.31051 
L 307.584 172.004413 
L 310.830545 171.996288 
L 312.453818 171.983906 
L 315.700364 171.513939 
L 318.946909 171.618808 
L 320.570182 171.658043 
L 323.816727 171.282734 
L 327.063273 171.47245 
L 328.686545 171.550935 
L 330.309818 171.411249 
L 335.179636 170.592959 
L 341.672727 169.750858 
L 351.412364 168.638954 
L 353.035636 168.591951 
L 354.658909 168.832247 
L 356.282182 169.348821 
L 357.905455 170.13199 
L 361.152 172.242601 
L 362.775273 173.074337 
L 364.398545 173.680403 
L 366.021818 174.071849 
L 367.645091 174.2587 
L 369.268364 174.188746 
L 370.891636 173.842825 
L 375.761455 172.241068 
L 377.384727 171.928558 
L 380.631273 171.90787 
L 382.254545 171.88928 
L 385.501091 171.406931 
L 388.747636 171.499411 
L 390.370909 171.53241 
L 393.617455 171.144458 
L 396.864 171.321227 
L 398.487273 171.393099 
L 398.487273 171.393099 
" style="fill:none;stroke:#1f77b4;stroke-linecap:square;stroke-width:1.5;"/>
   </g>
   <g id="line2d_16">
    <path clip-path="url(#pe0c06fa9c8)" d="M 73.832727 231.206099 
L 77.079273 230.835448 
L 80.325818 230.263925 
L 83.572364 229.58529 
L 85.195636 229.369038 
L 86.818909 229.288847 
L 88.442182 229.37102 
L 90.065455 229.644217 
L 91.688727 230.130598 
L 93.312 230.835427 
L 94.935273 231.755707 
L 96.558545 232.890202 
L 98.181818 234.239147 
L 99.805091 235.778238 
L 101.428364 237.477419 
L 104.674909 241.3595 
L 111.168 250.04977 
L 114.414545 254.015207 
L 124.154182 265.384757 
L 127.400727 268.566803 
L 130.647273 271.154893 
L 132.270545 272.129374 
L 133.893818 272.749057 
L 135.517091 273.055032 
L 137.140364 273.086734 
L 138.763636 272.883916 
L 140.386909 272.432428 
L 142.010182 271.693389 
L 143.633455 270.67552 
L 145.256727 269.386345 
L 146.88 267.832615 
L 148.503273 266.014699 
L 150.126545 263.930614 
L 151.749818 261.592334 
L 154.996364 256.254061 
L 164.736 238.779123 
L 172.852364 223.902065 
L 176.098909 218.616774 
L 177.722182 216.285348 
L 179.345455 214.176951 
L 180.968727 212.295293 
L 182.592 210.620776 
L 184.215273 209.128111 
L 187.461818 206.600971 
L 190.708364 204.472629 
L 193.954909 202.640847 
L 197.201455 201.272378 
L 205.317818 198.075367 
L 208.564364 196.59626 
L 215.057455 193.297378 
L 219.927273 190.387569 
L 223.173818 188.180677 
L 226.420364 185.515916 
L 229.666909 182.303822 
L 236.16 175.942958 
L 237.783273 174.555682 
L 239.406545 173.517918 
L 241.029818 172.813991 
L 242.653091 172.429035 
L 244.276364 172.349223 
L 279.988364 174.267223 
L 288.104727 174.853431 
L 289.728 174.595969 
L 294.597818 173.251655 
L 296.221091 172.722234 
L 299.467636 170.996396 
L 301.090909 170.098979 
L 302.714182 169.37864 
L 304.337455 168.850392 
L 305.960727 168.457797 
L 307.584 168.255425 
L 309.207273 168.299102 
L 310.830545 168.646795 
L 318.946909 171.323006 
L 320.570182 171.875044 
L 322.193455 172.198019 
L 323.816727 172.322507 
L 325.44 172.277724 
L 328.686545 171.842259 
L 336.802909 170.745394 
L 348.165818 169.479643 
L 356.282182 168.660097 
L 357.905455 168.630711 
L 359.528727 168.888032 
L 361.152 169.421118 
L 362.775273 170.220349 
L 366.021818 172.361896 
L 367.645091 173.208594 
L 369.268364 173.829389 
L 370.891636 174.235404 
L 372.514909 174.436734 
L 374.138182 174.381272 
L 375.761455 174.04992 
L 380.631273 172.491899 
L 382.254545 172.19388 
L 385.501091 172.202187 
L 387.124364 172.198249 
L 390.370909 171.745786 
L 393.617455 171.868896 
L 395.240727 171.917583 
L 396.864 171.750241 
L 398.487273 171.429594 
L 398.487273 171.429594 
" style="fill:none;stroke:#ff7f0e;stroke-linecap:square;stroke-width:1.5;"/>
   </g>
   <g id="line2d_17">
    <path clip-path="url(#pe0c06fa9c8)" d="M 73.832727 244.759984 
L 75.456 244.817801 
L 77.079273 245.040616 
L 78.702545 245.421728 
L 80.325818 245.954718 
L 81.949091 246.633403 
L 83.572364 247.504829 
L 85.195636 248.625776 
L 86.818909 249.987119 
L 88.442182 251.579716 
L 91.688727 255.330753 
L 99.805091 264.951609 
L 103.051636 268.194602 
L 106.298182 270.840555 
L 107.921455 271.841946 
L 109.544727 272.486178 
L 111.168 272.814618 
L 112.791273 272.866994 
L 114.414545 272.683359 
L 116.037818 272.249587 
L 117.661091 271.526725 
L 119.284364 270.52368 
L 120.907636 269.248154 
L 122.530909 267.707075 
L 124.154182 265.900961 
L 125.777455 263.827976 
L 127.400727 261.500241 
L 130.647273 256.181936 
L 140.386909 238.761663 
L 148.503273 223.923352 
L 151.749818 218.649602 
L 153.373091 216.322726 
L 154.996364 214.21808 
L 156.619636 212.339714 
L 158.242909 210.668449 
L 159.866182 209.179019 
L 163.112727 206.658389 
L 166.359273 204.537376 
L 169.605818 202.713726 
L 172.852364 201.352675 
L 182.592 197.470286 
L 187.461818 195.13059 
L 190.708364 193.445862 
L 195.578182 190.564307 
L 198.824727 188.378717 
L 202.071273 185.73831 
L 205.317818 182.572017 
L 211.810909 176.315808 
L 213.434182 174.954143 
L 215.057455 173.941351 
L 216.680727 173.261982 
L 218.304 172.90135 
L 219.927273 172.845755 
L 244.276364 174.544938 
L 247.522909 174.876549 
L 249.146182 174.906912 
L 250.769455 174.659758 
L 255.639273 173.345066 
L 257.262545 172.82516 
L 260.509091 171.118083 
L 262.132364 170.22991 
L 263.755636 169.51878 
L 265.378909 168.999756 
L 267.002182 168.616423 
L 268.625455 168.42342 
L 270.248727 168.476652 
L 271.872 168.834155 
L 281.611636 172.077285 
L 283.234909 172.254373 
L 284.858182 172.10695 
L 286.481455 171.647972 
L 291.351273 169.404128 
L 292.974545 168.927765 
L 294.597818 168.617169 
L 296.221091 168.464607 
L 297.844364 168.526654 
L 299.467636 168.871273 
L 301.090909 169.487999 
L 302.714182 170.367633 
L 305.960727 172.609968 
L 307.584 173.36084 
L 309.207273 173.760185 
L 310.830545 173.811895 
L 312.453818 173.518083 
L 314.077091 172.884086 
L 317.323636 170.962973 
L 318.946909 169.9739 
L 320.570182 169.165336 
L 322.193455 168.551893 
L 323.816727 168.076763 
L 325.44 167.794052 
L 327.063273 167.759087 
L 328.686545 168.029323 
L 336.802909 170.336153 
L 346.542545 173.904192 
L 348.165818 174.143432 
L 349.789091 174.061588 
L 351.412364 173.671612 
L 356.282182 171.65132 
L 357.905455 171.254372 
L 359.528727 171.026108 
L 362.775273 170.977128 
L 383.877818 171.088631 
L 398.487273 171.076997 
L 398.487273 171.076997 
" style="fill:none;stroke:#2ca02c;stroke-linecap:square;stroke-width:1.5;"/>
   </g>
   <g id="line2d_18">
    <path clip-path="url(#pe0c06fa9c8)" d="M 73.832727 53.568 
L 77.079273 53.802479 
L 80.325818 54.255277 
L 83.572364 54.907289 
L 86.818909 55.740101 
L 91.688727 57.289467 
L 96.558545 59.147451 
L 101.428364 61.257625 
L 107.921455 64.368305 
L 116.037818 68.555187 
L 132.270545 77.035128 
L 138.763636 80.172883 
L 145.256727 83.037464 
L 150.126545 84.96977 
L 154.996364 86.6963 
L 159.866182 88.205362 
L 164.736 89.491178 
L 169.605818 90.553373 
L 174.475636 91.396342 
L 179.345455 92.028564 
L 184.215273 92.461893 
L 189.085091 92.710868 
L 195.578182 92.784929 
L 202.071273 92.603902 
L 208.564364 92.213153 
L 216.680727 91.499468 
L 228.043636 90.233286 
L 257.262545 86.821194 
L 268.625455 85.79964 
L 278.365091 85.141302 
L 288.104727 84.691451 
L 299.467636 84.414626 
L 310.830545 84.366956 
L 325.44 84.556622 
L 346.542545 85.09967 
L 379.008 85.937066 
L 398.487273 86.227022 
L 398.487273 86.227022 
" style="fill:none;stroke:#d62728;stroke-linecap:square;stroke-width:1.5;"/>
   </g>
   <g id="line2d_19">
    <path clip-path="url(#pe0c06fa9c8)" d="M 73.832727 279.537317 
L 75.456 279.456425 
L 77.079273 279.116503 
L 78.702545 278.525953 
L 80.325818 277.691171 
L 81.949091 276.616826 
L 85.195636 274.095039 
L 88.442182 271.348764 
L 90.065455 269.897694 
L 91.688727 268.297216 
L 93.312 266.427208 
L 94.935273 264.297978 
L 96.558545 261.93046 
L 99.805091 256.64813 
L 106.298182 245.518071 
L 111.168 236.732634 
L 119.284364 221.808654 
L 120.907636 219.156951 
L 122.530909 216.719692 
L 124.154182 214.525693 
L 125.777455 212.576357 
L 127.400727 210.838487 
L 129.024 209.282781 
L 132.270545 206.604122 
L 135.517091 204.312751 
L 137.140364 203.32249 
L 140.386909 201.75604 
L 143.633455 200.457244 
L 151.749818 197.476059 
L 158.242909 194.749575 
L 164.736 192.122599 
L 167.982545 190.461243 
L 174.475636 186.799638 
L 177.722182 185.510572 
L 180.968727 184.591169 
L 185.838545 183.308227 
L 187.461818 182.715572 
L 189.085091 181.956658 
L 190.708364 181.008599 
L 192.331636 179.878392 
L 193.954909 178.571362 
L 197.201455 175.687487 
L 198.824727 174.632346 
L 200.448 173.913208 
L 202.071273 173.51542 
L 203.694545 173.425221 
L 219.927273 174.281571 
L 228.043636 174.839979 
L 229.666909 174.577557 
L 234.536727 173.219195 
L 236.16 172.685322 
L 239.406545 170.950803 
L 241.029818 170.049149 
L 242.653091 169.324614 
L 244.276364 168.79219 
L 245.899636 168.395428 
L 247.522909 168.188866 
L 249.146182 168.228298 
L 250.769455 168.571658 
L 258.885818 171.225663 
L 260.509091 171.773131 
L 262.132364 172.09147 
L 263.755636 172.211238 
L 265.378909 172.161638 
L 268.625455 171.716245 
L 276.741818 170.592696 
L 288.104727 169.283586 
L 294.597818 168.59713 
L 296.221091 168.559819 
L 297.844364 168.809295 
L 299.467636 169.334591 
L 301.090909 170.126076 
L 304.337455 172.252278 
L 305.960727 173.09136 
L 307.584 173.704518 
L 309.207273 174.102835 
L 310.830545 174.296371 
L 312.453818 174.232955 
L 314.077091 173.893455 
L 318.946909 172.310304 
L 320.570182 172.00379 
L 323.816727 171.994878 
L 325.44 171.982122 
L 328.686545 171.511438 
L 331.933091 171.615625 
L 333.556364 171.654529 
L 336.802909 171.278571 
L 340.049455 171.46765 
L 341.672727 171.54582 
L 343.296 171.405819 
L 348.165818 170.58658 
L 354.658909 169.743178 
L 364.398545 168.629166 
L 366.021818 168.581782 
L 367.645091 168.821676 
L 369.268364 169.337829 
L 370.891636 170.120558 
L 374.138182 172.230248 
L 375.761455 173.061505 
L 377.384727 173.667076 
L 379.008 174.058006 
L 382.254545 174.328424 
L 390.370909 174.80972 
L 391.994182 174.533597 
L 396.864 173.136562 
L 398.487273 172.590466 
L 398.487273 172.590466 
" style="fill:none;stroke:#9467bd;stroke-linecap:square;stroke-width:1.5;"/>
   </g>
   <g id="line2d_20">
    <path clip-path="url(#pe0c06fa9c8)" d="M 73.832727 94.876363 
L 80.325818 94.290298 
L 88.442182 93.274611 
L 98.181818 91.790276 
L 125.777455 87.393838 
L 135.517091 86.13905 
L 143.633455 85.292747 
L 151.749818 84.64169 
L 159.866182 84.185165 
L 169.605818 83.877583 
L 179.345455 83.799164 
L 190.708364 83.937713 
L 205.317818 84.360135 
L 258.885818 86.152246 
L 276.741818 86.405638 
L 296.221091 86.45903 
L 323.816727 86.288165 
L 383.877818 85.86682 
L 398.487273 85.840644 
L 398.487273 85.840644 
" style="fill:none;stroke:#8c564b;stroke-linecap:square;stroke-width:1.5;"/>
   </g>
   <g id="line2d_21">
    <path clip-path="url(#pe0c06fa9c8)" d="M 73.832727 295.488 
L 77.079273 295.127803 
L 80.325818 294.359506 
L 83.572364 293.204989 
L 86.818909 291.80278 
L 91.688727 289.433331 
L 94.935273 287.639356 
L 98.181818 285.641616 
L 99.805091 284.503952 
L 101.428364 283.174872 
L 103.051636 281.654214 
L 104.674909 279.945121 
L 107.921455 276.046582 
L 111.168 271.734667 
L 116.037818 264.718166 
L 119.284364 259.513854 
L 124.154182 251.217381 
L 125.777455 248.905855 
L 127.400727 246.96197 
L 129.024 245.369206 
L 130.647273 244.110904 
L 132.270545 243.171413 
L 133.893818 242.546527 
L 135.517091 242.242822 
L 137.140364 242.265251 
L 138.763636 242.619673 
L 142.010182 243.780298 
L 146.88 245.82303 
L 148.503273 246.674123 
L 150.126545 247.774433 
L 151.749818 249.115175 
L 153.373091 250.687633 
L 156.619636 254.402277 
L 164.736 263.979364 
L 167.982545 267.221064 
L 171.229091 269.870764 
L 172.852364 270.87321 
L 174.475636 271.5145 
L 176.098909 271.836406 
L 177.722182 271.879229 
L 179.345455 271.683759 
L 180.968727 271.235437 
L 182.592 270.494417 
L 184.215273 269.469983 
L 185.838545 268.170329 
L 187.461818 266.602997 
L 189.085091 264.769153 
L 190.708364 262.667738 
L 192.331636 260.312 
L 195.578182 254.944284 
L 198.824727 248.908383 
L 202.071273 242.380322 
L 208.564364 229.096456 
L 211.810909 223.000907 
L 213.434182 220.275368 
L 215.057455 217.790431 
L 216.680727 215.543534 
L 218.304 213.530454 
L 219.927273 211.745461 
L 221.550545 210.163642 
L 224.797091 207.460109 
L 228.043636 205.221863 
L 231.290182 203.251144 
L 234.536727 201.514806 
L 245.899636 196.784492 
L 255.639273 192.914257 
L 258.885818 191.243986 
L 262.132364 189.381872 
L 265.378909 187.183081 
L 267.002182 185.895618 
L 270.248727 182.931436 
L 276.741818 177.060787 
L 278.365091 175.694827 
L 279.988364 174.476207 
L 281.611636 173.414353 
L 283.234909 172.519561 
L 284.858182 171.803077 
L 286.481455 171.268357 
L 288.104727 170.90802 
L 289.728 170.71401 
L 291.351273 170.678997 
L 294.597818 170.990885 
L 304.337455 171.997001 
L 317.323636 173.084096 
L 338.426182 174.836038 
L 340.049455 175.021304 
L 341.672727 175.064753 
L 343.296 174.830739 
L 348.165818 173.555347 
L 349.789091 173.048505 
L 353.035636 171.36792 
L 354.658909 170.493091 
L 356.282182 169.795444 
L 357.905455 169.290111 
L 359.528727 168.920705 
L 361.152 168.74198 
L 362.775273 168.809959 
L 364.398545 169.182785 
L 374.138182 172.524668 
L 375.761455 172.719567 
L 377.384727 172.590556 
L 379.008 172.150595 
L 383.877818 169.966994 
L 385.501091 169.511956 
L 387.124364 169.223462 
L 390.370909 169.047223 
L 398.487273 168.759199 
L 398.487273 168.759199 
" style="fill:none;stroke:#e377c2;stroke-linecap:square;stroke-width:1.5;"/>
   </g>
   <g id="line2d_22">
    <path clip-path="url(#pe0c06fa9c8)" d="M 73.832727 223.293864 
L 77.079273 223.700648 
L 80.325818 224.490732 
L 83.572364 225.628816 
L 85.195636 226.346718 
L 88.442182 228.154075 
L 90.065455 229.245822 
L 91.688727 230.487136 
L 93.312 231.908572 
L 94.935273 233.513924 
L 96.558545 235.30751 
L 98.181818 237.293843 
L 99.805091 239.471488 
L 103.051636 244.392155 
L 106.298182 250.072054 
L 107.921455 252.990396 
L 109.544727 255.64698 
L 111.168 258.044535 
L 112.791273 260.187705 
L 114.414545 262.082615 
L 117.661091 265.320211 
L 120.907636 267.976989 
L 122.530909 269.097296 
L 124.154182 269.971628 
L 125.777455 270.486778 
L 127.400727 270.684226 
L 129.024 270.604293 
L 130.647273 270.288134 
L 132.270545 269.720835 
L 133.893818 268.862017 
L 135.517091 267.723505 
L 137.140364 266.320305 
L 138.763636 264.671353 
L 140.386909 262.790807 
L 146.88 254.459545 
L 148.503273 252.665307 
L 150.126545 251.061718 
L 151.749818 249.643692 
L 153.373091 248.405687 
L 154.996364 247.341851 
L 156.619636 246.513233 
L 158.242909 246.001891 
L 159.866182 245.816682 
L 161.489455 245.964401 
L 163.112727 246.452301 
L 164.736 247.244819 
L 166.359273 248.289771 
L 167.982545 249.577953 
L 169.605818 251.100247 
L 172.852364 254.720154 
L 180.968727 264.082652 
L 184.215273 267.248024 
L 187.461818 269.827332 
L 189.085091 270.796655 
L 190.708364 271.405896 
L 192.331636 271.696683 
L 193.954909 271.709231 
L 195.578182 271.484305 
L 197.201455 271.007136 
L 198.824727 270.237571 
L 200.448 269.184851 
L 202.071273 267.857181 
L 203.694545 266.262174 
L 205.317818 264.401115 
L 206.941091 262.273134 
L 208.564364 259.89181 
L 211.810909 254.477619 
L 215.057455 248.404655 
L 218.304 241.852811 
L 224.797091 228.566529 
L 228.043636 222.512678 
L 229.666909 219.864357 
L 231.290182 217.524896 
L 232.913455 215.457361 
L 234.536727 213.628657 
L 236.16 212.009281 
L 237.783273 210.580503 
L 239.406545 209.333275 
L 241.029818 208.253771 
L 242.653091 207.329056 
L 245.899636 205.854139 
L 255.639273 201.871609 
L 260.509091 200.272661 
L 263.755636 199.223681 
L 279.988364 193.237115 
L 283.234909 191.658345 
L 288.104727 189.008881 
L 296.221091 184.407086 
L 299.467636 183.011611 
L 302.714182 181.782623 
L 304.337455 180.946843 
L 305.960727 179.923911 
L 307.584 178.719944 
L 310.830545 176.031548 
L 312.453818 175.06866 
L 314.077091 174.438434 
L 315.700364 174.126586 
L 317.323636 174.119677 
L 323.816727 174.83294 
L 325.44 175.039793 
L 327.063273 175.104002 
L 328.686545 174.89004 
L 333.556364 173.671183 
L 335.179636 173.211045 
L 340.049455 171.158563 
L 341.672727 170.742022 
L 351.412364 169.395206 
L 357.905455 168.585767 
L 359.528727 168.520899 
L 361.152 168.743816 
L 362.775273 169.243425 
L 364.398545 170.009987 
L 367.645091 172.088352 
L 369.268364 172.904381 
L 370.891636 173.494911 
L 372.514909 173.870909 
L 375.761455 174.106529 
L 382.254545 174.486956 
L 383.877818 174.617443 
L 385.501091 174.607118 
L 387.124364 174.319851 
L 391.994182 172.888368 
L 393.617455 172.330514 
L 396.864 170.547997 
L 398.487273 169.62237 
L 398.487273 169.62237 
" style="fill:none;stroke:#7f7f7f;stroke-linecap:square;stroke-width:1.5;"/>
   </g>
   <g id="line2d_23">
    <path clip-path="url(#pe0c06fa9c8)" d="M 73.832727 108.541594 
L 77.079273 108.675959 
L 80.325818 108.609675 
L 83.572364 108.359178 
L 86.818909 107.940764 
L 91.688727 107.033463 
L 96.558545 105.837842 
L 101.428364 104.405826 
L 107.921455 102.215515 
L 116.037818 99.185552 
L 137.140364 91.13438 
L 143.633455 88.926472 
L 150.126545 86.949487 
L 156.619636 85.239168 
L 163.112727 83.816386 
L 169.605818 82.688402 
L 176.098909 81.850612 
L 182.592 81.288576 
L 189.085091 80.980125 
L 195.578182 80.897422 
L 203.694545 81.063136 
L 211.810909 81.46623 
L 221.550545 82.169976 
L 239.406545 83.749387 
L 257.262545 85.262853 
L 270.248727 86.12665 
L 281.611636 86.664446 
L 292.974545 86.993544 
L 305.960727 87.138742 
L 320.570182 87.0698 
L 341.672727 86.710911 
L 387.124364 85.873007 
L 398.487273 85.762108 
L 398.487273 85.762108 
" style="fill:none;stroke:#bcbd22;stroke-linecap:square;stroke-width:1.5;"/>
   </g>
   <g id="line2d_24">
    <path clip-path="url(#pe0c06fa9c8)" d="M 73.832727 251.403085 
L 75.456 251.404894 
L 77.079273 251.689375 
L 78.702545 252.209005 
L 80.325818 252.914532 
L 81.949091 253.755929 
L 83.572364 254.778252 
L 85.195636 256.063482 
L 86.818909 257.598584 
L 88.442182 259.36975 
L 93.312 265.267872 
L 96.558545 268.540038 
L 98.181818 269.948496 
L 99.805091 271.100295 
L 101.428364 271.88566 
L 103.051636 272.347063 
L 104.674909 272.525294 
L 106.298182 272.461359 
L 111.168 271.750535 
L 119.284364 270.269393 
L 124.154182 269.14852 
L 125.777455 268.395162 
L 127.400727 267.356467 
L 129.024 266.048157 
L 130.647273 264.489779 
L 132.270545 262.695942 
L 140.386909 252.952231 
L 142.010182 251.414811 
L 143.633455 250.059709 
L 145.256727 248.88151 
L 146.88 247.874504 
L 148.503273 247.100379 
L 150.126545 246.64213 
L 151.749818 246.509084 
L 153.373091 246.708441 
L 154.996364 247.247776 
L 156.619636 248.091231 
L 158.242909 249.186 
L 159.866182 250.52262 
L 161.489455 252.091596 
L 164.736 255.797107 
L 172.852364 265.302538 
L 176.098909 268.500233 
L 179.345455 271.103037 
L 180.968727 272.084385 
L 182.592 272.710453 
L 184.215273 273.022392 
L 185.838545 273.059691 
L 187.461818 272.862161 
L 189.085091 272.41567 
L 190.708364 271.681346 
L 192.331636 270.667948 
L 193.954909 269.38303 
L 195.578182 267.833371 
L 197.201455 266.01936 
L 198.824727 263.939029 
L 200.448 261.604355 
L 203.694545 256.272831 
L 213.434182 238.813359 
L 221.550545 223.940578 
L 224.797091 218.654065 
L 226.420364 216.321441 
L 228.043636 214.211518 
L 229.666909 212.328309 
L 231.290182 210.652534 
L 232.913455 209.158876 
L 236.16 206.630455 
L 239.406545 204.501958 
L 242.653091 202.670937 
L 245.899636 201.303338 
L 254.016 198.111755 
L 257.262545 196.636328 
L 263.755636 193.346869 
L 268.625455 190.445951 
L 271.872 188.245856 
L 275.118545 185.588925 
L 278.365091 182.395126 
L 284.858182 176.076109 
L 286.481455 174.698979 
L 288.104727 173.671099 
L 289.728 172.97688 
L 291.351273 172.601524 
L 292.974545 172.531254 
L 323.816727 174.374558 
L 330.309818 174.852076 
L 331.933091 174.59752 
L 336.802909 173.261279 
L 338.426182 172.734371 
L 341.672727 171.01336 
L 343.296 170.118269 
L 344.919273 169.40021 
L 346.542545 168.87421 
L 348.165818 168.483838 
L 349.789091 168.283677 
L 351.412364 168.329571 
L 353.035636 168.679502 
L 361.152 171.366945 
L 362.775273 171.921255 
L 364.398545 172.246526 
L 366.021818 172.373342 
L 367.645091 172.330923 
L 370.891636 171.900308 
L 379.008 170.816336 
L 390.370909 169.571277 
L 398.487273 168.769091 
L 398.487273 168.769091 
" style="fill:none;stroke:#17becf;stroke-linecap:square;stroke-width:1.5;"/>
   </g>
   <g id="patch_3">
    <path d="M 57.6 307.584 
L 57.6 41.472 
" style="fill:none;stroke:#000000;stroke-linecap:square;stroke-linejoin:miter;stroke-width:0.8;"/>
   </g>
   <g id="patch_4">
    <path d="M 414.72 307.584 
L 414.72 41.472 
" style="fill:none;stroke:#000000;stroke-linecap:square;stroke-linejoin:miter;stroke-width:0.8;"/>
   </g>
   <g id="patch_5">
    <path d="M 57.6 307.584 
L 414.72 307.584 
" style="fill:none;stroke:#000000;stroke-linecap:square;stroke-linejoin:miter;stroke-width:0.8;"/>
   </g>
   <g id="patch_6">
    <path d="M 57.6 41.472 
L 414.72 41.472 
" style="fill:none;stroke:#000000;stroke-linecap:square;stroke-linejoin:miter;stroke-width:0.8;"/>
   </g>
   <g id="legend_1">
    <g id="patch_7">
     <path d="M 64.6 196.25325 
L 109.325 196.25325 
Q 111.325 196.25325 111.325 194.25325 
L 111.325 48.472 
Q 111.325 46.472 109.325 46.472 
L 64.6 46.472 
Q 62.6 46.472 62.6 48.472 
L 62.6 194.25325 
Q 62.6 196.25325 64.6 196.25325 
z
" style="fill:#ffffff;opacity:0.8;stroke:#cccccc;stroke-linejoin:miter;"/>
    </g>
    <g id="line2d_25">
     <path d="M 66.6 54.570437 
L 86.6 54.570437 
" style="fill:none;stroke:#1f77b4;stroke-linecap:square;stroke-width:1.5;"/>
    </g>
    <g id="line2d_26"/>
    <g id="text_15">
     <!-- 50 -->
     <g transform="translate(94.6 58.070437)scale(0.1 -0.1)">
      <use xlink:href="#DejaVuSans-35"/>
      <use x="63.623047" xlink:href="#DejaVuSans-30"/>
     </g>
    </g>
    <g id="line2d_27">
     <path d="M 66.6 69.248562 
L 86.6 69.248562 
" style="fill:none;stroke:#ff7f0e;stroke-linecap:square;stroke-width:1.5;"/>
    </g>
    <g id="line2d_28"/>
    <g id="text_16">
     <!-- 51 -->
     <g transform="translate(94.6 72.748562)scale(0.1 -0.1)">
      <use xlink:href="#DejaVuSans-35"/>
      <use x="63.623047" xlink:href="#DejaVuSans-31"/>
     </g>
    </g>
    <g id="line2d_29">
     <path d="M 66.6 83.926688 
L 86.6 83.926688 
" style="fill:none;stroke:#2ca02c;stroke-linecap:square;stroke-width:1.5;"/>
    </g>
    <g id="line2d_30"/>
    <g id="text_17">
     <!-- 52 -->
     <g transform="translate(94.6 87.426688)scale(0.1 -0.1)">
      <use xlink:href="#DejaVuSans-35"/>
      <use x="63.623047" xlink:href="#DejaVuSans-32"/>
     </g>
    </g>
    <g id="line2d_31">
     <path d="M 66.6 98.604812 
L 86.6 98.604812 
" style="fill:none;stroke:#d62728;stroke-linecap:square;stroke-width:1.5;"/>
    </g>
    <g id="line2d_32"/>
    <g id="text_18">
     <!-- 53 -->
     <g transform="translate(94.6 102.104812)scale(0.1 -0.1)">
      <defs>
       <path d="M 2597 2516 
Q 3050 2419 3304 2112 
Q 3559 1806 3559 1356 
Q 3559 666 3084 287 
Q 2609 -91 1734 -91 
Q 1441 -91 1130 -33 
Q 819 25 488 141 
L 488 750 
Q 750 597 1062 519 
Q 1375 441 1716 441 
Q 2309 441 2620 675 
Q 2931 909 2931 1356 
Q 2931 1769 2642 2001 
Q 2353 2234 1838 2234 
L 1294 2234 
L 1294 2753 
L 1863 2753 
Q 2328 2753 2575 2939 
Q 2822 3125 2822 3475 
Q 2822 3834 2567 4026 
Q 2313 4219 1838 4219 
Q 1578 4219 1281 4162 
Q 984 4106 628 3988 
L 628 4550 
Q 988 4650 1302 4700 
Q 1616 4750 1894 4750 
Q 2613 4750 3031 4423 
Q 3450 4097 3450 3541 
Q 3450 3153 3228 2886 
Q 3006 2619 2597 2516 
z
" id="DejaVuSans-33" transform="scale(0.015625)"/>
      </defs>
      <use xlink:href="#DejaVuSans-35"/>
      <use x="63.623047" xlink:href="#DejaVuSans-33"/>
     </g>
    </g>
    <g id="line2d_33">
     <path d="M 66.6 113.282938 
L 86.6 113.282938 
" style="fill:none;stroke:#9467bd;stroke-linecap:square;stroke-width:1.5;"/>
    </g>
    <g id="line2d_34"/>
    <g id="text_19">
     <!-- 54 -->
     <g transform="translate(94.6 116.782938)scale(0.1 -0.1)">
      <use xlink:href="#DejaVuSans-35"/>
      <use x="63.623047" xlink:href="#DejaVuSans-34"/>
     </g>
    </g>
    <g id="line2d_35">
     <path d="M 66.6 127.961062 
L 86.6 127.961062 
" style="fill:none;stroke:#8c564b;stroke-linecap:square;stroke-width:1.5;"/>
    </g>
    <g id="line2d_36"/>
    <g id="text_20">
     <!-- 55 -->
     <g transform="translate(94.6 131.461062)scale(0.1 -0.1)">
      <use xlink:href="#DejaVuSans-35"/>
      <use x="63.623047" xlink:href="#DejaVuSans-35"/>
     </g>
    </g>
    <g id="line2d_37">
     <path d="M 66.6 142.639187 
L 86.6 142.639187 
" style="fill:none;stroke:#e377c2;stroke-linecap:square;stroke-width:1.5;"/>
    </g>
    <g id="line2d_38"/>
    <g id="text_21">
     <!-- 56 -->
     <g transform="translate(94.6 146.139187)scale(0.1 -0.1)">
      <defs>
       <path d="M 2113 2584 
Q 1688 2584 1439 2293 
Q 1191 2003 1191 1497 
Q 1191 994 1439 701 
Q 1688 409 2113 409 
Q 2538 409 2786 701 
Q 3034 994 3034 1497 
Q 3034 2003 2786 2293 
Q 2538 2584 2113 2584 
z
M 3366 4563 
L 3366 3988 
Q 3128 4100 2886 4159 
Q 2644 4219 2406 4219 
Q 1781 4219 1451 3797 
Q 1122 3375 1075 2522 
Q 1259 2794 1537 2939 
Q 1816 3084 2150 3084 
Q 2853 3084 3261 2657 
Q 3669 2231 3669 1497 
Q 3669 778 3244 343 
Q 2819 -91 2113 -91 
Q 1303 -91 875 529 
Q 447 1150 447 2328 
Q 447 3434 972 4092 
Q 1497 4750 2381 4750 
Q 2619 4750 2861 4703 
Q 3103 4656 3366 4563 
z
" id="DejaVuSans-36" transform="scale(0.015625)"/>
      </defs>
      <use xlink:href="#DejaVuSans-35"/>
      <use x="63.623047" xlink:href="#DejaVuSans-36"/>
     </g>
    </g>
    <g id="line2d_39">
     <path d="M 66.6 157.317312 
L 86.6 157.317312 
" style="fill:none;stroke:#7f7f7f;stroke-linecap:square;stroke-width:1.5;"/>
    </g>
    <g id="line2d_40"/>
    <g id="text_22">
     <!-- 57 -->
     <g transform="translate(94.6 160.817312)scale(0.1 -0.1)">
      <use xlink:href="#DejaVuSans-35"/>
      <use x="63.623047" xlink:href="#DejaVuSans-37"/>
     </g>
    </g>
    <g id="line2d_41">
     <path d="M 66.6 171.995437 
L 86.6 171.995437 
" style="fill:none;stroke:#bcbd22;stroke-linecap:square;stroke-width:1.5;"/>
    </g>
    <g id="line2d_42"/>
    <g id="text_23">
     <!-- 58 -->
     <g transform="translate(94.6 175.495437)scale(0.1 -0.1)">
      <defs>
       <path d="M 2034 2216 
Q 1584 2216 1326 1975 
Q 1069 1734 1069 1313 
Q 1069 891 1326 650 
Q 1584 409 2034 409 
Q 2484 409 2743 651 
Q 3003 894 3003 1313 
Q 3003 1734 2745 1975 
Q 2488 2216 2034 2216 
z
M 1403 2484 
Q 997 2584 770 2862 
Q 544 3141 544 3541 
Q 544 4100 942 4425 
Q 1341 4750 2034 4750 
Q 2731 4750 3128 4425 
Q 3525 4100 3525 3541 
Q 3525 3141 3298 2862 
Q 3072 2584 2669 2484 
Q 3125 2378 3379 2068 
Q 3634 1759 3634 1313 
Q 3634 634 3220 271 
Q 2806 -91 2034 -91 
Q 1263 -91 848 271 
Q 434 634 434 1313 
Q 434 1759 690 2068 
Q 947 2378 1403 2484 
z
M 1172 3481 
Q 1172 3119 1398 2916 
Q 1625 2713 2034 2713 
Q 2441 2713 2670 2916 
Q 2900 3119 2900 3481 
Q 2900 3844 2670 4047 
Q 2441 4250 2034 4250 
Q 1625 4250 1398 4047 
Q 1172 3844 1172 3481 
z
" id="DejaVuSans-38" transform="scale(0.015625)"/>
      </defs>
      <use xlink:href="#DejaVuSans-35"/>
      <use x="63.623047" xlink:href="#DejaVuSans-38"/>
     </g>
    </g>
    <g id="line2d_43">
     <path d="M 66.6 186.673562 
L 86.6 186.673562 
" style="fill:none;stroke:#17becf;stroke-linecap:square;stroke-width:1.5;"/>
    </g>
    <g id="line2d_44"/>
    <g id="text_24">
     <!-- 59 -->
     <g transform="translate(94.6 190.173562)scale(0.1 -0.1)">
      <defs>
       <path d="M 703 97 
L 703 672 
Q 941 559 1184 500 
Q 1428 441 1663 441 
Q 2288 441 2617 861 
Q 2947 1281 2994 2138 
Q 2813 1869 2534 1725 
Q 2256 1581 1919 1581 
Q 1219 1581 811 2004 
Q 403 2428 403 3163 
Q 403 3881 828 4315 
Q 1253 4750 1959 4750 
Q 2769 4750 3195 4129 
Q 3622 3509 3622 2328 
Q 3622 1225 3098 567 
Q 2575 -91 1691 -91 
Q 1453 -91 1209 -44 
Q 966 3 703 97 
z
M 1959 2075 
Q 2384 2075 2632 2365 
Q 2881 2656 2881 3163 
Q 2881 3666 2632 3958 
Q 2384 4250 1959 4250 
Q 1534 4250 1286 3958 
Q 1038 3666 1038 3163 
Q 1038 2656 1286 2365 
Q 1534 2075 1959 2075 
z
" id="DejaVuSans-39" transform="scale(0.015625)"/>
      </defs>
      <use xlink:href="#DejaVuSans-35"/>
      <use x="63.623047" xlink:href="#DejaVuSans-39"/>
     </g>
    </g>
   </g>
  </g>
 </g>
 <defs>
  <clipPath id="pe0c06fa9c8">
   <rect height="266.112" width="357.12" x="57.6" y="41.472"/>
  </clipPath>
 </defs>
</svg>
