<?xml version="1.0" encoding="utf-8" standalone="no"?>
<!DOCTYPE svg PUBLIC "-//W3C//DTD SVG 1.1//EN"
  "http://www.w3.org/Graphics/SVG/1.1/DTD/svg11.dtd">
<svg height="345.6pt" version="1.1" viewBox="0 0 460.8 345.6" width="460.8pt" xmlns="http://www.w3.org/2000/svg" xmlns:xlink="http://www.w3.org/1999/xlink">
 <metadata>
  <rdf:RDF xmlns:cc="http://creativecommons.org/ns#" xmlns:dc="http://purl.org/dc/elements/1.1/" xmlns:rdf="http://www.w3.org/1999/02/22-rdf-syntax-ns#">
   <cc:Work>
    <dc:type rdf:resource="http://purl.org/dc/dcmitype/StillImage"/>
    <dc:date>2021-08-18T15:16:06.374997</dc:date>
    <dc:format>image/svg+xml</dc:format>
    <dc:creator>
     <cc:Agent>
      <dc:title>Matplotlib v3.4.2, https://matplotlib.org/</dc:title>
     </cc:Agent>
    </dc:creator>
   </cc:Work>
  </rdf:RDF>
 </metadata>
 <defs>
  <style type="text/css">*{stroke-linecap:butt;stroke-linejoin:round;}</style>
 </defs>
 <g id="figure_1">
  <g id="patch_1">
   <path d="M 0 345.6 
L 460.8 345.6 
L 460.8 0 
L 0 0 
z
" style="fill:#ffffff;"/>
  </g>
  <g id="axes_1">
   <g id="patch_2">
    <path d="M 57.6 307.584 
L 414.72 307.584 
L 414.72 41.472 
L 57.6 41.472 
z
" style="fill:#ffffff;"/>
   </g>
   <g id="matplotlib.axis_1">
    <g id="xtick_1">
     <g id="line2d_1">
      <defs>
       <path d="M 0 0 
L 0 3.5 
" id="m0ed1290e12" style="stroke:#000000;stroke-width:0.8;"/>
      </defs>
      <g>
       <use style="stroke:#000000;stroke-width:0.8;" x="73.832727" xlink:href="#m0ed1290e12" y="307.584"/>
      </g>
     </g>
     <g id="text_1">
      <!-- 0 -->
      <g transform="translate(70.651477 322.182437)scale(0.1 -0.1)">
       <defs>
        <path d="M 2034 4250 
Q 1547 4250 1301 3770 
Q 1056 3291 1056 2328 
Q 1056 1369 1301 889 
Q 1547 409 2034 409 
Q 2525 409 2770 889 
Q 3016 1369 3016 2328 
Q 3016 3291 2770 3770 
Q 2525 4250 2034 4250 
z
M 2034 4750 
Q 2819 4750 3233 4129 
Q 3647 3509 3647 2328 
Q 3647 1150 3233 529 
Q 2819 -91 2034 -91 
Q 1250 -91 836 529 
Q 422 1150 422 2328 
Q 422 3509 836 4129 
Q 1250 4750 2034 4750 
z
" id="DejaVuSans-30" transform="scale(0.015625)"/>
       </defs>
       <use xlink:href="#DejaVuSans-30"/>
      </g>
     </g>
    </g>
    <g id="xtick_2">
     <g id="line2d_2">
      <g>
       <use style="stroke:#000000;stroke-width:0.8;" x="114.414545" xlink:href="#m0ed1290e12" y="307.584"/>
      </g>
     </g>
     <g id="text_2">
      <!-- 25 -->
      <g transform="translate(108.052045 322.182437)scale(0.1 -0.1)">
       <defs>
        <path d="M 1228 531 
L 3431 531 
L 3431 0 
L 469 0 
L 469 531 
Q 828 903 1448 1529 
Q 2069 2156 2228 2338 
Q 2531 2678 2651 2914 
Q 2772 3150 2772 3378 
Q 2772 3750 2511 3984 
Q 2250 4219 1831 4219 
Q 1534 4219 1204 4116 
Q 875 4013 500 3803 
L 500 4441 
Q 881 4594 1212 4672 
Q 1544 4750 1819 4750 
Q 2544 4750 2975 4387 
Q 3406 4025 3406 3419 
Q 3406 3131 3298 2873 
Q 3191 2616 2906 2266 
Q 2828 2175 2409 1742 
Q 1991 1309 1228 531 
z
" id="DejaVuSans-32" transform="scale(0.015625)"/>
        <path d="M 691 4666 
L 3169 4666 
L 3169 4134 
L 1269 4134 
L 1269 2991 
Q 1406 3038 1543 3061 
Q 1681 3084 1819 3084 
Q 2600 3084 3056 2656 
Q 3513 2228 3513 1497 
Q 3513 744 3044 326 
Q 2575 -91 1722 -91 
Q 1428 -91 1123 -41 
Q 819 9 494 109 
L 494 744 
Q 775 591 1075 516 
Q 1375 441 1709 441 
Q 2250 441 2565 725 
Q 2881 1009 2881 1497 
Q 2881 1984 2565 2268 
Q 2250 2553 1709 2553 
Q 1456 2553 1204 2497 
Q 953 2441 691 2322 
L 691 4666 
z
" id="DejaVuSans-35" transform="scale(0.015625)"/>
       </defs>
       <use xlink:href="#DejaVuSans-32"/>
       <use x="63.623047" xlink:href="#DejaVuSans-35"/>
      </g>
     </g>
    </g>
    <g id="xtick_3">
     <g id="line2d_3">
      <g>
       <use style="stroke:#000000;stroke-width:0.8;" x="154.996364" xlink:href="#m0ed1290e12" y="307.584"/>
      </g>
     </g>
     <g id="text_3">
      <!-- 50 -->
      <g transform="translate(148.633864 322.182437)scale(0.1 -0.1)">
       <use xlink:href="#DejaVuSans-35"/>
       <use x="63.623047" xlink:href="#DejaVuSans-30"/>
      </g>
     </g>
    </g>
    <g id="xtick_4">
     <g id="line2d_4">
      <g>
       <use style="stroke:#000000;stroke-width:0.8;" x="195.578182" xlink:href="#m0ed1290e12" y="307.584"/>
      </g>
     </g>
     <g id="text_4">
      <!-- 75 -->
      <g transform="translate(189.215682 322.182437)scale(0.1 -0.1)">
       <defs>
        <path d="M 525 4666 
L 3525 4666 
L 3525 4397 
L 1831 0 
L 1172 0 
L 2766 4134 
L 525 4134 
L 525 4666 
z
" id="DejaVuSans-37" transform="scale(0.015625)"/>
       </defs>
       <use xlink:href="#DejaVuSans-37"/>
       <use x="63.623047" xlink:href="#DejaVuSans-35"/>
      </g>
     </g>
    </g>
    <g id="xtick_5">
     <g id="line2d_5">
      <g>
       <use style="stroke:#000000;stroke-width:0.8;" x="236.16" xlink:href="#m0ed1290e12" y="307.584"/>
      </g>
     </g>
     <g id="text_5">
      <!-- 100 -->
      <g transform="translate(226.61625 322.182437)scale(0.1 -0.1)">
       <defs>
        <path d="M 794 531 
L 1825 531 
L 1825 4091 
L 703 3866 
L 703 4441 
L 1819 4666 
L 2450 4666 
L 2450 531 
L 3481 531 
L 3481 0 
L 794 0 
L 794 531 
z
" id="DejaVuSans-31" transform="scale(0.015625)"/>
       </defs>
       <use xlink:href="#DejaVuSans-31"/>
       <use x="63.623047" xlink:href="#DejaVuSans-30"/>
       <use x="127.246094" xlink:href="#DejaVuSans-30"/>
      </g>
     </g>
    </g>
    <g id="xtick_6">
     <g id="line2d_6">
      <g>
       <use style="stroke:#000000;stroke-width:0.8;" x="276.741818" xlink:href="#m0ed1290e12" y="307.584"/>
      </g>
     </g>
     <g id="text_6">
      <!-- 125 -->
      <g transform="translate(267.198068 322.182437)scale(0.1 -0.1)">
       <use xlink:href="#DejaVuSans-31"/>
       <use x="63.623047" xlink:href="#DejaVuSans-32"/>
       <use x="127.246094" xlink:href="#DejaVuSans-35"/>
      </g>
     </g>
    </g>
    <g id="xtick_7">
     <g id="line2d_7">
      <g>
       <use style="stroke:#000000;stroke-width:0.8;" x="317.323636" xlink:href="#m0ed1290e12" y="307.584"/>
      </g>
     </g>
     <g id="text_7">
      <!-- 150 -->
      <g transform="translate(307.779886 322.182437)scale(0.1 -0.1)">
       <use xlink:href="#DejaVuSans-31"/>
       <use x="63.623047" xlink:href="#DejaVuSans-35"/>
       <use x="127.246094" xlink:href="#DejaVuSans-30"/>
      </g>
     </g>
    </g>
    <g id="xtick_8">
     <g id="line2d_8">
      <g>
       <use style="stroke:#000000;stroke-width:0.8;" x="357.905455" xlink:href="#m0ed1290e12" y="307.584"/>
      </g>
     </g>
     <g id="text_8">
      <!-- 175 -->
      <g transform="translate(348.361705 322.182437)scale(0.1 -0.1)">
       <use xlink:href="#DejaVuSans-31"/>
       <use x="63.623047" xlink:href="#DejaVuSans-37"/>
       <use x="127.246094" xlink:href="#DejaVuSans-35"/>
      </g>
     </g>
    </g>
    <g id="xtick_9">
     <g id="line2d_9">
      <g>
       <use style="stroke:#000000;stroke-width:0.8;" x="398.487273" xlink:href="#m0ed1290e12" y="307.584"/>
      </g>
     </g>
     <g id="text_9">
      <!-- 200 -->
      <g transform="translate(388.943523 322.182437)scale(0.1 -0.1)">
       <use xlink:href="#DejaVuSans-32"/>
       <use x="63.623047" xlink:href="#DejaVuSans-30"/>
       <use x="127.246094" xlink:href="#DejaVuSans-30"/>
      </g>
     </g>
    </g>
   </g>
   <g id="matplotlib.axis_2">
    <g id="ytick_1">
     <g id="line2d_10">
      <defs>
       <path d="M 0 0 
L -3.5 0 
" id="m3d8192b595" style="stroke:#000000;stroke-width:0.8;"/>
      </defs>
      <g>
       <use style="stroke:#000000;stroke-width:0.8;" x="57.6" xlink:href="#m3d8192b595" y="298.12486"/>
      </g>
     </g>
     <g id="text_10">
      <!-- −4 -->
      <g transform="translate(35.857813 301.924078)scale(0.1 -0.1)">
       <defs>
        <path d="M 678 2272 
L 4684 2272 
L 4684 1741 
L 678 1741 
L 678 2272 
z
" id="DejaVuSans-2212" transform="scale(0.015625)"/>
        <path d="M 2419 4116 
L 825 1625 
L 2419 1625 
L 2419 4116 
z
M 2253 4666 
L 3047 4666 
L 3047 1625 
L 3713 1625 
L 3713 1100 
L 3047 1100 
L 3047 0 
L 2419 0 
L 2419 1100 
L 313 1100 
L 313 1709 
L 2253 4666 
z
" id="DejaVuSans-34" transform="scale(0.015625)"/>
       </defs>
       <use xlink:href="#DejaVuSans-2212"/>
       <use x="83.789062" xlink:href="#DejaVuSans-34"/>
      </g>
     </g>
    </g>
    <g id="ytick_2">
     <g id="line2d_11">
      <g>
       <use style="stroke:#000000;stroke-width:0.8;" x="57.6" xlink:href="#m3d8192b595" y="267.853346"/>
      </g>
     </g>
     <g id="text_11">
      <!-- −3 -->
      <g transform="translate(35.857813 271.652565)scale(0.1 -0.1)">
       <defs>
        <path d="M 2597 2516 
Q 3050 2419 3304 2112 
Q 3559 1806 3559 1356 
Q 3559 666 3084 287 
Q 2609 -91 1734 -91 
Q 1441 -91 1130 -33 
Q 819 25 488 141 
L 488 750 
Q 750 597 1062 519 
Q 1375 441 1716 441 
Q 2309 441 2620 675 
Q 2931 909 2931 1356 
Q 2931 1769 2642 2001 
Q 2353 2234 1838 2234 
L 1294 2234 
L 1294 2753 
L 1863 2753 
Q 2328 2753 2575 2939 
Q 2822 3125 2822 3475 
Q 2822 3834 2567 4026 
Q 2313 4219 1838 4219 
Q 1578 4219 1281 4162 
Q 984 4106 628 3988 
L 628 4550 
Q 988 4650 1302 4700 
Q 1616 4750 1894 4750 
Q 2613 4750 3031 4423 
Q 3450 4097 3450 3541 
Q 3450 3153 3228 2886 
Q 3006 2619 2597 2516 
z
" id="DejaVuSans-33" transform="scale(0.015625)"/>
       </defs>
       <use xlink:href="#DejaVuSans-2212"/>
       <use x="83.789062" xlink:href="#DejaVuSans-33"/>
      </g>
     </g>
    </g>
    <g id="ytick_3">
     <g id="line2d_12">
      <g>
       <use style="stroke:#000000;stroke-width:0.8;" x="57.6" xlink:href="#m3d8192b595" y="237.581833"/>
      </g>
     </g>
     <g id="text_12">
      <!-- −2 -->
      <g transform="translate(35.857813 241.381052)scale(0.1 -0.1)">
       <use xlink:href="#DejaVuSans-2212"/>
       <use x="83.789062" xlink:href="#DejaVuSans-32"/>
      </g>
     </g>
    </g>
    <g id="ytick_4">
     <g id="line2d_13">
      <g>
       <use style="stroke:#000000;stroke-width:0.8;" x="57.6" xlink:href="#m3d8192b595" y="207.310319"/>
      </g>
     </g>
     <g id="text_13">
      <!-- −1 -->
      <g transform="translate(35.857813 211.109538)scale(0.1 -0.1)">
       <use xlink:href="#DejaVuSans-2212"/>
       <use x="83.789062" xlink:href="#DejaVuSans-31"/>
      </g>
     </g>
    </g>
    <g id="ytick_5">
     <g id="line2d_14">
      <g>
       <use style="stroke:#000000;stroke-width:0.8;" x="57.6" xlink:href="#m3d8192b595" y="177.038806"/>
      </g>
     </g>
     <g id="text_14">
      <!-- 0 -->
      <g transform="translate(44.2375 180.838025)scale(0.1 -0.1)">
       <use xlink:href="#DejaVuSans-30"/>
      </g>
     </g>
    </g>
    <g id="ytick_6">
     <g id="line2d_15">
      <g>
       <use style="stroke:#000000;stroke-width:0.8;" x="57.6" xlink:href="#m3d8192b595" y="146.767293"/>
      </g>
     </g>
     <g id="text_15">
      <!-- 1 -->
      <g transform="translate(44.2375 150.566511)scale(0.1 -0.1)">
       <use xlink:href="#DejaVuSans-31"/>
      </g>
     </g>
    </g>
    <g id="ytick_7">
     <g id="line2d_16">
      <g>
       <use style="stroke:#000000;stroke-width:0.8;" x="57.6" xlink:href="#m3d8192b595" y="116.495779"/>
      </g>
     </g>
     <g id="text_16">
      <!-- 2 -->
      <g transform="translate(44.2375 120.294998)scale(0.1 -0.1)">
       <use xlink:href="#DejaVuSans-32"/>
      </g>
     </g>
    </g>
    <g id="ytick_8">
     <g id="line2d_17">
      <g>
       <use style="stroke:#000000;stroke-width:0.8;" x="57.6" xlink:href="#m3d8192b595" y="86.224266"/>
      </g>
     </g>
     <g id="text_17">
      <!-- 3 -->
      <g transform="translate(44.2375 90.023484)scale(0.1 -0.1)">
       <use xlink:href="#DejaVuSans-33"/>
      </g>
     </g>
    </g>
    <g id="ytick_9">
     <g id="line2d_18">
      <g>
       <use style="stroke:#000000;stroke-width:0.8;" x="57.6" xlink:href="#m3d8192b595" y="55.952752"/>
      </g>
     </g>
     <g id="text_18">
      <!-- 4 -->
      <g transform="translate(44.2375 59.751971)scale(0.1 -0.1)">
       <use xlink:href="#DejaVuSans-34"/>
      </g>
     </g>
    </g>
   </g>
   <g id="line2d_19">
    <path clip-path="url(#pbc6b87dd48)" d="M 73.832727 295.008289 
L 77.079273 294.698402 
L 80.325818 294.144116 
L 81.949091 293.782262 
L 83.572364 293.253299 
L 85.195636 292.424352 
L 86.818909 291.303189 
L 88.442182 289.895979 
L 90.065455 288.20774 
L 91.688727 286.225176 
L 93.312 283.944356 
L 96.558545 278.684414 
L 99.805091 272.878353 
L 103.051636 266.485362 
L 106.298182 259.577613 
L 111.168 248.59216 
L 116.037818 237.533827 
L 117.661091 234.074167 
L 119.284364 230.88241 
L 120.907636 227.963961 
L 122.530909 225.321356 
L 124.154182 222.954774 
L 125.777455 220.84203 
L 127.400727 218.950992 
L 129.024 217.253121 
L 132.270545 214.32353 
L 135.517091 211.777266 
L 140.386909 208.329152 
L 148.503273 202.658843 
L 151.749818 200.191902 
L 154.996364 197.52241 
L 158.242909 194.568744 
L 161.489455 191.138298 
L 164.736 186.994561 
L 171.229091 178.80717 
L 172.852364 176.979079 
L 174.475636 175.509365 
L 176.098909 174.379493 
L 177.722182 173.572091 
L 179.345455 173.07121 
L 180.968727 172.881982 
L 182.592 173.014386 
L 184.215273 173.455651 
L 185.838545 174.194681 
L 189.085091 176.2817 
L 190.708364 177.078225 
L 192.331636 177.62403 
L 193.954909 177.930767 
L 195.578182 178.009057 
L 208.564364 177.77296 
L 224.797091 177.704684 
L 245.899636 177.848052 
L 268.625455 178.234768 
L 288.104727 178.785743 
L 304.337455 179.454961 
L 317.323636 180.181963 
L 325.44 180.77088 
L 327.063273 180.472014 
L 331.933091 178.939106 
L 333.556364 178.337722 
L 335.179636 177.433354 
L 338.426182 175.381069 
L 340.049455 174.566905 
L 341.672727 173.96641 
L 343.296 173.516728 
L 344.919273 173.278499 
L 346.542545 173.313754 
L 348.165818 173.686913 
L 356.282182 176.592392 
L 357.905455 177.191354 
L 359.528727 177.534973 
L 361.152 177.657229 
L 362.775273 177.590614 
L 366.021818 177.071002 
L 374.138182 175.754827 
L 385.501091 174.188444 
L 387.124364 173.977565 
L 388.747636 173.915442 
L 390.370909 174.173503 
L 391.994182 174.739434 
L 393.617455 175.602418 
L 396.864 177.935 
L 398.487273 178.852699 
L 398.487273 178.852699 
" style="fill:none;stroke:#1f77b4;stroke-linecap:square;stroke-width:1.5;"/>
   </g>
   <g id="line2d_20">
    <path clip-path="url(#pbc6b87dd48)" d="M 73.832727 295.488 
L 77.079273 295.158276 
L 80.325818 294.583647 
L 81.949091 294.211454 
L 83.572364 293.673444 
L 85.195636 292.838288 
L 86.818909 291.713482 
L 88.442182 290.304908 
L 90.065455 288.617276 
L 91.688727 286.661681 
L 93.312 284.444314 
L 94.935273 281.955459 
L 96.558545 279.187994 
L 99.805091 272.926928 
L 107.921455 256.42324 
L 114.414545 242.456294 
L 117.661091 235.530236 
L 120.907636 229.303206 
L 122.530909 226.560908 
L 124.154182 224.093959 
L 125.777455 221.895098 
L 127.400727 219.930731 
L 129.024 218.170984 
L 132.270545 215.148667 
L 135.517091 212.551898 
L 138.763636 210.209091 
L 142.010182 208.095894 
L 145.256727 206.222258 
L 148.503273 204.545471 
L 158.242909 199.848019 
L 161.489455 197.837917 
L 164.736 195.558222 
L 169.605818 191.573136 
L 174.475636 188.182837 
L 176.098909 186.744754 
L 177.722182 185.118584 
L 180.968727 181.587408 
L 182.592 180.261985 
L 184.215273 179.316339 
L 185.838545 178.733591 
L 187.461818 178.497877 
L 198.824727 178.263552 
L 211.810909 178.223193 
L 228.043636 178.409717 
L 244.276364 178.812656 
L 260.509091 179.440107 
L 273.495273 180.136742 
L 279.988364 180.658069 
L 281.611636 180.826131 
L 283.234909 180.837064 
L 284.858182 180.539527 
L 289.728 179.011442 
L 291.351273 178.411893 
L 292.974545 177.509501 
L 296.221091 175.461496 
L 297.844364 174.649651 
L 299.467636 174.051615 
L 301.090909 173.604532 
L 302.714182 173.369072 
L 304.337455 173.407299 
L 305.960727 173.783661 
L 314.077091 176.707165 
L 315.700364 177.310094 
L 317.323636 177.657806 
L 318.946909 177.784298 
L 320.570182 177.722067 
L 323.816727 177.211667 
L 331.933091 175.921193 
L 343.296 174.398329 
L 346.542545 173.992222 
L 348.165818 173.938391 
L 349.789091 174.204482 
L 351.412364 174.778217 
L 353.035636 175.648809 
L 356.282182 177.996083 
L 357.905455 178.920903 
L 359.528727 179.594537 
L 361.152 180.02928 
L 362.775273 180.236288 
L 364.398545 180.157432 
L 366.021818 179.771374 
L 370.891636 177.98545 
L 372.514909 177.636664 
L 375.761455 177.611909 
L 377.384727 177.590365 
L 380.631273 177.051694 
L 383.877818 177.152961 
L 385.501091 177.188849 
L 388.747636 176.755241 
L 391.994182 176.950277 
L 393.617455 177.029394 
L 395.240727 176.865494 
L 398.487273 176.216803 
L 398.487273 176.216803 
" style="fill:none;stroke:#ff7f0e;stroke-linecap:square;stroke-width:1.5;"/>
   </g>
   <g id="line2d_21">
    <path clip-path="url(#pbc6b87dd48)" d="M 73.832727 141.796756 
L 81.949091 141.56808 
L 88.442182 141.209862 
L 91.688727 141.005435 
L 94.935273 140.999677 
L 98.181818 141.168849 
L 101.428364 141.506097 
L 104.674909 142.013801 
L 109.544727 143.00856 
L 116.037818 144.587555 
L 125.777455 147.127585 
L 129.024 148.274741 
L 133.893818 150.181447 
L 138.763636 151.813593 
L 148.503273 154.856553 
L 151.749818 156.258111 
L 154.996364 158.004312 
L 158.242909 159.687268 
L 161.489455 160.998867 
L 164.736 162.135795 
L 166.359273 162.878398 
L 167.982545 163.800515 
L 169.605818 164.90033 
L 172.852364 167.416247 
L 174.475636 168.40906 
L 179.345455 171.060563 
L 180.968727 172.005541 
L 185.838545 174.300607 
L 189.085091 176.271155 
L 190.708364 177.004351 
L 192.331636 177.489255 
L 193.954909 177.737256 
L 195.578182 177.758726 
L 206.941091 177.181465 
L 223.173818 176.615635 
L 271.872 175.080664 
L 288.104727 174.289312 
L 292.974545 174.000142 
L 294.597818 174.044947 
L 296.221091 174.405975 
L 297.844364 175.071413 
L 299.467636 176.030853 
L 302.714182 178.490866 
L 304.337455 179.310127 
L 305.960727 179.738956 
L 307.584 179.781611 
L 310.830545 179.054812 
L 312.453818 178.955435 
L 315.700364 178.924726 
L 317.323636 178.646856 
L 318.946909 178.018155 
L 320.570182 177.086686 
L 323.816727 174.9809 
L 325.44 174.140085 
L 327.063273 173.512797 
L 328.686545 173.036121 
L 330.309818 172.770467 
L 331.933091 172.77761 
L 333.556364 173.121724 
L 341.672727 175.875552 
L 344.919273 177.069264 
L 348.165818 177.849534 
L 351.412364 178.228942 
L 370.891636 179.961463 
L 379.008 180.791649 
L 380.631273 180.997376 
L 382.254545 181.044959 
L 383.877818 180.783335 
L 388.747636 179.358819 
L 390.370909 178.792643 
L 391.994182 177.92339 
L 395.240727 175.9408 
L 396.864 175.16146 
L 398.487273 174.596023 
L 398.487273 174.596023 
" style="fill:none;stroke:#2ca02c;stroke-linecap:square;stroke-width:1.5;"/>
   </g>
   <g id="line2d_22">
    <path clip-path="url(#pbc6b87dd48)" d="M 73.832727 154.18429 
L 75.456 154.260352 
L 77.079273 154.524687 
L 78.702545 154.950458 
L 80.325818 155.51647 
L 85.195636 157.564348 
L 88.442182 158.686083 
L 99.805091 162.262213 
L 101.428364 163.015441 
L 103.051636 163.948592 
L 104.674909 165.059871 
L 107.921455 167.599585 
L 109.544727 168.603876 
L 114.414545 171.289793 
L 116.037818 172.222687 
L 117.661091 172.890501 
L 119.284364 173.304966 
L 120.907636 173.477068 
L 124.154182 173.379519 
L 125.777455 173.659268 
L 127.400727 174.244189 
L 129.024 175.123735 
L 132.270545 177.483387 
L 133.893818 178.412061 
L 135.517091 179.087983 
L 137.140364 179.523436 
L 138.763636 179.72959 
L 148.503273 180.31457 
L 154.996364 180.7733 
L 156.619636 180.472665 
L 161.489455 178.934873 
L 163.112727 178.331976 
L 164.736 177.426141 
L 167.982545 175.371045 
L 169.605818 174.555524 
L 171.229091 173.953695 
L 172.852364 173.502698 
L 174.475636 173.263164 
L 176.098909 173.297114 
L 177.722182 173.668958 
L 185.838545 176.567879 
L 187.461818 177.165521 
L 189.085091 177.507812 
L 190.708364 177.628727 
L 192.331636 177.560754 
L 195.578182 177.038369 
L 203.694545 175.714847 
L 215.057455 174.136717 
L 216.680727 173.923981 
L 218.304 173.859921 
L 219.927273 174.11593 
L 221.550545 174.679697 
L 223.173818 175.540412 
L 226.420364 177.86821 
L 228.043636 178.783411 
L 229.666909 179.447434 
L 231.290182 179.872525 
L 232.913455 180.069797 
L 239.406545 180.500936 
L 241.029818 180.647942 
L 242.653091 180.63814 
L 244.276364 180.319994 
L 249.146182 178.731159 
L 250.769455 178.111662 
L 252.392727 177.189279 
L 255.639273 175.101327 
L 257.262545 174.269347 
L 258.885818 173.65091 
L 260.509091 173.18312 
L 262.132364 172.926463 
L 263.755636 172.942799 
L 265.378909 173.296382 
L 273.495273 176.099324 
L 276.741818 177.313566 
L 279.988364 178.115025 
L 283.234909 178.516501 
L 309.207273 181.092772 
L 310.830545 180.840273 
L 315.700364 179.441999 
L 317.323636 178.884257 
L 318.946909 178.023371 
L 322.193455 176.057276 
L 323.816727 175.28611 
L 325.44 174.72885 
L 327.063273 174.322749 
L 328.686545 174.128787 
L 330.309818 174.209362 
L 331.933091 174.62923 
L 341.672727 178.377006 
L 343.296 178.598434 
L 344.919273 178.459295 
L 346.542545 177.974027 
L 351.412364 175.556873 
L 353.035636 175.05498 
L 354.658909 174.738575 
L 357.905455 174.552181 
L 370.891636 174.033327 
L 372.514909 173.950684 
L 374.138182 174.011462 
L 375.761455 174.387689 
L 377.384727 175.067637 
L 379.008 176.040978 
L 382.254545 178.527212 
L 383.877818 179.358917 
L 385.501091 179.799837 
L 387.124364 179.854296 
L 388.747636 179.524625 
L 390.370909 178.84885 
L 395.240727 176.107541 
L 396.864 175.501142 
L 398.487273 175.079135 
L 398.487273 175.079135 
" style="fill:none;stroke:#d62728;stroke-linecap:square;stroke-width:1.5;"/>
   </g>
   <g id="line2d_23">
    <path clip-path="url(#pbc6b87dd48)" d="M 73.832727 175.625918 
L 86.818909 175.577482 
L 101.428364 175.304831 
L 116.037818 174.826245 
L 130.647273 174.126158 
L 133.893818 173.936281 
L 135.517091 173.983604 
L 137.140364 174.346835 
L 138.763636 175.014185 
L 140.386909 175.97528 
L 143.633455 178.437957 
L 145.256727 179.258248 
L 146.88 179.687895 
L 148.503273 179.731157 
L 151.749818 179.005017 
L 153.373091 178.905795 
L 156.619636 178.87504 
L 158.242909 178.596943 
L 159.866182 177.967875 
L 161.489455 177.035912 
L 164.736 174.928831 
L 166.359273 174.087202 
L 167.982545 173.458978 
L 169.605818 172.981248 
L 171.229091 172.714405 
L 172.852364 172.720202 
L 174.475636 173.062795 
L 182.592 175.80751 
L 185.838545 176.996966 
L 189.085091 177.772642 
L 192.331636 178.147082 
L 210.187636 179.702451 
L 219.927273 180.609229 
L 223.173818 181.003028 
L 224.797091 181.048695 
L 226.420364 180.785247 
L 231.290182 179.355717 
L 232.913455 178.787995 
L 234.536727 177.917244 
L 237.783273 175.931793 
L 239.406545 175.151077 
L 241.029818 174.584292 
L 242.653091 174.168661 
L 244.276364 173.965098 
L 245.899636 174.035929 
L 247.522909 174.445848 
L 257.262545 178.131773 
L 258.885818 178.342329 
L 260.509091 178.192011 
L 262.132364 177.695249 
L 267.002182 175.241992 
L 268.625455 174.727456 
L 270.248727 174.398015 
L 273.495273 174.184299 
L 278.365091 173.975819 
L 279.988364 174.045135 
L 281.611636 174.429664 
L 283.234909 175.117713 
L 284.858182 176.098975 
L 288.104727 178.600572 
L 289.728 179.439785 
L 291.351273 179.888171 
L 292.974545 179.9501 
L 294.597818 179.627935 
L 296.221091 178.95971 
L 301.090909 176.24108 
L 302.714182 175.642274 
L 307.584 174.43458 
L 309.207273 174.134985 
L 310.830545 173.953404 
L 312.453818 173.994336 
L 314.077091 174.351476 
L 315.700364 175.013003 
L 317.323636 175.968511 
L 320.570182 178.420627 
L 322.193455 179.235895 
L 323.816727 179.660654 
L 325.44 179.699135 
L 328.686545 178.963701 
L 330.309818 178.859994 
L 333.556364 178.820491 
L 335.179636 178.538071 
L 336.802909 177.904678 
L 338.426182 176.968395 
L 341.672727 174.852702 
L 343.296 174.006734 
L 344.919273 173.374111 
L 346.542545 172.891916 
L 348.165818 172.620497 
L 349.789091 172.621562 
L 351.412364 172.95922 
L 359.528727 175.677813 
L 362.775273 176.856165 
L 366.021818 177.620311 
L 369.268364 177.982681 
L 385.501091 179.32953 
L 398.487273 180.42087 
L 398.487273 180.42087 
" style="fill:none;stroke:#9467bd;stroke-linecap:square;stroke-width:1.5;"/>
   </g>
   <g id="line2d_24">
    <path clip-path="url(#pbc6b87dd48)" d="M 73.832727 53.663746 
L 77.079273 53.568 
L 80.325818 53.709666 
L 83.572364 54.068992 
L 86.818909 54.626566 
L 90.065455 55.363338 
L 94.935273 56.763744 
L 99.805091 58.463934 
L 104.674909 60.404249 
L 111.168 63.265289 
L 120.907636 67.880817 
L 133.893818 74.025823 
L 140.386909 76.87152 
L 146.88 79.463656 
L 151.749818 81.208242 
L 156.619636 82.763697 
L 161.489455 84.119919 
L 166.359273 85.272148 
L 171.229091 86.220473 
L 176.098909 86.969255 
L 180.968727 87.526509 
L 185.838545 87.903279 
L 192.331636 88.148425 
L 198.824727 88.133578 
L 205.317818 87.89904 
L 213.434182 87.360781 
L 223.173818 86.46229 
L 239.406545 84.684452 
L 255.639273 82.970758 
L 267.002182 81.985425 
L 278.365091 81.243648 
L 289.728 80.760674 
L 301.090909 80.521142 
L 314.077091 80.49785 
L 328.686545 80.702666 
L 354.658909 81.342801 
L 382.254545 81.960067 
L 398.487273 82.175737 
L 398.487273 82.175737 
" style="fill:none;stroke:#8c564b;stroke-linecap:square;stroke-width:1.5;"/>
   </g>
   <g id="line2d_25">
    <path clip-path="url(#pbc6b87dd48)" d="M 73.832727 266.344818 
L 75.456 266.426512 
L 77.079273 266.819511 
L 78.702545 267.470882 
L 80.325818 268.325697 
L 81.949091 269.328114 
L 83.572364 270.553501 
L 85.195636 272.069779 
L 90.065455 277.02639 
L 96.558545 282.994517 
L 99.805091 285.148279 
L 103.051636 287.382395 
L 107.921455 290.910344 
L 109.544727 291.605586 
L 111.168 291.958964 
L 112.791273 292.013224 
L 114.414545 291.811193 
L 116.037818 291.337959 
L 117.661091 290.551998 
L 119.284364 289.462366 
L 120.907636 288.076591 
L 122.530909 286.401137 
L 124.154182 284.435325 
L 125.777455 282.175636 
L 127.400727 279.633392 
L 129.024 276.832256 
L 132.270545 270.643409 
L 140.386909 254.484035 
L 151.749818 231.281548 
L 153.373091 228.468397 
L 154.996364 225.903761 
L 156.619636 223.6034 
L 158.242909 221.555037 
L 159.866182 219.727135 
L 161.489455 218.091682 
L 164.736 215.288059 
L 167.982545 212.880897 
L 171.229091 210.709775 
L 174.475636 208.755701 
L 177.722182 207.031242 
L 180.968727 205.496986 
L 190.708364 201.233427 
L 193.954909 199.396378 
L 197.201455 197.348974 
L 200.448 194.930815 
L 202.071273 193.514228 
L 206.941091 188.630114 
L 211.810909 183.859932 
L 213.434182 182.371335 
L 215.057455 181.046438 
L 216.680727 179.895841 
L 218.304 178.93113 
L 219.927273 178.164962 
L 221.550545 177.677263 
L 223.173818 177.477184 
L 226.420364 177.246843 
L 229.666909 176.47406 
L 232.913455 176.354516 
L 234.536727 176.284035 
L 237.783273 175.644066 
L 241.029818 175.638259 
L 242.653091 175.618538 
L 244.276364 175.356744 
L 249.146182 174.031251 
L 250.769455 173.693689 
L 252.392727 173.474478 
L 254.016 173.477794 
L 255.639273 173.797031 
L 257.262545 174.420301 
L 258.885818 175.337209 
L 262.132364 177.768959 
L 263.755636 178.732506 
L 265.378909 179.442747 
L 267.002182 179.912138 
L 268.625455 180.152008 
L 275.118545 180.739607 
L 276.741818 180.922947 
L 278.365091 180.948829 
L 279.988364 180.66604 
L 284.858182 179.180928 
L 286.481455 178.595353 
L 288.104727 177.706902 
L 291.351273 175.686582 
L 292.974545 174.888585 
L 294.597818 174.3045 
L 296.221091 173.871506 
L 297.844364 173.650386 
L 299.467636 173.703329 
L 301.090909 174.094901 
L 310.830545 177.665942 
L 312.453818 177.856274 
L 314.077091 177.685203 
L 315.700364 177.167147 
L 320.570182 174.647071 
L 322.193455 174.109004 
L 323.816727 173.755226 
L 325.44 173.577101 
L 327.063273 173.637536 
L 328.686545 174.012114 
L 330.309818 174.689198 
L 331.933091 175.658587 
L 335.179636 178.191728 
L 336.802909 179.204432 
L 338.426182 179.963144 
L 340.049455 180.480578 
L 341.672727 180.76829 
L 343.296 180.768661 
L 344.919273 180.460746 
L 349.789091 178.902597 
L 351.412364 178.293324 
L 353.035636 177.381264 
L 356.282182 175.31413 
L 357.905455 174.492744 
L 359.528727 173.885112 
L 361.152 173.428354 
L 362.775273 173.183061 
L 364.398545 173.211207 
L 366.021818 173.577159 
L 374.138182 176.446236 
L 375.761455 177.0378 
L 377.384727 177.373957 
L 379.008 177.488657 
L 380.631273 177.414375 
L 385.501091 176.611473 
L 390.370909 175.922021 
L 398.487273 174.98089 
L 398.487273 174.98089 
" style="fill:none;stroke:#e377c2;stroke-linecap:square;stroke-width:1.5;"/>
   </g>
   <g id="line2d_26">
    <path clip-path="url(#pbc6b87dd48)" d="M 73.832727 113.240131 
L 77.079273 113.335937 
L 80.325818 113.178604 
L 83.572364 112.789112 
L 86.818909 112.187912 
L 90.065455 111.394935 
L 93.312 110.429621 
L 98.181818 108.699961 
L 103.051636 106.687664 
L 107.921455 104.453417 
L 114.414545 101.230748 
L 140.386909 87.975279 
L 146.88 85.097508 
L 151.749818 83.150856 
L 156.619636 81.406988 
L 161.489455 79.878305 
L 166.359273 78.57128 
L 171.229091 77.486953 
L 176.098909 76.621555 
L 180.968727 75.967168 
L 185.838545 75.512424 
L 190.708364 75.243184 
L 197.201455 75.144411 
L 203.694545 75.303798 
L 210.187636 75.676236 
L 218.304 76.371792 
L 229.666909 77.621088 
L 260.509091 81.188316 
L 271.872 82.179916 
L 281.611636 82.811508 
L 291.351273 83.236037 
L 302.714182 83.487283 
L 314.077091 83.515118 
L 328.686545 83.309254 
L 351.412364 82.713079 
L 382.254545 81.936343 
L 398.487273 81.691552 
L 398.487273 81.691552 
" style="fill:none;stroke:#7f7f7f;stroke-linecap:square;stroke-width:1.5;"/>
   </g>
   <g id="line2d_27">
    <path clip-path="url(#pbc6b87dd48)" d="M 73.832727 273.114097 
L 75.456 273.288368 
L 77.079273 273.850831 
L 78.702545 274.767889 
L 80.325818 276.002381 
L 83.572364 279.152474 
L 88.442182 283.872503 
L 90.065455 285.370763 
L 91.688727 286.648336 
L 93.312 287.512995 
L 94.935273 288.012428 
L 96.558545 288.192734 
L 98.181818 288.100516 
L 103.051636 287.257771 
L 106.298182 286.633213 
L 107.921455 286.180592 
L 109.544727 285.394985 
L 111.168 284.290508 
L 112.791273 282.884645 
L 114.414545 281.199009 
L 116.037818 279.219283 
L 117.661091 276.915478 
L 119.284364 274.304774 
L 120.907636 271.418171 
L 124.154182 265.175496 
L 125.777455 262.333144 
L 127.400727 259.796293 
L 129.024 257.586994 
L 130.647273 255.722066 
L 132.270545 254.182848 
L 133.893818 252.910482 
L 135.517091 251.8467 
L 138.763636 250.132062 
L 140.386909 249.46932 
L 142.010182 249.020219 
L 143.633455 248.774864 
L 145.256727 248.724249 
L 146.88 248.860229 
L 148.503273 249.187302 
L 150.126545 249.712872 
L 151.749818 250.430472 
L 153.373091 251.334428 
L 156.619636 253.619787 
L 161.489455 257.423316 
L 164.736 260.168678 
L 166.359273 261.758853 
L 169.605818 265.426651 
L 172.852364 269.639078 
L 180.968727 280.347766 
L 184.215273 283.96974 
L 185.838545 285.530363 
L 187.461818 286.930372 
L 189.085091 288.051597 
L 190.708364 288.77154 
L 192.331636 289.136633 
L 193.954909 289.191617 
L 195.578182 288.981727 
L 197.201455 288.490897 
L 198.824727 287.675033 
L 200.448 286.544385 
L 202.071273 285.107952 
L 203.694545 283.373963 
L 205.317818 281.343536 
L 206.941091 279.015265 
L 208.564364 276.403565 
L 211.810909 270.447101 
L 215.057455 263.740815 
L 218.304 256.477695 
L 224.797091 241.667563 
L 228.043636 234.847169 
L 229.666909 231.786264 
L 231.290182 228.9932 
L 232.913455 226.465336 
L 234.536727 224.198167 
L 236.16 222.185491 
L 237.783273 220.401041 
L 241.029818 217.354145 
L 244.276364 214.835706 
L 247.522909 212.623807 
L 250.769455 210.678941 
L 254.016 209.21004 
L 258.885818 206.927368 
L 263.755636 204.696956 
L 270.248727 201.919719 
L 273.495273 200.202157 
L 276.741818 198.242452 
L 279.988364 196.023027 
L 281.611636 194.74306 
L 283.234909 193.315623 
L 288.104727 188.38138 
L 292.974545 183.554376 
L 294.597818 182.046842 
L 296.221091 180.703187 
L 297.844364 179.533947 
L 299.467636 178.550637 
L 301.090909 177.765835 
L 302.714182 177.183446 
L 304.337455 176.79531 
L 305.960727 176.592507 
L 307.584 176.566915 
L 310.830545 176.941608 
L 318.946909 177.965816 
L 331.933091 179.340755 
L 346.542545 180.894703 
L 348.165818 181.115191 
L 349.789091 181.177294 
L 351.412364 180.930092 
L 356.282182 179.548022 
L 357.905455 179.027892 
L 362.775273 176.720392 
L 364.398545 176.249454 
L 374.138182 174.708399 
L 379.008 174.007913 
L 380.631273 173.927165 
L 382.254545 174.167411 
L 383.877818 174.716241 
L 385.501091 175.562753 
L 388.747636 177.864032 
L 390.370909 178.766785 
L 391.994182 179.418827 
L 393.617455 179.832344 
L 395.240727 180.018398 
L 398.487273 180.162464 
L 398.487273 180.162464 
" style="fill:none;stroke:#bcbd22;stroke-linecap:square;stroke-width:1.5;"/>
   </g>
   <g id="line2d_28">
    <path clip-path="url(#pbc6b87dd48)" d="M 73.832727 74.969252 
L 80.325818 75.2765 
L 88.442182 75.924172 
L 98.181818 76.96837 
L 116.037818 79.191046 
L 130.647273 80.90075 
L 142.010182 81.986426 
L 151.749818 82.696047 
L 161.489455 83.190366 
L 171.229091 83.478478 
L 182.592 83.585363 
L 195.578182 83.469546 
L 213.434182 83.051644 
L 258.885818 81.860871 
L 279.988364 81.602677 
L 302.714182 81.559283 
L 338.426182 81.756683 
L 390.370909 82.011548 
L 398.487273 82.023514 
L 398.487273 82.023514 
" style="fill:none;stroke:#17becf;stroke-linecap:square;stroke-width:1.5;"/>
   </g>
   <g id="patch_3">
    <path d="M 57.6 307.584 
L 57.6 41.472 
" style="fill:none;stroke:#000000;stroke-linecap:square;stroke-linejoin:miter;stroke-width:0.8;"/>
   </g>
   <g id="patch_4">
    <path d="M 414.72 307.584 
L 414.72 41.472 
" style="fill:none;stroke:#000000;stroke-linecap:square;stroke-linejoin:miter;stroke-width:0.8;"/>
   </g>
   <g id="patch_5">
    <path d="M 57.6 307.584 
L 414.72 307.584 
" style="fill:none;stroke:#000000;stroke-linecap:square;stroke-linejoin:miter;stroke-width:0.8;"/>
   </g>
   <g id="patch_6">
    <path d="M 57.6 41.472 
L 414.72 41.472 
" style="fill:none;stroke:#000000;stroke-linecap:square;stroke-linejoin:miter;stroke-width:0.8;"/>
   </g>
   <g id="legend_1">
    <g id="patch_7">
     <path d="M 64.6 249.418625 
L 109.325 249.418625 
Q 111.325 249.418625 111.325 247.418625 
L 111.325 101.637375 
Q 111.325 99.637375 109.325 99.637375 
L 64.6 99.637375 
Q 62.6 99.637375 62.6 101.637375 
L 62.6 247.418625 
Q 62.6 249.418625 64.6 249.418625 
z
" style="fill:#ffffff;opacity:0.8;stroke:#cccccc;stroke-linejoin:miter;"/>
    </g>
    <g id="line2d_29">
     <path d="M 66.6 107.735813 
L 86.6 107.735813 
" style="fill:none;stroke:#1f77b4;stroke-linecap:square;stroke-width:1.5;"/>
    </g>
    <g id="line2d_30"/>
    <g id="text_19">
     <!-- 90 -->
     <g transform="translate(94.6 111.235813)scale(0.1 -0.1)">
      <defs>
       <path d="M 703 97 
L 703 672 
Q 941 559 1184 500 
Q 1428 441 1663 441 
Q 2288 441 2617 861 
Q 2947 1281 2994 2138 
Q 2813 1869 2534 1725 
Q 2256 1581 1919 1581 
Q 1219 1581 811 2004 
Q 403 2428 403 3163 
Q 403 3881 828 4315 
Q 1253 4750 1959 4750 
Q 2769 4750 3195 4129 
Q 3622 3509 3622 2328 
Q 3622 1225 3098 567 
Q 2575 -91 1691 -91 
Q 1453 -91 1209 -44 
Q 966 3 703 97 
z
M 1959 2075 
Q 2384 2075 2632 2365 
Q 2881 2656 2881 3163 
Q 2881 3666 2632 3958 
Q 2384 4250 1959 4250 
Q 1534 4250 1286 3958 
Q 1038 3666 1038 3163 
Q 1038 2656 1286 2365 
Q 1534 2075 1959 2075 
z
" id="DejaVuSans-39" transform="scale(0.015625)"/>
      </defs>
      <use xlink:href="#DejaVuSans-39"/>
      <use x="63.623047" xlink:href="#DejaVuSans-30"/>
     </g>
    </g>
    <g id="line2d_31">
     <path d="M 66.6 122.413938 
L 86.6 122.413938 
" style="fill:none;stroke:#ff7f0e;stroke-linecap:square;stroke-width:1.5;"/>
    </g>
    <g id="line2d_32"/>
    <g id="text_20">
     <!-- 91 -->
     <g transform="translate(94.6 125.913938)scale(0.1 -0.1)">
      <use xlink:href="#DejaVuSans-39"/>
      <use x="63.623047" xlink:href="#DejaVuSans-31"/>
     </g>
    </g>
    <g id="line2d_33">
     <path d="M 66.6 137.092063 
L 86.6 137.092063 
" style="fill:none;stroke:#2ca02c;stroke-linecap:square;stroke-width:1.5;"/>
    </g>
    <g id="line2d_34"/>
    <g id="text_21">
     <!-- 92 -->
     <g transform="translate(94.6 140.592063)scale(0.1 -0.1)">
      <use xlink:href="#DejaVuSans-39"/>
      <use x="63.623047" xlink:href="#DejaVuSans-32"/>
     </g>
    </g>
    <g id="line2d_35">
     <path d="M 66.6 151.770188 
L 86.6 151.770188 
" style="fill:none;stroke:#d62728;stroke-linecap:square;stroke-width:1.5;"/>
    </g>
    <g id="line2d_36"/>
    <g id="text_22">
     <!-- 93 -->
     <g transform="translate(94.6 155.270188)scale(0.1 -0.1)">
      <use xlink:href="#DejaVuSans-39"/>
      <use x="63.623047" xlink:href="#DejaVuSans-33"/>
     </g>
    </g>
    <g id="line2d_37">
     <path d="M 66.6 166.448313 
L 86.6 166.448313 
" style="fill:none;stroke:#9467bd;stroke-linecap:square;stroke-width:1.5;"/>
    </g>
    <g id="line2d_38"/>
    <g id="text_23">
     <!-- 94 -->
     <g transform="translate(94.6 169.948313)scale(0.1 -0.1)">
      <use xlink:href="#DejaVuSans-39"/>
      <use x="63.623047" xlink:href="#DejaVuSans-34"/>
     </g>
    </g>
    <g id="line2d_39">
     <path d="M 66.6 181.126438 
L 86.6 181.126438 
" style="fill:none;stroke:#8c564b;stroke-linecap:square;stroke-width:1.5;"/>
    </g>
    <g id="line2d_40"/>
    <g id="text_24">
     <!-- 95 -->
     <g transform="translate(94.6 184.626438)scale(0.1 -0.1)">
      <use xlink:href="#DejaVuSans-39"/>
      <use x="63.623047" xlink:href="#DejaVuSans-35"/>
     </g>
    </g>
    <g id="line2d_41">
     <path d="M 66.6 195.804563 
L 86.6 195.804563 
" style="fill:none;stroke:#e377c2;stroke-linecap:square;stroke-width:1.5;"/>
    </g>
    <g id="line2d_42"/>
    <g id="text_25">
     <!-- 96 -->
     <g transform="translate(94.6 199.304563)scale(0.1 -0.1)">
      <defs>
       <path d="M 2113 2584 
Q 1688 2584 1439 2293 
Q 1191 2003 1191 1497 
Q 1191 994 1439 701 
Q 1688 409 2113 409 
Q 2538 409 2786 701 
Q 3034 994 3034 1497 
Q 3034 2003 2786 2293 
Q 2538 2584 2113 2584 
z
M 3366 4563 
L 3366 3988 
Q 3128 4100 2886 4159 
Q 2644 4219 2406 4219 
Q 1781 4219 1451 3797 
Q 1122 3375 1075 2522 
Q 1259 2794 1537 2939 
Q 1816 3084 2150 3084 
Q 2853 3084 3261 2657 
Q 3669 2231 3669 1497 
Q 3669 778 3244 343 
Q 2819 -91 2113 -91 
Q 1303 -91 875 529 
Q 447 1150 447 2328 
Q 447 3434 972 4092 
Q 1497 4750 2381 4750 
Q 2619 4750 2861 4703 
Q 3103 4656 3366 4563 
z
" id="DejaVuSans-36" transform="scale(0.015625)"/>
      </defs>
      <use xlink:href="#DejaVuSans-39"/>
      <use x="63.623047" xlink:href="#DejaVuSans-36"/>
     </g>
    </g>
    <g id="line2d_43">
     <path d="M 66.6 210.482687 
L 86.6 210.482687 
" style="fill:none;stroke:#7f7f7f;stroke-linecap:square;stroke-width:1.5;"/>
    </g>
    <g id="line2d_44"/>
    <g id="text_26">
     <!-- 97 -->
     <g transform="translate(94.6 213.982687)scale(0.1 -0.1)">
      <use xlink:href="#DejaVuSans-39"/>
      <use x="63.623047" xlink:href="#DejaVuSans-37"/>
     </g>
    </g>
    <g id="line2d_45">
     <path d="M 66.6 225.160813 
L 86.6 225.160813 
" style="fill:none;stroke:#bcbd22;stroke-linecap:square;stroke-width:1.5;"/>
    </g>
    <g id="line2d_46"/>
    <g id="text_27">
     <!-- 98 -->
     <g transform="translate(94.6 228.660813)scale(0.1 -0.1)">
      <defs>
       <path d="M 2034 2216 
Q 1584 2216 1326 1975 
Q 1069 1734 1069 1313 
Q 1069 891 1326 650 
Q 1584 409 2034 409 
Q 2484 409 2743 651 
Q 3003 894 3003 1313 
Q 3003 1734 2745 1975 
Q 2488 2216 2034 2216 
z
M 1403 2484 
Q 997 2584 770 2862 
Q 544 3141 544 3541 
Q 544 4100 942 4425 
Q 1341 4750 2034 4750 
Q 2731 4750 3128 4425 
Q 3525 4100 3525 3541 
Q 3525 3141 3298 2862 
Q 3072 2584 2669 2484 
Q 3125 2378 3379 2068 
Q 3634 1759 3634 1313 
Q 3634 634 3220 271 
Q 2806 -91 2034 -91 
Q 1263 -91 848 271 
Q 434 634 434 1313 
Q 434 1759 690 2068 
Q 947 2378 1403 2484 
z
M 1172 3481 
Q 1172 3119 1398 2916 
Q 1625 2713 2034 2713 
Q 2441 2713 2670 2916 
Q 2900 3119 2900 3481 
Q 2900 3844 2670 4047 
Q 2441 4250 2034 4250 
Q 1625 4250 1398 4047 
Q 1172 3844 1172 3481 
z
" id="DejaVuSans-38" transform="scale(0.015625)"/>
      </defs>
      <use xlink:href="#DejaVuSans-39"/>
      <use x="63.623047" xlink:href="#DejaVuSans-38"/>
     </g>
    </g>
    <g id="line2d_47">
     <path d="M 66.6 239.838937 
L 86.6 239.838937 
" style="fill:none;stroke:#17becf;stroke-linecap:square;stroke-width:1.5;"/>
    </g>
    <g id="line2d_48"/>
    <g id="text_28">
     <!-- 99 -->
     <g transform="translate(94.6 243.338937)scale(0.1 -0.1)">
      <use xlink:href="#DejaVuSans-39"/>
      <use x="63.623047" xlink:href="#DejaVuSans-39"/>
     </g>
    </g>
   </g>
  </g>
 </g>
 <defs>
  <clipPath id="pbc6b87dd48">
   <rect height="266.112" width="357.12" x="57.6" y="41.472"/>
  </clipPath>
 </defs>
</svg>
