<?xml version="1.0" encoding="utf-8" standalone="no"?>
<!DOCTYPE svg PUBLIC "-//W3C//DTD SVG 1.1//EN"
  "http://www.w3.org/Graphics/SVG/1.1/DTD/svg11.dtd">
<svg height="345.6pt" version="1.1" viewBox="0 0 460.8 345.6" width="460.8pt" xmlns="http://www.w3.org/2000/svg" xmlns:xlink="http://www.w3.org/1999/xlink">
 <metadata>
  <rdf:RDF xmlns:cc="http://creativecommons.org/ns#" xmlns:dc="http://purl.org/dc/elements/1.1/" xmlns:rdf="http://www.w3.org/1999/02/22-rdf-syntax-ns#">
   <cc:Work>
    <dc:type rdf:resource="http://purl.org/dc/dcmitype/StillImage"/>
    <dc:date>2021-08-18T15:09:47.316413</dc:date>
    <dc:format>image/svg+xml</dc:format>
    <dc:creator>
     <cc:Agent>
      <dc:title>Matplotlib v3.4.2, https://matplotlib.org/</dc:title>
     </cc:Agent>
    </dc:creator>
   </cc:Work>
  </rdf:RDF>
 </metadata>
 <defs>
  <style type="text/css">*{stroke-linecap:butt;stroke-linejoin:round;}</style>
 </defs>
 <g id="figure_1">
  <g id="patch_1">
   <path d="M 0 345.6 
L 460.8 345.6 
L 460.8 0 
L 0 0 
z
" style="fill:#ffffff;"/>
  </g>
  <g id="axes_1">
   <g id="patch_2">
    <path d="M 57.6 307.584 
L 414.72 307.584 
L 414.72 41.472 
L 57.6 41.472 
z
" style="fill:#ffffff;"/>
   </g>
   <g id="matplotlib.axis_1">
    <g id="xtick_1">
     <g id="line2d_1">
      <defs>
       <path d="M 0 0 
L 0 3.5 
" id="m0037ae6c5a" style="stroke:#000000;stroke-width:0.8;"/>
      </defs>
      <g>
       <use style="stroke:#000000;stroke-width:0.8;" x="73.832727" xlink:href="#m0037ae6c5a" y="307.584"/>
      </g>
     </g>
     <g id="text_1">
      <!-- 0 -->
      <g transform="translate(70.651477 322.182437)scale(0.1 -0.1)">
       <defs>
        <path d="M 2034 4250 
Q 1547 4250 1301 3770 
Q 1056 3291 1056 2328 
Q 1056 1369 1301 889 
Q 1547 409 2034 409 
Q 2525 409 2770 889 
Q 3016 1369 3016 2328 
Q 3016 3291 2770 3770 
Q 2525 4250 2034 4250 
z
M 2034 4750 
Q 2819 4750 3233 4129 
Q 3647 3509 3647 2328 
Q 3647 1150 3233 529 
Q 2819 -91 2034 -91 
Q 1250 -91 836 529 
Q 422 1150 422 2328 
Q 422 3509 836 4129 
Q 1250 4750 2034 4750 
z
" id="DejaVuSans-30" transform="scale(0.015625)"/>
       </defs>
       <use xlink:href="#DejaVuSans-30"/>
      </g>
     </g>
    </g>
    <g id="xtick_2">
     <g id="line2d_2">
      <g>
       <use style="stroke:#000000;stroke-width:0.8;" x="114.414545" xlink:href="#m0037ae6c5a" y="307.584"/>
      </g>
     </g>
     <g id="text_2">
      <!-- 25 -->
      <g transform="translate(108.052045 322.182437)scale(0.1 -0.1)">
       <defs>
        <path d="M 1228 531 
L 3431 531 
L 3431 0 
L 469 0 
L 469 531 
Q 828 903 1448 1529 
Q 2069 2156 2228 2338 
Q 2531 2678 2651 2914 
Q 2772 3150 2772 3378 
Q 2772 3750 2511 3984 
Q 2250 4219 1831 4219 
Q 1534 4219 1204 4116 
Q 875 4013 500 3803 
L 500 4441 
Q 881 4594 1212 4672 
Q 1544 4750 1819 4750 
Q 2544 4750 2975 4387 
Q 3406 4025 3406 3419 
Q 3406 3131 3298 2873 
Q 3191 2616 2906 2266 
Q 2828 2175 2409 1742 
Q 1991 1309 1228 531 
z
" id="DejaVuSans-32" transform="scale(0.015625)"/>
        <path d="M 691 4666 
L 3169 4666 
L 3169 4134 
L 1269 4134 
L 1269 2991 
Q 1406 3038 1543 3061 
Q 1681 3084 1819 3084 
Q 2600 3084 3056 2656 
Q 3513 2228 3513 1497 
Q 3513 744 3044 326 
Q 2575 -91 1722 -91 
Q 1428 -91 1123 -41 
Q 819 9 494 109 
L 494 744 
Q 775 591 1075 516 
Q 1375 441 1709 441 
Q 2250 441 2565 725 
Q 2881 1009 2881 1497 
Q 2881 1984 2565 2268 
Q 2250 2553 1709 2553 
Q 1456 2553 1204 2497 
Q 953 2441 691 2322 
L 691 4666 
z
" id="DejaVuSans-35" transform="scale(0.015625)"/>
       </defs>
       <use xlink:href="#DejaVuSans-32"/>
       <use x="63.623047" xlink:href="#DejaVuSans-35"/>
      </g>
     </g>
    </g>
    <g id="xtick_3">
     <g id="line2d_3">
      <g>
       <use style="stroke:#000000;stroke-width:0.8;" x="154.996364" xlink:href="#m0037ae6c5a" y="307.584"/>
      </g>
     </g>
     <g id="text_3">
      <!-- 50 -->
      <g transform="translate(148.633864 322.182437)scale(0.1 -0.1)">
       <use xlink:href="#DejaVuSans-35"/>
       <use x="63.623047" xlink:href="#DejaVuSans-30"/>
      </g>
     </g>
    </g>
    <g id="xtick_4">
     <g id="line2d_4">
      <g>
       <use style="stroke:#000000;stroke-width:0.8;" x="195.578182" xlink:href="#m0037ae6c5a" y="307.584"/>
      </g>
     </g>
     <g id="text_4">
      <!-- 75 -->
      <g transform="translate(189.215682 322.182437)scale(0.1 -0.1)">
       <defs>
        <path d="M 525 4666 
L 3525 4666 
L 3525 4397 
L 1831 0 
L 1172 0 
L 2766 4134 
L 525 4134 
L 525 4666 
z
" id="DejaVuSans-37" transform="scale(0.015625)"/>
       </defs>
       <use xlink:href="#DejaVuSans-37"/>
       <use x="63.623047" xlink:href="#DejaVuSans-35"/>
      </g>
     </g>
    </g>
    <g id="xtick_5">
     <g id="line2d_5">
      <g>
       <use style="stroke:#000000;stroke-width:0.8;" x="236.16" xlink:href="#m0037ae6c5a" y="307.584"/>
      </g>
     </g>
     <g id="text_5">
      <!-- 100 -->
      <g transform="translate(226.61625 322.182437)scale(0.1 -0.1)">
       <defs>
        <path d="M 794 531 
L 1825 531 
L 1825 4091 
L 703 3866 
L 703 4441 
L 1819 4666 
L 2450 4666 
L 2450 531 
L 3481 531 
L 3481 0 
L 794 0 
L 794 531 
z
" id="DejaVuSans-31" transform="scale(0.015625)"/>
       </defs>
       <use xlink:href="#DejaVuSans-31"/>
       <use x="63.623047" xlink:href="#DejaVuSans-30"/>
       <use x="127.246094" xlink:href="#DejaVuSans-30"/>
      </g>
     </g>
    </g>
    <g id="xtick_6">
     <g id="line2d_6">
      <g>
       <use style="stroke:#000000;stroke-width:0.8;" x="276.741818" xlink:href="#m0037ae6c5a" y="307.584"/>
      </g>
     </g>
     <g id="text_6">
      <!-- 125 -->
      <g transform="translate(267.198068 322.182437)scale(0.1 -0.1)">
       <use xlink:href="#DejaVuSans-31"/>
       <use x="63.623047" xlink:href="#DejaVuSans-32"/>
       <use x="127.246094" xlink:href="#DejaVuSans-35"/>
      </g>
     </g>
    </g>
    <g id="xtick_7">
     <g id="line2d_7">
      <g>
       <use style="stroke:#000000;stroke-width:0.8;" x="317.323636" xlink:href="#m0037ae6c5a" y="307.584"/>
      </g>
     </g>
     <g id="text_7">
      <!-- 150 -->
      <g transform="translate(307.779886 322.182437)scale(0.1 -0.1)">
       <use xlink:href="#DejaVuSans-31"/>
       <use x="63.623047" xlink:href="#DejaVuSans-35"/>
       <use x="127.246094" xlink:href="#DejaVuSans-30"/>
      </g>
     </g>
    </g>
    <g id="xtick_8">
     <g id="line2d_8">
      <g>
       <use style="stroke:#000000;stroke-width:0.8;" x="357.905455" xlink:href="#m0037ae6c5a" y="307.584"/>
      </g>
     </g>
     <g id="text_8">
      <!-- 175 -->
      <g transform="translate(348.361705 322.182437)scale(0.1 -0.1)">
       <use xlink:href="#DejaVuSans-31"/>
       <use x="63.623047" xlink:href="#DejaVuSans-37"/>
       <use x="127.246094" xlink:href="#DejaVuSans-35"/>
      </g>
     </g>
    </g>
    <g id="xtick_9">
     <g id="line2d_9">
      <g>
       <use style="stroke:#000000;stroke-width:0.8;" x="398.487273" xlink:href="#m0037ae6c5a" y="307.584"/>
      </g>
     </g>
     <g id="text_9">
      <!-- 200 -->
      <g transform="translate(388.943523 322.182437)scale(0.1 -0.1)">
       <use xlink:href="#DejaVuSans-32"/>
       <use x="63.623047" xlink:href="#DejaVuSans-30"/>
       <use x="127.246094" xlink:href="#DejaVuSans-30"/>
      </g>
     </g>
    </g>
   </g>
   <g id="matplotlib.axis_2">
    <g id="ytick_1">
     <g id="line2d_10">
      <defs>
       <path d="M 0 0 
L -3.5 0 
" id="m01ba73b08f" style="stroke:#000000;stroke-width:0.8;"/>
      </defs>
      <g>
       <use style="stroke:#000000;stroke-width:0.8;" x="57.6" xlink:href="#m01ba73b08f" y="302.225047"/>
      </g>
     </g>
     <g id="text_10">
      <!-- −4 -->
      <g transform="translate(35.857813 306.024265)scale(0.1 -0.1)">
       <defs>
        <path d="M 678 2272 
L 4684 2272 
L 4684 1741 
L 678 1741 
L 678 2272 
z
" id="DejaVuSans-2212" transform="scale(0.015625)"/>
        <path d="M 2419 4116 
L 825 1625 
L 2419 1625 
L 2419 4116 
z
M 2253 4666 
L 3047 4666 
L 3047 1625 
L 3713 1625 
L 3713 1100 
L 3047 1100 
L 3047 0 
L 2419 0 
L 2419 1100 
L 313 1100 
L 313 1709 
L 2253 4666 
z
" id="DejaVuSans-34" transform="scale(0.015625)"/>
       </defs>
       <use xlink:href="#DejaVuSans-2212"/>
       <use x="83.789062" xlink:href="#DejaVuSans-34"/>
      </g>
     </g>
    </g>
    <g id="ytick_2">
     <g id="line2d_11">
      <g>
       <use style="stroke:#000000;stroke-width:0.8;" x="57.6" xlink:href="#m01ba73b08f" y="245.025584"/>
      </g>
     </g>
     <g id="text_11">
      <!-- −2 -->
      <g transform="translate(35.857813 248.824803)scale(0.1 -0.1)">
       <use xlink:href="#DejaVuSans-2212"/>
       <use x="83.789062" xlink:href="#DejaVuSans-32"/>
      </g>
     </g>
    </g>
    <g id="ytick_3">
     <g id="line2d_12">
      <g>
       <use style="stroke:#000000;stroke-width:0.8;" x="57.6" xlink:href="#m01ba73b08f" y="187.826122"/>
      </g>
     </g>
     <g id="text_12">
      <!-- 0 -->
      <g transform="translate(44.2375 191.625341)scale(0.1 -0.1)">
       <use xlink:href="#DejaVuSans-30"/>
      </g>
     </g>
    </g>
    <g id="ytick_4">
     <g id="line2d_13">
      <g>
       <use style="stroke:#000000;stroke-width:0.8;" x="57.6" xlink:href="#m01ba73b08f" y="130.62666"/>
      </g>
     </g>
     <g id="text_13">
      <!-- 2 -->
      <g transform="translate(44.2375 134.425879)scale(0.1 -0.1)">
       <use xlink:href="#DejaVuSans-32"/>
      </g>
     </g>
    </g>
    <g id="ytick_5">
     <g id="line2d_14">
      <g>
       <use style="stroke:#000000;stroke-width:0.8;" x="57.6" xlink:href="#m01ba73b08f" y="73.427198"/>
      </g>
     </g>
     <g id="text_14">
      <!-- 4 -->
      <g transform="translate(44.2375 77.226417)scale(0.1 -0.1)">
       <use xlink:href="#DejaVuSans-34"/>
      </g>
     </g>
    </g>
   </g>
   <g id="line2d_15">
    <path clip-path="url(#p45e82cf046)" d="M 73.832727 53.568 
L 77.079273 53.690456 
L 80.325818 54.072486 
L 83.572364 54.693187 
L 86.818909 55.533166 
L 90.065455 56.574288 
L 93.312 57.799419 
L 98.181818 59.946427 
L 103.051636 62.417271 
L 107.921455 65.159483 
L 114.414545 69.146628 
L 122.530909 74.481983 
L 140.386909 86.395908 
L 146.88 90.39926 
L 151.749818 93.181447 
L 156.619636 95.736782 
L 161.489455 98.039315 
L 166.359273 100.070978 
L 171.229091 101.821406 
L 176.098909 103.287425 
L 180.968727 104.472317 
L 185.838545 105.384937 
L 190.708364 106.038789 
L 195.578182 106.451098 
L 200.448 106.641951 
L 205.317818 106.633498 
L 211.810909 106.352945 
L 218.304 105.81744 
L 226.420364 104.877085 
L 236.16 103.492863 
L 265.378909 99.152463 
L 275.118545 98.007039 
L 284.858182 97.111831 
L 294.597818 96.481188 
L 304.337455 96.105721 
L 314.077091 95.958289 
L 325.44 96.022281 
L 340.049455 96.367282 
L 367.645091 97.336383 
L 390.370909 98.015572 
L 398.487273 98.185117 
L 398.487273 98.185117 
" style="fill:none;stroke:#1f77b4;stroke-linecap:square;stroke-width:1.5;"/>
   </g>
   <g id="line2d_16">
    <path clip-path="url(#p45e82cf046)" d="M 73.832727 76.424939 
L 77.079273 76.444764 
L 80.325818 76.64717 
L 83.572364 77.016193 
L 88.442182 77.847479 
L 93.312 78.965223 
L 98.181818 80.317861 
L 104.674909 82.400568 
L 112.791273 85.294654 
L 133.893818 93.008572 
L 140.386909 95.12577 
L 146.88 97.021733 
L 153.373091 98.66211 
L 159.866182 100.026848 
L 166.359273 101.108946 
L 172.852364 101.912762 
L 179.345455 102.452084 
L 185.838545 102.748126 
L 192.331636 102.827561 
L 200.448 102.668642 
L 208.564364 102.281961 
L 219.927273 101.478864 
L 244.276364 99.400852 
L 258.885818 98.302866 
L 271.872 97.567661 
L 283.234909 97.139168 
L 296.221091 96.886556 
L 310.830545 96.857031 
L 328.686545 97.072929 
L 398.487273 98.18643 
L 398.487273 98.18643 
" style="fill:none;stroke:#ff7f0e;stroke-linecap:square;stroke-width:1.5;"/>
   </g>
   <g id="line2d_17">
    <path clip-path="url(#p45e82cf046)" d="M 73.832727 221.777403 
L 86.818909 220.915334 
L 91.688727 220.109698 
L 94.935273 219.368685 
L 98.181818 218.415845 
L 101.428364 217.261853 
L 112.791273 212.848953 
L 116.037818 211.583329 
L 119.284364 210.042236 
L 124.154182 207.333683 
L 129.024 204.404816 
L 132.270545 202.391205 
L 135.517091 200.753007 
L 142.010182 197.880754 
L 143.633455 196.803327 
L 145.256727 195.535522 
L 148.503273 192.705015 
L 150.126545 191.690889 
L 151.749818 191.026693 
L 153.373091 190.697401 
L 154.996364 190.68887 
L 161.489455 191.434151 
L 163.112727 191.650498 
L 164.736 191.716795 
L 166.359273 191.490479 
L 171.229091 190.204559 
L 172.852364 189.719245 
L 177.722182 187.556267 
L 179.345455 187.116703 
L 189.085091 185.690774 
L 195.578182 184.832402 
L 197.201455 184.762275 
L 198.824727 184.994723 
L 200.448 185.518079 
L 202.071273 186.322108 
L 205.317818 188.503397 
L 206.941091 189.359234 
L 208.564364 189.977808 
L 210.187636 190.370641 
L 211.810909 190.548196 
L 221.550545 191.047068 
L 224.797091 191.317093 
L 226.420364 191.311328 
L 228.043636 191.014412 
L 232.913455 189.524935 
L 234.536727 188.943694 
L 236.16 188.076424 
L 239.406545 186.112421 
L 241.029818 185.330896 
L 242.653091 184.751288 
L 244.276364 184.314178 
L 245.899636 184.076762 
L 247.522909 184.09754 
L 249.146182 184.437272 
L 257.262545 187.11649 
L 260.509091 188.277262 
L 263.755636 189.048783 
L 267.002182 189.44328 
L 289.728 191.701285 
L 291.351273 191.469828 
L 296.221091 190.169319 
L 297.844364 189.679374 
L 302.714182 187.502934 
L 304.337455 187.059001 
L 314.077091 185.607279 
L 318.946909 184.946684 
L 320.570182 184.870681 
L 322.193455 185.097878 
L 323.816727 185.616555 
L 325.44 186.416419 
L 328.686545 188.590669 
L 330.309818 189.443538 
L 331.933091 190.059501 
L 333.556364 190.450071 
L 335.179636 190.625696 
L 341.672727 190.953732 
L 344.919273 191.206075 
L 346.542545 191.191555 
L 348.165818 190.88581 
L 353.035636 189.369733 
L 354.658909 188.779598 
L 356.282182 187.903335 
L 359.528727 185.921156 
L 361.152 185.130358 
L 362.775273 184.541274 
L 364.398545 184.094474 
L 366.021818 183.847057 
L 367.645091 183.85742 
L 369.268364 184.186222 
L 377.384727 186.806841 
L 380.631273 187.942415 
L 383.877818 188.687578 
L 387.124364 189.054302 
L 398.487273 190.054253 
L 398.487273 190.054253 
" style="fill:none;stroke:#2ca02c;stroke-linecap:square;stroke-width:1.5;"/>
   </g>
   <g id="line2d_18">
    <path clip-path="url(#p45e82cf046)" d="M 73.832727 123.059837 
L 77.079273 123.072934 
L 80.325818 122.877817 
L 83.572364 122.492288 
L 86.818909 121.933909 
L 91.688727 120.809959 
L 96.558545 119.392937 
L 101.428364 117.73826 
L 107.921455 115.254831 
L 116.037818 111.874854 
L 133.893818 104.349852 
L 140.386909 101.864061 
L 146.88 99.618862 
L 153.373091 97.657981 
L 158.242909 96.390847 
L 163.112727 95.304953 
L 167.982545 94.401534 
L 172.852364 93.677852 
L 177.722182 93.127728 
L 184.215273 92.648212 
L 190.708364 92.433208 
L 197.201455 92.449869 
L 205.317818 92.74142 
L 213.434182 93.265466 
L 224.797091 94.253361 
L 260.509091 97.592499 
L 271.872 98.349007 
L 283.234909 98.876356 
L 294.597818 99.177838 
L 307.584 99.279637 
L 322.193455 99.157896 
L 343.296 98.73398 
L 382.254545 97.931628 
L 398.487273 97.751026 
L 398.487273 97.751026 
" style="fill:none;stroke:#d62728;stroke-linecap:square;stroke-width:1.5;"/>
   </g>
   <g id="line2d_19">
    <path clip-path="url(#p45e82cf046)" d="M 73.832727 81.704655 
L 78.702545 82.054804 
L 83.572364 82.677382 
L 88.442182 83.529418 
L 94.935273 84.949584 
L 101.428364 86.606292 
L 111.168 89.338643 
L 127.400727 93.90917 
L 135.517091 95.952167 
L 142.010182 97.393827 
L 148.503273 98.63599 
L 154.996364 99.664373 
L 161.489455 100.474615 
L 167.982545 101.070935 
L 174.475636 101.464645 
L 182.592 101.697994 
L 190.708364 101.683009 
L 200.448 101.404102 
L 211.810909 100.826742 
L 231.290182 99.554708 
L 250.769455 98.355514 
L 265.378909 97.690185 
L 278.365091 97.312248 
L 292.974545 97.118277 
L 309.207273 97.13542 
L 331.933091 97.407688 
L 382.254545 98.073672 
L 398.487273 98.161365 
L 398.487273 98.161365 
" style="fill:none;stroke:#9467bd;stroke-linecap:square;stroke-width:1.5;"/>
   </g>
   <g id="line2d_20">
    <path clip-path="url(#p45e82cf046)" d="M 73.832727 164.853827 
L 75.456 164.85764 
L 77.079273 165.036206 
L 78.702545 165.36405 
L 81.949091 166.391518 
L 85.195636 167.742422 
L 88.442182 169.281927 
L 91.688727 170.928519 
L 94.935273 172.269004 
L 101.428364 174.591735 
L 103.051636 175.470921 
L 104.674909 176.518571 
L 107.921455 178.91392 
L 111.168 180.681501 
L 114.414545 182.393165 
L 116.037818 183.272928 
L 117.661091 183.902313 
L 119.284364 184.292398 
L 120.907636 184.453557 
L 124.154182 184.358647 
L 125.777455 184.621608 
L 127.400727 185.1729 
L 129.024 186.002558 
L 132.270545 188.229299 
L 133.893818 189.105405 
L 135.517091 189.742722 
L 137.140364 190.152847 
L 138.763636 190.346328 
L 150.126545 190.989592 
L 156.619636 191.432035 
L 158.242909 191.150613 
L 163.112727 189.706329 
L 164.736 189.139794 
L 166.359273 188.287193 
L 169.605818 186.352329 
L 171.229091 185.5854 
L 172.852364 185.020516 
L 174.475636 184.59829 
L 176.098909 184.376047 
L 177.722182 184.412425 
L 179.345455 184.768319 
L 187.461818 187.532459 
L 189.085091 188.102596 
L 190.708364 188.431641 
L 192.331636 188.551711 
L 193.954909 188.493513 
L 197.201455 188.012584 
L 205.317818 186.7971 
L 216.680727 185.364895 
L 221.550545 184.794411 
L 223.173818 184.745127 
L 224.797091 184.997498 
L 226.420364 185.539965 
L 228.043636 186.362388 
L 231.290182 188.578607 
L 232.913455 189.451103 
L 234.536727 190.085906 
L 236.16 190.494618 
L 239.406545 190.773133 
L 247.522909 191.260347 
L 249.146182 190.965136 
L 254.016 189.479555 
L 255.639273 188.899276 
L 257.262545 188.032802 
L 260.509091 186.069975 
L 262.132364 185.288836 
L 263.755636 184.709475 
L 265.378909 184.272482 
L 267.002182 184.035045 
L 268.625455 184.055653 
L 270.248727 184.395061 
L 278.365091 187.071177 
L 281.611636 188.230134 
L 284.858182 188.999533 
L 288.104727 189.391595 
L 312.453818 191.788115 
L 314.077091 191.557069 
L 318.946909 190.259196 
L 320.570182 189.770508 
L 325.44 187.599014 
L 327.063273 187.157058 
L 336.802909 185.720471 
L 343.296 184.857717 
L 344.919273 184.786771 
L 346.542545 185.018521 
L 348.165818 185.54129 
L 349.789091 186.344832 
L 353.035636 188.525399 
L 354.658909 189.380979 
L 356.282182 189.999368 
L 357.905455 190.392088 
L 359.528727 190.569598 
L 367.645091 190.984137 
L 370.891636 191.246451 
L 372.514909 191.236775 
L 374.138182 190.935837 
L 379.008 189.433909 
L 380.631273 188.848412 
L 382.254545 187.97679 
L 385.501091 186.003874 
L 387.124364 185.217746 
L 388.747636 184.633394 
L 390.370909 184.191397 
L 391.994182 183.9489 
L 393.617455 183.964348 
L 395.240727 184.29845 
L 398.487273 185.297585 
L 398.487273 185.297585 
" style="fill:none;stroke:#8c564b;stroke-linecap:square;stroke-width:1.5;"/>
   </g>
   <g id="line2d_21">
    <path clip-path="url(#p45e82cf046)" d="M 73.832727 273.22068 
L 75.456 273.338747 
L 77.079273 273.676142 
L 78.702545 274.223489 
L 80.325818 274.971464 
L 81.949091 275.910717 
L 83.572364 277.100838 
L 86.818909 280.169499 
L 90.065455 283.312671 
L 98.181818 290.399745 
L 99.805091 291.606344 
L 101.428364 292.423625 
L 103.051636 292.896577 
L 104.674909 293.068645 
L 106.298182 292.983706 
L 111.168 292.192416 
L 114.414545 291.602693 
L 116.037818 291.174923 
L 117.661091 290.433307 
L 119.284364 289.391077 
L 120.907636 288.064606 
L 122.530909 286.474138 
L 124.154182 284.615191 
L 125.777455 282.470443 
L 127.400727 280.055414 
L 130.647273 274.532883 
L 132.270545 271.75219 
L 133.893818 269.37237 
L 135.517091 267.377133 
L 137.140364 265.749248 
L 138.763636 264.471384 
L 140.386909 263.527298 
L 142.010182 262.912836 
L 143.633455 262.635244 
L 145.256727 262.700062 
L 146.88 263.11377 
L 150.126545 264.412058 
L 154.996364 266.660567 
L 156.619636 267.585563 
L 158.242909 268.772267 
L 159.866182 270.211247 
L 161.489455 271.893069 
L 164.736 275.851565 
L 172.852364 286.009063 
L 176.098909 289.43671 
L 177.722182 290.912647 
L 179.345455 292.236119 
L 180.968727 293.296927 
L 182.592 293.980961 
L 184.215273 294.331855 
L 185.838545 294.39154 
L 187.461818 294.20231 
L 189.085091 293.749264 
L 190.708364 292.991305 
L 192.331636 291.937896 
L 193.954909 290.597242 
L 195.578182 288.976746 
L 197.201455 287.077068 
L 198.824727 284.896403 
L 200.448 282.447672 
L 203.694545 276.853432 
L 208.564364 267.631232 
L 215.057455 254.879985 
L 221.550545 241.603763 
L 223.173818 238.658984 
L 224.797091 235.977455 
L 226.420364 233.556056 
L 228.043636 231.389845 
L 229.666909 229.462491 
L 231.290182 227.741711 
L 232.913455 226.201874 
L 236.16 223.576584 
L 239.406545 221.325039 
L 242.653091 219.347842 
L 245.899636 217.83969 
L 250.769455 215.511324 
L 255.639273 213.238896 
L 262.132364 210.397789 
L 265.378909 208.652334 
L 268.625455 206.667114 
L 271.872 204.304071 
L 275.118545 201.827778 
L 279.988364 198.691058 
L 281.611636 197.35614 
L 283.234909 195.844459 
L 286.481455 192.55933 
L 288.104727 191.331856 
L 289.728 190.462694 
L 291.351273 189.93611 
L 292.974545 189.737272 
L 304.337455 189.692589 
L 317.323636 189.893421 
L 330.309818 190.316203 
L 341.672727 190.884626 
L 348.165818 191.288549 
L 349.789091 190.997437 
L 354.658909 189.523742 
L 356.282182 188.947313 
L 357.905455 188.084667 
L 361.152 186.129419 
L 362.775273 185.352066 
L 364.398545 184.776518 
L 366.021818 184.343374 
L 367.645091 184.109853 
L 369.268364 184.134484 
L 370.891636 184.478055 
L 379.008 187.175979 
L 380.631273 187.732008 
L 382.254545 188.046631 
L 383.877818 188.151914 
L 385.501091 188.078531 
L 390.370909 187.309641 
L 396.864 186.456777 
L 398.487273 186.271273 
L 398.487273 186.271273 
" style="fill:none;stroke:#e377c2;stroke-linecap:square;stroke-width:1.5;"/>
   </g>
   <g id="line2d_22">
    <path clip-path="url(#p45e82cf046)" d="M 73.832727 139.999758 
L 77.079273 139.834602 
L 80.325818 139.477944 
L 85.195636 138.699842 
L 91.688727 137.387439 
L 101.428364 135.139498 
L 122.530909 129.979384 
L 125.777455 128.979908 
L 130.647273 127.189685 
L 135.517091 125.103648 
L 140.386909 122.780459 
L 146.88 119.413135 
L 156.619636 114.05225 
L 167.982545 107.826632 
L 174.475636 104.496483 
L 180.968727 101.442934 
L 185.838545 99.374747 
L 190.708364 97.519757 
L 195.578182 95.89144 
L 200.448 94.496983 
L 205.317818 93.337783 
L 210.187636 92.410099 
L 215.057455 91.705759 
L 219.927273 91.212913 
L 224.797091 90.916756 
L 229.666909 90.800222 
L 236.16 90.891788 
L 242.653091 91.222376 
L 250.769455 91.898407 
L 260.509091 92.973823 
L 299.467636 97.631762 
L 309.207273 98.451276 
L 318.946909 99.053326 
L 328.686545 99.439112 
L 340.049455 99.64022 
L 351.412364 99.618848 
L 366.021818 99.358671 
L 391.994182 98.611935 
L 398.487273 98.423559 
L 398.487273 98.423559 
" style="fill:none;stroke:#7f7f7f;stroke-linecap:square;stroke-width:1.5;"/>
   </g>
   <g id="line2d_23">
    <path clip-path="url(#p45e82cf046)" d="M 73.832727 241.323475 
L 77.079273 241.671055 
L 80.325818 242.412214 
L 83.572364 243.49983 
L 86.818909 244.900024 
L 90.065455 246.640627 
L 91.688727 247.678528 
L 94.935273 250.151543 
L 98.181818 253.163874 
L 101.428364 256.768789 
L 104.674909 261.02501 
L 111.168 270.463986 
L 114.414545 274.768093 
L 124.154182 287.059477 
L 127.400727 290.495498 
L 129.024 291.973383 
L 130.647273 293.297626 
L 132.270545 294.360764 
L 133.893818 295.051739 
L 135.517091 295.413724 
L 137.140364 295.488 
L 138.763636 295.316024 
L 140.386909 294.883424 
L 142.010182 294.150194 
L 143.633455 293.125401 
L 145.256727 291.816733 
L 146.88 290.230937 
L 148.503273 288.367988 
L 150.126545 286.225245 
L 151.749818 283.81437 
L 153.373091 281.158843 
L 156.619636 275.297927 
L 164.736 260.053018 
L 174.475636 241.265114 
L 177.722182 235.911119 
L 179.345455 233.577975 
L 180.968727 231.48938 
L 182.592 229.628787 
L 184.215273 227.964995 
L 187.461818 225.12109 
L 190.708364 222.74 
L 193.954909 220.635793 
L 197.201455 218.712168 
L 200.448 217.014856 
L 203.694545 215.502904 
L 208.564364 213.550022 
L 213.434182 211.615944 
L 216.680727 210.031933 
L 219.927273 208.222412 
L 223.173818 206.151403 
L 226.420364 203.697835 
L 229.666909 200.854823 
L 232.913455 197.555924 
L 239.406545 190.336273 
L 242.653091 187.86213 
L 245.899636 185.695587 
L 247.522909 184.846595 
L 249.146182 184.179616 
L 250.769455 183.685156 
L 252.392727 183.354574 
L 254.016 183.248915 
L 255.639273 183.441527 
L 257.262545 183.920871 
L 258.885818 184.676996 
L 262.132364 186.753216 
L 263.755636 187.553471 
L 265.378909 188.114162 
L 267.002182 188.446474 
L 268.625455 188.560634 
L 288.104727 188.651647 
L 309.207273 188.975603 
L 328.686545 189.489625 
L 344.919273 190.121407 
L 357.905455 190.809873 
L 366.021818 191.368016 
L 367.645091 191.086098 
L 372.514909 189.63935 
L 374.138182 189.071727 
L 375.761455 188.217883 
L 379.008 186.280168 
L 380.631273 185.511622 
L 382.254545 184.944978 
L 383.877818 184.520851 
L 385.501091 184.29654 
L 387.124364 184.33066 
L 388.747636 184.684079 
L 396.864 187.433929 
L 398.487273 188.000867 
L 398.487273 188.000867 
" style="fill:none;stroke:#bcbd22;stroke-linecap:square;stroke-width:1.5;"/>
   </g>
   <g id="line2d_24">
    <path clip-path="url(#p45e82cf046)" d="M 73.832727 109.955326 
L 78.702545 110.098895 
L 83.572364 109.981706 
L 88.442182 109.636524 
L 93.312 109.096615 
L 99.805091 108.131008 
L 107.921455 106.636016 
L 119.284364 104.252555 
L 135.517091 100.841301 
L 145.256727 99.050899 
L 153.373091 97.794291 
L 161.489455 96.783291 
L 169.605818 96.027597 
L 177.722182 95.52097 
L 185.838545 95.244589 
L 193.954909 95.17048 
L 203.694545 95.300666 
L 215.057455 95.674142 
L 232.913455 96.51613 
L 258.885818 97.733903 
L 275.118545 98.263035 
L 291.351273 98.556188 
L 309.207273 98.634063 
L 331.933091 98.482977 
L 398.487273 97.861427 
L 398.487273 97.861427 
" style="fill:none;stroke:#17becf;stroke-linecap:square;stroke-width:1.5;"/>
   </g>
   <g id="patch_3">
    <path d="M 57.6 307.584 
L 57.6 41.472 
" style="fill:none;stroke:#000000;stroke-linecap:square;stroke-linejoin:miter;stroke-width:0.8;"/>
   </g>
   <g id="patch_4">
    <path d="M 414.72 307.584 
L 414.72 41.472 
" style="fill:none;stroke:#000000;stroke-linecap:square;stroke-linejoin:miter;stroke-width:0.8;"/>
   </g>
   <g id="patch_5">
    <path d="M 57.6 307.584 
L 414.72 307.584 
" style="fill:none;stroke:#000000;stroke-linecap:square;stroke-linejoin:miter;stroke-width:0.8;"/>
   </g>
   <g id="patch_6">
    <path d="M 57.6 41.472 
L 414.72 41.472 
" style="fill:none;stroke:#000000;stroke-linecap:square;stroke-linejoin:miter;stroke-width:0.8;"/>
   </g>
   <g id="legend_1">
    <g id="patch_7">
     <path d="M 64.6 302.584 
L 109.325 302.584 
Q 111.325 302.584 111.325 300.584 
L 111.325 154.80275 
Q 111.325 152.80275 109.325 152.80275 
L 64.6 152.80275 
Q 62.6 152.80275 62.6 154.80275 
L 62.6 300.584 
Q 62.6 302.584 64.6 302.584 
z
" style="fill:#ffffff;opacity:0.8;stroke:#cccccc;stroke-linejoin:miter;"/>
    </g>
    <g id="line2d_25">
     <path d="M 66.6 160.901187 
L 86.6 160.901187 
" style="fill:none;stroke:#1f77b4;stroke-linecap:square;stroke-width:1.5;"/>
    </g>
    <g id="line2d_26"/>
    <g id="text_15">
     <!-- 10 -->
     <g transform="translate(94.6 164.401187)scale(0.1 -0.1)">
      <use xlink:href="#DejaVuSans-31"/>
      <use x="63.623047" xlink:href="#DejaVuSans-30"/>
     </g>
    </g>
    <g id="line2d_27">
     <path d="M 66.6 175.579313 
L 86.6 175.579313 
" style="fill:none;stroke:#ff7f0e;stroke-linecap:square;stroke-width:1.5;"/>
    </g>
    <g id="line2d_28"/>
    <g id="text_16">
     <!-- 11 -->
     <g transform="translate(94.6 179.079313)scale(0.1 -0.1)">
      <use xlink:href="#DejaVuSans-31"/>
      <use x="63.623047" xlink:href="#DejaVuSans-31"/>
     </g>
    </g>
    <g id="line2d_29">
     <path d="M 66.6 190.257438 
L 86.6 190.257438 
" style="fill:none;stroke:#2ca02c;stroke-linecap:square;stroke-width:1.5;"/>
    </g>
    <g id="line2d_30"/>
    <g id="text_17">
     <!-- 12 -->
     <g transform="translate(94.6 193.757438)scale(0.1 -0.1)">
      <use xlink:href="#DejaVuSans-31"/>
      <use x="63.623047" xlink:href="#DejaVuSans-32"/>
     </g>
    </g>
    <g id="line2d_31">
     <path d="M 66.6 204.935563 
L 86.6 204.935563 
" style="fill:none;stroke:#d62728;stroke-linecap:square;stroke-width:1.5;"/>
    </g>
    <g id="line2d_32"/>
    <g id="text_18">
     <!-- 13 -->
     <g transform="translate(94.6 208.435563)scale(0.1 -0.1)">
      <defs>
       <path d="M 2597 2516 
Q 3050 2419 3304 2112 
Q 3559 1806 3559 1356 
Q 3559 666 3084 287 
Q 2609 -91 1734 -91 
Q 1441 -91 1130 -33 
Q 819 25 488 141 
L 488 750 
Q 750 597 1062 519 
Q 1375 441 1716 441 
Q 2309 441 2620 675 
Q 2931 909 2931 1356 
Q 2931 1769 2642 2001 
Q 2353 2234 1838 2234 
L 1294 2234 
L 1294 2753 
L 1863 2753 
Q 2328 2753 2575 2939 
Q 2822 3125 2822 3475 
Q 2822 3834 2567 4026 
Q 2313 4219 1838 4219 
Q 1578 4219 1281 4162 
Q 984 4106 628 3988 
L 628 4550 
Q 988 4650 1302 4700 
Q 1616 4750 1894 4750 
Q 2613 4750 3031 4423 
Q 3450 4097 3450 3541 
Q 3450 3153 3228 2886 
Q 3006 2619 2597 2516 
z
" id="DejaVuSans-33" transform="scale(0.015625)"/>
      </defs>
      <use xlink:href="#DejaVuSans-31"/>
      <use x="63.623047" xlink:href="#DejaVuSans-33"/>
     </g>
    </g>
    <g id="line2d_33">
     <path d="M 66.6 219.613688 
L 86.6 219.613688 
" style="fill:none;stroke:#9467bd;stroke-linecap:square;stroke-width:1.5;"/>
    </g>
    <g id="line2d_34"/>
    <g id="text_19">
     <!-- 14 -->
     <g transform="translate(94.6 223.113688)scale(0.1 -0.1)">
      <use xlink:href="#DejaVuSans-31"/>
      <use x="63.623047" xlink:href="#DejaVuSans-34"/>
     </g>
    </g>
    <g id="line2d_35">
     <path d="M 66.6 234.291812 
L 86.6 234.291812 
" style="fill:none;stroke:#8c564b;stroke-linecap:square;stroke-width:1.5;"/>
    </g>
    <g id="line2d_36"/>
    <g id="text_20">
     <!-- 15 -->
     <g transform="translate(94.6 237.791812)scale(0.1 -0.1)">
      <use xlink:href="#DejaVuSans-31"/>
      <use x="63.623047" xlink:href="#DejaVuSans-35"/>
     </g>
    </g>
    <g id="line2d_37">
     <path d="M 66.6 248.969938 
L 86.6 248.969938 
" style="fill:none;stroke:#e377c2;stroke-linecap:square;stroke-width:1.5;"/>
    </g>
    <g id="line2d_38"/>
    <g id="text_21">
     <!-- 16 -->
     <g transform="translate(94.6 252.469938)scale(0.1 -0.1)">
      <defs>
       <path d="M 2113 2584 
Q 1688 2584 1439 2293 
Q 1191 2003 1191 1497 
Q 1191 994 1439 701 
Q 1688 409 2113 409 
Q 2538 409 2786 701 
Q 3034 994 3034 1497 
Q 3034 2003 2786 2293 
Q 2538 2584 2113 2584 
z
M 3366 4563 
L 3366 3988 
Q 3128 4100 2886 4159 
Q 2644 4219 2406 4219 
Q 1781 4219 1451 3797 
Q 1122 3375 1075 2522 
Q 1259 2794 1537 2939 
Q 1816 3084 2150 3084 
Q 2853 3084 3261 2657 
Q 3669 2231 3669 1497 
Q 3669 778 3244 343 
Q 2819 -91 2113 -91 
Q 1303 -91 875 529 
Q 447 1150 447 2328 
Q 447 3434 972 4092 
Q 1497 4750 2381 4750 
Q 2619 4750 2861 4703 
Q 3103 4656 3366 4563 
z
" id="DejaVuSans-36" transform="scale(0.015625)"/>
      </defs>
      <use xlink:href="#DejaVuSans-31"/>
      <use x="63.623047" xlink:href="#DejaVuSans-36"/>
     </g>
    </g>
    <g id="line2d_39">
     <path d="M 66.6 263.648062 
L 86.6 263.648062 
" style="fill:none;stroke:#7f7f7f;stroke-linecap:square;stroke-width:1.5;"/>
    </g>
    <g id="line2d_40"/>
    <g id="text_22">
     <!-- 17 -->
     <g transform="translate(94.6 267.148062)scale(0.1 -0.1)">
      <use xlink:href="#DejaVuSans-31"/>
      <use x="63.623047" xlink:href="#DejaVuSans-37"/>
     </g>
    </g>
    <g id="line2d_41">
     <path d="M 66.6 278.326188 
L 86.6 278.326188 
" style="fill:none;stroke:#bcbd22;stroke-linecap:square;stroke-width:1.5;"/>
    </g>
    <g id="line2d_42"/>
    <g id="text_23">
     <!-- 18 -->
     <g transform="translate(94.6 281.826188)scale(0.1 -0.1)">
      <defs>
       <path d="M 2034 2216 
Q 1584 2216 1326 1975 
Q 1069 1734 1069 1313 
Q 1069 891 1326 650 
Q 1584 409 2034 409 
Q 2484 409 2743 651 
Q 3003 894 3003 1313 
Q 3003 1734 2745 1975 
Q 2488 2216 2034 2216 
z
M 1403 2484 
Q 997 2584 770 2862 
Q 544 3141 544 3541 
Q 544 4100 942 4425 
Q 1341 4750 2034 4750 
Q 2731 4750 3128 4425 
Q 3525 4100 3525 3541 
Q 3525 3141 3298 2862 
Q 3072 2584 2669 2484 
Q 3125 2378 3379 2068 
Q 3634 1759 3634 1313 
Q 3634 634 3220 271 
Q 2806 -91 2034 -91 
Q 1263 -91 848 271 
Q 434 634 434 1313 
Q 434 1759 690 2068 
Q 947 2378 1403 2484 
z
M 1172 3481 
Q 1172 3119 1398 2916 
Q 1625 2713 2034 2713 
Q 2441 2713 2670 2916 
Q 2900 3119 2900 3481 
Q 2900 3844 2670 4047 
Q 2441 4250 2034 4250 
Q 1625 4250 1398 4047 
Q 1172 3844 1172 3481 
z
" id="DejaVuSans-38" transform="scale(0.015625)"/>
      </defs>
      <use xlink:href="#DejaVuSans-31"/>
      <use x="63.623047" xlink:href="#DejaVuSans-38"/>
     </g>
    </g>
    <g id="line2d_43">
     <path d="M 66.6 293.004312 
L 86.6 293.004312 
" style="fill:none;stroke:#17becf;stroke-linecap:square;stroke-width:1.5;"/>
    </g>
    <g id="line2d_44"/>
    <g id="text_24">
     <!-- 19 -->
     <g transform="translate(94.6 296.504312)scale(0.1 -0.1)">
      <defs>
       <path d="M 703 97 
L 703 672 
Q 941 559 1184 500 
Q 1428 441 1663 441 
Q 2288 441 2617 861 
Q 2947 1281 2994 2138 
Q 2813 1869 2534 1725 
Q 2256 1581 1919 1581 
Q 1219 1581 811 2004 
Q 403 2428 403 3163 
Q 403 3881 828 4315 
Q 1253 4750 1959 4750 
Q 2769 4750 3195 4129 
Q 3622 3509 3622 2328 
Q 3622 1225 3098 567 
Q 2575 -91 1691 -91 
Q 1453 -91 1209 -44 
Q 966 3 703 97 
z
M 1959 2075 
Q 2384 2075 2632 2365 
Q 2881 2656 2881 3163 
Q 2881 3666 2632 3958 
Q 2384 4250 1959 4250 
Q 1534 4250 1286 3958 
Q 1038 3666 1038 3163 
Q 1038 2656 1286 2365 
Q 1534 2075 1959 2075 
z
" id="DejaVuSans-39" transform="scale(0.015625)"/>
      </defs>
      <use xlink:href="#DejaVuSans-31"/>
      <use x="63.623047" xlink:href="#DejaVuSans-39"/>
     </g>
    </g>
   </g>
  </g>
 </g>
 <defs>
  <clipPath id="p45e82cf046">
   <rect height="266.112" width="357.12" x="57.6" y="41.472"/>
  </clipPath>
 </defs>
</svg>
