<?xml version="1.0" encoding="utf-8" standalone="no"?>
<!DOCTYPE svg PUBLIC "-//W3C//DTD SVG 1.1//EN"
  "http://www.w3.org/Graphics/SVG/1.1/DTD/svg11.dtd">
<svg height="345.6pt" version="1.1" viewBox="0 0 460.8 345.6" width="460.8pt" xmlns="http://www.w3.org/2000/svg" xmlns:xlink="http://www.w3.org/1999/xlink">
 <metadata>
  <rdf:RDF xmlns:cc="http://creativecommons.org/ns#" xmlns:dc="http://purl.org/dc/elements/1.1/" xmlns:rdf="http://www.w3.org/1999/02/22-rdf-syntax-ns#">
   <cc:Work>
    <dc:type rdf:resource="http://purl.org/dc/dcmitype/StillImage"/>
    <dc:date>2021-08-18T15:14:31.610818</dc:date>
    <dc:format>image/svg+xml</dc:format>
    <dc:creator>
     <cc:Agent>
      <dc:title>Matplotlib v3.4.2, https://matplotlib.org/</dc:title>
     </cc:Agent>
    </dc:creator>
   </cc:Work>
  </rdf:RDF>
 </metadata>
 <defs>
  <style type="text/css">*{stroke-linecap:butt;stroke-linejoin:round;}</style>
 </defs>
 <g id="figure_1">
  <g id="patch_1">
   <path d="M 0 345.6 
L 460.8 345.6 
L 460.8 0 
L 0 0 
z
" style="fill:#ffffff;"/>
  </g>
  <g id="axes_1">
   <g id="patch_2">
    <path d="M 57.6 307.584 
L 414.72 307.584 
L 414.72 41.472 
L 57.6 41.472 
z
" style="fill:#ffffff;"/>
   </g>
   <g id="matplotlib.axis_1">
    <g id="xtick_1">
     <g id="line2d_1">
      <defs>
       <path d="M 0 0 
L 0 3.5 
" id="me697860ceb" style="stroke:#000000;stroke-width:0.8;"/>
      </defs>
      <g>
       <use style="stroke:#000000;stroke-width:0.8;" x="73.832727" xlink:href="#me697860ceb" y="307.584"/>
      </g>
     </g>
     <g id="text_1">
      <!-- 0 -->
      <g transform="translate(70.651477 322.182437)scale(0.1 -0.1)">
       <defs>
        <path d="M 2034 4250 
Q 1547 4250 1301 3770 
Q 1056 3291 1056 2328 
Q 1056 1369 1301 889 
Q 1547 409 2034 409 
Q 2525 409 2770 889 
Q 3016 1369 3016 2328 
Q 3016 3291 2770 3770 
Q 2525 4250 2034 4250 
z
M 2034 4750 
Q 2819 4750 3233 4129 
Q 3647 3509 3647 2328 
Q 3647 1150 3233 529 
Q 2819 -91 2034 -91 
Q 1250 -91 836 529 
Q 422 1150 422 2328 
Q 422 3509 836 4129 
Q 1250 4750 2034 4750 
z
" id="DejaVuSans-30" transform="scale(0.015625)"/>
       </defs>
       <use xlink:href="#DejaVuSans-30"/>
      </g>
     </g>
    </g>
    <g id="xtick_2">
     <g id="line2d_2">
      <g>
       <use style="stroke:#000000;stroke-width:0.8;" x="114.414545" xlink:href="#me697860ceb" y="307.584"/>
      </g>
     </g>
     <g id="text_2">
      <!-- 25 -->
      <g transform="translate(108.052045 322.182437)scale(0.1 -0.1)">
       <defs>
        <path d="M 1228 531 
L 3431 531 
L 3431 0 
L 469 0 
L 469 531 
Q 828 903 1448 1529 
Q 2069 2156 2228 2338 
Q 2531 2678 2651 2914 
Q 2772 3150 2772 3378 
Q 2772 3750 2511 3984 
Q 2250 4219 1831 4219 
Q 1534 4219 1204 4116 
Q 875 4013 500 3803 
L 500 4441 
Q 881 4594 1212 4672 
Q 1544 4750 1819 4750 
Q 2544 4750 2975 4387 
Q 3406 4025 3406 3419 
Q 3406 3131 3298 2873 
Q 3191 2616 2906 2266 
Q 2828 2175 2409 1742 
Q 1991 1309 1228 531 
z
" id="DejaVuSans-32" transform="scale(0.015625)"/>
        <path d="M 691 4666 
L 3169 4666 
L 3169 4134 
L 1269 4134 
L 1269 2991 
Q 1406 3038 1543 3061 
Q 1681 3084 1819 3084 
Q 2600 3084 3056 2656 
Q 3513 2228 3513 1497 
Q 3513 744 3044 326 
Q 2575 -91 1722 -91 
Q 1428 -91 1123 -41 
Q 819 9 494 109 
L 494 744 
Q 775 591 1075 516 
Q 1375 441 1709 441 
Q 2250 441 2565 725 
Q 2881 1009 2881 1497 
Q 2881 1984 2565 2268 
Q 2250 2553 1709 2553 
Q 1456 2553 1204 2497 
Q 953 2441 691 2322 
L 691 4666 
z
" id="DejaVuSans-35" transform="scale(0.015625)"/>
       </defs>
       <use xlink:href="#DejaVuSans-32"/>
       <use x="63.623047" xlink:href="#DejaVuSans-35"/>
      </g>
     </g>
    </g>
    <g id="xtick_3">
     <g id="line2d_3">
      <g>
       <use style="stroke:#000000;stroke-width:0.8;" x="154.996364" xlink:href="#me697860ceb" y="307.584"/>
      </g>
     </g>
     <g id="text_3">
      <!-- 50 -->
      <g transform="translate(148.633864 322.182437)scale(0.1 -0.1)">
       <use xlink:href="#DejaVuSans-35"/>
       <use x="63.623047" xlink:href="#DejaVuSans-30"/>
      </g>
     </g>
    </g>
    <g id="xtick_4">
     <g id="line2d_4">
      <g>
       <use style="stroke:#000000;stroke-width:0.8;" x="195.578182" xlink:href="#me697860ceb" y="307.584"/>
      </g>
     </g>
     <g id="text_4">
      <!-- 75 -->
      <g transform="translate(189.215682 322.182437)scale(0.1 -0.1)">
       <defs>
        <path d="M 525 4666 
L 3525 4666 
L 3525 4397 
L 1831 0 
L 1172 0 
L 2766 4134 
L 525 4134 
L 525 4666 
z
" id="DejaVuSans-37" transform="scale(0.015625)"/>
       </defs>
       <use xlink:href="#DejaVuSans-37"/>
       <use x="63.623047" xlink:href="#DejaVuSans-35"/>
      </g>
     </g>
    </g>
    <g id="xtick_5">
     <g id="line2d_5">
      <g>
       <use style="stroke:#000000;stroke-width:0.8;" x="236.16" xlink:href="#me697860ceb" y="307.584"/>
      </g>
     </g>
     <g id="text_5">
      <!-- 100 -->
      <g transform="translate(226.61625 322.182437)scale(0.1 -0.1)">
       <defs>
        <path d="M 794 531 
L 1825 531 
L 1825 4091 
L 703 3866 
L 703 4441 
L 1819 4666 
L 2450 4666 
L 2450 531 
L 3481 531 
L 3481 0 
L 794 0 
L 794 531 
z
" id="DejaVuSans-31" transform="scale(0.015625)"/>
       </defs>
       <use xlink:href="#DejaVuSans-31"/>
       <use x="63.623047" xlink:href="#DejaVuSans-30"/>
       <use x="127.246094" xlink:href="#DejaVuSans-30"/>
      </g>
     </g>
    </g>
    <g id="xtick_6">
     <g id="line2d_6">
      <g>
       <use style="stroke:#000000;stroke-width:0.8;" x="276.741818" xlink:href="#me697860ceb" y="307.584"/>
      </g>
     </g>
     <g id="text_6">
      <!-- 125 -->
      <g transform="translate(267.198068 322.182437)scale(0.1 -0.1)">
       <use xlink:href="#DejaVuSans-31"/>
       <use x="63.623047" xlink:href="#DejaVuSans-32"/>
       <use x="127.246094" xlink:href="#DejaVuSans-35"/>
      </g>
     </g>
    </g>
    <g id="xtick_7">
     <g id="line2d_7">
      <g>
       <use style="stroke:#000000;stroke-width:0.8;" x="317.323636" xlink:href="#me697860ceb" y="307.584"/>
      </g>
     </g>
     <g id="text_7">
      <!-- 150 -->
      <g transform="translate(307.779886 322.182437)scale(0.1 -0.1)">
       <use xlink:href="#DejaVuSans-31"/>
       <use x="63.623047" xlink:href="#DejaVuSans-35"/>
       <use x="127.246094" xlink:href="#DejaVuSans-30"/>
      </g>
     </g>
    </g>
    <g id="xtick_8">
     <g id="line2d_8">
      <g>
       <use style="stroke:#000000;stroke-width:0.8;" x="357.905455" xlink:href="#me697860ceb" y="307.584"/>
      </g>
     </g>
     <g id="text_8">
      <!-- 175 -->
      <g transform="translate(348.361705 322.182437)scale(0.1 -0.1)">
       <use xlink:href="#DejaVuSans-31"/>
       <use x="63.623047" xlink:href="#DejaVuSans-37"/>
       <use x="127.246094" xlink:href="#DejaVuSans-35"/>
      </g>
     </g>
    </g>
    <g id="xtick_9">
     <g id="line2d_9">
      <g>
       <use style="stroke:#000000;stroke-width:0.8;" x="398.487273" xlink:href="#me697860ceb" y="307.584"/>
      </g>
     </g>
     <g id="text_9">
      <!-- 200 -->
      <g transform="translate(388.943523 322.182437)scale(0.1 -0.1)">
       <use xlink:href="#DejaVuSans-32"/>
       <use x="63.623047" xlink:href="#DejaVuSans-30"/>
       <use x="127.246094" xlink:href="#DejaVuSans-30"/>
      </g>
     </g>
    </g>
   </g>
   <g id="matplotlib.axis_2">
    <g id="ytick_1">
     <g id="line2d_10">
      <defs>
       <path d="M 0 0 
L -3.5 0 
" id="mc129ebf990" style="stroke:#000000;stroke-width:0.8;"/>
      </defs>
      <g>
       <use style="stroke:#000000;stroke-width:0.8;" x="57.6" xlink:href="#mc129ebf990" y="283.192277"/>
      </g>
     </g>
     <g id="text_10">
      <!-- −4 -->
      <g transform="translate(35.857813 286.991496)scale(0.1 -0.1)">
       <defs>
        <path d="M 678 2272 
L 4684 2272 
L 4684 1741 
L 678 1741 
L 678 2272 
z
" id="DejaVuSans-2212" transform="scale(0.015625)"/>
        <path d="M 2419 4116 
L 825 1625 
L 2419 1625 
L 2419 4116 
z
M 2253 4666 
L 3047 4666 
L 3047 1625 
L 3713 1625 
L 3713 1100 
L 3047 1100 
L 3047 0 
L 2419 0 
L 2419 1100 
L 313 1100 
L 313 1709 
L 2253 4666 
z
" id="DejaVuSans-34" transform="scale(0.015625)"/>
       </defs>
       <use xlink:href="#DejaVuSans-2212"/>
       <use x="83.789062" xlink:href="#DejaVuSans-34"/>
      </g>
     </g>
    </g>
    <g id="ytick_2">
     <g id="line2d_11">
      <g>
       <use style="stroke:#000000;stroke-width:0.8;" x="57.6" xlink:href="#mc129ebf990" y="228.730588"/>
      </g>
     </g>
     <g id="text_11">
      <!-- −2 -->
      <g transform="translate(35.857813 232.529807)scale(0.1 -0.1)">
       <use xlink:href="#DejaVuSans-2212"/>
       <use x="83.789062" xlink:href="#DejaVuSans-32"/>
      </g>
     </g>
    </g>
    <g id="ytick_3">
     <g id="line2d_12">
      <g>
       <use style="stroke:#000000;stroke-width:0.8;" x="57.6" xlink:href="#mc129ebf990" y="174.2689"/>
      </g>
     </g>
     <g id="text_12">
      <!-- 0 -->
      <g transform="translate(44.2375 178.068119)scale(0.1 -0.1)">
       <use xlink:href="#DejaVuSans-30"/>
      </g>
     </g>
    </g>
    <g id="ytick_4">
     <g id="line2d_13">
      <g>
       <use style="stroke:#000000;stroke-width:0.8;" x="57.6" xlink:href="#mc129ebf990" y="119.807212"/>
      </g>
     </g>
     <g id="text_13">
      <!-- 2 -->
      <g transform="translate(44.2375 123.60643)scale(0.1 -0.1)">
       <use xlink:href="#DejaVuSans-32"/>
      </g>
     </g>
    </g>
    <g id="ytick_5">
     <g id="line2d_14">
      <g>
       <use style="stroke:#000000;stroke-width:0.8;" x="57.6" xlink:href="#mc129ebf990" y="65.345523"/>
      </g>
     </g>
     <g id="text_14">
      <!-- 4 -->
      <g transform="translate(44.2375 69.144742)scale(0.1 -0.1)">
       <use xlink:href="#DejaVuSans-34"/>
      </g>
     </g>
    </g>
   </g>
   <g id="line2d_15">
    <path clip-path="url(#p2ea657a45d)" d="M 73.832727 213.552953 
L 77.079273 213.790643 
L 80.325818 214.275286 
L 83.572364 214.971348 
L 86.818909 215.878799 
L 91.688727 217.50707 
L 104.674909 222.115479 
L 112.791273 224.721068 
L 116.037818 226.049639 
L 125.777455 230.551417 
L 129.024 232.643007 
L 132.270545 235.256774 
L 135.517091 238.457025 
L 138.763636 242.270305 
L 140.386909 244.435738 
L 143.633455 249.284395 
L 148.503273 256.732439 
L 150.126545 258.904927 
L 151.749818 260.874673 
L 153.373091 262.645135 
L 158.242909 267.256092 
L 161.489455 270.073081 
L 163.112727 271.202003 
L 164.736 272.040194 
L 166.359273 272.554411 
L 167.982545 272.77657 
L 169.605818 272.734872 
L 171.229091 272.456136 
L 172.852364 271.919009 
L 174.475636 271.086102 
L 176.098909 269.969813 
L 177.722182 268.585814 
L 179.345455 266.953768 
L 180.968727 265.088505 
L 187.461818 256.818646 
L 189.085091 255.04177 
L 190.708364 253.456099 
L 192.331636 252.056337 
L 193.954909 250.836761 
L 195.578182 249.791372 
L 197.201455 248.980686 
L 198.824727 248.486093 
L 200.448 248.316273 
L 202.071273 248.477933 
L 203.694545 248.978322 
L 205.317818 249.782193 
L 206.941091 250.8378 
L 208.564364 252.136161 
L 210.187636 253.668404 
L 213.434182 257.308658 
L 221.550545 266.732156 
L 224.797091 269.924005 
L 228.043636 272.529064 
L 229.666909 273.509982 
L 231.290182 274.128687 
L 232.913455 274.427044 
L 234.536727 274.44554 
L 236.16 274.225255 
L 241.029818 273.088937 
L 245.899636 271.791536 
L 247.522909 270.982596 
L 249.146182 269.889027 
L 250.769455 268.526654 
L 252.392727 266.915271 
L 254.016 265.069803 
L 260.509091 256.871219 
L 262.132364 255.110202 
L 263.755636 253.539629 
L 265.378909 252.154229 
L 267.002182 250.948312 
L 268.625455 249.915912 
L 270.248727 249.117706 
L 271.872 248.635314 
L 273.495273 248.477532 
L 275.118545 248.651165 
L 276.741818 249.163544 
L 278.365091 249.979351 
L 279.988364 251.046689 
L 281.611636 252.356519 
L 283.234909 253.899881 
L 286.481455 257.56073 
L 294.597818 267.019312 
L 297.844364 270.219245 
L 301.090909 272.830162 
L 302.714182 273.813984 
L 304.337455 274.436619 
L 305.960727 274.739829 
L 307.584 274.763944 
L 309.207273 274.549829 
L 310.830545 274.082757 
L 312.453818 273.322602 
L 314.077091 272.278652 
L 315.700364 270.959139 
L 317.323636 269.371687 
L 318.946909 267.517564 
L 320.570182 265.395857 
L 322.193455 263.020083 
L 325.44 257.614505 
L 328.686545 251.546259 
L 331.933091 244.994372 
L 338.426182 231.693879 
L 341.672727 225.615353 
L 343.296 222.907256 
L 344.919273 220.440588 
L 346.542545 218.212566 
L 348.165818 216.218753 
L 349.789091 214.453221 
L 351.412364 212.889376 
L 354.658909 210.21276 
L 357.905455 207.991572 
L 362.775273 205.119701 
L 364.398545 204.294911 
L 375.761455 199.545817 
L 385.501091 195.630942 
L 388.747636 193.938552 
L 391.994182 192.01237 
L 396.864 188.635309 
L 398.487273 187.747452 
L 398.487273 187.747452 
" style="fill:none;stroke:#1f77b4;stroke-linecap:square;stroke-width:1.5;"/>
   </g>
   <g id="line2d_16">
    <path clip-path="url(#p2ea657a45d)" d="M 73.832727 295.485921 
L 75.456 295.488 
L 77.079273 295.351389 
L 78.702545 295.080563 
L 80.325818 294.678516 
L 83.572364 293.517268 
L 86.818909 292.082642 
L 90.065455 290.422445 
L 91.688727 289.453463 
L 93.312 288.304672 
L 94.935273 286.97592 
L 96.558545 285.469687 
L 104.674909 277.271268 
L 111.168 271.3365 
L 114.414545 268.130575 
L 116.037818 266.36202 
L 117.661091 264.321241 
L 119.284364 262.023077 
L 122.530909 256.767568 
L 124.154182 254.121432 
L 125.777455 251.856947 
L 127.400727 249.958556 
L 129.024 248.409818 
L 130.647273 247.194208 
L 132.270545 246.296244 
L 133.893818 245.711951 
L 135.517091 245.448203 
L 137.140364 245.510261 
L 138.763636 245.904283 
L 142.010182 247.140546 
L 146.88 249.282119 
L 148.503273 250.163136 
L 150.126545 251.293258 
L 151.749818 252.66353 
L 153.373091 254.264995 
L 156.619636 258.034371 
L 164.736 267.708182 
L 167.982545 270.973272 
L 171.229091 273.640285 
L 172.852364 274.651036 
L 174.475636 275.302846 
L 176.098909 275.637283 
L 177.722182 275.694298 
L 179.345455 275.514194 
L 180.968727 275.082766 
L 182.592 274.360856 
L 184.215273 273.357486 
L 185.838545 272.080493 
L 187.461818 270.536949 
L 189.085091 268.727509 
L 190.708364 266.650483 
L 192.331636 264.318217 
L 195.578182 258.990441 
L 202.071273 247.22423 
L 206.941091 238.069827 
L 213.434182 225.436884 
L 215.057455 222.63553 
L 216.680727 220.084853 
L 218.304 217.781857 
L 219.927273 215.721817 
L 221.550545 213.889034 
L 223.173818 212.252631 
L 224.797091 210.788235 
L 228.043636 208.291371 
L 231.290182 206.14941 
L 234.536727 204.267921 
L 239.406545 202.119703 
L 247.522909 198.451642 
L 254.016 195.744889 
L 257.262545 194.081708 
L 260.509091 192.189969 
L 263.755636 189.938187 
L 267.002182 187.578421 
L 271.872 184.588842 
L 273.495273 183.316642 
L 275.118545 181.876047 
L 278.365091 178.745439 
L 279.988364 177.575389 
L 281.611636 176.746521 
L 283.234909 176.243842 
L 284.858182 176.05322 
L 296.221091 176.000674 
L 309.207273 176.177706 
L 322.193455 176.562084 
L 335.179636 177.151521 
L 343.296 177.655007 
L 344.919273 177.381833 
L 349.789091 175.991335 
L 351.412364 175.446892 
L 354.658909 173.690399 
L 356.282182 172.777781 
L 357.905455 172.042514 
L 359.528727 171.499565 
L 361.152 171.092378 
L 362.775273 170.875488 
L 364.398545 170.904682 
L 366.021818 171.23789 
L 374.138182 173.839908 
L 375.761455 174.376484 
L 377.384727 174.683385 
L 379.008 174.79117 
L 380.631273 174.72906 
L 385.501091 174.021606 
L 391.994182 173.245857 
L 398.487273 172.600223 
L 398.487273 172.600223 
" style="fill:none;stroke:#ff7f0e;stroke-linecap:square;stroke-width:1.5;"/>
   </g>
   <g id="line2d_17">
    <path clip-path="url(#p2ea657a45d)" d="M 73.832727 210.443242 
L 77.079273 210.558771 
L 80.325818 210.972696 
L 83.572364 211.653584 
L 86.818909 212.661266 
L 90.065455 213.929512 
L 99.805091 218.181116 
L 111.168 223.219654 
L 125.777455 228.629363 
L 129.024 230.244357 
L 132.270545 232.268977 
L 135.517091 234.791278 
L 138.763636 237.83719 
L 142.010182 241.458198 
L 145.256727 245.708844 
L 151.749818 255.062095 
L 154.996364 259.295505 
L 156.619636 261.137366 
L 158.242909 262.581607 
L 159.866182 263.639175 
L 161.489455 264.321848 
L 163.112727 264.64255 
L 164.736 264.686373 
L 166.359273 264.537489 
L 167.982545 264.175088 
L 169.605818 263.578714 
L 171.229091 262.7287 
L 172.852364 261.635565 
L 176.098909 258.922709 
L 180.968727 254.437885 
L 182.592 253.171624 
L 184.215273 252.078667 
L 185.838545 251.153369 
L 187.461818 250.389938 
L 189.085091 249.849822 
L 190.708364 249.616078 
L 192.331636 249.698733 
L 193.954909 250.105823 
L 195.578182 250.845785 
L 197.201455 251.883106 
L 198.824727 253.164859 
L 200.448 254.681583 
L 202.071273 256.423511 
L 205.317818 260.450465 
L 211.810909 268.644045 
L 213.434182 270.505698 
L 215.057455 272.068803 
L 216.680727 273.402554 
L 219.927273 275.637361 
L 221.550545 276.497302 
L 223.173818 277.013014 
L 224.797091 277.224279 
L 226.420364 277.16916 
L 228.043636 276.886033 
L 229.666909 276.360657 
L 231.290182 275.554495 
L 232.913455 274.475423 
L 234.536727 273.130124 
L 236.16 271.524529 
L 237.783273 269.658261 
L 239.406545 267.528623 
L 241.029818 265.146806 
L 244.276364 259.724662 
L 254.016 242.003486 
L 262.132364 226.919358 
L 265.378909 221.560291 
L 267.002182 219.196302 
L 268.625455 217.058445 
L 270.248727 215.149963 
L 271.872 213.450412 
L 273.495273 211.934215 
L 276.741818 209.36353 
L 279.988364 207.192803 
L 283.234909 205.318818 
L 286.481455 203.913047 
L 294.597818 200.6082 
L 297.844364 199.074528 
L 302.714182 196.560425 
L 305.960727 194.681377 
L 310.830545 191.526555 
L 314.077091 189.019385 
L 315.700364 187.569719 
L 318.946909 184.179129 
L 325.44 177.44846 
L 327.063273 175.9702 
L 328.686545 174.843546 
L 330.309818 174.051933 
L 331.933091 173.579783 
L 333.556364 173.412759 
L 351.412364 173.261328 
L 370.891636 172.879838 
L 388.747636 172.315669 
L 398.487273 171.900919 
L 398.487273 171.900919 
" style="fill:none;stroke:#2ca02c;stroke-linecap:square;stroke-width:1.5;"/>
   </g>
   <g id="line2d_18">
    <path clip-path="url(#p2ea657a45d)" d="M 73.832727 167.15832 
L 75.456 167.245167 
L 77.079273 167.596029 
L 78.702545 168.201738 
L 80.325818 169.054681 
L 83.572364 171.257894 
L 85.195636 172.119546 
L 86.818909 172.745113 
L 88.442182 173.145471 
L 90.065455 173.330686 
L 101.428364 173.716785 
L 117.661091 174.013864 
L 142.010182 174.198291 
L 193.954909 174.305351 
L 279.988364 174.521002 
L 320.570182 174.841834 
L 348.165818 175.269788 
L 369.268364 175.802219 
L 387.124364 176.468534 
L 398.487273 177.036186 
L 398.487273 177.036186 
" style="fill:none;stroke:#d62728;stroke-linecap:square;stroke-width:1.5;"/>
   </g>
   <g id="line2d_19">
    <path clip-path="url(#p2ea657a45d)" d="M 73.832727 166.603054 
L 75.456 166.681871 
L 77.079273 167.022118 
L 78.702545 167.614744 
L 80.325818 168.452296 
L 83.572364 170.619425 
L 85.195636 171.462311 
L 86.818909 172.068755 
L 88.442182 172.449498 
L 90.065455 172.614511 
L 101.428364 172.834263 
L 114.414545 172.835598 
L 129.024 172.606954 
L 143.633455 172.170665 
L 159.866182 171.564222 
L 161.489455 171.893827 
L 163.112727 172.497042 
L 164.736 173.364531 
L 167.982545 175.585778 
L 169.605818 176.326697 
L 171.229091 176.716288 
L 172.852364 176.7584 
L 174.475636 176.455095 
L 176.098909 175.840561 
L 180.968727 173.355326 
L 182.592 172.80357 
L 187.461818 171.677841 
L 190.708364 171.21833 
L 192.331636 171.241404 
L 193.954909 171.548473 
L 195.578182 172.128903 
L 197.201455 172.973372 
L 200.448 175.199817 
L 202.071273 176.085893 
L 203.694545 176.744138 
L 205.317818 177.185865 
L 206.941091 177.421355 
L 208.564364 177.398615 
L 210.187636 177.098688 
L 215.057455 175.629377 
L 216.680727 175.059069 
L 219.927273 173.250817 
L 221.550545 172.312336 
L 223.173818 171.550991 
L 224.797091 170.981605 
L 226.420364 170.547576 
L 228.043636 170.303193 
L 229.666909 170.303966 
L 231.290182 170.607564 
L 239.406545 173.052782 
L 242.653091 174.112807 
L 245.899636 174.800306 
L 249.146182 175.126456 
L 267.002182 176.456925 
L 279.988364 177.478277 
L 283.234909 177.824131 
L 284.858182 177.861231 
L 286.481455 177.620375 
L 291.351273 176.3234 
L 292.974545 175.809184 
L 296.221091 174.112578 
L 297.844364 173.229588 
L 299.467636 172.523934 
L 301.090909 172.01073 
L 302.714182 171.633497 
L 304.337455 171.447005 
L 305.960727 171.507297 
L 307.584 171.872543 
L 317.323636 175.166502 
L 318.946909 175.352099 
L 320.570182 175.21297 
L 322.193455 174.762094 
L 327.063273 172.542675 
L 328.686545 172.07541 
L 330.309818 171.774506 
L 333.556364 171.572699 
L 335.179636 171.509122 
L 336.802909 171.574171 
L 338.426182 171.922654 
L 340.049455 172.544065 
L 341.672727 173.429146 
L 344.919273 175.683992 
L 346.542545 176.441074 
L 348.165818 176.846538 
L 349.789091 176.904327 
L 351.412364 176.616577 
L 353.035636 176.017508 
L 357.905455 173.577919 
L 359.528727 173.041214 
L 364.398545 171.960656 
L 367.645091 171.531731 
L 369.268364 171.57056 
L 370.891636 171.893892 
L 372.514909 172.491093 
L 374.138182 173.352797 
L 377.384727 175.563072 
L 379.008 176.298754 
L 380.631273 176.683231 
L 382.254545 176.720326 
L 385.501091 176.06398 
L 388.747636 175.984914 
L 390.370909 175.943219 
L 391.994182 175.692001 
L 393.617455 175.125174 
L 396.864 173.323988 
L 398.487273 172.389085 
L 398.487273 172.389085 
" style="fill:none;stroke:#9467bd;stroke-linecap:square;stroke-width:1.5;"/>
   </g>
   <g id="line2d_20">
    <path clip-path="url(#p2ea657a45d)" d="M 73.832727 241.935451 
L 75.456 242.129312 
L 77.079273 242.514558 
L 78.702545 243.084274 
L 80.325818 243.832219 
L 81.949091 244.752703 
L 83.572364 245.858585 
L 85.195636 247.174718 
L 86.818909 248.713303 
L 88.442182 250.485386 
L 90.065455 252.499419 
L 93.312 257.159539 
L 98.181818 264.563202 
L 101.428364 268.933985 
L 103.051636 270.852207 
L 104.674909 272.535909 
L 106.298182 273.949394 
L 107.921455 275.032799 
L 109.544727 275.755891 
L 111.168 276.160482 
L 112.791273 276.286611 
L 114.414545 276.174481 
L 116.037818 275.810504 
L 117.661091 275.156478 
L 119.284364 274.221493 
L 120.907636 273.013306 
L 122.530909 271.538751 
L 124.154182 269.798157 
L 125.777455 267.789325 
L 127.400727 265.52367 
L 129.024 263.023814 
L 132.270545 257.497478 
L 140.386909 243.100476 
L 150.126545 225.29417 
L 153.373091 220.189746 
L 154.996364 217.962896 
L 156.619636 215.968865 
L 158.242909 214.193218 
L 159.866182 212.606132 
L 163.112727 209.895616 
L 166.359273 207.629842 
L 169.605818 205.631683 
L 172.852364 203.808785 
L 176.098909 202.203207 
L 179.345455 200.7756 
L 184.215273 198.936182 
L 189.085091 197.118926 
L 192.331636 195.631235 
L 197.201455 193.038265 
L 202.071273 190.248266 
L 205.317818 188.334965 
L 208.564364 186.795197 
L 215.057455 184.111645 
L 216.680727 183.10047 
L 218.304 181.908915 
L 221.550545 179.246757 
L 223.173818 178.297141 
L 224.797091 177.68035 
L 226.420364 177.382197 
L 229.666909 177.410083 
L 231.290182 177.151926 
L 236.16 175.799154 
L 237.783273 175.265266 
L 241.029818 173.527139 
L 242.653091 172.622535 
L 244.276364 171.89453 
L 245.899636 171.358118 
L 247.522909 170.956796 
L 249.146182 170.745099 
L 250.769455 170.778811 
L 252.392727 171.11587 
L 260.509091 173.730314 
L 262.132364 174.268264 
L 263.755636 174.576223 
L 265.378909 174.684756 
L 267.002182 174.623096 
L 271.872 173.915368 
L 278.365091 173.135895 
L 294.597818 171.562936 
L 296.221091 171.410926 
L 297.844364 171.390883 
L 299.467636 171.657143 
L 301.090909 172.198825 
L 302.714182 173.006371 
L 305.960727 175.163658 
L 307.584 176.017176 
L 309.207273 176.644007 
L 310.830545 177.055311 
L 312.453818 177.261222 
L 314.077091 177.209567 
L 315.700364 176.881246 
L 320.570182 175.329727 
L 322.193455 175.033722 
L 325.44 175.046325 
L 327.063273 175.044234 
L 330.309818 174.594288 
L 333.556364 174.720137 
L 335.179636 174.769965 
L 336.802909 174.603323 
L 341.672727 173.714129 
L 348.165818 172.797857 
L 359.528727 171.415484 
L 361.152 171.358871 
L 362.775273 171.589959 
L 364.398545 172.097686 
L 366.021818 172.87235 
L 369.268364 174.966682 
L 370.891636 175.789934 
L 372.514909 176.387106 
L 374.138182 176.769208 
L 377.384727 177.015703 
L 383.877818 177.415885 
L 385.501091 177.551072 
L 387.124364 177.545188 
L 388.747636 177.261953 
L 393.617455 175.84158 
L 395.240727 175.287268 
L 398.487273 173.510913 
L 398.487273 173.510913 
" style="fill:none;stroke:#8c564b;stroke-linecap:square;stroke-width:1.5;"/>
   </g>
   <g id="line2d_21">
    <path clip-path="url(#p2ea657a45d)" d="M 73.832727 201.456695 
L 77.079273 201.307458 
L 80.325818 200.872395 
L 83.572364 200.19851 
L 86.818909 199.356959 
L 90.065455 198.201253 
L 93.312 196.703843 
L 96.558545 194.986012 
L 99.805091 193.09892 
L 103.051636 190.902009 
L 106.298182 188.351976 
L 109.544727 185.442992 
L 112.791273 182.070517 
L 116.037818 178.355068 
L 117.661091 176.685659 
L 119.284364 175.184651 
L 120.907636 173.841876 
L 122.530909 172.647669 
L 124.154182 171.644762 
L 125.777455 170.884898 
L 127.400727 170.355633 
L 129.024 170.045671 
L 130.647273 169.944884 
L 132.270545 170.082354 
L 133.893818 170.494682 
L 135.517091 171.172147 
L 137.140364 172.106345 
L 140.386909 174.493966 
L 142.010182 175.452911 
L 143.633455 176.179272 
L 145.256727 176.684642 
L 148.503273 177.162233 
L 150.126545 177.194559 
L 151.749818 176.946696 
L 156.619636 175.619022 
L 158.242909 175.091901 
L 159.866182 174.290675 
L 163.112727 172.465237 
L 164.736 171.741334 
L 166.359273 171.208408 
L 167.982545 170.809998 
L 169.605818 170.600623 
L 171.229091 170.636044 
L 172.852364 170.974187 
L 180.968727 173.587931 
L 182.592 174.124729 
L 184.215273 174.431245 
L 185.838545 174.538037 
L 187.461818 174.474345 
L 192.331636 173.758869 
L 198.824727 172.965425 
L 213.434182 171.498036 
L 215.057455 171.472479 
L 216.680727 171.73374 
L 218.304 172.27089 
L 219.927273 173.074323 
L 223.173818 175.224438 
L 224.797091 176.074829 
L 226.420364 176.698826 
L 228.043636 177.107578 
L 229.666909 177.311205 
L 231.290182 177.257532 
L 232.913455 176.927445 
L 237.783273 175.371799 
L 239.406545 175.074724 
L 242.653091 175.085582 
L 244.276364 175.082814 
L 247.522909 174.631888 
L 250.769455 174.757182 
L 252.392727 174.806884 
L 254.016 174.640214 
L 258.885818 173.751474 
L 265.378909 172.836924 
L 276.741818 171.460281 
L 278.365091 171.404776 
L 279.988364 171.637087 
L 281.611636 172.14615 
L 283.234909 172.922253 
L 286.481455 175.019709 
L 288.104727 175.844629 
L 289.728 176.443551 
L 291.351273 176.827498 
L 294.597818 177.083054 
L 302.714182 177.526287 
L 304.337455 177.241499 
L 309.207273 175.816486 
L 310.830545 175.260632 
L 314.077091 173.481163 
L 315.700364 172.55701 
L 317.323636 171.810082 
L 318.946909 171.25528 
L 320.570182 170.83603 
L 322.193455 170.606755 
L 323.816727 170.62312 
L 325.44 170.94294 
L 333.556364 173.473747 
L 336.802909 174.570073 
L 340.049455 175.295267 
L 343.296 175.660885 
L 369.268364 178.024641 
L 370.891636 177.801407 
L 375.761455 176.556325 
L 377.384727 176.088033 
L 382.254545 174.011663 
L 383.877818 173.587973 
L 393.617455 172.202818 
L 398.487273 171.574064 
L 398.487273 171.574064 
" style="fill:none;stroke:#e377c2;stroke-linecap:square;stroke-width:1.5;"/>
   </g>
   <g id="line2d_22">
    <path clip-path="url(#p2ea657a45d)" d="M 73.832727 293.987631 
L 75.456 293.904849 
L 77.079273 293.660702 
L 78.702545 293.259362 
L 80.325818 292.703184 
L 81.949091 291.992846 
L 85.195636 290.193888 
L 93.312 285.012703 
L 94.935273 283.601682 
L 96.558545 281.988556 
L 98.181818 280.190916 
L 99.805091 278.204992 
L 103.051636 273.650454 
L 106.298182 268.543238 
L 109.544727 262.892621 
L 112.791273 256.455209 
L 116.037818 249.338271 
L 122.530909 234.321029 
L 125.777455 227.437033 
L 127.400727 224.341149 
L 129.024 221.534605 
L 130.647273 219.003382 
L 132.270545 216.738165 
L 133.893818 214.718579 
L 135.517091 212.913837 
L 137.140364 211.296553 
L 140.386909 208.517564 
L 143.633455 206.12957 
L 146.88 203.975131 
L 150.126545 202.030816 
L 153.373091 200.304814 
L 156.619636 198.757784 
L 166.359273 194.415113 
L 169.605818 192.560623 
L 172.852364 190.465825 
L 176.098909 187.852101 
L 179.345455 184.736709 
L 185.838545 178.216506 
L 187.461818 176.628601 
L 189.085091 175.208753 
L 190.708364 174.136723 
L 192.331636 173.395884 
L 193.954909 172.970728 
L 195.578182 172.847078 
L 206.941091 172.999967 
L 221.550545 172.949649 
L 237.783273 172.653291 
L 254.016 172.128228 
L 268.625455 171.569935 
L 270.248727 171.898474 
L 271.872 172.500683 
L 273.495273 173.367218 
L 276.741818 175.586692 
L 278.365091 176.326785 
L 279.988364 176.715583 
L 281.611636 176.756933 
L 283.234909 176.452892 
L 284.858182 175.837645 
L 289.728 173.350389 
L 291.351273 172.797991 
L 296.221091 171.670402 
L 299.467636 171.209684 
L 301.090909 171.232153 
L 302.714182 171.538608 
L 304.337455 172.118416 
L 305.960727 172.962254 
L 309.207273 175.187419 
L 310.830545 176.072848 
L 312.453818 176.730434 
L 314.077091 177.171489 
L 315.700364 177.406288 
L 317.323636 177.382835 
L 318.946909 177.082166 
L 323.816727 175.610528 
L 325.44 175.039416 
L 328.686545 173.229498 
L 330.309818 172.290159 
L 331.933091 171.527929 
L 333.556364 170.957626 
L 335.179636 170.522649 
L 336.802909 170.277274 
L 338.426182 170.277 
L 340.049455 170.579484 
L 348.165818 173.018621 
L 351.412364 174.075994 
L 354.658909 174.760709 
L 357.905455 175.083921 
L 375.761455 176.394848 
L 390.370909 177.524381 
L 393.617455 177.869825 
L 395.240727 177.906926 
L 396.864 177.666244 
L 398.487273 177.257507 
L 398.487273 177.257507 
" style="fill:none;stroke:#7f7f7f;stroke-linecap:square;stroke-width:1.5;"/>
   </g>
   <g id="line2d_23">
    <path clip-path="url(#p2ea657a45d)" d="M 73.832727 53.568 
L 77.079273 53.721833 
L 80.325818 54.109489 
L 83.572364 54.711208 
L 86.818909 55.508131 
L 90.065455 56.482168 
L 94.935273 58.237228 
L 99.805091 60.294522 
L 104.674909 62.598482 
L 111.168 65.959667 
L 119.284364 70.446418 
L 133.893818 78.597878 
L 140.386909 81.981396 
L 146.88 85.087595 
L 151.749818 87.19396 
L 156.619636 89.085333 
L 161.489455 90.747701 
L 166.359273 92.173447 
L 171.229091 93.360859 
L 176.098909 94.313487 
L 180.968727 95.039405 
L 185.838545 95.550459 
L 190.708364 95.861513 
L 195.578182 95.989744 
L 202.071273 95.90906 
L 208.564364 95.584374 
L 216.680727 94.9095 
L 226.420364 93.827842 
L 245.899636 91.326218 
L 258.885818 89.773765 
L 268.625455 88.800357 
L 278.365091 88.035355 
L 288.104727 87.492219 
L 297.844364 87.164194 
L 309.207273 87.023443 
L 322.193455 87.11723 
L 338.426182 87.483949 
L 391.994182 88.885567 
L 398.487273 88.975418 
L 398.487273 88.975418 
" style="fill:none;stroke:#bcbd22;stroke-linecap:square;stroke-width:1.5;"/>
   </g>
   <g id="line2d_24">
    <path clip-path="url(#p2ea657a45d)" d="M 73.832727 186.050086 
L 75.456 185.857558 
L 77.079273 185.530222 
L 78.702545 185.072025 
L 80.325818 184.486132 
L 81.949091 183.775007 
L 83.572364 182.90547 
L 85.195636 181.840029 
L 86.818909 180.586053 
L 88.442182 179.149366 
L 91.688727 175.995129 
L 93.312 174.80743 
L 94.935273 173.957198 
L 96.558545 173.428606 
L 98.181818 173.207055 
L 124.154182 172.176745 
L 138.763636 171.537084 
L 140.386909 171.858156 
L 142.010182 172.453071 
L 143.633455 173.312465 
L 146.88 175.518069 
L 148.503273 176.251375 
L 150.126545 176.63342 
L 151.749818 176.668011 
L 154.996364 176.006457 
L 158.242909 175.922128 
L 159.866182 175.87774 
L 161.489455 175.623752 
L 163.112727 175.054062 
L 166.359273 173.246933 
L 167.982545 172.308964 
L 169.605818 171.548101 
L 171.229091 170.979168 
L 172.852364 170.545567 
L 174.475636 170.301588 
L 176.098909 170.302741 
L 177.722182 170.6067 
L 185.838545 173.05349 
L 189.085091 174.114065 
L 192.331636 174.80208 
L 195.578182 175.128722 
L 213.434182 176.461718 
L 226.420364 177.485015 
L 229.666909 177.8314 
L 231.290182 177.86878 
L 232.913455 177.62822 
L 237.783273 176.3322 
L 239.406545 175.81832 
L 242.653091 174.122425 
L 244.276364 173.239805 
L 245.899636 172.534531 
L 247.522909 172.021722 
L 249.146182 171.644898 
L 250.769455 171.458833 
L 252.392727 171.519573 
L 254.016 171.885292 
L 263.755636 175.182406 
L 265.378909 175.368585 
L 267.002182 175.230063 
L 268.625455 174.779815 
L 273.495273 172.562406 
L 275.118545 172.095856 
L 276.741818 171.795697 
L 279.988364 171.595468 
L 281.611636 171.532715 
L 283.234909 171.598622 
L 284.858182 171.948013 
L 286.481455 172.570378 
L 288.104727 173.456455 
L 291.351273 175.713394 
L 292.974545 176.47158 
L 294.597818 176.878204 
L 296.221091 176.937218 
L 297.844364 176.650762 
L 299.467636 176.053052 
L 304.337455 173.617797 
L 305.960727 173.082615 
L 310.830545 172.006876 
L 314.077091 171.581413 
L 315.700364 171.489418 
L 317.323636 171.527157 
L 318.946909 171.849293 
L 320.570182 172.445199 
L 322.193455 173.305517 
L 325.44 175.512804 
L 327.063273 176.246877 
L 328.686545 176.629643 
L 330.309818 176.664911 
L 333.556364 176.004603 
L 336.802909 175.921404 
L 338.426182 175.877543 
L 340.049455 175.624059 
L 341.672727 175.054855 
L 344.919273 173.248644 
L 346.542545 172.311112 
L 348.165818 171.550673 
L 349.789091 170.982155 
L 351.412364 170.548961 
L 353.035636 170.305382 
L 354.658909 170.306934 
L 356.282182 170.611291 
L 364.398545 173.060044 
L 367.645091 174.121399 
L 370.891636 174.8102 
L 374.138182 175.137644 
L 391.994182 176.475554 
L 398.487273 176.953908 
L 398.487273 176.953908 
" style="fill:none;stroke:#17becf;stroke-linecap:square;stroke-width:1.5;"/>
   </g>
   <g id="patch_3">
    <path d="M 57.6 307.584 
L 57.6 41.472 
" style="fill:none;stroke:#000000;stroke-linecap:square;stroke-linejoin:miter;stroke-width:0.8;"/>
   </g>
   <g id="patch_4">
    <path d="M 414.72 307.584 
L 414.72 41.472 
" style="fill:none;stroke:#000000;stroke-linecap:square;stroke-linejoin:miter;stroke-width:0.8;"/>
   </g>
   <g id="patch_5">
    <path d="M 57.6 307.584 
L 414.72 307.584 
" style="fill:none;stroke:#000000;stroke-linecap:square;stroke-linejoin:miter;stroke-width:0.8;"/>
   </g>
   <g id="patch_6">
    <path d="M 57.6 41.472 
L 414.72 41.472 
" style="fill:none;stroke:#000000;stroke-linecap:square;stroke-linejoin:miter;stroke-width:0.8;"/>
   </g>
   <g id="legend_1">
    <g id="patch_7">
     <path d="M 64.6 196.25325 
L 109.325 196.25325 
Q 111.325 196.25325 111.325 194.25325 
L 111.325 48.472 
Q 111.325 46.472 109.325 46.472 
L 64.6 46.472 
Q 62.6 46.472 62.6 48.472 
L 62.6 194.25325 
Q 62.6 196.25325 64.6 196.25325 
z
" style="fill:#ffffff;opacity:0.8;stroke:#cccccc;stroke-linejoin:miter;"/>
    </g>
    <g id="line2d_25">
     <path d="M 66.6 54.570437 
L 86.6 54.570437 
" style="fill:none;stroke:#1f77b4;stroke-linecap:square;stroke-width:1.5;"/>
    </g>
    <g id="line2d_26"/>
    <g id="text_15">
     <!-- 60 -->
     <g transform="translate(94.6 58.070437)scale(0.1 -0.1)">
      <defs>
       <path d="M 2113 2584 
Q 1688 2584 1439 2293 
Q 1191 2003 1191 1497 
Q 1191 994 1439 701 
Q 1688 409 2113 409 
Q 2538 409 2786 701 
Q 3034 994 3034 1497 
Q 3034 2003 2786 2293 
Q 2538 2584 2113 2584 
z
M 3366 4563 
L 3366 3988 
Q 3128 4100 2886 4159 
Q 2644 4219 2406 4219 
Q 1781 4219 1451 3797 
Q 1122 3375 1075 2522 
Q 1259 2794 1537 2939 
Q 1816 3084 2150 3084 
Q 2853 3084 3261 2657 
Q 3669 2231 3669 1497 
Q 3669 778 3244 343 
Q 2819 -91 2113 -91 
Q 1303 -91 875 529 
Q 447 1150 447 2328 
Q 447 3434 972 4092 
Q 1497 4750 2381 4750 
Q 2619 4750 2861 4703 
Q 3103 4656 3366 4563 
z
" id="DejaVuSans-36" transform="scale(0.015625)"/>
      </defs>
      <use xlink:href="#DejaVuSans-36"/>
      <use x="63.623047" xlink:href="#DejaVuSans-30"/>
     </g>
    </g>
    <g id="line2d_27">
     <path d="M 66.6 69.248562 
L 86.6 69.248562 
" style="fill:none;stroke:#ff7f0e;stroke-linecap:square;stroke-width:1.5;"/>
    </g>
    <g id="line2d_28"/>
    <g id="text_16">
     <!-- 61 -->
     <g transform="translate(94.6 72.748562)scale(0.1 -0.1)">
      <use xlink:href="#DejaVuSans-36"/>
      <use x="63.623047" xlink:href="#DejaVuSans-31"/>
     </g>
    </g>
    <g id="line2d_29">
     <path d="M 66.6 83.926688 
L 86.6 83.926688 
" style="fill:none;stroke:#2ca02c;stroke-linecap:square;stroke-width:1.5;"/>
    </g>
    <g id="line2d_30"/>
    <g id="text_17">
     <!-- 62 -->
     <g transform="translate(94.6 87.426688)scale(0.1 -0.1)">
      <use xlink:href="#DejaVuSans-36"/>
      <use x="63.623047" xlink:href="#DejaVuSans-32"/>
     </g>
    </g>
    <g id="line2d_31">
     <path d="M 66.6 98.604812 
L 86.6 98.604812 
" style="fill:none;stroke:#d62728;stroke-linecap:square;stroke-width:1.5;"/>
    </g>
    <g id="line2d_32"/>
    <g id="text_18">
     <!-- 63 -->
     <g transform="translate(94.6 102.104812)scale(0.1 -0.1)">
      <defs>
       <path d="M 2597 2516 
Q 3050 2419 3304 2112 
Q 3559 1806 3559 1356 
Q 3559 666 3084 287 
Q 2609 -91 1734 -91 
Q 1441 -91 1130 -33 
Q 819 25 488 141 
L 488 750 
Q 750 597 1062 519 
Q 1375 441 1716 441 
Q 2309 441 2620 675 
Q 2931 909 2931 1356 
Q 2931 1769 2642 2001 
Q 2353 2234 1838 2234 
L 1294 2234 
L 1294 2753 
L 1863 2753 
Q 2328 2753 2575 2939 
Q 2822 3125 2822 3475 
Q 2822 3834 2567 4026 
Q 2313 4219 1838 4219 
Q 1578 4219 1281 4162 
Q 984 4106 628 3988 
L 628 4550 
Q 988 4650 1302 4700 
Q 1616 4750 1894 4750 
Q 2613 4750 3031 4423 
Q 3450 4097 3450 3541 
Q 3450 3153 3228 2886 
Q 3006 2619 2597 2516 
z
" id="DejaVuSans-33" transform="scale(0.015625)"/>
      </defs>
      <use xlink:href="#DejaVuSans-36"/>
      <use x="63.623047" xlink:href="#DejaVuSans-33"/>
     </g>
    </g>
    <g id="line2d_33">
     <path d="M 66.6 113.282938 
L 86.6 113.282938 
" style="fill:none;stroke:#9467bd;stroke-linecap:square;stroke-width:1.5;"/>
    </g>
    <g id="line2d_34"/>
    <g id="text_19">
     <!-- 64 -->
     <g transform="translate(94.6 116.782938)scale(0.1 -0.1)">
      <use xlink:href="#DejaVuSans-36"/>
      <use x="63.623047" xlink:href="#DejaVuSans-34"/>
     </g>
    </g>
    <g id="line2d_35">
     <path d="M 66.6 127.961062 
L 86.6 127.961062 
" style="fill:none;stroke:#8c564b;stroke-linecap:square;stroke-width:1.5;"/>
    </g>
    <g id="line2d_36"/>
    <g id="text_20">
     <!-- 65 -->
     <g transform="translate(94.6 131.461062)scale(0.1 -0.1)">
      <use xlink:href="#DejaVuSans-36"/>
      <use x="63.623047" xlink:href="#DejaVuSans-35"/>
     </g>
    </g>
    <g id="line2d_37">
     <path d="M 66.6 142.639187 
L 86.6 142.639187 
" style="fill:none;stroke:#e377c2;stroke-linecap:square;stroke-width:1.5;"/>
    </g>
    <g id="line2d_38"/>
    <g id="text_21">
     <!-- 66 -->
     <g transform="translate(94.6 146.139187)scale(0.1 -0.1)">
      <use xlink:href="#DejaVuSans-36"/>
      <use x="63.623047" xlink:href="#DejaVuSans-36"/>
     </g>
    </g>
    <g id="line2d_39">
     <path d="M 66.6 157.317312 
L 86.6 157.317312 
" style="fill:none;stroke:#7f7f7f;stroke-linecap:square;stroke-width:1.5;"/>
    </g>
    <g id="line2d_40"/>
    <g id="text_22">
     <!-- 67 -->
     <g transform="translate(94.6 160.817312)scale(0.1 -0.1)">
      <use xlink:href="#DejaVuSans-36"/>
      <use x="63.623047" xlink:href="#DejaVuSans-37"/>
     </g>
    </g>
    <g id="line2d_41">
     <path d="M 66.6 171.995437 
L 86.6 171.995437 
" style="fill:none;stroke:#bcbd22;stroke-linecap:square;stroke-width:1.5;"/>
    </g>
    <g id="line2d_42"/>
    <g id="text_23">
     <!-- 68 -->
     <g transform="translate(94.6 175.495437)scale(0.1 -0.1)">
      <defs>
       <path d="M 2034 2216 
Q 1584 2216 1326 1975 
Q 1069 1734 1069 1313 
Q 1069 891 1326 650 
Q 1584 409 2034 409 
Q 2484 409 2743 651 
Q 3003 894 3003 1313 
Q 3003 1734 2745 1975 
Q 2488 2216 2034 2216 
z
M 1403 2484 
Q 997 2584 770 2862 
Q 544 3141 544 3541 
Q 544 4100 942 4425 
Q 1341 4750 2034 4750 
Q 2731 4750 3128 4425 
Q 3525 4100 3525 3541 
Q 3525 3141 3298 2862 
Q 3072 2584 2669 2484 
Q 3125 2378 3379 2068 
Q 3634 1759 3634 1313 
Q 3634 634 3220 271 
Q 2806 -91 2034 -91 
Q 1263 -91 848 271 
Q 434 634 434 1313 
Q 434 1759 690 2068 
Q 947 2378 1403 2484 
z
M 1172 3481 
Q 1172 3119 1398 2916 
Q 1625 2713 2034 2713 
Q 2441 2713 2670 2916 
Q 2900 3119 2900 3481 
Q 2900 3844 2670 4047 
Q 2441 4250 2034 4250 
Q 1625 4250 1398 4047 
Q 1172 3844 1172 3481 
z
" id="DejaVuSans-38" transform="scale(0.015625)"/>
      </defs>
      <use xlink:href="#DejaVuSans-36"/>
      <use x="63.623047" xlink:href="#DejaVuSans-38"/>
     </g>
    </g>
    <g id="line2d_43">
     <path d="M 66.6 186.673562 
L 86.6 186.673562 
" style="fill:none;stroke:#17becf;stroke-linecap:square;stroke-width:1.5;"/>
    </g>
    <g id="line2d_44"/>
    <g id="text_24">
     <!-- 69 -->
     <g transform="translate(94.6 190.173562)scale(0.1 -0.1)">
      <defs>
       <path d="M 703 97 
L 703 672 
Q 941 559 1184 500 
Q 1428 441 1663 441 
Q 2288 441 2617 861 
Q 2947 1281 2994 2138 
Q 2813 1869 2534 1725 
Q 2256 1581 1919 1581 
Q 1219 1581 811 2004 
Q 403 2428 403 3163 
Q 403 3881 828 4315 
Q 1253 4750 1959 4750 
Q 2769 4750 3195 4129 
Q 3622 3509 3622 2328 
Q 3622 1225 3098 567 
Q 2575 -91 1691 -91 
Q 1453 -91 1209 -44 
Q 966 3 703 97 
z
M 1959 2075 
Q 2384 2075 2632 2365 
Q 2881 2656 2881 3163 
Q 2881 3666 2632 3958 
Q 2384 4250 1959 4250 
Q 1534 4250 1286 3958 
Q 1038 3666 1038 3163 
Q 1038 2656 1286 2365 
Q 1534 2075 1959 2075 
z
" id="DejaVuSans-39" transform="scale(0.015625)"/>
      </defs>
      <use xlink:href="#DejaVuSans-36"/>
      <use x="63.623047" xlink:href="#DejaVuSans-39"/>
     </g>
    </g>
   </g>
  </g>
 </g>
 <defs>
  <clipPath id="p2ea657a45d">
   <rect height="266.112" width="357.12" x="57.6" y="41.472"/>
  </clipPath>
 </defs>
</svg>
