<?xml version="1.0" encoding="utf-8" standalone="no"?>
<!DOCTYPE svg PUBLIC "-//W3C//DTD SVG 1.1//EN"
  "http://www.w3.org/Graphics/SVG/1.1/DTD/svg11.dtd">
<svg height="345.6pt" version="1.1" viewBox="0 0 460.8 345.6" width="460.8pt" xmlns="http://www.w3.org/2000/svg" xmlns:xlink="http://www.w3.org/1999/xlink">
 <metadata>
  <rdf:RDF xmlns:cc="http://creativecommons.org/ns#" xmlns:dc="http://purl.org/dc/elements/1.1/" xmlns:rdf="http://www.w3.org/1999/02/22-rdf-syntax-ns#">
   <cc:Work>
    <dc:type rdf:resource="http://purl.org/dc/dcmitype/StillImage"/>
    <dc:date>2021-08-18T15:08:48.203590</dc:date>
    <dc:format>image/svg+xml</dc:format>
    <dc:creator>
     <cc:Agent>
      <dc:title>Matplotlib v3.4.2, https://matplotlib.org/</dc:title>
     </cc:Agent>
    </dc:creator>
   </cc:Work>
  </rdf:RDF>
 </metadata>
 <defs>
  <style type="text/css">*{stroke-linecap:butt;stroke-linejoin:round;}</style>
 </defs>
 <g id="figure_1">
  <g id="patch_1">
   <path d="M 0 345.6 
L 460.8 345.6 
L 460.8 0 
L 0 0 
z
" style="fill:#ffffff;"/>
  </g>
  <g id="axes_1">
   <g id="patch_2">
    <path d="M 57.6 307.584 
L 414.72 307.584 
L 414.72 41.472 
L 57.6 41.472 
z
" style="fill:#ffffff;"/>
   </g>
   <g id="matplotlib.axis_1">
    <g id="xtick_1">
     <g id="line2d_1">
      <defs>
       <path d="M 0 0 
L 0 3.5 
" id="mc6189fd955" style="stroke:#000000;stroke-width:0.8;"/>
      </defs>
      <g>
       <use style="stroke:#000000;stroke-width:0.8;" x="73.832727" xlink:href="#mc6189fd955" y="307.584"/>
      </g>
     </g>
     <g id="text_1">
      <!-- 0 -->
      <g transform="translate(70.651477 322.182437)scale(0.1 -0.1)">
       <defs>
        <path d="M 2034 4250 
Q 1547 4250 1301 3770 
Q 1056 3291 1056 2328 
Q 1056 1369 1301 889 
Q 1547 409 2034 409 
Q 2525 409 2770 889 
Q 3016 1369 3016 2328 
Q 3016 3291 2770 3770 
Q 2525 4250 2034 4250 
z
M 2034 4750 
Q 2819 4750 3233 4129 
Q 3647 3509 3647 2328 
Q 3647 1150 3233 529 
Q 2819 -91 2034 -91 
Q 1250 -91 836 529 
Q 422 1150 422 2328 
Q 422 3509 836 4129 
Q 1250 4750 2034 4750 
z
" id="DejaVuSans-30" transform="scale(0.015625)"/>
       </defs>
       <use xlink:href="#DejaVuSans-30"/>
      </g>
     </g>
    </g>
    <g id="xtick_2">
     <g id="line2d_2">
      <g>
       <use style="stroke:#000000;stroke-width:0.8;" x="114.414545" xlink:href="#mc6189fd955" y="307.584"/>
      </g>
     </g>
     <g id="text_2">
      <!-- 25 -->
      <g transform="translate(108.052045 322.182437)scale(0.1 -0.1)">
       <defs>
        <path d="M 1228 531 
L 3431 531 
L 3431 0 
L 469 0 
L 469 531 
Q 828 903 1448 1529 
Q 2069 2156 2228 2338 
Q 2531 2678 2651 2914 
Q 2772 3150 2772 3378 
Q 2772 3750 2511 3984 
Q 2250 4219 1831 4219 
Q 1534 4219 1204 4116 
Q 875 4013 500 3803 
L 500 4441 
Q 881 4594 1212 4672 
Q 1544 4750 1819 4750 
Q 2544 4750 2975 4387 
Q 3406 4025 3406 3419 
Q 3406 3131 3298 2873 
Q 3191 2616 2906 2266 
Q 2828 2175 2409 1742 
Q 1991 1309 1228 531 
z
" id="DejaVuSans-32" transform="scale(0.015625)"/>
        <path d="M 691 4666 
L 3169 4666 
L 3169 4134 
L 1269 4134 
L 1269 2991 
Q 1406 3038 1543 3061 
Q 1681 3084 1819 3084 
Q 2600 3084 3056 2656 
Q 3513 2228 3513 1497 
Q 3513 744 3044 326 
Q 2575 -91 1722 -91 
Q 1428 -91 1123 -41 
Q 819 9 494 109 
L 494 744 
Q 775 591 1075 516 
Q 1375 441 1709 441 
Q 2250 441 2565 725 
Q 2881 1009 2881 1497 
Q 2881 1984 2565 2268 
Q 2250 2553 1709 2553 
Q 1456 2553 1204 2497 
Q 953 2441 691 2322 
L 691 4666 
z
" id="DejaVuSans-35" transform="scale(0.015625)"/>
       </defs>
       <use xlink:href="#DejaVuSans-32"/>
       <use x="63.623047" xlink:href="#DejaVuSans-35"/>
      </g>
     </g>
    </g>
    <g id="xtick_3">
     <g id="line2d_3">
      <g>
       <use style="stroke:#000000;stroke-width:0.8;" x="154.996364" xlink:href="#mc6189fd955" y="307.584"/>
      </g>
     </g>
     <g id="text_3">
      <!-- 50 -->
      <g transform="translate(148.633864 322.182437)scale(0.1 -0.1)">
       <use xlink:href="#DejaVuSans-35"/>
       <use x="63.623047" xlink:href="#DejaVuSans-30"/>
      </g>
     </g>
    </g>
    <g id="xtick_4">
     <g id="line2d_4">
      <g>
       <use style="stroke:#000000;stroke-width:0.8;" x="195.578182" xlink:href="#mc6189fd955" y="307.584"/>
      </g>
     </g>
     <g id="text_4">
      <!-- 75 -->
      <g transform="translate(189.215682 322.182437)scale(0.1 -0.1)">
       <defs>
        <path d="M 525 4666 
L 3525 4666 
L 3525 4397 
L 1831 0 
L 1172 0 
L 2766 4134 
L 525 4134 
L 525 4666 
z
" id="DejaVuSans-37" transform="scale(0.015625)"/>
       </defs>
       <use xlink:href="#DejaVuSans-37"/>
       <use x="63.623047" xlink:href="#DejaVuSans-35"/>
      </g>
     </g>
    </g>
    <g id="xtick_5">
     <g id="line2d_5">
      <g>
       <use style="stroke:#000000;stroke-width:0.8;" x="236.16" xlink:href="#mc6189fd955" y="307.584"/>
      </g>
     </g>
     <g id="text_5">
      <!-- 100 -->
      <g transform="translate(226.61625 322.182437)scale(0.1 -0.1)">
       <defs>
        <path d="M 794 531 
L 1825 531 
L 1825 4091 
L 703 3866 
L 703 4441 
L 1819 4666 
L 2450 4666 
L 2450 531 
L 3481 531 
L 3481 0 
L 794 0 
L 794 531 
z
" id="DejaVuSans-31" transform="scale(0.015625)"/>
       </defs>
       <use xlink:href="#DejaVuSans-31"/>
       <use x="63.623047" xlink:href="#DejaVuSans-30"/>
       <use x="127.246094" xlink:href="#DejaVuSans-30"/>
      </g>
     </g>
    </g>
    <g id="xtick_6">
     <g id="line2d_6">
      <g>
       <use style="stroke:#000000;stroke-width:0.8;" x="276.741818" xlink:href="#mc6189fd955" y="307.584"/>
      </g>
     </g>
     <g id="text_6">
      <!-- 125 -->
      <g transform="translate(267.198068 322.182437)scale(0.1 -0.1)">
       <use xlink:href="#DejaVuSans-31"/>
       <use x="63.623047" xlink:href="#DejaVuSans-32"/>
       <use x="127.246094" xlink:href="#DejaVuSans-35"/>
      </g>
     </g>
    </g>
    <g id="xtick_7">
     <g id="line2d_7">
      <g>
       <use style="stroke:#000000;stroke-width:0.8;" x="317.323636" xlink:href="#mc6189fd955" y="307.584"/>
      </g>
     </g>
     <g id="text_7">
      <!-- 150 -->
      <g transform="translate(307.779886 322.182437)scale(0.1 -0.1)">
       <use xlink:href="#DejaVuSans-31"/>
       <use x="63.623047" xlink:href="#DejaVuSans-35"/>
       <use x="127.246094" xlink:href="#DejaVuSans-30"/>
      </g>
     </g>
    </g>
    <g id="xtick_8">
     <g id="line2d_8">
      <g>
       <use style="stroke:#000000;stroke-width:0.8;" x="357.905455" xlink:href="#mc6189fd955" y="307.584"/>
      </g>
     </g>
     <g id="text_8">
      <!-- 175 -->
      <g transform="translate(348.361705 322.182437)scale(0.1 -0.1)">
       <use xlink:href="#DejaVuSans-31"/>
       <use x="63.623047" xlink:href="#DejaVuSans-37"/>
       <use x="127.246094" xlink:href="#DejaVuSans-35"/>
      </g>
     </g>
    </g>
    <g id="xtick_9">
     <g id="line2d_9">
      <g>
       <use style="stroke:#000000;stroke-width:0.8;" x="398.487273" xlink:href="#mc6189fd955" y="307.584"/>
      </g>
     </g>
     <g id="text_9">
      <!-- 200 -->
      <g transform="translate(388.943523 322.182437)scale(0.1 -0.1)">
       <use xlink:href="#DejaVuSans-32"/>
       <use x="63.623047" xlink:href="#DejaVuSans-30"/>
       <use x="127.246094" xlink:href="#DejaVuSans-30"/>
      </g>
     </g>
    </g>
   </g>
   <g id="matplotlib.axis_2">
    <g id="ytick_1">
     <g id="line2d_10">
      <defs>
       <path d="M 0 0 
L -3.5 0 
" id="me356b2f9b2" style="stroke:#000000;stroke-width:0.8;"/>
      </defs>
      <g>
       <use style="stroke:#000000;stroke-width:0.8;" x="57.6" xlink:href="#me356b2f9b2" y="303.107469"/>
      </g>
     </g>
     <g id="text_10">
      <!-- −4 -->
      <g transform="translate(35.857813 306.906688)scale(0.1 -0.1)">
       <defs>
        <path d="M 678 2272 
L 4684 2272 
L 4684 1741 
L 678 1741 
L 678 2272 
z
" id="DejaVuSans-2212" transform="scale(0.015625)"/>
        <path d="M 2419 4116 
L 825 1625 
L 2419 1625 
L 2419 4116 
z
M 2253 4666 
L 3047 4666 
L 3047 1625 
L 3713 1625 
L 3713 1100 
L 3047 1100 
L 3047 0 
L 2419 0 
L 2419 1100 
L 313 1100 
L 313 1709 
L 2253 4666 
z
" id="DejaVuSans-34" transform="scale(0.015625)"/>
       </defs>
       <use xlink:href="#DejaVuSans-2212"/>
       <use x="83.789062" xlink:href="#DejaVuSans-34"/>
      </g>
     </g>
    </g>
    <g id="ytick_2">
     <g id="line2d_11">
      <g>
       <use style="stroke:#000000;stroke-width:0.8;" x="57.6" xlink:href="#me356b2f9b2" y="269.346559"/>
      </g>
     </g>
     <g id="text_11">
      <!-- −3 -->
      <g transform="translate(35.857813 273.145778)scale(0.1 -0.1)">
       <defs>
        <path d="M 2597 2516 
Q 3050 2419 3304 2112 
Q 3559 1806 3559 1356 
Q 3559 666 3084 287 
Q 2609 -91 1734 -91 
Q 1441 -91 1130 -33 
Q 819 25 488 141 
L 488 750 
Q 750 597 1062 519 
Q 1375 441 1716 441 
Q 2309 441 2620 675 
Q 2931 909 2931 1356 
Q 2931 1769 2642 2001 
Q 2353 2234 1838 2234 
L 1294 2234 
L 1294 2753 
L 1863 2753 
Q 2328 2753 2575 2939 
Q 2822 3125 2822 3475 
Q 2822 3834 2567 4026 
Q 2313 4219 1838 4219 
Q 1578 4219 1281 4162 
Q 984 4106 628 3988 
L 628 4550 
Q 988 4650 1302 4700 
Q 1616 4750 1894 4750 
Q 2613 4750 3031 4423 
Q 3450 4097 3450 3541 
Q 3450 3153 3228 2886 
Q 3006 2619 2597 2516 
z
" id="DejaVuSans-33" transform="scale(0.015625)"/>
       </defs>
       <use xlink:href="#DejaVuSans-2212"/>
       <use x="83.789062" xlink:href="#DejaVuSans-33"/>
      </g>
     </g>
    </g>
    <g id="ytick_3">
     <g id="line2d_12">
      <g>
       <use style="stroke:#000000;stroke-width:0.8;" x="57.6" xlink:href="#me356b2f9b2" y="235.58565"/>
      </g>
     </g>
     <g id="text_12">
      <!-- −2 -->
      <g transform="translate(35.857813 239.384868)scale(0.1 -0.1)">
       <use xlink:href="#DejaVuSans-2212"/>
       <use x="83.789062" xlink:href="#DejaVuSans-32"/>
      </g>
     </g>
    </g>
    <g id="ytick_4">
     <g id="line2d_13">
      <g>
       <use style="stroke:#000000;stroke-width:0.8;" x="57.6" xlink:href="#me356b2f9b2" y="201.82474"/>
      </g>
     </g>
     <g id="text_13">
      <!-- −1 -->
      <g transform="translate(35.857813 205.623959)scale(0.1 -0.1)">
       <use xlink:href="#DejaVuSans-2212"/>
       <use x="83.789062" xlink:href="#DejaVuSans-31"/>
      </g>
     </g>
    </g>
    <g id="ytick_5">
     <g id="line2d_14">
      <g>
       <use style="stroke:#000000;stroke-width:0.8;" x="57.6" xlink:href="#me356b2f9b2" y="168.06383"/>
      </g>
     </g>
     <g id="text_14">
      <!-- 0 -->
      <g transform="translate(44.2375 171.863049)scale(0.1 -0.1)">
       <use xlink:href="#DejaVuSans-30"/>
      </g>
     </g>
    </g>
    <g id="ytick_6">
     <g id="line2d_15">
      <g>
       <use style="stroke:#000000;stroke-width:0.8;" x="57.6" xlink:href="#me356b2f9b2" y="134.302921"/>
      </g>
     </g>
     <g id="text_15">
      <!-- 1 -->
      <g transform="translate(44.2375 138.102139)scale(0.1 -0.1)">
       <use xlink:href="#DejaVuSans-31"/>
      </g>
     </g>
    </g>
    <g id="ytick_7">
     <g id="line2d_16">
      <g>
       <use style="stroke:#000000;stroke-width:0.8;" x="57.6" xlink:href="#me356b2f9b2" y="100.542011"/>
      </g>
     </g>
     <g id="text_16">
      <!-- 2 -->
      <g transform="translate(44.2375 104.34123)scale(0.1 -0.1)">
       <use xlink:href="#DejaVuSans-32"/>
      </g>
     </g>
    </g>
    <g id="ytick_8">
     <g id="line2d_17">
      <g>
       <use style="stroke:#000000;stroke-width:0.8;" x="57.6" xlink:href="#me356b2f9b2" y="66.781101"/>
      </g>
     </g>
     <g id="text_17">
      <!-- 3 -->
      <g transform="translate(44.2375 70.58032)scale(0.1 -0.1)">
       <use xlink:href="#DejaVuSans-33"/>
      </g>
     </g>
    </g>
   </g>
   <g id="line2d_18">
    <path clip-path="url(#p512602d3b8)" d="M 73.832727 164.226513 
L 75.456 164.265989 
L 77.079273 164.656954 
L 78.702545 165.386293 
L 80.325818 166.442507 
L 83.572364 169.220108 
L 85.195636 170.326762 
L 86.818909 171.150645 
L 88.442182 171.705822 
L 90.065455 172.005077 
L 91.688727 171.983991 
L 93.312 171.619098 
L 98.181818 169.817484 
L 99.805091 169.116866 
L 101.428364 168.078445 
L 104.674909 165.730433 
L 106.298182 164.792784 
L 107.921455 164.093158 
L 109.544727 163.561397 
L 111.168 163.264862 
L 112.791273 163.272439 
L 114.414545 163.655689 
L 122.530909 166.723025 
L 125.777455 168.052266 
L 127.400727 168.546497 
L 129.024 168.920145 
L 132.270545 169.340678 
L 150.126545 171.09458 
L 159.866182 172.119301 
L 163.112727 172.563529 
L 164.736 172.617153 
L 166.359273 172.326227 
L 171.229091 170.741353 
L 172.852364 170.111547 
L 174.475636 169.143942 
L 177.722182 166.937002 
L 179.345455 166.07016 
L 180.968727 165.442054 
L 182.592 164.982678 
L 184.215273 164.760005 
L 185.838545 164.843584 
L 187.461818 165.305601 
L 193.954909 167.991581 
L 195.578182 168.787764 
L 197.201455 169.448825 
L 198.824727 169.689672 
L 200.448 169.528303 
L 202.071273 168.980811 
L 206.941091 166.265676 
L 208.564364 165.699277 
L 210.187636 165.339598 
L 213.434182 165.117625 
L 224.797091 164.737212 
L 226.420364 165.161892 
L 228.043636 165.925276 
L 229.666909 167.01585 
L 232.913455 169.798663 
L 234.536727 170.731234 
L 236.16 171.228033 
L 237.783273 171.293914 
L 239.406545 170.931498 
L 241.029818 170.183192 
L 245.899636 167.142358 
L 247.522909 166.471674 
L 252.392727 165.116358 
L 254.016 164.779448 
L 255.639273 164.574144 
L 257.262545 164.616963 
L 258.885818 165.012378 
L 260.509091 165.747202 
L 262.132364 166.809836 
L 265.378909 169.538448 
L 267.002182 170.44453 
L 268.625455 170.914996 
L 270.248727 170.954541 
L 273.495273 170.127268 
L 275.118545 170.008036 
L 278.365091 169.95667 
L 281.611636 169.300449 
L 283.234909 169.276425 
L 286.481455 169.399085 
L 289.728 168.897098 
L 291.351273 168.944028 
L 294.597818 169.197815 
L 296.221091 169.019063 
L 301.090909 168.001571 
L 305.960727 167.217633 
L 315.700364 165.903451 
L 327.063273 164.516529 
L 328.686545 164.484841 
L 330.309818 164.808357 
L 331.933091 165.473554 
L 333.556364 166.468557 
L 336.802909 169.131268 
L 338.426182 170.183724 
L 340.049455 170.955232 
L 341.672727 171.459602 
L 343.296 171.709371 
L 344.919273 171.639817 
L 346.542545 171.227232 
L 351.412364 169.287102 
L 353.035636 168.914645 
L 354.658909 168.85622 
L 357.905455 168.911245 
L 361.152 168.342174 
L 362.775273 168.35574 
L 366.021818 168.542628 
L 369.268364 168.091178 
L 370.891636 168.15899 
L 374.138182 168.446496 
L 375.761455 168.280715 
L 380.631273 167.288498 
L 387.124364 166.276981 
L 398.487273 164.741886 
L 398.487273 164.741886 
" style="fill:none;stroke:#1f77b4;stroke-linecap:square;stroke-width:1.5;"/>
   </g>
   <g id="line2d_19">
    <path clip-path="url(#p512602d3b8)" d="M 73.832727 84.002248 
L 77.079273 83.588167 
L 81.949091 82.678516 
L 86.818909 81.472912 
L 91.688727 80.026766 
L 98.181818 77.816863 
L 106.298182 74.770228 
L 124.154182 67.919533 
L 130.647273 65.646082 
L 137.140364 63.589228 
L 143.633455 61.789767 
L 150.126545 60.2732 
L 156.619636 59.050928 
L 163.112727 58.121917 
L 169.605818 57.474653 
L 176.098909 57.089207 
L 182.592 56.939299 
L 189.085091 56.994243 
L 197.201455 57.300147 
L 206.941091 57.926798 
L 219.927273 59.02049 
L 245.899636 61.280417 
L 258.885818 62.152107 
L 270.248727 62.696989 
L 281.611636 63.032528 
L 294.597818 63.183656 
L 309.207273 63.119156 
L 328.686545 62.796029 
L 377.384727 61.901189 
L 398.487273 61.743603 
L 398.487273 61.743603 
" style="fill:none;stroke:#ff7f0e;stroke-linecap:square;stroke-width:1.5;"/>
   </g>
   <g id="line2d_20">
    <path clip-path="url(#p512602d3b8)" d="M 73.832727 245.543616 
L 75.456 245.48315 
L 77.079273 245.611567 
L 78.702545 245.921432 
L 80.325818 246.406077 
L 81.949091 247.059531 
L 83.572364 247.878199 
L 85.195636 248.85936 
L 86.818909 249.998562 
L 88.442182 251.291686 
L 90.065455 252.734837 
L 91.688727 254.365252 
L 93.312 256.238543 
L 94.935273 258.371548 
L 96.558545 260.779864 
L 98.181818 263.476001 
L 101.428364 269.624889 
L 106.298182 279.318278 
L 109.544727 285.054235 
L 111.168 287.582343 
L 112.791273 289.813636 
L 114.414545 291.703966 
L 116.037818 293.201127 
L 117.661091 294.289579 
L 119.284364 295.010199 
L 120.907636 295.398623 
L 122.530909 295.488 
L 125.777455 295.227961 
L 129.024 294.709352 
L 130.647273 294.360479 
L 132.270545 293.816578 
L 133.893818 292.916273 
L 135.517091 291.670354 
L 137.140364 290.08808 
L 138.763636 288.177698 
L 140.386909 285.939509 
L 142.010182 283.370838 
L 143.633455 280.486194 
L 145.256727 277.314246 
L 148.503273 270.329818 
L 158.242909 248.544345 
L 164.736 233.719767 
L 167.982545 227.082435 
L 169.605818 224.147822 
L 171.229091 221.489356 
L 172.852364 219.114347 
L 174.475636 217.000934 
L 176.098909 215.117214 
L 177.722182 213.434825 
L 180.968727 210.548281 
L 184.215273 208.035339 
L 185.838545 206.943325 
L 189.085091 205.219765 
L 197.201455 201.208462 
L 200.448 199.360174 
L 205.317818 196.339323 
L 208.564364 194.085144 
L 211.810909 191.619226 
L 215.057455 188.870879 
L 216.680727 187.294916 
L 218.304 185.553768 
L 221.550545 181.556526 
L 228.043636 173.640059 
L 229.666909 171.912895 
L 231.290182 170.619775 
L 232.913455 169.741185 
L 234.536727 169.25863 
L 236.16 169.15492 
L 271.872 171.396487 
L 278.365091 171.967695 
L 281.611636 172.349092 
L 283.234909 172.372348 
L 284.858182 172.051389 
L 289.728 170.37868 
L 291.351273 169.720221 
L 292.974545 168.723959 
L 296.221091 166.459969 
L 297.844364 165.56456 
L 299.467636 164.907662 
L 301.090909 164.419197 
L 302.714182 164.16691 
L 304.337455 164.220109 
L 305.960727 164.650756 
L 314.077091 167.968221 
L 315.700364 168.652547 
L 317.323636 169.05246 
L 318.946909 169.205919 
L 320.570182 169.149192 
L 323.816727 168.606216 
L 330.309818 167.490812 
L 340.049455 166.083371 
L 351.412364 164.63082 
L 353.035636 164.592483 
L 354.658909 164.910004 
L 356.282182 165.5698 
L 357.905455 166.559936 
L 361.152 169.214253 
L 362.775273 170.263093 
L 364.398545 171.031361 
L 366.021818 171.532852 
L 367.645091 171.780088 
L 369.268364 171.708347 
L 370.891636 171.293907 
L 375.761455 169.349733 
L 377.384727 168.976326 
L 379.008 168.917123 
L 382.254545 168.971113 
L 385.501091 168.401684 
L 387.124364 168.415292 
L 390.370909 168.60268 
L 391.994182 168.390543 
L 396.864 167.271537 
L 398.487273 166.953643 
L 398.487273 166.953643 
" style="fill:none;stroke:#2ca02c;stroke-linecap:square;stroke-width:1.5;"/>
   </g>
   <g id="line2d_21">
    <path clip-path="url(#p512602d3b8)" d="M 73.832727 58.879937 
L 119.284364 62.064399 
L 132.270545 62.604212 
L 145.256727 62.911876 
L 159.866182 63.01251 
L 177.722182 62.876421 
L 208.564364 62.351138 
L 239.406545 61.912887 
L 265.378909 61.76914 
L 299.467636 61.824701 
L 387.124364 62.056537 
L 398.487273 62.052873 
L 398.487273 62.052873 
" style="fill:none;stroke:#d62728;stroke-linecap:square;stroke-width:1.5;"/>
   </g>
   <g id="line2d_22">
    <path clip-path="url(#p512602d3b8)" d="M 73.832727 215.647109 
L 77.079273 215.536165 
L 80.325818 215.78565 
L 83.572364 216.357423 
L 86.818909 217.308218 
L 90.065455 218.565663 
L 94.935273 220.785167 
L 109.544727 227.798436 
L 112.791273 229.075135 
L 117.661091 230.855855 
L 125.777455 234.361463 
L 129.024 236.184285 
L 130.647273 237.259191 
L 132.270545 238.470562 
L 133.893818 239.836885 
L 135.517091 241.359597 
L 137.140364 243.040576 
L 138.763636 244.881976 
L 140.386909 246.896745 
L 142.010182 249.100543 
L 145.256727 254.084984 
L 151.749818 265.152326 
L 154.996364 270.205726 
L 164.736 284.672756 
L 166.359273 286.795046 
L 167.982545 288.725525 
L 169.605818 290.469529 
L 171.229091 292.032724 
L 172.852364 293.286852 
L 174.475636 294.099248 
L 176.098909 294.521118 
L 177.722182 294.601529 
L 179.345455 294.38985 
L 180.968727 293.868844 
L 182.592 292.990724 
L 184.215273 291.766389 
L 185.838545 290.205177 
L 187.461818 288.315377 
L 189.085091 286.097302 
L 190.708364 283.548247 
L 192.331636 280.682614 
L 193.954909 277.528892 
L 197.201455 270.577678 
L 206.941091 248.853659 
L 213.434182 234.01428 
L 216.680727 227.32805 
L 218.304 224.367412 
L 219.927273 221.682392 
L 221.550545 219.282084 
L 223.173818 217.14626 
L 224.797091 215.242687 
L 226.420364 213.542709 
L 229.666909 210.626982 
L 232.913455 208.092277 
L 234.536727 206.991226 
L 237.783273 205.251844 
L 245.899636 201.213782 
L 249.146182 199.358121 
L 254.016 196.328145 
L 257.262545 194.068654 
L 260.509091 191.597777 
L 263.755636 188.844632 
L 265.378909 187.266245 
L 267.002182 185.52263 
L 270.248727 181.520227 
L 276.741818 173.593156 
L 278.365091 171.86334 
L 279.988364 170.56762 
L 281.611636 169.686455 
L 283.234909 169.20133 
L 284.858182 169.09504 
L 322.193455 171.380878 
L 328.686545 171.946259 
L 331.933091 172.32481 
L 333.556364 172.346631 
L 335.179636 172.024199 
L 340.049455 170.346952 
L 341.672727 169.686948 
L 343.296 168.689105 
L 346.542545 166.421885 
L 348.165818 165.524814 
L 349.789091 164.86621 
L 351.412364 164.375994 
L 353.035636 164.121893 
L 354.658909 164.173198 
L 356.282182 164.601855 
L 364.398545 167.908572 
L 366.021818 168.590597 
L 367.645091 168.988148 
L 369.268364 169.139176 
L 370.891636 169.079944 
L 374.138182 168.531737 
L 380.631273 167.40499 
L 390.370909 165.977909 
L 398.487273 164.912377 
L 398.487273 164.912377 
" style="fill:none;stroke:#9467bd;stroke-linecap:square;stroke-width:1.5;"/>
   </g>
   <g id="line2d_23">
    <path clip-path="url(#p512602d3b8)" d="M 73.832727 143.222182 
L 75.456 143.26032 
L 77.079273 143.52125 
L 78.702545 143.972705 
L 80.325818 144.589151 
L 86.818909 147.514866 
L 93.312 149.9832 
L 96.558545 151.69352 
L 98.181818 152.775711 
L 101.428364 155.416186 
L 104.674909 158.618321 
L 107.921455 162.172676 
L 109.544727 163.626006 
L 114.414545 167.611621 
L 116.037818 168.9863 
L 117.661091 170.06355 
L 119.284364 170.858495 
L 120.907636 171.385047 
L 122.530909 171.655854 
L 124.154182 171.606291 
L 125.777455 171.212754 
L 130.647273 169.325125 
L 132.270545 168.968866 
L 133.893818 168.926091 
L 137.140364 169.011039 
L 140.386909 168.470472 
L 142.010182 168.49785 
L 145.256727 168.71172 
L 146.88 168.512405 
L 151.749818 167.430645 
L 158.242909 166.320267 
L 169.605818 164.649329 
L 171.229091 164.585392 
L 172.852364 164.878345 
L 174.475636 165.514477 
L 176.098909 166.481748 
L 179.345455 169.092419 
L 180.968727 170.12033 
L 182.592 170.868126 
L 184.215273 171.349499 
L 185.838545 171.576878 
L 192.331636 172.087639 
L 193.954909 172.259209 
L 195.578182 172.256101 
L 197.201455 171.909435 
L 202.071273 170.163154 
L 203.694545 169.481152 
L 205.317818 168.461616 
L 208.564364 166.151915 
L 210.187636 165.233882 
L 211.810909 164.55435 
L 213.434182 164.043184 
L 215.057455 163.767949 
L 216.680727 163.797756 
L 218.304 164.204383 
L 226.420364 167.397503 
L 228.043636 168.056055 
L 229.666909 168.429792 
L 231.290182 168.556574 
L 232.913455 168.472613 
L 236.16 167.879744 
L 241.029818 167.03665 
L 249.146182 165.949871 
L 260.509091 164.568763 
L 262.132364 164.538263 
L 263.755636 164.863107 
L 265.378909 165.529764 
L 267.002182 166.526349 
L 270.248727 169.192515 
L 271.872 170.246826 
L 273.495273 171.020293 
L 275.118545 171.526736 
L 276.741818 171.778701 
L 278.365091 171.71149 
L 279.988364 171.301404 
L 284.858182 169.369407 
L 286.481455 168.999806 
L 288.104727 168.944304 
L 291.351273 169.005443 
L 294.597818 168.442929 
L 296.221091 168.459923 
L 299.467636 168.653996 
L 301.090909 168.445183 
L 305.960727 167.336164 
L 310.830545 166.457674 
L 322.193455 164.699001 
L 323.816727 164.460736 
L 325.44 164.387951 
L 327.063273 164.671723 
L 328.686545 165.298341 
L 330.309818 166.255785 
L 333.556364 168.846082 
L 335.179636 169.863501 
L 336.802909 170.60052 
L 338.426182 171.070771 
L 340.049455 171.286634 
L 348.165818 171.803588 
L 351.412364 172.122865 
L 353.035636 172.116045 
L 354.658909 171.765307 
L 359.528727 170.005329 
L 361.152 169.318356 
L 362.775273 168.293586 
L 366.021818 165.972809 
L 367.645091 165.048883 
L 369.268364 164.363167 
L 370.891636 163.845522 
L 372.514909 163.563444 
L 374.138182 163.585963 
L 375.761455 163.984782 
L 383.877818 167.134507 
L 387.124364 168.498787 
L 388.747636 169.011042 
L 390.370909 169.403117 
L 393.617455 169.861878 
L 398.487273 170.421559 
L 398.487273 170.421559 
" style="fill:none;stroke:#8c564b;stroke-linecap:square;stroke-width:1.5;"/>
   </g>
   <g id="line2d_24">
    <path clip-path="url(#p512602d3b8)" d="M 73.832727 202.417706 
L 77.079273 202.325648 
L 80.325818 201.88999 
L 83.572364 201.149334 
L 86.818909 200.125984 
L 90.065455 198.829474 
L 99.805091 194.675578 
L 103.051636 192.82893 
L 106.298182 190.670965 
L 109.544727 188.114635 
L 114.414545 183.916537 
L 117.661091 181.504106 
L 120.907636 179.494362 
L 124.154182 177.685198 
L 125.777455 176.490885 
L 127.400727 175.052928 
L 129.024 173.379876 
L 132.270545 169.664966 
L 133.893818 168.282564 
L 135.517091 167.313861 
L 137.140364 166.739491 
L 138.763636 166.541684 
L 151.749818 166.45517 
L 166.359273 166.128681 
L 180.968727 165.579354 
L 193.954909 164.886887 
L 197.201455 164.679559 
L 198.824727 164.734726 
L 200.448 165.142387 
L 202.071273 165.88939 
L 203.694545 166.964145 
L 206.941091 169.716798 
L 208.564364 170.634888 
L 210.187636 171.117485 
L 211.810909 171.169362 
L 213.434182 170.79307 
L 215.057455 170.030989 
L 219.927273 166.949586 
L 221.550545 166.265549 
L 226.420364 164.870227 
L 228.043636 164.519881 
L 229.666909 164.300975 
L 231.290182 164.329883 
L 232.913455 164.710946 
L 234.536727 165.430977 
L 236.16 166.478415 
L 239.406545 169.239811 
L 241.029818 170.338944 
L 242.653091 171.155651 
L 244.276364 171.703964 
L 245.899636 171.99663 
L 247.522909 171.969198 
L 249.146182 171.598166 
L 254.016 169.77921 
L 255.639273 169.073107 
L 257.262545 168.029307 
L 260.509091 165.670824 
L 262.132364 164.728028 
L 263.755636 164.023278 
L 265.378909 163.486399 
L 267.002182 163.184711 
L 268.625455 163.187054 
L 270.248727 163.564941 
L 278.365091 166.604763 
L 281.611636 167.922617 
L 283.234909 168.41105 
L 284.858182 168.778808 
L 288.104727 169.187231 
L 304.337455 170.715948 
L 317.323636 171.994989 
L 320.570182 172.425245 
L 322.193455 172.471732 
L 323.816727 172.173416 
L 328.686545 170.565469 
L 330.309818 169.927725 
L 331.933091 168.951947 
L 335.179636 166.728185 
L 336.802909 165.852664 
L 338.426182 165.215638 
L 340.049455 164.747087 
L 341.672727 164.514903 
L 343.296 164.588553 
L 344.919273 165.04015 
L 354.658909 169.114767 
L 356.282182 169.343033 
L 357.905455 169.168597 
L 359.528727 168.60755 
L 364.398545 165.849218 
L 366.021818 165.267469 
L 367.645091 164.891857 
L 370.891636 164.636194 
L 372.514909 164.718937 
L 374.138182 165.152983 
L 375.761455 165.925317 
L 377.384727 167.02447 
L 380.631273 169.823489 
L 382.254545 170.763761 
L 383.877818 171.268051 
L 385.501091 171.341257 
L 387.124364 170.986035 
L 388.747636 170.244814 
L 393.617455 167.224586 
L 395.240727 166.560603 
L 398.487273 165.642412 
L 398.487273 165.642412 
" style="fill:none;stroke:#e377c2;stroke-linecap:square;stroke-width:1.5;"/>
   </g>
   <g id="line2d_25">
    <path clip-path="url(#p512602d3b8)" d="M 73.832727 105.285971 
L 77.079273 104.895903 
L 81.949091 104.027289 
L 88.442182 102.552563 
L 96.558545 100.465291 
L 99.805091 99.487127 
L 103.051636 98.302276 
L 106.298182 96.932386 
L 111.168 94.576738 
L 116.037818 91.921965 
L 120.907636 89.036277 
L 127.400727 84.944779 
L 146.88 72.409579 
L 153.373091 68.582377 
L 158.242909 65.937284 
L 163.112727 63.520488 
L 167.982545 61.355166 
L 172.852364 59.45675 
L 177.722182 57.833303 
L 182.592 56.486131 
L 187.461818 55.410542 
L 192.331636 54.596691 
L 197.201455 54.030454 
L 202.071273 53.694279 
L 206.941091 53.568 
L 211.810909 53.629577 
L 218.304 53.963643 
L 224.797091 54.533827 
L 232.913455 55.493221 
L 244.276364 57.111767 
L 267.002182 60.435049 
L 276.741818 61.623897 
L 286.481455 62.579924 
L 296.221091 63.280217 
L 305.960727 63.726788 
L 315.700364 63.940922 
L 327.063273 63.943655 
L 340.049455 63.704357 
L 359.528727 63.081732 
L 390.370909 62.082548 
L 398.487273 61.892724 
L 398.487273 61.892724 
" style="fill:none;stroke:#7f7f7f;stroke-linecap:square;stroke-width:1.5;"/>
   </g>
   <g id="line2d_26">
    <path clip-path="url(#p512602d3b8)" d="M 73.832727 188.80937 
L 75.456 188.618848 
L 77.079273 188.184618 
L 80.325818 186.860791 
L 83.572364 185.260209 
L 85.195636 184.124217 
L 86.818909 182.685694 
L 88.442182 180.949443 
L 93.312 175.024159 
L 94.935273 173.386255 
L 96.558545 171.943918 
L 98.181818 170.686389 
L 99.805091 169.636313 
L 101.428364 168.822509 
L 103.051636 168.233486 
L 104.674909 167.85864 
L 107.921455 167.627589 
L 159.866182 165.6451 
L 174.475636 164.782293 
L 176.098909 164.670816 
L 177.722182 164.720232 
L 179.345455 165.122329 
L 180.968727 165.86393 
L 182.592 166.933427 
L 185.838545 169.675945 
L 187.461818 170.589114 
L 189.085091 171.066843 
L 190.708364 171.113876 
L 193.954909 170.3022 
L 195.578182 170.190822 
L 198.824727 170.155474 
L 200.448 169.84501 
L 202.071273 169.143263 
L 203.694545 168.103834 
L 206.941091 165.754109 
L 208.564364 164.81575 
L 210.187636 164.115513 
L 211.810909 163.583229 
L 213.434182 163.286265 
L 215.057455 163.293509 
L 216.680727 163.676524 
L 224.797091 166.743635 
L 228.043636 168.073145 
L 229.666909 168.567576 
L 231.290182 168.941468 
L 234.536727 169.362616 
L 252.392727 171.122608 
L 262.132364 172.152531 
L 265.378909 172.598795 
L 267.002182 172.653524 
L 268.625455 172.363795 
L 273.495273 170.78288 
L 275.118545 170.190327 
L 279.988364 167.58085 
L 281.611636 167.044015 
L 289.728 165.537627 
L 296.221091 164.442171 
L 297.844364 164.340462 
L 299.467636 164.596334 
L 301.090909 165.19594 
L 302.714182 166.127147 
L 305.960727 168.667012 
L 307.584 169.660114 
L 309.207273 170.373258 
L 310.830545 170.819958 
L 312.453818 171.012488 
L 323.816727 171.526763 
L 330.309818 172.029508 
L 331.933091 172.198954 
L 333.556364 172.193625 
L 335.179636 171.844601 
L 340.049455 170.090697 
L 341.672727 169.406005 
L 343.296 168.383673 
L 346.542545 166.068141 
L 348.165818 165.147047 
L 349.789091 164.464331 
L 351.412364 163.949853 
L 353.035636 163.671146 
L 354.658909 163.697281 
L 356.282182 164.1 
L 364.398545 167.271625 
L 367.645091 168.645675 
L 369.268364 169.16304 
L 370.891636 169.560394 
L 374.138182 170.030259 
L 396.864 172.732106 
L 398.487273 172.462267 
L 398.487273 172.462267 
" style="fill:none;stroke:#bcbd22;stroke-linecap:square;stroke-width:1.5;"/>
   </g>
   <g id="line2d_27">
    <path clip-path="url(#p512602d3b8)" d="M 73.832727 183.994934 
L 75.456 183.84521 
L 77.079273 183.531917 
L 78.702545 183.060194 
L 80.325818 182.434172 
L 81.949091 181.657063 
L 83.572364 180.688737 
L 85.195636 179.48369 
L 86.818909 178.050707 
L 88.442182 176.396527 
L 91.688727 172.749978 
L 93.312 171.407685 
L 94.935273 170.483063 
L 96.558545 169.957647 
L 98.181818 169.814164 
L 114.414545 170.517674 
L 129.024 171.370579 
L 135.517091 171.895825 
L 138.763636 172.2561 
L 140.386909 172.269062 
L 142.010182 171.937851 
L 146.88 170.234836 
L 148.503273 169.566401 
L 150.126545 168.560121 
L 153.373091 166.276076 
L 154.996364 165.370554 
L 156.619636 164.703409 
L 158.242909 164.204543 
L 159.866182 163.941613 
L 161.489455 163.983827 
L 163.112727 164.403059 
L 171.229091 167.660089 
L 172.852364 168.33167 
L 174.475636 168.718565 
L 176.098909 168.858686 
L 177.722182 168.788276 
L 180.968727 168.216874 
L 189.085091 166.771333 
L 198.824727 165.293237 
L 203.694545 164.605097 
L 205.317818 164.543057 
L 206.941091 164.837679 
L 208.564364 165.475274 
L 210.187636 166.443819 
L 213.434182 169.056571 
L 215.057455 170.08532 
L 216.680727 170.83382 
L 218.304 171.315767 
L 219.927273 171.543592 
L 226.420364 172.055167 
L 228.043636 172.226732 
L 229.666909 172.223521 
L 231.290182 171.876638 
L 236.16 170.129198 
L 237.783273 169.446673 
L 239.406545 168.426535 
L 242.653091 166.115444 
L 244.276364 165.196617 
L 245.899636 164.516217 
L 247.522909 164.004109 
L 249.146182 163.727846 
L 250.769455 163.756527 
L 252.392727 164.161916 
L 260.509091 167.347859 
L 262.132364 168.004802 
L 263.755636 168.376874 
L 265.378909 168.501929 
L 267.002182 168.416177 
L 270.248727 167.819529 
L 275.118545 166.970265 
L 283.234909 165.871721 
L 292.974545 164.668176 
L 294.597818 164.634955 
L 296.221091 164.957528 
L 297.844364 165.62233 
L 299.467636 166.617433 
L 302.714182 169.281565 
L 304.337455 170.335267 
L 305.960727 171.108402 
L 307.584 171.614793 
L 309.207273 171.866983 
L 310.830545 171.800291 
L 312.453818 171.391017 
L 317.323636 169.462745 
L 318.946909 169.094703 
L 320.570182 169.040898 
L 323.816727 169.105904 
L 327.063273 168.54795 
L 328.686545 168.567448 
L 331.933091 168.766989 
L 333.556364 168.561164 
L 338.426182 167.46208 
L 343.296 166.594974 
L 354.658909 164.868876 
L 356.282182 164.636002 
L 357.905455 164.568897 
L 359.528727 164.858753 
L 361.152 165.491851 
L 362.775273 166.456139 
L 366.021818 169.060987 
L 367.645091 170.086049 
L 369.268364 170.831015 
L 370.891636 171.309565 
L 372.514909 171.534114 
L 379.008 172.033579 
L 380.631273 172.202314 
L 382.254545 172.196315 
L 383.877818 171.846658 
L 388.747636 170.091036 
L 390.370909 169.405822 
L 391.994182 168.382988 
L 395.240727 166.066507 
L 396.864 165.144963 
L 398.487273 164.461808 
L 398.487273 164.461808 
" style="fill:none;stroke:#17becf;stroke-linecap:square;stroke-width:1.5;"/>
   </g>
   <g id="patch_3">
    <path d="M 57.6 307.584 
L 57.6 41.472 
" style="fill:none;stroke:#000000;stroke-linecap:square;stroke-linejoin:miter;stroke-width:0.8;"/>
   </g>
   <g id="patch_4">
    <path d="M 414.72 307.584 
L 414.72 41.472 
" style="fill:none;stroke:#000000;stroke-linecap:square;stroke-linejoin:miter;stroke-width:0.8;"/>
   </g>
   <g id="patch_5">
    <path d="M 57.6 307.584 
L 414.72 307.584 
" style="fill:none;stroke:#000000;stroke-linecap:square;stroke-linejoin:miter;stroke-width:0.8;"/>
   </g>
   <g id="patch_6">
    <path d="M 57.6 41.472 
L 414.72 41.472 
" style="fill:none;stroke:#000000;stroke-linecap:square;stroke-linejoin:miter;stroke-width:0.8;"/>
   </g>
   <g id="legend_1">
    <g id="patch_7">
     <path d="M 64.6 302.584 
L 102.9625 302.584 
Q 104.9625 302.584 104.9625 300.584 
L 104.9625 154.80275 
Q 104.9625 152.80275 102.9625 152.80275 
L 64.6 152.80275 
Q 62.6 152.80275 62.6 154.80275 
L 62.6 300.584 
Q 62.6 302.584 64.6 302.584 
z
" style="fill:#ffffff;opacity:0.8;stroke:#cccccc;stroke-linejoin:miter;"/>
    </g>
    <g id="line2d_28">
     <path d="M 66.6 160.901187 
L 86.6 160.901187 
" style="fill:none;stroke:#1f77b4;stroke-linecap:square;stroke-width:1.5;"/>
    </g>
    <g id="line2d_29"/>
    <g id="text_18">
     <!-- 0 -->
     <g transform="translate(94.6 164.401187)scale(0.1 -0.1)">
      <use xlink:href="#DejaVuSans-30"/>
     </g>
    </g>
    <g id="line2d_30">
     <path d="M 66.6 175.579313 
L 86.6 175.579313 
" style="fill:none;stroke:#ff7f0e;stroke-linecap:square;stroke-width:1.5;"/>
    </g>
    <g id="line2d_31"/>
    <g id="text_19">
     <!-- 1 -->
     <g transform="translate(94.6 179.079313)scale(0.1 -0.1)">
      <use xlink:href="#DejaVuSans-31"/>
     </g>
    </g>
    <g id="line2d_32">
     <path d="M 66.6 190.257438 
L 86.6 190.257438 
" style="fill:none;stroke:#2ca02c;stroke-linecap:square;stroke-width:1.5;"/>
    </g>
    <g id="line2d_33"/>
    <g id="text_20">
     <!-- 2 -->
     <g transform="translate(94.6 193.757438)scale(0.1 -0.1)">
      <use xlink:href="#DejaVuSans-32"/>
     </g>
    </g>
    <g id="line2d_34">
     <path d="M 66.6 204.935563 
L 86.6 204.935563 
" style="fill:none;stroke:#d62728;stroke-linecap:square;stroke-width:1.5;"/>
    </g>
    <g id="line2d_35"/>
    <g id="text_21">
     <!-- 3 -->
     <g transform="translate(94.6 208.435563)scale(0.1 -0.1)">
      <use xlink:href="#DejaVuSans-33"/>
     </g>
    </g>
    <g id="line2d_36">
     <path d="M 66.6 219.613688 
L 86.6 219.613688 
" style="fill:none;stroke:#9467bd;stroke-linecap:square;stroke-width:1.5;"/>
    </g>
    <g id="line2d_37"/>
    <g id="text_22">
     <!-- 4 -->
     <g transform="translate(94.6 223.113688)scale(0.1 -0.1)">
      <use xlink:href="#DejaVuSans-34"/>
     </g>
    </g>
    <g id="line2d_38">
     <path d="M 66.6 234.291812 
L 86.6 234.291812 
" style="fill:none;stroke:#8c564b;stroke-linecap:square;stroke-width:1.5;"/>
    </g>
    <g id="line2d_39"/>
    <g id="text_23">
     <!-- 5 -->
     <g transform="translate(94.6 237.791812)scale(0.1 -0.1)">
      <use xlink:href="#DejaVuSans-35"/>
     </g>
    </g>
    <g id="line2d_40">
     <path d="M 66.6 248.969938 
L 86.6 248.969938 
" style="fill:none;stroke:#e377c2;stroke-linecap:square;stroke-width:1.5;"/>
    </g>
    <g id="line2d_41"/>
    <g id="text_24">
     <!-- 6 -->
     <g transform="translate(94.6 252.469938)scale(0.1 -0.1)">
      <defs>
       <path d="M 2113 2584 
Q 1688 2584 1439 2293 
Q 1191 2003 1191 1497 
Q 1191 994 1439 701 
Q 1688 409 2113 409 
Q 2538 409 2786 701 
Q 3034 994 3034 1497 
Q 3034 2003 2786 2293 
Q 2538 2584 2113 2584 
z
M 3366 4563 
L 3366 3988 
Q 3128 4100 2886 4159 
Q 2644 4219 2406 4219 
Q 1781 4219 1451 3797 
Q 1122 3375 1075 2522 
Q 1259 2794 1537 2939 
Q 1816 3084 2150 3084 
Q 2853 3084 3261 2657 
Q 3669 2231 3669 1497 
Q 3669 778 3244 343 
Q 2819 -91 2113 -91 
Q 1303 -91 875 529 
Q 447 1150 447 2328 
Q 447 3434 972 4092 
Q 1497 4750 2381 4750 
Q 2619 4750 2861 4703 
Q 3103 4656 3366 4563 
z
" id="DejaVuSans-36" transform="scale(0.015625)"/>
      </defs>
      <use xlink:href="#DejaVuSans-36"/>
     </g>
    </g>
    <g id="line2d_42">
     <path d="M 66.6 263.648062 
L 86.6 263.648062 
" style="fill:none;stroke:#7f7f7f;stroke-linecap:square;stroke-width:1.5;"/>
    </g>
    <g id="line2d_43"/>
    <g id="text_25">
     <!-- 7 -->
     <g transform="translate(94.6 267.148062)scale(0.1 -0.1)">
      <use xlink:href="#DejaVuSans-37"/>
     </g>
    </g>
    <g id="line2d_44">
     <path d="M 66.6 278.326188 
L 86.6 278.326188 
" style="fill:none;stroke:#bcbd22;stroke-linecap:square;stroke-width:1.5;"/>
    </g>
    <g id="line2d_45"/>
    <g id="text_26">
     <!-- 8 -->
     <g transform="translate(94.6 281.826188)scale(0.1 -0.1)">
      <defs>
       <path d="M 2034 2216 
Q 1584 2216 1326 1975 
Q 1069 1734 1069 1313 
Q 1069 891 1326 650 
Q 1584 409 2034 409 
Q 2484 409 2743 651 
Q 3003 894 3003 1313 
Q 3003 1734 2745 1975 
Q 2488 2216 2034 2216 
z
M 1403 2484 
Q 997 2584 770 2862 
Q 544 3141 544 3541 
Q 544 4100 942 4425 
Q 1341 4750 2034 4750 
Q 2731 4750 3128 4425 
Q 3525 4100 3525 3541 
Q 3525 3141 3298 2862 
Q 3072 2584 2669 2484 
Q 3125 2378 3379 2068 
Q 3634 1759 3634 1313 
Q 3634 634 3220 271 
Q 2806 -91 2034 -91 
Q 1263 -91 848 271 
Q 434 634 434 1313 
Q 434 1759 690 2068 
Q 947 2378 1403 2484 
z
M 1172 3481 
Q 1172 3119 1398 2916 
Q 1625 2713 2034 2713 
Q 2441 2713 2670 2916 
Q 2900 3119 2900 3481 
Q 2900 3844 2670 4047 
Q 2441 4250 2034 4250 
Q 1625 4250 1398 4047 
Q 1172 3844 1172 3481 
z
" id="DejaVuSans-38" transform="scale(0.015625)"/>
      </defs>
      <use xlink:href="#DejaVuSans-38"/>
     </g>
    </g>
    <g id="line2d_46">
     <path d="M 66.6 293.004312 
L 86.6 293.004312 
" style="fill:none;stroke:#17becf;stroke-linecap:square;stroke-width:1.5;"/>
    </g>
    <g id="line2d_47"/>
    <g id="text_27">
     <!-- 9 -->
     <g transform="translate(94.6 296.504312)scale(0.1 -0.1)">
      <defs>
       <path d="M 703 97 
L 703 672 
Q 941 559 1184 500 
Q 1428 441 1663 441 
Q 2288 441 2617 861 
Q 2947 1281 2994 2138 
Q 2813 1869 2534 1725 
Q 2256 1581 1919 1581 
Q 1219 1581 811 2004 
Q 403 2428 403 3163 
Q 403 3881 828 4315 
Q 1253 4750 1959 4750 
Q 2769 4750 3195 4129 
Q 3622 3509 3622 2328 
Q 3622 1225 3098 567 
Q 2575 -91 1691 -91 
Q 1453 -91 1209 -44 
Q 966 3 703 97 
z
M 1959 2075 
Q 2384 2075 2632 2365 
Q 2881 2656 2881 3163 
Q 2881 3666 2632 3958 
Q 2384 4250 1959 4250 
Q 1534 4250 1286 3958 
Q 1038 3666 1038 3163 
Q 1038 2656 1286 2365 
Q 1534 2075 1959 2075 
z
" id="DejaVuSans-39" transform="scale(0.015625)"/>
      </defs>
      <use xlink:href="#DejaVuSans-39"/>
     </g>
    </g>
   </g>
  </g>
 </g>
 <defs>
  <clipPath id="p512602d3b8">
   <rect height="266.112" width="357.12" x="57.6" y="41.472"/>
  </clipPath>
 </defs>
</svg>
