<?xml version="1.0" encoding="utf-8" standalone="no"?>
<!DOCTYPE svg PUBLIC "-//W3C//DTD SVG 1.1//EN"
  "http://www.w3.org/Graphics/SVG/1.1/DTD/svg11.dtd">
<svg height="345.6pt" version="1.1" viewBox="0 0 460.8 345.6" width="460.8pt" xmlns="http://www.w3.org/2000/svg" xmlns:xlink="http://www.w3.org/1999/xlink">
 <metadata>
  <rdf:RDF xmlns:cc="http://creativecommons.org/ns#" xmlns:dc="http://purl.org/dc/elements/1.1/" xmlns:rdf="http://www.w3.org/1999/02/22-rdf-syntax-ns#">
   <cc:Work>
    <dc:type rdf:resource="http://purl.org/dc/dcmitype/StillImage"/>
    <dc:date>2021-08-18T15:13:43.226252</dc:date>
    <dc:format>image/svg+xml</dc:format>
    <dc:creator>
     <cc:Agent>
      <dc:title>Matplotlib v3.4.2, https://matplotlib.org/</dc:title>
     </cc:Agent>
    </dc:creator>
   </cc:Work>
  </rdf:RDF>
 </metadata>
 <defs>
  <style type="text/css">*{stroke-linecap:butt;stroke-linejoin:round;}</style>
 </defs>
 <g id="figure_1">
  <g id="patch_1">
   <path d="M 0 345.6 
L 460.8 345.6 
L 460.8 0 
L 0 0 
z
" style="fill:#ffffff;"/>
  </g>
  <g id="axes_1">
   <g id="patch_2">
    <path d="M 57.6 307.584 
L 414.72 307.584 
L 414.72 41.472 
L 57.6 41.472 
z
" style="fill:#ffffff;"/>
   </g>
   <g id="matplotlib.axis_1">
    <g id="xtick_1">
     <g id="line2d_1">
      <defs>
       <path d="M 0 0 
L 0 3.5 
" id="m09d0946e30" style="stroke:#000000;stroke-width:0.8;"/>
      </defs>
      <g>
       <use style="stroke:#000000;stroke-width:0.8;" x="73.832727" xlink:href="#m09d0946e30" y="307.584"/>
      </g>
     </g>
     <g id="text_1">
      <!-- 0 -->
      <g transform="translate(70.651477 322.182437)scale(0.1 -0.1)">
       <defs>
        <path d="M 2034 4250 
Q 1547 4250 1301 3770 
Q 1056 3291 1056 2328 
Q 1056 1369 1301 889 
Q 1547 409 2034 409 
Q 2525 409 2770 889 
Q 3016 1369 3016 2328 
Q 3016 3291 2770 3770 
Q 2525 4250 2034 4250 
z
M 2034 4750 
Q 2819 4750 3233 4129 
Q 3647 3509 3647 2328 
Q 3647 1150 3233 529 
Q 2819 -91 2034 -91 
Q 1250 -91 836 529 
Q 422 1150 422 2328 
Q 422 3509 836 4129 
Q 1250 4750 2034 4750 
z
" id="DejaVuSans-30" transform="scale(0.015625)"/>
       </defs>
       <use xlink:href="#DejaVuSans-30"/>
      </g>
     </g>
    </g>
    <g id="xtick_2">
     <g id="line2d_2">
      <g>
       <use style="stroke:#000000;stroke-width:0.8;" x="114.414545" xlink:href="#m09d0946e30" y="307.584"/>
      </g>
     </g>
     <g id="text_2">
      <!-- 25 -->
      <g transform="translate(108.052045 322.182437)scale(0.1 -0.1)">
       <defs>
        <path d="M 1228 531 
L 3431 531 
L 3431 0 
L 469 0 
L 469 531 
Q 828 903 1448 1529 
Q 2069 2156 2228 2338 
Q 2531 2678 2651 2914 
Q 2772 3150 2772 3378 
Q 2772 3750 2511 3984 
Q 2250 4219 1831 4219 
Q 1534 4219 1204 4116 
Q 875 4013 500 3803 
L 500 4441 
Q 881 4594 1212 4672 
Q 1544 4750 1819 4750 
Q 2544 4750 2975 4387 
Q 3406 4025 3406 3419 
Q 3406 3131 3298 2873 
Q 3191 2616 2906 2266 
Q 2828 2175 2409 1742 
Q 1991 1309 1228 531 
z
" id="DejaVuSans-32" transform="scale(0.015625)"/>
        <path d="M 691 4666 
L 3169 4666 
L 3169 4134 
L 1269 4134 
L 1269 2991 
Q 1406 3038 1543 3061 
Q 1681 3084 1819 3084 
Q 2600 3084 3056 2656 
Q 3513 2228 3513 1497 
Q 3513 744 3044 326 
Q 2575 -91 1722 -91 
Q 1428 -91 1123 -41 
Q 819 9 494 109 
L 494 744 
Q 775 591 1075 516 
Q 1375 441 1709 441 
Q 2250 441 2565 725 
Q 2881 1009 2881 1497 
Q 2881 1984 2565 2268 
Q 2250 2553 1709 2553 
Q 1456 2553 1204 2497 
Q 953 2441 691 2322 
L 691 4666 
z
" id="DejaVuSans-35" transform="scale(0.015625)"/>
       </defs>
       <use xlink:href="#DejaVuSans-32"/>
       <use x="63.623047" xlink:href="#DejaVuSans-35"/>
      </g>
     </g>
    </g>
    <g id="xtick_3">
     <g id="line2d_3">
      <g>
       <use style="stroke:#000000;stroke-width:0.8;" x="154.996364" xlink:href="#m09d0946e30" y="307.584"/>
      </g>
     </g>
     <g id="text_3">
      <!-- 50 -->
      <g transform="translate(148.633864 322.182437)scale(0.1 -0.1)">
       <use xlink:href="#DejaVuSans-35"/>
       <use x="63.623047" xlink:href="#DejaVuSans-30"/>
      </g>
     </g>
    </g>
    <g id="xtick_4">
     <g id="line2d_4">
      <g>
       <use style="stroke:#000000;stroke-width:0.8;" x="195.578182" xlink:href="#m09d0946e30" y="307.584"/>
      </g>
     </g>
     <g id="text_4">
      <!-- 75 -->
      <g transform="translate(189.215682 322.182437)scale(0.1 -0.1)">
       <defs>
        <path d="M 525 4666 
L 3525 4666 
L 3525 4397 
L 1831 0 
L 1172 0 
L 2766 4134 
L 525 4134 
L 525 4666 
z
" id="DejaVuSans-37" transform="scale(0.015625)"/>
       </defs>
       <use xlink:href="#DejaVuSans-37"/>
       <use x="63.623047" xlink:href="#DejaVuSans-35"/>
      </g>
     </g>
    </g>
    <g id="xtick_5">
     <g id="line2d_5">
      <g>
       <use style="stroke:#000000;stroke-width:0.8;" x="236.16" xlink:href="#m09d0946e30" y="307.584"/>
      </g>
     </g>
     <g id="text_5">
      <!-- 100 -->
      <g transform="translate(226.61625 322.182437)scale(0.1 -0.1)">
       <defs>
        <path d="M 794 531 
L 1825 531 
L 1825 4091 
L 703 3866 
L 703 4441 
L 1819 4666 
L 2450 4666 
L 2450 531 
L 3481 531 
L 3481 0 
L 794 0 
L 794 531 
z
" id="DejaVuSans-31" transform="scale(0.015625)"/>
       </defs>
       <use xlink:href="#DejaVuSans-31"/>
       <use x="63.623047" xlink:href="#DejaVuSans-30"/>
       <use x="127.246094" xlink:href="#DejaVuSans-30"/>
      </g>
     </g>
    </g>
    <g id="xtick_6">
     <g id="line2d_6">
      <g>
       <use style="stroke:#000000;stroke-width:0.8;" x="276.741818" xlink:href="#m09d0946e30" y="307.584"/>
      </g>
     </g>
     <g id="text_6">
      <!-- 125 -->
      <g transform="translate(267.198068 322.182437)scale(0.1 -0.1)">
       <use xlink:href="#DejaVuSans-31"/>
       <use x="63.623047" xlink:href="#DejaVuSans-32"/>
       <use x="127.246094" xlink:href="#DejaVuSans-35"/>
      </g>
     </g>
    </g>
    <g id="xtick_7">
     <g id="line2d_7">
      <g>
       <use style="stroke:#000000;stroke-width:0.8;" x="317.323636" xlink:href="#m09d0946e30" y="307.584"/>
      </g>
     </g>
     <g id="text_7">
      <!-- 150 -->
      <g transform="translate(307.779886 322.182437)scale(0.1 -0.1)">
       <use xlink:href="#DejaVuSans-31"/>
       <use x="63.623047" xlink:href="#DejaVuSans-35"/>
       <use x="127.246094" xlink:href="#DejaVuSans-30"/>
      </g>
     </g>
    </g>
    <g id="xtick_8">
     <g id="line2d_8">
      <g>
       <use style="stroke:#000000;stroke-width:0.8;" x="357.905455" xlink:href="#m09d0946e30" y="307.584"/>
      </g>
     </g>
     <g id="text_8">
      <!-- 175 -->
      <g transform="translate(348.361705 322.182437)scale(0.1 -0.1)">
       <use xlink:href="#DejaVuSans-31"/>
       <use x="63.623047" xlink:href="#DejaVuSans-37"/>
       <use x="127.246094" xlink:href="#DejaVuSans-35"/>
      </g>
     </g>
    </g>
    <g id="xtick_9">
     <g id="line2d_9">
      <g>
       <use style="stroke:#000000;stroke-width:0.8;" x="398.487273" xlink:href="#m09d0946e30" y="307.584"/>
      </g>
     </g>
     <g id="text_9">
      <!-- 200 -->
      <g transform="translate(388.943523 322.182437)scale(0.1 -0.1)">
       <use xlink:href="#DejaVuSans-32"/>
       <use x="63.623047" xlink:href="#DejaVuSans-30"/>
       <use x="127.246094" xlink:href="#DejaVuSans-30"/>
      </g>
     </g>
    </g>
   </g>
   <g id="matplotlib.axis_2">
    <g id="ytick_1">
     <g id="line2d_10">
      <defs>
       <path d="M 0 0 
L -3.5 0 
" id="mb0a355d220" style="stroke:#000000;stroke-width:0.8;"/>
      </defs>
      <g>
       <use style="stroke:#000000;stroke-width:0.8;" x="57.6" xlink:href="#mb0a355d220" y="302.007601"/>
      </g>
     </g>
     <g id="text_10">
      <!-- −4 -->
      <g transform="translate(35.857813 305.80682)scale(0.1 -0.1)">
       <defs>
        <path d="M 678 2272 
L 4684 2272 
L 4684 1741 
L 678 1741 
L 678 2272 
z
" id="DejaVuSans-2212" transform="scale(0.015625)"/>
        <path d="M 2419 4116 
L 825 1625 
L 2419 1625 
L 2419 4116 
z
M 2253 4666 
L 3047 4666 
L 3047 1625 
L 3713 1625 
L 3713 1100 
L 3047 1100 
L 3047 0 
L 2419 0 
L 2419 1100 
L 313 1100 
L 313 1709 
L 2253 4666 
z
" id="DejaVuSans-34" transform="scale(0.015625)"/>
       </defs>
       <use xlink:href="#DejaVuSans-2212"/>
       <use x="83.789062" xlink:href="#DejaVuSans-34"/>
      </g>
     </g>
    </g>
    <g id="ytick_2">
     <g id="line2d_11">
      <g>
       <use style="stroke:#000000;stroke-width:0.8;" x="57.6" xlink:href="#mb0a355d220" y="243.507031"/>
      </g>
     </g>
     <g id="text_11">
      <!-- −2 -->
      <g transform="translate(35.857813 247.30625)scale(0.1 -0.1)">
       <use xlink:href="#DejaVuSans-2212"/>
       <use x="83.789062" xlink:href="#DejaVuSans-32"/>
      </g>
     </g>
    </g>
    <g id="ytick_3">
     <g id="line2d_12">
      <g>
       <use style="stroke:#000000;stroke-width:0.8;" x="57.6" xlink:href="#mb0a355d220" y="185.006461"/>
      </g>
     </g>
     <g id="text_12">
      <!-- 0 -->
      <g transform="translate(44.2375 188.80568)scale(0.1 -0.1)">
       <use xlink:href="#DejaVuSans-30"/>
      </g>
     </g>
    </g>
    <g id="ytick_4">
     <g id="line2d_13">
      <g>
       <use style="stroke:#000000;stroke-width:0.8;" x="57.6" xlink:href="#mb0a355d220" y="126.505891"/>
      </g>
     </g>
     <g id="text_13">
      <!-- 2 -->
      <g transform="translate(44.2375 130.30511)scale(0.1 -0.1)">
       <use xlink:href="#DejaVuSans-32"/>
      </g>
     </g>
    </g>
    <g id="ytick_5">
     <g id="line2d_14">
      <g>
       <use style="stroke:#000000;stroke-width:0.8;" x="57.6" xlink:href="#mb0a355d220" y="68.005321"/>
      </g>
     </g>
     <g id="text_14">
      <!-- 4 -->
      <g transform="translate(44.2375 71.80454)scale(0.1 -0.1)">
       <use xlink:href="#DejaVuSans-34"/>
      </g>
     </g>
    </g>
   </g>
   <g id="line2d_15">
    <path clip-path="url(#p57e960b75a)" d="M 73.832727 227.31629 
L 77.079273 227.574176 
L 80.325818 228.122792 
L 83.572364 228.912629 
L 86.818909 229.919278 
L 91.688727 231.691863 
L 104.674909 236.609663 
L 107.921455 237.68649 
L 116.037818 240.977723 
L 119.284364 242.461743 
L 122.530909 244.224907 
L 125.777455 246.418248 
L 129.024 249.139935 
L 132.270545 252.414491 
L 135.517091 256.320793 
L 138.763636 260.888636 
L 142.010182 265.67027 
L 145.256727 270.149528 
L 154.996364 282.720883 
L 158.242909 286.563989 
L 159.866182 288.237236 
L 161.489455 289.750549 
L 163.112727 291.108551 
L 164.736 292.196865 
L 166.359273 292.896927 
L 167.982545 293.253656 
L 169.605818 293.310351 
L 171.229091 293.110788 
L 172.852364 292.639437 
L 174.475636 291.853658 
L 176.098909 290.763398 
L 177.722182 289.377394 
L 179.345455 287.703645 
L 180.968727 285.743276 
L 182.592 283.494974 
L 184.215273 280.972722 
L 187.461818 275.219857 
L 190.708364 268.742747 
L 193.954909 261.728152 
L 200.448 247.426476 
L 203.694545 240.841133 
L 205.317818 237.885948 
L 206.941091 235.189515 
L 208.564364 232.749267 
L 210.187636 230.560839 
L 211.810909 228.618228 
L 213.434182 226.895971 
L 216.680727 223.955165 
L 219.927273 221.524272 
L 223.173818 219.389031 
L 226.420364 217.511433 
L 231.290182 215.386902 
L 239.406545 211.735986 
L 245.899636 209.054317 
L 249.146182 207.395685 
L 252.392727 205.503135 
L 255.639273 203.359695 
L 257.262545 202.123507 
L 258.885818 200.74486 
L 263.755636 195.979163 
L 268.625455 191.317204 
L 270.248727 189.861279 
L 271.872 188.563702 
L 273.495273 187.434657 
L 275.118545 186.485274 
L 276.741818 185.727709 
L 278.365091 185.16574 
L 279.988364 184.791485 
L 281.611636 184.596327 
L 283.234909 184.572422 
L 286.481455 184.936184 
L 296.221091 186.11027 
L 310.830545 187.581953 
L 322.193455 188.782625 
L 323.816727 188.997359 
L 325.44 189.059145 
L 327.063273 188.822192 
L 331.933091 187.492994 
L 333.556364 186.992629 
L 338.426182 184.77015 
L 340.049455 184.317636 
L 349.789091 182.845493 
L 356.282182 181.961243 
L 357.905455 181.888206 
L 359.528727 182.124735 
L 361.152 182.658888 
L 362.775273 183.480187 
L 366.021818 185.709278 
L 367.645091 186.583769 
L 369.268364 187.21566 
L 370.891636 187.616732 
L 372.514909 187.797681 
L 380.631273 188.218453 
L 383.877818 188.48536 
L 385.501091 188.47474 
L 387.124364 188.16619 
L 391.994182 186.627627 
L 393.617455 186.027943 
L 395.240727 185.135592 
L 398.487273 183.11592 
L 398.487273 183.11592 
" style="fill:none;stroke:#1f77b4;stroke-linecap:square;stroke-width:1.5;"/>
   </g>
   <g id="line2d_16">
    <path clip-path="url(#p57e960b75a)" d="M 73.832727 227.636949 
L 77.079273 227.585646 
L 80.325818 227.802441 
L 83.572364 228.345482 
L 86.818909 229.172859 
L 91.688727 230.774906 
L 96.558545 232.620666 
L 101.428364 234.771511 
L 104.674909 236.417581 
L 109.544727 239.031329 
L 112.791273 240.444167 
L 117.661091 242.280765 
L 120.907636 243.833441 
L 124.154182 245.771157 
L 127.400727 248.229367 
L 130.647273 251.234061 
L 132.270545 252.955157 
L 135.517091 256.888735 
L 138.763636 261.49061 
L 142.010182 266.304727 
L 145.256727 270.808131 
L 154.996364 283.406077 
L 158.242909 287.244264 
L 159.866182 288.913638 
L 161.489455 290.422359 
L 163.112727 291.775194 
L 164.736 292.859399 
L 166.359273 293.558218 
L 167.982545 293.916281 
L 169.605818 293.97648 
L 171.229091 293.782083 
L 172.852364 293.317836 
L 174.475636 292.541687 
L 176.098909 291.463318 
L 177.722182 290.091128 
L 179.345455 288.432699 
L 180.968727 286.48872 
L 182.592 284.257359 
L 184.215273 281.751856 
L 187.461818 276.028416 
L 192.331636 266.5944 
L 198.824727 253.552924 
L 205.317818 239.979188 
L 206.941091 236.969007 
L 208.564364 234.228118 
L 210.187636 231.75331 
L 211.810909 229.539511 
L 213.434182 227.569894 
L 215.057455 225.811321 
L 216.680727 224.237599 
L 219.927273 221.554336 
L 223.173818 219.252557 
L 226.420364 217.23076 
L 229.666909 215.688491 
L 234.536727 213.306513 
L 239.406545 210.981012 
L 245.899636 208.072733 
L 249.146182 206.285807 
L 252.392727 204.253359 
L 255.639273 201.834135 
L 258.885818 199.298909 
L 263.755636 196.086951 
L 265.378909 194.720149 
L 267.002182 193.172448 
L 270.248727 189.809098 
L 271.872 188.551996 
L 273.495273 187.661384 
L 275.118545 187.121153 
L 276.741818 186.916121 
L 288.104727 186.857605 
L 301.090909 187.044869 
L 314.077091 187.45407 
L 327.063273 188.082482 
L 335.179636 188.619665 
L 336.802909 188.325389 
L 341.672727 186.829017 
L 343.296 186.24322 
L 344.919273 185.3648 
L 348.165818 183.373004 
L 349.789091 182.582083 
L 351.412364 181.997693 
L 353.035636 181.559086 
L 354.658909 181.324827 
L 356.282182 181.354825 
L 357.905455 181.711296 
L 366.021818 184.49829 
L 367.645091 185.072925 
L 369.268364 185.400806 
L 370.891636 185.51475 
L 372.514909 185.446142 
L 377.384727 184.680202 
L 382.254545 184.024522 
L 395.240727 182.635418 
L 398.487273 182.308903 
L 398.487273 182.308903 
" style="fill:none;stroke:#ff7f0e;stroke-linecap:square;stroke-width:1.5;"/>
   </g>
   <g id="line2d_17">
    <path clip-path="url(#p57e960b75a)" d="M 73.832727 83.321795 
L 78.702545 83.31513 
L 83.572364 83.508683 
L 90.065455 84.031071 
L 96.558545 84.795983 
L 104.674909 85.996714 
L 117.661091 88.214111 
L 133.893818 90.972046 
L 143.633455 92.402325 
L 151.749818 93.397396 
L 159.866182 94.190346 
L 167.982545 94.775342 
L 176.098909 95.159135 
L 185.838545 95.377978 
L 195.578182 95.372918 
L 206.941091 95.150589 
L 223.173818 94.584986 
L 262.132364 93.128649 
L 279.988364 92.744052 
L 297.844364 92.586498 
L 318.946909 92.627498 
L 362.775273 93.014385 
L 398.487273 93.216678 
L 398.487273 93.216678 
" style="fill:none;stroke:#2ca02c;stroke-linecap:square;stroke-width:1.5;"/>
   </g>
   <g id="line2d_18">
    <path clip-path="url(#p57e960b75a)" d="M 73.832727 116.375975 
L 77.079273 116.526005 
L 80.325818 116.466374 
L 83.572364 116.214205 
L 86.818909 115.786528 
L 91.688727 114.852764 
L 96.558545 113.61794 
L 101.428364 112.136594 
L 107.921455 109.869115 
L 116.037818 106.732115 
L 135.517091 99.007811 
L 142.010182 96.675907 
L 148.503273 94.572632 
L 154.996364 92.738539 
L 161.489455 91.198566 
L 166.359273 90.243419 
L 171.229091 89.459534 
L 177.722182 88.673581 
L 184.215273 88.167444 
L 190.708364 87.916346 
L 197.201455 87.890194 
L 205.317818 88.122637 
L 213.434182 88.585438 
L 224.797091 89.490864 
L 263.755636 92.888546 
L 275.118545 93.564994 
L 286.481455 94.024262 
L 297.844364 94.273656 
L 310.830545 94.337136 
L 327.063273 94.172082 
L 354.658909 93.604483 
L 383.877818 93.066318 
L 398.487273 92.910441 
L 398.487273 92.910441 
" style="fill:none;stroke:#d62728;stroke-linecap:square;stroke-width:1.5;"/>
   </g>
   <g id="line2d_19">
    <path clip-path="url(#p57e960b75a)" d="M 73.832727 177.222242 
L 75.456 177.342187 
L 77.079273 177.744012 
L 78.702545 178.418079 
L 80.325818 179.356405 
L 83.572364 181.76404 
L 85.195636 182.708796 
L 86.818909 183.399191 
L 88.442182 183.846977 
L 90.065455 184.063034 
L 101.428364 184.585348 
L 116.037818 185.008574 
L 142.010182 185.492469 
L 177.722182 186.202658 
L 197.201455 186.801566 
L 213.434182 187.506041 
L 224.797091 188.176377 
L 231.290182 188.631265 
L 232.913455 188.343494 
L 237.783273 186.865438 
L 239.406545 186.285414 
L 241.029818 185.412653 
L 244.276364 183.431851 
L 245.899636 182.646313 
L 247.522909 182.067269 
L 249.146182 181.633984 
L 250.769455 181.405066 
L 252.392727 181.440466 
L 254.016 181.802442 
L 262.132364 184.617519 
L 263.755636 185.197907 
L 265.378909 185.531606 
L 267.002182 185.651456 
L 268.625455 185.588857 
L 271.872 185.090461 
L 279.988364 183.828837 
L 291.351273 182.332238 
L 294.597818 181.931529 
L 296.221091 181.875088 
L 297.844364 182.127482 
L 299.467636 182.676855 
L 301.090909 183.512805 
L 304.337455 185.769721 
L 305.960727 186.657486 
L 307.584 187.302309 
L 309.207273 187.716035 
L 310.830545 187.909418 
L 317.323636 188.295792 
L 320.570182 188.577406 
L 322.193455 188.574066 
L 323.816727 188.272858 
L 328.686545 186.756411 
L 330.309818 186.164121 
L 331.933091 185.279248 
L 335.179636 183.274688 
L 336.802909 182.477399 
L 338.426182 181.886603 
L 340.049455 181.441535 
L 341.672727 181.200708 
L 343.296 181.223969 
L 344.919273 181.573477 
L 353.035636 184.324057 
L 356.282182 185.515516 
L 359.528727 186.30898 
L 362.775273 186.717006 
L 385.501091 189.064615 
L 387.124364 188.831389 
L 391.994182 187.512668 
L 393.617455 187.0156 
L 398.487273 184.802623 
L 398.487273 184.802623 
" style="fill:none;stroke:#9467bd;stroke-linecap:square;stroke-width:1.5;"/>
   </g>
   <g id="line2d_20">
    <path clip-path="url(#p57e960b75a)" d="M 73.832727 79.946511 
L 78.702545 79.676343 
L 83.572364 79.706827 
L 88.442182 80.002174 
L 93.312 80.525846 
L 98.181818 81.241258 
L 104.674909 82.431288 
L 112.791273 84.183563 
L 130.647273 88.40628 
L 140.386909 90.574111 
L 148.503273 92.170174 
L 156.619636 93.519131 
L 163.112727 94.400817 
L 169.605818 95.101217 
L 177.722182 95.726195 
L 185.838545 96.090183 
L 193.954909 96.22211 
L 203.694545 96.125466 
L 215.057455 95.749558 
L 229.666909 95.020413 
L 262.132364 93.326932 
L 276.741818 92.80635 
L 291.351273 92.498255 
L 307.584 92.384721 
L 327.063273 92.482269 
L 398.487273 93.233822 
L 398.487273 93.233822 
" style="fill:none;stroke:#8c564b;stroke-linecap:square;stroke-width:1.5;"/>
   </g>
   <g id="line2d_21">
    <path clip-path="url(#p57e960b75a)" d="M 73.832727 283.267138 
L 75.456 283.147082 
L 77.079273 282.825764 
L 78.702545 282.2809 
L 80.325818 281.49047 
L 81.949091 280.433213 
L 83.572364 279.120202 
L 86.818909 275.944088 
L 91.688727 270.772863 
L 93.312 269.3052 
L 94.935273 268.028688 
L 96.558545 266.937094 
L 98.181818 266.024004 
L 99.805091 265.354502 
L 101.428364 265.01645 
L 103.051636 265.019973 
L 104.674909 265.373157 
L 106.298182 266.08466 
L 107.921455 267.11683 
L 109.544727 268.413781 
L 111.168 269.965819 
L 112.791273 271.763104 
L 116.037818 275.954925 
L 124.154182 286.61539 
L 127.400727 290.198865 
L 129.024 291.742599 
L 130.647273 293.127671 
L 132.270545 294.244883 
L 133.893818 294.981545 
L 135.517091 295.381859 
L 137.140364 295.488 
L 138.763636 295.342225 
L 140.386909 294.930168 
L 142.010182 294.211464 
L 143.633455 293.195379 
L 145.256727 291.889697 
L 146.88 290.301159 
L 148.503273 288.429545 
L 150.126545 286.27187 
L 151.749818 283.839541 
L 153.373091 281.155882 
L 156.619636 275.219785 
L 164.736 259.711449 
L 176.098909 237.456746 
L 177.722182 234.765507 
L 179.345455 232.311499 
L 180.968727 230.110637 
L 182.592 228.152098 
L 184.215273 226.405633 
L 185.838545 224.844376 
L 189.085091 222.172146 
L 192.331636 219.884309 
L 195.578182 217.827272 
L 198.824727 215.981796 
L 202.071273 214.358922 
L 205.317818 212.920712 
L 215.057455 208.950646 
L 218.304 207.240456 
L 221.550545 205.297417 
L 223.173818 204.125186 
L 226.420364 201.35839 
L 236.16 192.031097 
L 237.783273 190.603348 
L 239.406545 189.33414 
L 241.029818 188.233744 
L 242.653091 187.313398 
L 244.276364 186.585379 
L 245.899636 186.126926 
L 249.146182 185.878148 
L 250.769455 185.75305 
L 254.016 185.038045 
L 257.262545 184.957248 
L 258.885818 184.907605 
L 262.132364 184.328303 
L 265.378909 184.365405 
L 267.002182 184.368912 
L 270.248727 183.885833 
L 273.495273 184.006959 
L 275.118545 184.048571 
L 276.741818 183.854644 
L 281.611636 182.743616 
L 283.234909 182.472456 
L 286.481455 182.230732 
L 289.728 182.051926 
L 291.351273 182.100015 
L 292.974545 182.453416 
L 294.597818 183.100739 
L 296.221091 184.031952 
L 299.467636 186.416757 
L 301.090909 187.212058 
L 302.714182 187.629982 
L 304.337455 187.674664 
L 305.960727 187.348313 
L 307.584 186.687654 
L 312.453818 184.016476 
L 314.077091 183.423258 
L 318.946909 182.212403 
L 320.570182 181.908133 
L 322.193455 181.717695 
L 323.816727 181.741901 
L 325.44 182.071142 
L 327.063273 182.693995 
L 328.686545 183.600449 
L 331.933091 185.990683 
L 333.556364 186.941788 
L 335.179636 187.648148 
L 336.802909 188.12191 
L 338.426182 188.374114 
L 340.049455 188.348904 
L 341.672727 188.025913 
L 346.542545 186.445029 
L 348.165818 185.831518 
L 349.789091 184.925363 
L 353.035636 182.87821 
L 354.658909 182.059388 
L 356.282182 181.44672 
L 357.905455 180.979409 
L 359.528727 180.715753 
L 361.152 180.715368 
L 362.775273 181.040185 
L 370.891636 183.659632 
L 374.138182 184.795159 
L 377.384727 185.530375 
L 380.631273 185.877258 
L 398.487273 187.28337 
L 398.487273 187.28337 
" style="fill:none;stroke:#e377c2;stroke-linecap:square;stroke-width:1.5;"/>
   </g>
   <g id="line2d_22">
    <path clip-path="url(#p57e960b75a)" d="M 73.832727 53.568 
L 77.079273 53.878677 
L 80.325818 54.432818 
L 83.572364 55.209704 
L 86.818909 56.189617 
L 90.065455 57.353662 
L 94.935273 59.405169 
L 99.805091 61.770171 
L 104.674909 64.390103 
L 111.168 68.179632 
L 120.907636 74.221493 
L 132.270545 81.279664 
L 138.763636 85.081244 
L 145.256727 88.586945 
L 150.126545 90.974293 
L 154.996364 93.126429 
L 159.866182 95.026329 
L 164.736 96.664165 
L 169.605818 98.036807 
L 174.475636 99.147133 
L 179.345455 100.003226 
L 184.215273 100.617525 
L 189.085091 101.005983 
L 193.954909 101.187262 
L 198.824727 101.182003 
L 205.317818 100.922872 
L 211.810909 100.424991 
L 219.927273 99.54888 
L 229.666909 98.258028 
L 258.885818 94.208923 
L 268.625455 93.140471 
L 278.365091 92.305509 
L 288.104727 91.717397 
L 297.844364 91.367359 
L 307.584 91.230058 
L 318.946909 91.29002 
L 333.556364 91.612147 
L 362.775273 92.56902 
L 385.501091 93.184799 
L 398.487273 93.405512 
L 398.487273 93.405512 
" style="fill:none;stroke:#7f7f7f;stroke-linecap:square;stroke-width:1.5;"/>
   </g>
   <g id="line2d_23">
    <path clip-path="url(#p57e960b75a)" d="M 73.832727 147.913779 
L 80.325818 148.047719 
L 88.442182 148.425028 
L 98.181818 149.102962 
L 109.544727 150.050236 
L 114.414545 150.786841 
L 129.024 153.618026 
L 138.763636 156.031214 
L 142.010182 156.984739 
L 145.256727 158.168453 
L 151.749818 160.737147 
L 158.242909 163.095069 
L 161.489455 164.644688 
L 164.736 166.378174 
L 167.982545 167.779927 
L 176.098909 170.78619 
L 177.722182 171.673549 
L 179.345455 172.729476 
L 182.592 175.255513 
L 185.838545 178.271395 
L 190.708364 183.19836 
L 192.331636 184.507892 
L 193.954909 185.538118 
L 195.578182 186.230721 
L 197.201455 186.557927 
L 198.824727 186.532199 
L 200.448 186.167997 
L 202.071273 185.478195 
L 206.941091 182.524242 
L 208.564364 181.845027 
L 210.187636 181.349466 
L 211.810909 181.028493 
L 213.434182 180.942016 
L 215.057455 181.162156 
L 216.680727 181.677102 
L 218.304 182.476595 
L 221.550545 184.655816 
L 223.173818 185.503036 
L 224.797091 186.105929 
L 226.420364 186.476098 
L 228.043636 186.62412 
L 242.653091 186.996941 
L 257.262545 187.587244 
L 268.625455 188.23789 
L 275.118545 188.686964 
L 276.741818 188.398317 
L 281.611636 186.918761 
L 283.234909 186.338547 
L 284.858182 185.465759 
L 288.104727 183.485301 
L 289.728 182.700131 
L 291.351273 182.121593 
L 292.974545 181.688948 
L 294.597818 181.460817 
L 296.221091 181.497165 
L 297.844364 181.860264 
L 305.960727 184.682586 
L 307.584 185.264704 
L 309.207273 185.600226 
L 310.830545 185.721998 
L 312.453818 185.66142 
L 315.700364 185.167362 
L 323.816727 183.918264 
L 335.179636 182.443641 
L 338.426182 182.050277 
L 340.049455 181.997763 
L 341.672727 182.254353 
L 343.296 182.808186 
L 344.919273 183.648838 
L 348.165818 185.915733 
L 349.789091 186.808735 
L 351.412364 187.459003 
L 353.035636 187.878415 
L 356.282182 188.167158 
L 364.398545 188.679882 
L 366.021818 188.381869 
L 370.891636 186.876103 
L 372.514909 186.287673 
L 374.138182 185.40686 
L 377.384727 183.410873 
L 379.008 182.618134 
L 380.631273 182.032106 
L 382.254545 181.592024 
L 383.877818 181.356457 
L 385.501091 181.385311 
L 387.124364 181.740801 
L 395.240727 184.524568 
L 396.864 185.09883 
L 398.487273 185.426416 
L 398.487273 185.426416 
" style="fill:none;stroke:#bcbd22;stroke-linecap:square;stroke-width:1.5;"/>
   </g>
   <g id="line2d_24">
    <path clip-path="url(#p57e960b75a)" d="M 73.832727 198.304409 
L 75.456 198.101515 
L 77.079273 197.756939 
L 78.702545 197.274788 
L 80.325818 196.65833 
L 81.949091 195.910083 
L 83.572364 194.9946 
L 85.195636 193.871794 
L 86.818909 192.549293 
L 88.442182 191.033041 
L 91.688727 187.704043 
L 93.312 186.45834 
L 94.935273 185.575632 
L 96.558545 185.039263 
L 98.181818 184.833788 
L 161.489455 183.615453 
L 179.345455 182.999211 
L 195.578182 182.215285 
L 198.824727 182.025579 
L 200.448 182.068452 
L 202.071273 182.416742 
L 203.694545 183.059042 
L 205.317818 183.985308 
L 208.564364 186.360436 
L 210.187636 187.150966 
L 211.810909 187.564117 
L 213.434182 187.603994 
L 216.680727 186.898691 
L 219.927273 186.813204 
L 221.550545 186.768024 
L 223.173818 186.497694 
L 224.797091 185.888255 
L 226.420364 184.986162 
L 229.666909 182.947084 
L 231.290182 182.132321 
L 232.913455 181.523763 
L 234.536727 181.060615 
L 236.16 180.80122 
L 237.783273 180.805234 
L 239.406545 181.134633 
L 247.522909 183.778268 
L 250.769455 184.924053 
L 254.016 185.669908 
L 257.262545 186.027916 
L 275.118545 187.506405 
L 286.481455 188.506779 
L 289.728 188.886167 
L 291.351273 188.929973 
L 292.974545 188.67529 
L 297.844364 187.294482 
L 299.467636 186.746314 
L 301.090909 185.905477 
L 304.337455 183.988398 
L 305.960727 183.234869 
L 307.584 182.688162 
L 309.207273 182.287617 
L 310.830545 182.092107 
L 312.453818 182.161868 
L 314.077091 182.559424 
L 323.816727 186.131743 
L 325.44 186.337312 
L 327.063273 186.194301 
L 328.686545 185.716653 
L 333.556364 183.353834 
L 335.179636 182.859433 
L 336.802909 182.544011 
L 340.049455 182.343707 
L 348.165818 182.146939 
L 349.789091 182.518159 
L 351.412364 183.182781 
L 353.035636 184.130835 
L 356.282182 186.548101 
L 357.905455 187.359169 
L 359.528727 187.792696 
L 361.152 187.85291 
L 362.775273 187.542093 
L 364.398545 186.896988 
L 369.268364 184.272223 
L 370.891636 183.694457 
L 375.761455 182.530375 
L 377.384727 182.241963 
L 379.008 182.067653 
L 380.631273 182.108436 
L 382.254545 182.45486 
L 383.877818 183.095499 
L 385.501091 184.020287 
L 388.747636 186.392916 
L 390.370909 187.18241 
L 391.994182 187.59467 
L 393.617455 187.633797 
L 396.864 186.927371 
L 398.487273 186.82932 
L 398.487273 186.82932 
" style="fill:none;stroke:#17becf;stroke-linecap:square;stroke-width:1.5;"/>
   </g>
   <g id="patch_3">
    <path d="M 57.6 307.584 
L 57.6 41.472 
" style="fill:none;stroke:#000000;stroke-linecap:square;stroke-linejoin:miter;stroke-width:0.8;"/>
   </g>
   <g id="patch_4">
    <path d="M 414.72 307.584 
L 414.72 41.472 
" style="fill:none;stroke:#000000;stroke-linecap:square;stroke-linejoin:miter;stroke-width:0.8;"/>
   </g>
   <g id="patch_5">
    <path d="M 57.6 307.584 
L 414.72 307.584 
" style="fill:none;stroke:#000000;stroke-linecap:square;stroke-linejoin:miter;stroke-width:0.8;"/>
   </g>
   <g id="patch_6">
    <path d="M 57.6 41.472 
L 414.72 41.472 
" style="fill:none;stroke:#000000;stroke-linecap:square;stroke-linejoin:miter;stroke-width:0.8;"/>
   </g>
   <g id="legend_1">
    <g id="patch_7">
     <path d="M 64.6 302.584 
L 109.325 302.584 
Q 111.325 302.584 111.325 300.584 
L 111.325 154.80275 
Q 111.325 152.80275 109.325 152.80275 
L 64.6 152.80275 
Q 62.6 152.80275 62.6 154.80275 
L 62.6 300.584 
Q 62.6 302.584 64.6 302.584 
z
" style="fill:#ffffff;opacity:0.8;stroke:#cccccc;stroke-linejoin:miter;"/>
    </g>
    <g id="line2d_25">
     <path d="M 66.6 160.901187 
L 86.6 160.901187 
" style="fill:none;stroke:#1f77b4;stroke-linecap:square;stroke-width:1.5;"/>
    </g>
    <g id="line2d_26"/>
    <g id="text_15">
     <!-- 40 -->
     <g transform="translate(94.6 164.401187)scale(0.1 -0.1)">
      <use xlink:href="#DejaVuSans-34"/>
      <use x="63.623047" xlink:href="#DejaVuSans-30"/>
     </g>
    </g>
    <g id="line2d_27">
     <path d="M 66.6 175.579313 
L 86.6 175.579313 
" style="fill:none;stroke:#ff7f0e;stroke-linecap:square;stroke-width:1.5;"/>
    </g>
    <g id="line2d_28"/>
    <g id="text_16">
     <!-- 41 -->
     <g transform="translate(94.6 179.079313)scale(0.1 -0.1)">
      <use xlink:href="#DejaVuSans-34"/>
      <use x="63.623047" xlink:href="#DejaVuSans-31"/>
     </g>
    </g>
    <g id="line2d_29">
     <path d="M 66.6 190.257438 
L 86.6 190.257438 
" style="fill:none;stroke:#2ca02c;stroke-linecap:square;stroke-width:1.5;"/>
    </g>
    <g id="line2d_30"/>
    <g id="text_17">
     <!-- 42 -->
     <g transform="translate(94.6 193.757438)scale(0.1 -0.1)">
      <use xlink:href="#DejaVuSans-34"/>
      <use x="63.623047" xlink:href="#DejaVuSans-32"/>
     </g>
    </g>
    <g id="line2d_31">
     <path d="M 66.6 204.935563 
L 86.6 204.935563 
" style="fill:none;stroke:#d62728;stroke-linecap:square;stroke-width:1.5;"/>
    </g>
    <g id="line2d_32"/>
    <g id="text_18">
     <!-- 43 -->
     <g transform="translate(94.6 208.435563)scale(0.1 -0.1)">
      <defs>
       <path d="M 2597 2516 
Q 3050 2419 3304 2112 
Q 3559 1806 3559 1356 
Q 3559 666 3084 287 
Q 2609 -91 1734 -91 
Q 1441 -91 1130 -33 
Q 819 25 488 141 
L 488 750 
Q 750 597 1062 519 
Q 1375 441 1716 441 
Q 2309 441 2620 675 
Q 2931 909 2931 1356 
Q 2931 1769 2642 2001 
Q 2353 2234 1838 2234 
L 1294 2234 
L 1294 2753 
L 1863 2753 
Q 2328 2753 2575 2939 
Q 2822 3125 2822 3475 
Q 2822 3834 2567 4026 
Q 2313 4219 1838 4219 
Q 1578 4219 1281 4162 
Q 984 4106 628 3988 
L 628 4550 
Q 988 4650 1302 4700 
Q 1616 4750 1894 4750 
Q 2613 4750 3031 4423 
Q 3450 4097 3450 3541 
Q 3450 3153 3228 2886 
Q 3006 2619 2597 2516 
z
" id="DejaVuSans-33" transform="scale(0.015625)"/>
      </defs>
      <use xlink:href="#DejaVuSans-34"/>
      <use x="63.623047" xlink:href="#DejaVuSans-33"/>
     </g>
    </g>
    <g id="line2d_33">
     <path d="M 66.6 219.613688 
L 86.6 219.613688 
" style="fill:none;stroke:#9467bd;stroke-linecap:square;stroke-width:1.5;"/>
    </g>
    <g id="line2d_34"/>
    <g id="text_19">
     <!-- 44 -->
     <g transform="translate(94.6 223.113688)scale(0.1 -0.1)">
      <use xlink:href="#DejaVuSans-34"/>
      <use x="63.623047" xlink:href="#DejaVuSans-34"/>
     </g>
    </g>
    <g id="line2d_35">
     <path d="M 66.6 234.291812 
L 86.6 234.291812 
" style="fill:none;stroke:#8c564b;stroke-linecap:square;stroke-width:1.5;"/>
    </g>
    <g id="line2d_36"/>
    <g id="text_20">
     <!-- 45 -->
     <g transform="translate(94.6 237.791812)scale(0.1 -0.1)">
      <use xlink:href="#DejaVuSans-34"/>
      <use x="63.623047" xlink:href="#DejaVuSans-35"/>
     </g>
    </g>
    <g id="line2d_37">
     <path d="M 66.6 248.969938 
L 86.6 248.969938 
" style="fill:none;stroke:#e377c2;stroke-linecap:square;stroke-width:1.5;"/>
    </g>
    <g id="line2d_38"/>
    <g id="text_21">
     <!-- 46 -->
     <g transform="translate(94.6 252.469938)scale(0.1 -0.1)">
      <defs>
       <path d="M 2113 2584 
Q 1688 2584 1439 2293 
Q 1191 2003 1191 1497 
Q 1191 994 1439 701 
Q 1688 409 2113 409 
Q 2538 409 2786 701 
Q 3034 994 3034 1497 
Q 3034 2003 2786 2293 
Q 2538 2584 2113 2584 
z
M 3366 4563 
L 3366 3988 
Q 3128 4100 2886 4159 
Q 2644 4219 2406 4219 
Q 1781 4219 1451 3797 
Q 1122 3375 1075 2522 
Q 1259 2794 1537 2939 
Q 1816 3084 2150 3084 
Q 2853 3084 3261 2657 
Q 3669 2231 3669 1497 
Q 3669 778 3244 343 
Q 2819 -91 2113 -91 
Q 1303 -91 875 529 
Q 447 1150 447 2328 
Q 447 3434 972 4092 
Q 1497 4750 2381 4750 
Q 2619 4750 2861 4703 
Q 3103 4656 3366 4563 
z
" id="DejaVuSans-36" transform="scale(0.015625)"/>
      </defs>
      <use xlink:href="#DejaVuSans-34"/>
      <use x="63.623047" xlink:href="#DejaVuSans-36"/>
     </g>
    </g>
    <g id="line2d_39">
     <path d="M 66.6 263.648062 
L 86.6 263.648062 
" style="fill:none;stroke:#7f7f7f;stroke-linecap:square;stroke-width:1.5;"/>
    </g>
    <g id="line2d_40"/>
    <g id="text_22">
     <!-- 47 -->
     <g transform="translate(94.6 267.148062)scale(0.1 -0.1)">
      <use xlink:href="#DejaVuSans-34"/>
      <use x="63.623047" xlink:href="#DejaVuSans-37"/>
     </g>
    </g>
    <g id="line2d_41">
     <path d="M 66.6 278.326188 
L 86.6 278.326188 
" style="fill:none;stroke:#bcbd22;stroke-linecap:square;stroke-width:1.5;"/>
    </g>
    <g id="line2d_42"/>
    <g id="text_23">
     <!-- 48 -->
     <g transform="translate(94.6 281.826188)scale(0.1 -0.1)">
      <defs>
       <path d="M 2034 2216 
Q 1584 2216 1326 1975 
Q 1069 1734 1069 1313 
Q 1069 891 1326 650 
Q 1584 409 2034 409 
Q 2484 409 2743 651 
Q 3003 894 3003 1313 
Q 3003 1734 2745 1975 
Q 2488 2216 2034 2216 
z
M 1403 2484 
Q 997 2584 770 2862 
Q 544 3141 544 3541 
Q 544 4100 942 4425 
Q 1341 4750 2034 4750 
Q 2731 4750 3128 4425 
Q 3525 4100 3525 3541 
Q 3525 3141 3298 2862 
Q 3072 2584 2669 2484 
Q 3125 2378 3379 2068 
Q 3634 1759 3634 1313 
Q 3634 634 3220 271 
Q 2806 -91 2034 -91 
Q 1263 -91 848 271 
Q 434 634 434 1313 
Q 434 1759 690 2068 
Q 947 2378 1403 2484 
z
M 1172 3481 
Q 1172 3119 1398 2916 
Q 1625 2713 2034 2713 
Q 2441 2713 2670 2916 
Q 2900 3119 2900 3481 
Q 2900 3844 2670 4047 
Q 2441 4250 2034 4250 
Q 1625 4250 1398 4047 
Q 1172 3844 1172 3481 
z
" id="DejaVuSans-38" transform="scale(0.015625)"/>
      </defs>
      <use xlink:href="#DejaVuSans-34"/>
      <use x="63.623047" xlink:href="#DejaVuSans-38"/>
     </g>
    </g>
    <g id="line2d_43">
     <path d="M 66.6 293.004312 
L 86.6 293.004312 
" style="fill:none;stroke:#17becf;stroke-linecap:square;stroke-width:1.5;"/>
    </g>
    <g id="line2d_44"/>
    <g id="text_24">
     <!-- 49 -->
     <g transform="translate(94.6 296.504312)scale(0.1 -0.1)">
      <defs>
       <path d="M 703 97 
L 703 672 
Q 941 559 1184 500 
Q 1428 441 1663 441 
Q 2288 441 2617 861 
Q 2947 1281 2994 2138 
Q 2813 1869 2534 1725 
Q 2256 1581 1919 1581 
Q 1219 1581 811 2004 
Q 403 2428 403 3163 
Q 403 3881 828 4315 
Q 1253 4750 1959 4750 
Q 2769 4750 3195 4129 
Q 3622 3509 3622 2328 
Q 3622 1225 3098 567 
Q 2575 -91 1691 -91 
Q 1453 -91 1209 -44 
Q 966 3 703 97 
z
M 1959 2075 
Q 2384 2075 2632 2365 
Q 2881 2656 2881 3163 
Q 2881 3666 2632 3958 
Q 2384 4250 1959 4250 
Q 1534 4250 1286 3958 
Q 1038 3666 1038 3163 
Q 1038 2656 1286 2365 
Q 1534 2075 1959 2075 
z
" id="DejaVuSans-39" transform="scale(0.015625)"/>
      </defs>
      <use xlink:href="#DejaVuSans-34"/>
      <use x="63.623047" xlink:href="#DejaVuSans-39"/>
     </g>
    </g>
   </g>
  </g>
 </g>
 <defs>
  <clipPath id="p57e960b75a">
   <rect height="266.112" width="357.12" x="57.6" y="41.472"/>
  </clipPath>
 </defs>
</svg>
