<?xml version="1.0" encoding="utf-8" standalone="no"?>
<!DOCTYPE svg PUBLIC "-//W3C//DTD SVG 1.1//EN"
  "http://www.w3.org/Graphics/SVG/1.1/DTD/svg11.dtd">
<svg height="345.6pt" version="1.1" viewBox="0 0 460.8 345.6" width="460.8pt" xmlns="http://www.w3.org/2000/svg" xmlns:xlink="http://www.w3.org/1999/xlink">
 <metadata>
  <rdf:RDF xmlns:cc="http://creativecommons.org/ns#" xmlns:dc="http://purl.org/dc/elements/1.1/" xmlns:rdf="http://www.w3.org/1999/02/22-rdf-syntax-ns#">
   <cc:Work>
    <dc:type rdf:resource="http://purl.org/dc/dcmitype/StillImage"/>
    <dc:date>2021-08-18T15:13:18.625935</dc:date>
    <dc:format>image/svg+xml</dc:format>
    <dc:creator>
     <cc:Agent>
      <dc:title>Matplotlib v3.4.2, https://matplotlib.org/</dc:title>
     </cc:Agent>
    </dc:creator>
   </cc:Work>
  </rdf:RDF>
 </metadata>
 <defs>
  <style type="text/css">*{stroke-linecap:butt;stroke-linejoin:round;}</style>
 </defs>
 <g id="figure_1">
  <g id="patch_1">
   <path d="M 0 345.6 
L 460.8 345.6 
L 460.8 0 
L 0 0 
z
" style="fill:#ffffff;"/>
  </g>
  <g id="axes_1">
   <g id="patch_2">
    <path d="M 57.6 307.584 
L 414.72 307.584 
L 414.72 41.472 
L 57.6 41.472 
z
" style="fill:#ffffff;"/>
   </g>
   <g id="matplotlib.axis_1">
    <g id="xtick_1">
     <g id="line2d_1">
      <defs>
       <path d="M 0 0 
L 0 3.5 
" id="maf20cba974" style="stroke:#000000;stroke-width:0.8;"/>
      </defs>
      <g>
       <use style="stroke:#000000;stroke-width:0.8;" x="73.832727" xlink:href="#maf20cba974" y="307.584"/>
      </g>
     </g>
     <g id="text_1">
      <!-- 0 -->
      <g transform="translate(70.651477 322.182437)scale(0.1 -0.1)">
       <defs>
        <path d="M 2034 4250 
Q 1547 4250 1301 3770 
Q 1056 3291 1056 2328 
Q 1056 1369 1301 889 
Q 1547 409 2034 409 
Q 2525 409 2770 889 
Q 3016 1369 3016 2328 
Q 3016 3291 2770 3770 
Q 2525 4250 2034 4250 
z
M 2034 4750 
Q 2819 4750 3233 4129 
Q 3647 3509 3647 2328 
Q 3647 1150 3233 529 
Q 2819 -91 2034 -91 
Q 1250 -91 836 529 
Q 422 1150 422 2328 
Q 422 3509 836 4129 
Q 1250 4750 2034 4750 
z
" id="DejaVuSans-30" transform="scale(0.015625)"/>
       </defs>
       <use xlink:href="#DejaVuSans-30"/>
      </g>
     </g>
    </g>
    <g id="xtick_2">
     <g id="line2d_2">
      <g>
       <use style="stroke:#000000;stroke-width:0.8;" x="114.414545" xlink:href="#maf20cba974" y="307.584"/>
      </g>
     </g>
     <g id="text_2">
      <!-- 25 -->
      <g transform="translate(108.052045 322.182437)scale(0.1 -0.1)">
       <defs>
        <path d="M 1228 531 
L 3431 531 
L 3431 0 
L 469 0 
L 469 531 
Q 828 903 1448 1529 
Q 2069 2156 2228 2338 
Q 2531 2678 2651 2914 
Q 2772 3150 2772 3378 
Q 2772 3750 2511 3984 
Q 2250 4219 1831 4219 
Q 1534 4219 1204 4116 
Q 875 4013 500 3803 
L 500 4441 
Q 881 4594 1212 4672 
Q 1544 4750 1819 4750 
Q 2544 4750 2975 4387 
Q 3406 4025 3406 3419 
Q 3406 3131 3298 2873 
Q 3191 2616 2906 2266 
Q 2828 2175 2409 1742 
Q 1991 1309 1228 531 
z
" id="DejaVuSans-32" transform="scale(0.015625)"/>
        <path d="M 691 4666 
L 3169 4666 
L 3169 4134 
L 1269 4134 
L 1269 2991 
Q 1406 3038 1543 3061 
Q 1681 3084 1819 3084 
Q 2600 3084 3056 2656 
Q 3513 2228 3513 1497 
Q 3513 744 3044 326 
Q 2575 -91 1722 -91 
Q 1428 -91 1123 -41 
Q 819 9 494 109 
L 494 744 
Q 775 591 1075 516 
Q 1375 441 1709 441 
Q 2250 441 2565 725 
Q 2881 1009 2881 1497 
Q 2881 1984 2565 2268 
Q 2250 2553 1709 2553 
Q 1456 2553 1204 2497 
Q 953 2441 691 2322 
L 691 4666 
z
" id="DejaVuSans-35" transform="scale(0.015625)"/>
       </defs>
       <use xlink:href="#DejaVuSans-32"/>
       <use x="63.623047" xlink:href="#DejaVuSans-35"/>
      </g>
     </g>
    </g>
    <g id="xtick_3">
     <g id="line2d_3">
      <g>
       <use style="stroke:#000000;stroke-width:0.8;" x="154.996364" xlink:href="#maf20cba974" y="307.584"/>
      </g>
     </g>
     <g id="text_3">
      <!-- 50 -->
      <g transform="translate(148.633864 322.182437)scale(0.1 -0.1)">
       <use xlink:href="#DejaVuSans-35"/>
       <use x="63.623047" xlink:href="#DejaVuSans-30"/>
      </g>
     </g>
    </g>
    <g id="xtick_4">
     <g id="line2d_4">
      <g>
       <use style="stroke:#000000;stroke-width:0.8;" x="195.578182" xlink:href="#maf20cba974" y="307.584"/>
      </g>
     </g>
     <g id="text_4">
      <!-- 75 -->
      <g transform="translate(189.215682 322.182437)scale(0.1 -0.1)">
       <defs>
        <path d="M 525 4666 
L 3525 4666 
L 3525 4397 
L 1831 0 
L 1172 0 
L 2766 4134 
L 525 4134 
L 525 4666 
z
" id="DejaVuSans-37" transform="scale(0.015625)"/>
       </defs>
       <use xlink:href="#DejaVuSans-37"/>
       <use x="63.623047" xlink:href="#DejaVuSans-35"/>
      </g>
     </g>
    </g>
    <g id="xtick_5">
     <g id="line2d_5">
      <g>
       <use style="stroke:#000000;stroke-width:0.8;" x="236.16" xlink:href="#maf20cba974" y="307.584"/>
      </g>
     </g>
     <g id="text_5">
      <!-- 100 -->
      <g transform="translate(226.61625 322.182437)scale(0.1 -0.1)">
       <defs>
        <path d="M 794 531 
L 1825 531 
L 1825 4091 
L 703 3866 
L 703 4441 
L 1819 4666 
L 2450 4666 
L 2450 531 
L 3481 531 
L 3481 0 
L 794 0 
L 794 531 
z
" id="DejaVuSans-31" transform="scale(0.015625)"/>
       </defs>
       <use xlink:href="#DejaVuSans-31"/>
       <use x="63.623047" xlink:href="#DejaVuSans-30"/>
       <use x="127.246094" xlink:href="#DejaVuSans-30"/>
      </g>
     </g>
    </g>
    <g id="xtick_6">
     <g id="line2d_6">
      <g>
       <use style="stroke:#000000;stroke-width:0.8;" x="276.741818" xlink:href="#maf20cba974" y="307.584"/>
      </g>
     </g>
     <g id="text_6">
      <!-- 125 -->
      <g transform="translate(267.198068 322.182437)scale(0.1 -0.1)">
       <use xlink:href="#DejaVuSans-31"/>
       <use x="63.623047" xlink:href="#DejaVuSans-32"/>
       <use x="127.246094" xlink:href="#DejaVuSans-35"/>
      </g>
     </g>
    </g>
    <g id="xtick_7">
     <g id="line2d_7">
      <g>
       <use style="stroke:#000000;stroke-width:0.8;" x="317.323636" xlink:href="#maf20cba974" y="307.584"/>
      </g>
     </g>
     <g id="text_7">
      <!-- 150 -->
      <g transform="translate(307.779886 322.182437)scale(0.1 -0.1)">
       <use xlink:href="#DejaVuSans-31"/>
       <use x="63.623047" xlink:href="#DejaVuSans-35"/>
       <use x="127.246094" xlink:href="#DejaVuSans-30"/>
      </g>
     </g>
    </g>
    <g id="xtick_8">
     <g id="line2d_8">
      <g>
       <use style="stroke:#000000;stroke-width:0.8;" x="357.905455" xlink:href="#maf20cba974" y="307.584"/>
      </g>
     </g>
     <g id="text_8">
      <!-- 175 -->
      <g transform="translate(348.361705 322.182437)scale(0.1 -0.1)">
       <use xlink:href="#DejaVuSans-31"/>
       <use x="63.623047" xlink:href="#DejaVuSans-37"/>
       <use x="127.246094" xlink:href="#DejaVuSans-35"/>
      </g>
     </g>
    </g>
    <g id="xtick_9">
     <g id="line2d_9">
      <g>
       <use style="stroke:#000000;stroke-width:0.8;" x="398.487273" xlink:href="#maf20cba974" y="307.584"/>
      </g>
     </g>
     <g id="text_9">
      <!-- 200 -->
      <g transform="translate(388.943523 322.182437)scale(0.1 -0.1)">
       <use xlink:href="#DejaVuSans-32"/>
       <use x="63.623047" xlink:href="#DejaVuSans-30"/>
       <use x="127.246094" xlink:href="#DejaVuSans-30"/>
      </g>
     </g>
    </g>
   </g>
   <g id="matplotlib.axis_2">
    <g id="ytick_1">
     <g id="line2d_10">
      <defs>
       <path d="M 0 0 
L -3.5 0 
" id="m6a54934dda" style="stroke:#000000;stroke-width:0.8;"/>
      </defs>
      <g>
       <use style="stroke:#000000;stroke-width:0.8;" x="57.6" xlink:href="#m6a54934dda" y="302.542141"/>
      </g>
     </g>
     <g id="text_10">
      <!-- −4 -->
      <g transform="translate(35.857813 306.34136)scale(0.1 -0.1)">
       <defs>
        <path d="M 678 2272 
L 4684 2272 
L 4684 1741 
L 678 1741 
L 678 2272 
z
" id="DejaVuSans-2212" transform="scale(0.015625)"/>
        <path d="M 2419 4116 
L 825 1625 
L 2419 1625 
L 2419 4116 
z
M 2253 4666 
L 3047 4666 
L 3047 1625 
L 3713 1625 
L 3713 1100 
L 3047 1100 
L 3047 0 
L 2419 0 
L 2419 1100 
L 313 1100 
L 313 1709 
L 2253 4666 
z
" id="DejaVuSans-34" transform="scale(0.015625)"/>
       </defs>
       <use xlink:href="#DejaVuSans-2212"/>
       <use x="83.789062" xlink:href="#DejaVuSans-34"/>
      </g>
     </g>
    </g>
    <g id="ytick_2">
     <g id="line2d_11">
      <g>
       <use style="stroke:#000000;stroke-width:0.8;" x="57.6" xlink:href="#m6a54934dda" y="271.165387"/>
      </g>
     </g>
     <g id="text_11">
      <!-- −3 -->
      <g transform="translate(35.857813 274.964605)scale(0.1 -0.1)">
       <defs>
        <path d="M 2597 2516 
Q 3050 2419 3304 2112 
Q 3559 1806 3559 1356 
Q 3559 666 3084 287 
Q 2609 -91 1734 -91 
Q 1441 -91 1130 -33 
Q 819 25 488 141 
L 488 750 
Q 750 597 1062 519 
Q 1375 441 1716 441 
Q 2309 441 2620 675 
Q 2931 909 2931 1356 
Q 2931 1769 2642 2001 
Q 2353 2234 1838 2234 
L 1294 2234 
L 1294 2753 
L 1863 2753 
Q 2328 2753 2575 2939 
Q 2822 3125 2822 3475 
Q 2822 3834 2567 4026 
Q 2313 4219 1838 4219 
Q 1578 4219 1281 4162 
Q 984 4106 628 3988 
L 628 4550 
Q 988 4650 1302 4700 
Q 1616 4750 1894 4750 
Q 2613 4750 3031 4423 
Q 3450 4097 3450 3541 
Q 3450 3153 3228 2886 
Q 3006 2619 2597 2516 
z
" id="DejaVuSans-33" transform="scale(0.015625)"/>
       </defs>
       <use xlink:href="#DejaVuSans-2212"/>
       <use x="83.789062" xlink:href="#DejaVuSans-33"/>
      </g>
     </g>
    </g>
    <g id="ytick_3">
     <g id="line2d_12">
      <g>
       <use style="stroke:#000000;stroke-width:0.8;" x="57.6" xlink:href="#m6a54934dda" y="239.788632"/>
      </g>
     </g>
     <g id="text_12">
      <!-- −2 -->
      <g transform="translate(35.857813 243.587851)scale(0.1 -0.1)">
       <use xlink:href="#DejaVuSans-2212"/>
       <use x="83.789062" xlink:href="#DejaVuSans-32"/>
      </g>
     </g>
    </g>
    <g id="ytick_4">
     <g id="line2d_13">
      <g>
       <use style="stroke:#000000;stroke-width:0.8;" x="57.6" xlink:href="#m6a54934dda" y="208.411878"/>
      </g>
     </g>
     <g id="text_13">
      <!-- −1 -->
      <g transform="translate(35.857813 212.211096)scale(0.1 -0.1)">
       <use xlink:href="#DejaVuSans-2212"/>
       <use x="83.789062" xlink:href="#DejaVuSans-31"/>
      </g>
     </g>
    </g>
    <g id="ytick_5">
     <g id="line2d_14">
      <g>
       <use style="stroke:#000000;stroke-width:0.8;" x="57.6" xlink:href="#m6a54934dda" y="177.035123"/>
      </g>
     </g>
     <g id="text_14">
      <!-- 0 -->
      <g transform="translate(44.2375 180.834342)scale(0.1 -0.1)">
       <use xlink:href="#DejaVuSans-30"/>
      </g>
     </g>
    </g>
    <g id="ytick_6">
     <g id="line2d_15">
      <g>
       <use style="stroke:#000000;stroke-width:0.8;" x="57.6" xlink:href="#m6a54934dda" y="145.658369"/>
      </g>
     </g>
     <g id="text_15">
      <!-- 1 -->
      <g transform="translate(44.2375 149.457587)scale(0.1 -0.1)">
       <use xlink:href="#DejaVuSans-31"/>
      </g>
     </g>
    </g>
    <g id="ytick_7">
     <g id="line2d_16">
      <g>
       <use style="stroke:#000000;stroke-width:0.8;" x="57.6" xlink:href="#m6a54934dda" y="114.281614"/>
      </g>
     </g>
     <g id="text_16">
      <!-- 2 -->
      <g transform="translate(44.2375 118.080833)scale(0.1 -0.1)">
       <use xlink:href="#DejaVuSans-32"/>
      </g>
     </g>
    </g>
    <g id="ytick_8">
     <g id="line2d_17">
      <g>
       <use style="stroke:#000000;stroke-width:0.8;" x="57.6" xlink:href="#m6a54934dda" y="82.90486"/>
      </g>
     </g>
     <g id="text_17">
      <!-- 3 -->
      <g transform="translate(44.2375 86.704078)scale(0.1 -0.1)">
       <use xlink:href="#DejaVuSans-33"/>
      </g>
     </g>
    </g>
    <g id="ytick_9">
     <g id="line2d_18">
      <g>
       <use style="stroke:#000000;stroke-width:0.8;" x="57.6" xlink:href="#m6a54934dda" y="51.528105"/>
      </g>
     </g>
     <g id="text_18">
      <!-- 4 -->
      <g transform="translate(44.2375 55.327324)scale(0.1 -0.1)">
       <use xlink:href="#DejaVuSans-34"/>
      </g>
     </g>
    </g>
   </g>
   <g id="line2d_19">
    <path clip-path="url(#pa18b6eb255)" d="M 73.832727 152.702538 
L 75.456 152.699227 
L 77.079273 152.897037 
L 78.702545 153.266542 
L 80.325818 153.784496 
L 83.572364 155.173233 
L 86.818909 156.822967 
L 91.688727 159.65845 
L 96.558545 162.654382 
L 99.805091 165.14302 
L 103.051636 168.148186 
L 106.298182 171.682544 
L 107.921455 173.52089 
L 109.544727 175.179074 
L 111.168 176.59807 
L 112.791273 177.717091 
L 114.414545 178.473661 
L 116.037818 178.83807 
L 117.661091 178.823756 
L 119.284364 178.446275 
L 120.907636 177.71946 
L 125.777455 174.589835 
L 127.400727 173.874335 
L 129.024 173.355984 
L 130.647273 173.025114 
L 132.270545 172.946115 
L 133.893818 173.196494 
L 135.517091 173.763593 
L 137.140364 174.636392 
L 140.386909 177.005462 
L 142.010182 177.930258 
L 143.633455 178.59323 
L 145.256727 179.006913 
L 146.88 179.182721 
L 159.866182 179.67668 
L 171.229091 180.290802 
L 179.345455 180.870092 
L 180.968727 180.554599 
L 185.838545 178.949247 
L 187.461818 178.320598 
L 189.085091 177.377944 
L 192.331636 175.240339 
L 193.954909 174.39128 
L 195.578182 173.76367 
L 197.201455 173.292345 
L 198.824727 173.040117 
L 200.448 173.071234 
L 202.071273 173.452422 
L 210.187636 176.434826 
L 211.810909 177.049583 
L 213.434182 177.399579 
L 215.057455 177.520011 
L 216.680727 177.444543 
L 221.550545 176.616841 
L 226.420364 175.90671 
L 239.406545 174.394635 
L 244.276364 173.859932 
L 245.899636 173.83449 
L 247.522909 174.139445 
L 249.146182 174.762218 
L 250.769455 175.691752 
L 254.016 178.176598 
L 255.639273 179.160077 
L 257.262545 179.882668 
L 258.885818 180.357241 
L 260.509091 180.59547 
L 262.132364 180.537268 
L 263.755636 180.160624 
L 268.625455 178.379398 
L 270.248727 178.040864 
L 271.872 177.994332 
L 275.118545 178.061639 
L 278.365091 177.550005 
L 281.611636 177.702563 
L 283.234909 177.764048 
L 284.858182 177.576326 
L 289.728 176.565875 
L 296.221091 175.531862 
L 309.207273 173.775656 
L 310.830545 173.718974 
L 312.453818 173.993572 
L 314.077091 174.586741 
L 315.700364 175.487326 
L 318.946909 177.91604 
L 320.570182 178.872201 
L 322.193455 179.567785 
L 323.816727 180.015517 
L 325.44 180.226953 
L 331.933091 180.700288 
L 333.556364 180.859012 
L 335.179636 180.855195 
L 336.802909 180.531841 
L 341.672727 178.904339 
L 343.296 178.268703 
L 344.919273 177.319202 
L 348.165818 175.168288 
L 349.789091 174.312708 
L 351.412364 173.678618 
L 353.035636 173.200838 
L 354.658909 172.942128 
L 356.282182 172.966684 
L 357.905455 173.341177 
L 366.021818 176.289391 
L 369.268364 177.566443 
L 372.514909 178.416508 
L 375.761455 178.853044 
L 398.487273 181.361019 
L 398.487273 181.361019 
" style="fill:none;stroke:#1f77b4;stroke-linecap:square;stroke-width:1.5;"/>
   </g>
   <g id="line2d_20">
    <path clip-path="url(#pa18b6eb255)" d="M 73.832727 53.57926 
L 77.079273 53.61097 
L 80.325818 53.850477 
L 83.572364 54.279609 
L 86.818909 54.880352 
L 91.688727 56.064392 
L 96.558545 57.535721 
L 101.428364 59.237114 
L 107.921455 61.768305 
L 117.661091 65.878572 
L 130.647273 71.370794 
L 137.140364 73.916958 
L 143.633455 76.236905 
L 150.126545 78.282118 
L 154.996364 79.616084 
L 159.866182 80.769945 
L 164.736 81.740898 
L 169.605818 82.530301 
L 174.475636 83.143151 
L 180.968727 83.699994 
L 187.461818 83.983558 
L 193.954909 84.02557 
L 200.448 83.861493 
L 208.564364 83.423548 
L 218.304 82.652967 
L 234.536727 81.077893 
L 252.392727 79.382289 
L 263.755636 78.501294 
L 275.118545 77.838396 
L 286.481455 77.407113 
L 297.844364 77.193603 
L 310.830545 77.173548 
L 327.063273 77.387226 
L 361.152 78.150175 
L 387.124364 78.592923 
L 398.487273 78.70057 
L 398.487273 78.70057 
" style="fill:none;stroke:#ff7f0e;stroke-linecap:square;stroke-width:1.5;"/>
   </g>
   <g id="line2d_21">
    <path clip-path="url(#pa18b6eb255)" d="M 73.832727 177.43028 
L 93.312 177.205929 
L 125.777455 177.096378 
L 192.331636 177.1367 
L 250.769455 177.360914 
L 286.481455 177.705531 
L 312.453818 178.168417 
L 331.933091 178.715234 
L 348.165818 179.367581 
L 362.775273 180.168487 
L 369.268364 180.662705 
L 372.514909 181.001096 
L 374.138182 181.015103 
L 375.761455 180.709427 
L 380.631273 179.133865 
L 382.254545 178.515238 
L 383.877818 177.582761 
L 387.124364 175.465807 
L 388.747636 174.627306 
L 390.370909 174.010492 
L 391.994182 173.550219 
L 393.617455 173.309401 
L 395.240727 173.352399 
L 396.864 173.746044 
L 398.487273 174.334031 
L 398.487273 174.334031 
" style="fill:none;stroke:#2ca02c;stroke-linecap:square;stroke-width:1.5;"/>
   </g>
   <g id="line2d_22">
    <path clip-path="url(#pa18b6eb255)" d="M 73.832727 186.890236 
L 75.456 186.699968 
L 77.079273 186.196688 
L 78.702545 185.438938 
L 80.325818 184.485567 
L 83.572364 182.317556 
L 85.195636 181.388473 
L 86.818909 180.622186 
L 88.442182 180.032265 
L 90.065455 179.633347 
L 96.558545 178.603393 
L 103.051636 177.789581 
L 111.168 176.981923 
L 122.530909 176.088031 
L 154.996364 173.876062 
L 156.619636 173.905088 
L 158.242909 174.26251 
L 159.866182 174.936002 
L 161.489455 175.914712 
L 164.736 178.434296 
L 166.359273 179.268852 
L 167.982545 179.698932 
L 169.605818 179.728866 
L 172.852364 178.947261 
L 174.475636 178.830455 
L 177.722182 178.771361 
L 180.968727 178.150801 
L 182.592 178.123357 
L 185.838545 178.227461 
L 189.085091 177.751334 
L 192.331636 177.93836 
L 193.954909 178.016853 
L 195.578182 177.846102 
L 200.448 176.886544 
L 206.941091 175.921577 
L 218.304 174.506035 
L 224.797091 173.751172 
L 226.420364 173.716 
L 228.043636 174.01121 
L 229.666909 174.624202 
L 231.290182 175.543914 
L 234.536727 178.009066 
L 236.16 178.982665 
L 237.783273 179.69528 
L 239.406545 180.159723 
L 241.029818 180.387623 
L 242.653091 180.318805 
L 244.276364 179.931213 
L 249.146182 178.115901 
L 250.769455 177.76577 
L 252.392727 177.707527 
L 255.639273 177.7508 
L 258.885818 177.213972 
L 262.132364 177.340266 
L 263.755636 177.388135 
L 267.002182 176.9602 
L 270.248727 177.184222 
L 271.872 177.277344 
L 273.495273 177.11873 
L 278.365091 176.182334 
L 284.858182 175.221552 
L 296.221091 173.752735 
L 297.844364 173.702196 
L 299.467636 173.982623 
L 301.090909 174.581344 
L 302.714182 175.487235 
L 305.960727 177.925923 
L 307.584 178.886798 
L 309.207273 179.586943 
L 310.830545 180.039105 
L 312.453818 180.25486 
L 318.946909 180.744535 
L 320.570182 180.907164 
L 322.193455 180.907239 
L 323.816727 180.587806 
L 328.686545 178.972105 
L 330.309818 178.34041 
L 331.933091 177.394895 
L 335.179636 175.252032 
L 336.802909 174.400554 
L 338.426182 173.770651 
L 340.049455 173.297147 
L 341.672727 173.042845 
L 343.296 173.071984 
L 344.919273 173.451278 
L 353.035636 176.42519 
L 354.658909 177.038399 
L 356.282182 177.386882 
L 357.905455 177.505833 
L 359.528727 177.428909 
L 364.398545 176.596953 
L 369.268364 175.882657 
L 382.254545 174.359208 
L 387.124364 173.819918 
L 388.747636 173.792868 
L 390.370909 174.096134 
L 391.994182 174.717141 
L 393.617455 175.644837 
L 396.864 178.125841 
L 398.487273 179.107321 
L 398.487273 179.107321 
" style="fill:none;stroke:#d62728;stroke-linecap:square;stroke-width:1.5;"/>
   </g>
   <g id="line2d_23">
    <path clip-path="url(#pa18b6eb255)" d="M 73.832727 89.980186 
L 78.702545 90.074377 
L 83.572364 89.922167 
L 88.442182 89.555361 
L 94.935273 88.788213 
L 101.428364 87.772598 
L 109.544727 86.264298 
L 127.400727 82.603932 
L 138.763636 80.423628 
L 146.88 79.071478 
L 154.996364 77.939151 
L 163.112727 77.047878 
L 171.229091 76.401606 
L 179.345455 75.990001 
L 187.461818 75.791724 
L 197.201455 75.794073 
L 208.564364 76.0534 
L 223.173818 76.643061 
L 263.755636 78.439647 
L 279.988364 78.865974 
L 296.221091 79.067975 
L 315.700364 79.067558 
L 344.919273 78.795097 
L 390.370909 78.381576 
L 398.487273 78.346808 
L 398.487273 78.346808 
" style="fill:none;stroke:#9467bd;stroke-linecap:square;stroke-width:1.5;"/>
   </g>
   <g id="line2d_24">
    <path clip-path="url(#pa18b6eb255)" d="M 73.832727 103.890516 
L 77.079273 103.600709 
L 80.325818 103.121809 
L 83.572364 102.472072 
L 88.442182 101.216447 
L 93.312 99.676372 
L 98.181818 97.909627 
L 104.674909 95.297458 
L 114.414545 91.081072 
L 127.400727 85.480259 
L 133.893818 82.894876 
L 140.386909 80.545725 
L 146.88 78.480871 
L 151.749818 77.138013 
L 156.619636 75.979828 
L 161.489455 75.008666 
L 166.359273 74.22268 
L 171.229091 73.61637 
L 177.722182 73.072222 
L 184.215273 72.804819 
L 190.708364 72.781322 
L 197.201455 72.965249 
L 205.317818 73.428516 
L 215.057455 74.228299 
L 231.290182 75.844418 
L 249.146182 77.569445 
L 260.509091 78.460072 
L 271.872 79.126341 
L 283.234909 79.555965 
L 294.597818 79.764226 
L 307.584 79.77574 
L 323.816727 79.550329 
L 396.864 78.20361 
L 398.487273 78.19377 
L 398.487273 78.19377 
" style="fill:none;stroke:#8c564b;stroke-linecap:square;stroke-width:1.5;"/>
   </g>
   <g id="line2d_25">
    <path clip-path="url(#pa18b6eb255)" d="M 73.832727 278.613315 
L 75.456 278.816206 
L 77.079273 279.413866 
L 78.702545 280.371371 
L 80.325818 281.649915 
L 83.572364 284.889273 
L 88.442182 289.703507 
L 90.065455 291.221352 
L 91.688727 292.511972 
L 93.312 293.383013 
L 94.935273 293.883132 
L 96.558545 294.05901 
L 98.181818 293.95756 
L 103.051636 293.060051 
L 106.298182 292.378584 
L 107.921455 291.890569 
L 109.544727 291.062182 
L 111.168 289.904449 
L 112.791273 288.427142 
L 114.414545 286.639273 
L 116.037818 284.542476 
L 117.661091 282.135802 
L 119.284364 279.434841 
L 122.530909 273.274307 
L 124.154182 270.172141 
L 125.777455 267.511214 
L 127.400727 265.274499 
L 129.024 263.443686 
L 130.647273 262.000143 
L 132.270545 260.92627 
L 133.893818 260.217759 
L 135.517091 259.882859 
L 137.140364 259.927792 
L 138.763636 260.359692 
L 142.010182 261.744182 
L 146.88 264.149568 
L 148.503273 265.144351 
L 150.126545 266.427816 
L 151.749818 267.989281 
L 153.373091 269.818034 
L 156.619636 274.129046 
L 164.736 285.184883 
L 166.359273 287.135183 
L 167.982545 288.90846 
L 169.605818 290.509604 
L 171.229091 291.943809 
L 172.852364 293.091067 
L 174.475636 293.82712 
L 176.098909 294.199599 
L 177.722182 294.254228 
L 179.345455 294.037095 
L 180.968727 293.531915 
L 182.592 292.693809 
L 184.215273 291.532979 
L 185.838545 290.058235 
L 187.461818 288.277487 
L 189.085091 286.191258 
L 190.708364 283.797344 
L 192.331636 281.109634 
L 193.954909 278.155241 
L 197.201455 271.653993 
L 206.941091 251.418221 
L 213.434182 237.710505 
L 216.680727 231.614631 
L 218.304 228.924323 
L 219.927273 226.490485 
L 221.550545 224.318049 
L 223.173818 222.385102 
L 224.797091 220.662428 
L 226.420364 219.124062 
L 229.666909 216.48461 
L 232.913455 214.184369 
L 234.536727 213.184908 
L 237.783273 211.610403 
L 245.899636 207.940538 
L 249.146182 206.245393 
L 254.016 203.472669 
L 257.262545 201.402319 
L 262.132364 197.927217 
L 265.378909 195.160914 
L 267.002182 193.558811 
L 270.248727 189.88971 
L 276.741818 182.632875 
L 278.365091 181.052646 
L 279.988364 179.875252 
L 281.611636 179.0828 
L 283.234909 178.658288 
L 284.858182 178.585871 
L 310.830545 180.514836 
L 317.323636 181.085413 
L 318.946909 180.796408 
L 323.816727 179.268479 
L 325.44 178.665071 
L 327.063273 177.747632 
L 330.309818 175.660188 
L 331.933091 174.83627 
L 333.556364 174.234026 
L 335.179636 173.78835 
L 336.802909 173.562268 
L 338.426182 173.62026 
L 340.049455 174.02927 
L 349.789091 177.749624 
L 351.412364 177.950128 
L 353.035636 177.776085 
L 354.658909 177.242444 
L 359.528727 174.640661 
L 361.152 174.086545 
L 362.775273 173.723555 
L 364.398545 173.542754 
L 366.021818 173.60938 
L 367.645091 174.001811 
L 369.268364 174.70798 
L 370.891636 175.717296 
L 374.138182 178.352382 
L 375.761455 179.406971 
L 377.384727 180.198462 
L 379.008 180.740064 
L 380.631273 181.043781 
L 382.254545 181.04995 
L 383.877818 180.736889 
L 388.747636 179.141344 
L 390.370909 178.516654 
L 391.994182 177.578369 
L 395.240727 175.450461 
L 396.864 174.606764 
L 398.487273 173.984911 
L 398.487273 173.984911 
" style="fill:none;stroke:#e377c2;stroke-linecap:square;stroke-width:1.5;"/>
   </g>
   <g id="line2d_26">
    <path clip-path="url(#pa18b6eb255)" d="M 73.832727 288.130621 
L 75.456 287.815226 
L 77.079273 287.18045 
L 80.325818 285.377224 
L 83.572364 283.426467 
L 85.195636 282.187743 
L 86.818909 280.708224 
L 88.442182 278.979296 
L 91.688727 275.045392 
L 93.312 273.468813 
L 94.935273 272.226571 
L 96.558545 271.278981 
L 98.181818 270.585389 
L 99.805091 270.184716 
L 101.428364 270.126276 
L 103.051636 270.354651 
L 104.674909 270.812634 
L 106.298182 271.442388 
L 107.921455 272.295724 
L 109.544727 273.467082 
L 111.168 274.941831 
L 112.791273 276.704846 
L 116.037818 280.708755 
L 117.661091 282.221087 
L 119.284364 283.292019 
L 120.907636 283.936615 
L 122.530909 284.170533 
L 124.154182 284.090205 
L 125.777455 283.790704 
L 127.400727 283.248552 
L 129.024 282.440392 
L 130.647273 281.343454 
L 132.270545 279.969047 
L 133.893818 278.372844 
L 137.140364 274.765595 
L 140.386909 271.108917 
L 142.010182 269.538438 
L 143.633455 268.169807 
L 145.256727 266.996876 
L 146.88 266.013235 
L 148.503273 265.290936 
L 150.126545 264.927155 
L 151.749818 264.933574 
L 153.373091 265.319356 
L 154.996364 266.093952 
L 156.619636 267.215597 
L 158.242909 268.622325 
L 159.866182 270.302732 
L 161.489455 272.245086 
L 164.736 276.761251 
L 171.229091 285.972385 
L 172.852364 288.064201 
L 174.475636 289.814299 
L 176.098909 291.302236 
L 179.345455 293.785425 
L 180.968727 294.733058 
L 182.592 295.285374 
L 184.215273 295.488 
L 185.838545 295.384665 
L 187.461818 295.019549 
L 189.085091 294.375935 
L 190.708364 293.408967 
L 192.331636 292.12764 
L 193.954909 290.539647 
L 195.578182 288.651895 
L 197.201455 286.464076 
L 198.824727 283.9733 
L 200.448 281.192889 
L 203.694545 274.878497 
L 215.057455 250.847987 
L 221.550545 237.020912 
L 224.797091 230.958993 
L 226.420364 228.295265 
L 228.043636 225.893301 
L 229.666909 223.752711 
L 231.290182 221.846175 
L 232.913455 220.144985 
L 234.536727 218.623641 
L 237.783273 216.005093 
L 241.029818 213.705002 
L 242.653091 212.70146 
L 245.899636 211.118164 
L 254.016 207.371847 
L 257.262545 205.62165 
L 262.132364 202.745758 
L 265.378909 200.59281 
L 268.625455 198.234122 
L 271.872 195.603872 
L 273.495273 194.096593 
L 275.118545 192.432533 
L 278.365091 188.551431 
L 284.858182 180.845429 
L 286.481455 179.154036 
L 288.104727 177.867555 
L 289.728 176.967002 
L 291.351273 176.434517 
L 292.974545 176.253643 
L 310.830545 176.213481 
L 331.933091 175.928831 
L 351.412364 175.448743 
L 369.268364 174.779589 
L 383.877818 174.012519 
L 387.124364 173.808579 
L 388.747636 173.854242 
L 390.370909 174.227439 
L 391.994182 174.915936 
L 393.617455 175.90897 
L 396.864 178.455444 
L 398.487273 179.302692 
L 398.487273 179.302692 
" style="fill:none;stroke:#7f7f7f;stroke-linecap:square;stroke-width:1.5;"/>
   </g>
   <g id="line2d_27">
    <path clip-path="url(#pa18b6eb255)" d="M 73.832727 111.39736 
L 77.079273 111.224917 
L 80.325818 110.810761 
L 83.572364 110.176189 
L 86.818909 109.341935 
L 90.065455 108.328212 
L 94.935273 106.514197 
L 99.805091 104.40563 
L 104.674909 102.065595 
L 111.168 98.691164 
L 137.140364 84.809314 
L 143.633455 81.793926 
L 148.503273 79.753682 
L 153.373091 77.925548 
L 158.242909 76.322582 
L 163.112727 74.951622 
L 167.982545 73.813821 
L 172.852364 72.905279 
L 177.722182 72.217749 
L 182.592 71.739364 
L 187.461818 71.455347 
L 192.331636 71.34869 
L 198.824727 71.450046 
L 205.317818 71.786776 
L 213.434182 72.465785 
L 223.173818 73.53876 
L 262.132364 78.149652 
L 271.872 78.955463 
L 281.611636 79.545318 
L 291.351273 79.921031 
L 302.714182 80.113464 
L 314.077091 80.086774 
L 328.686545 79.824185 
L 356.282182 79.034295 
L 380.631273 78.429616 
L 398.487273 78.17044 
L 398.487273 78.17044 
" style="fill:none;stroke:#bcbd22;stroke-linecap:square;stroke-width:1.5;"/>
   </g>
   <g id="line2d_28">
    <path clip-path="url(#pa18b6eb255)" d="M 73.832727 222.92762 
L 77.079273 223.005158 
L 80.325818 223.349712 
L 83.572364 224.014458 
L 86.818909 224.952669 
L 91.688727 226.700589 
L 107.921455 232.983233 
L 119.284364 236.957576 
L 125.777455 239.6293 
L 129.024 241.398749 
L 132.270545 243.644342 
L 133.893818 244.980339 
L 135.517091 246.465772 
L 138.763636 249.891417 
L 140.386909 251.845601 
L 143.633455 256.294787 
L 146.88 261.472941 
L 150.126545 266.861527 
L 153.373091 271.874882 
L 159.866182 281.145838 
L 163.112727 285.696064 
L 164.736 287.776473 
L 166.359273 289.515432 
L 167.982545 290.992627 
L 171.229091 293.456506 
L 172.852364 294.394967 
L 174.475636 294.936838 
L 176.098909 295.127885 
L 177.722182 295.012039 
L 179.345455 294.633751 
L 180.968727 293.976097 
L 182.592 292.993817 
L 184.215273 291.696026 
L 185.838545 290.090592 
L 187.461818 288.184655 
L 189.085091 285.978159 
L 190.708364 283.468534 
L 192.331636 280.669588 
L 195.578182 274.321456 
L 198.824727 267.205111 
L 202.071273 259.519012 
L 208.564364 243.881996 
L 211.810909 236.690496 
L 213.434182 233.46542 
L 215.057455 230.524264 
L 216.680727 227.864063 
L 218.304 225.479872 
L 219.927273 223.364951 
L 221.550545 221.488721 
L 224.797091 218.27194 
L 228.043636 215.594998 
L 231.290182 213.223393 
L 234.536727 211.120026 
L 237.783273 209.516604 
L 242.653091 206.997523 
L 247.522909 204.50746 
L 254.016 201.36459 
L 257.262545 199.421519 
L 260.509091 197.206832 
L 262.132364 195.961354 
L 267.002182 191.790004 
L 271.872 188.194545 
L 273.495273 186.675113 
L 275.118545 184.959723 
L 278.365091 181.238185 
L 279.988364 179.834509 
L 281.611636 178.824989 
L 283.234909 178.191871 
L 284.858182 177.918519 
L 296.221091 177.46131 
L 312.453818 177.068963 
L 341.672727 176.65047 
L 379.008 176.07076 
L 398.487273 175.59099 
L 398.487273 175.59099 
" style="fill:none;stroke:#17becf;stroke-linecap:square;stroke-width:1.5;"/>
   </g>
   <g id="patch_3">
    <path d="M 57.6 307.584 
L 57.6 41.472 
" style="fill:none;stroke:#000000;stroke-linecap:square;stroke-linejoin:miter;stroke-width:0.8;"/>
   </g>
   <g id="patch_4">
    <path d="M 414.72 307.584 
L 414.72 41.472 
" style="fill:none;stroke:#000000;stroke-linecap:square;stroke-linejoin:miter;stroke-width:0.8;"/>
   </g>
   <g id="patch_5">
    <path d="M 57.6 307.584 
L 414.72 307.584 
" style="fill:none;stroke:#000000;stroke-linecap:square;stroke-linejoin:miter;stroke-width:0.8;"/>
   </g>
   <g id="patch_6">
    <path d="M 57.6 41.472 
L 414.72 41.472 
" style="fill:none;stroke:#000000;stroke-linecap:square;stroke-linejoin:miter;stroke-width:0.8;"/>
   </g>
   <g id="legend_1">
    <g id="patch_7">
     <path d="M 64.6 249.418625 
L 109.325 249.418625 
Q 111.325 249.418625 111.325 247.418625 
L 111.325 101.637375 
Q 111.325 99.637375 109.325 99.637375 
L 64.6 99.637375 
Q 62.6 99.637375 62.6 101.637375 
L 62.6 247.418625 
Q 62.6 249.418625 64.6 249.418625 
z
" style="fill:#ffffff;opacity:0.8;stroke:#cccccc;stroke-linejoin:miter;"/>
    </g>
    <g id="line2d_29">
     <path d="M 66.6 107.735813 
L 86.6 107.735813 
" style="fill:none;stroke:#1f77b4;stroke-linecap:square;stroke-width:1.5;"/>
    </g>
    <g id="line2d_30"/>
    <g id="text_19">
     <!-- 30 -->
     <g transform="translate(94.6 111.235813)scale(0.1 -0.1)">
      <use xlink:href="#DejaVuSans-33"/>
      <use x="63.623047" xlink:href="#DejaVuSans-30"/>
     </g>
    </g>
    <g id="line2d_31">
     <path d="M 66.6 122.413938 
L 86.6 122.413938 
" style="fill:none;stroke:#ff7f0e;stroke-linecap:square;stroke-width:1.5;"/>
    </g>
    <g id="line2d_32"/>
    <g id="text_20">
     <!-- 31 -->
     <g transform="translate(94.6 125.913938)scale(0.1 -0.1)">
      <use xlink:href="#DejaVuSans-33"/>
      <use x="63.623047" xlink:href="#DejaVuSans-31"/>
     </g>
    </g>
    <g id="line2d_33">
     <path d="M 66.6 137.092063 
L 86.6 137.092063 
" style="fill:none;stroke:#2ca02c;stroke-linecap:square;stroke-width:1.5;"/>
    </g>
    <g id="line2d_34"/>
    <g id="text_21">
     <!-- 32 -->
     <g transform="translate(94.6 140.592063)scale(0.1 -0.1)">
      <use xlink:href="#DejaVuSans-33"/>
      <use x="63.623047" xlink:href="#DejaVuSans-32"/>
     </g>
    </g>
    <g id="line2d_35">
     <path d="M 66.6 151.770188 
L 86.6 151.770188 
" style="fill:none;stroke:#d62728;stroke-linecap:square;stroke-width:1.5;"/>
    </g>
    <g id="line2d_36"/>
    <g id="text_22">
     <!-- 33 -->
     <g transform="translate(94.6 155.270188)scale(0.1 -0.1)">
      <use xlink:href="#DejaVuSans-33"/>
      <use x="63.623047" xlink:href="#DejaVuSans-33"/>
     </g>
    </g>
    <g id="line2d_37">
     <path d="M 66.6 166.448313 
L 86.6 166.448313 
" style="fill:none;stroke:#9467bd;stroke-linecap:square;stroke-width:1.5;"/>
    </g>
    <g id="line2d_38"/>
    <g id="text_23">
     <!-- 34 -->
     <g transform="translate(94.6 169.948313)scale(0.1 -0.1)">
      <use xlink:href="#DejaVuSans-33"/>
      <use x="63.623047" xlink:href="#DejaVuSans-34"/>
     </g>
    </g>
    <g id="line2d_39">
     <path d="M 66.6 181.126438 
L 86.6 181.126438 
" style="fill:none;stroke:#8c564b;stroke-linecap:square;stroke-width:1.5;"/>
    </g>
    <g id="line2d_40"/>
    <g id="text_24">
     <!-- 35 -->
     <g transform="translate(94.6 184.626438)scale(0.1 -0.1)">
      <use xlink:href="#DejaVuSans-33"/>
      <use x="63.623047" xlink:href="#DejaVuSans-35"/>
     </g>
    </g>
    <g id="line2d_41">
     <path d="M 66.6 195.804563 
L 86.6 195.804563 
" style="fill:none;stroke:#e377c2;stroke-linecap:square;stroke-width:1.5;"/>
    </g>
    <g id="line2d_42"/>
    <g id="text_25">
     <!-- 36 -->
     <g transform="translate(94.6 199.304563)scale(0.1 -0.1)">
      <defs>
       <path d="M 2113 2584 
Q 1688 2584 1439 2293 
Q 1191 2003 1191 1497 
Q 1191 994 1439 701 
Q 1688 409 2113 409 
Q 2538 409 2786 701 
Q 3034 994 3034 1497 
Q 3034 2003 2786 2293 
Q 2538 2584 2113 2584 
z
M 3366 4563 
L 3366 3988 
Q 3128 4100 2886 4159 
Q 2644 4219 2406 4219 
Q 1781 4219 1451 3797 
Q 1122 3375 1075 2522 
Q 1259 2794 1537 2939 
Q 1816 3084 2150 3084 
Q 2853 3084 3261 2657 
Q 3669 2231 3669 1497 
Q 3669 778 3244 343 
Q 2819 -91 2113 -91 
Q 1303 -91 875 529 
Q 447 1150 447 2328 
Q 447 3434 972 4092 
Q 1497 4750 2381 4750 
Q 2619 4750 2861 4703 
Q 3103 4656 3366 4563 
z
" id="DejaVuSans-36" transform="scale(0.015625)"/>
      </defs>
      <use xlink:href="#DejaVuSans-33"/>
      <use x="63.623047" xlink:href="#DejaVuSans-36"/>
     </g>
    </g>
    <g id="line2d_43">
     <path d="M 66.6 210.482687 
L 86.6 210.482687 
" style="fill:none;stroke:#7f7f7f;stroke-linecap:square;stroke-width:1.5;"/>
    </g>
    <g id="line2d_44"/>
    <g id="text_26">
     <!-- 37 -->
     <g transform="translate(94.6 213.982687)scale(0.1 -0.1)">
      <use xlink:href="#DejaVuSans-33"/>
      <use x="63.623047" xlink:href="#DejaVuSans-37"/>
     </g>
    </g>
    <g id="line2d_45">
     <path d="M 66.6 225.160813 
L 86.6 225.160813 
" style="fill:none;stroke:#bcbd22;stroke-linecap:square;stroke-width:1.5;"/>
    </g>
    <g id="line2d_46"/>
    <g id="text_27">
     <!-- 38 -->
     <g transform="translate(94.6 228.660813)scale(0.1 -0.1)">
      <defs>
       <path d="M 2034 2216 
Q 1584 2216 1326 1975 
Q 1069 1734 1069 1313 
Q 1069 891 1326 650 
Q 1584 409 2034 409 
Q 2484 409 2743 651 
Q 3003 894 3003 1313 
Q 3003 1734 2745 1975 
Q 2488 2216 2034 2216 
z
M 1403 2484 
Q 997 2584 770 2862 
Q 544 3141 544 3541 
Q 544 4100 942 4425 
Q 1341 4750 2034 4750 
Q 2731 4750 3128 4425 
Q 3525 4100 3525 3541 
Q 3525 3141 3298 2862 
Q 3072 2584 2669 2484 
Q 3125 2378 3379 2068 
Q 3634 1759 3634 1313 
Q 3634 634 3220 271 
Q 2806 -91 2034 -91 
Q 1263 -91 848 271 
Q 434 634 434 1313 
Q 434 1759 690 2068 
Q 947 2378 1403 2484 
z
M 1172 3481 
Q 1172 3119 1398 2916 
Q 1625 2713 2034 2713 
Q 2441 2713 2670 2916 
Q 2900 3119 2900 3481 
Q 2900 3844 2670 4047 
Q 2441 4250 2034 4250 
Q 1625 4250 1398 4047 
Q 1172 3844 1172 3481 
z
" id="DejaVuSans-38" transform="scale(0.015625)"/>
      </defs>
      <use xlink:href="#DejaVuSans-33"/>
      <use x="63.623047" xlink:href="#DejaVuSans-38"/>
     </g>
    </g>
    <g id="line2d_47">
     <path d="M 66.6 239.838937 
L 86.6 239.838937 
" style="fill:none;stroke:#17becf;stroke-linecap:square;stroke-width:1.5;"/>
    </g>
    <g id="line2d_48"/>
    <g id="text_28">
     <!-- 39 -->
     <g transform="translate(94.6 243.338937)scale(0.1 -0.1)">
      <defs>
       <path d="M 703 97 
L 703 672 
Q 941 559 1184 500 
Q 1428 441 1663 441 
Q 2288 441 2617 861 
Q 2947 1281 2994 2138 
Q 2813 1869 2534 1725 
Q 2256 1581 1919 1581 
Q 1219 1581 811 2004 
Q 403 2428 403 3163 
Q 403 3881 828 4315 
Q 1253 4750 1959 4750 
Q 2769 4750 3195 4129 
Q 3622 3509 3622 2328 
Q 3622 1225 3098 567 
Q 2575 -91 1691 -91 
Q 1453 -91 1209 -44 
Q 966 3 703 97 
z
M 1959 2075 
Q 2384 2075 2632 2365 
Q 2881 2656 2881 3163 
Q 2881 3666 2632 3958 
Q 2384 4250 1959 4250 
Q 1534 4250 1286 3958 
Q 1038 3666 1038 3163 
Q 1038 2656 1286 2365 
Q 1534 2075 1959 2075 
z
" id="DejaVuSans-39" transform="scale(0.015625)"/>
      </defs>
      <use xlink:href="#DejaVuSans-33"/>
      <use x="63.623047" xlink:href="#DejaVuSans-39"/>
     </g>
    </g>
   </g>
  </g>
 </g>
 <defs>
  <clipPath id="pa18b6eb255">
   <rect height="266.112" width="357.12" x="57.6" y="41.472"/>
  </clipPath>
 </defs>
</svg>
