<?xml version="1.0" encoding="utf-8" standalone="no"?>
<!DOCTYPE svg PUBLIC "-//W3C//DTD SVG 1.1//EN"
  "http://www.w3.org/Graphics/SVG/1.1/DTD/svg11.dtd">
<svg height="345.6pt" version="1.1" viewBox="0 0 460.8 345.6" width="460.8pt" xmlns="http://www.w3.org/2000/svg" xmlns:xlink="http://www.w3.org/1999/xlink">
 <metadata>
  <rdf:RDF xmlns:cc="http://creativecommons.org/ns#" xmlns:dc="http://purl.org/dc/elements/1.1/" xmlns:rdf="http://www.w3.org/1999/02/22-rdf-syntax-ns#">
   <cc:Work>
    <dc:type rdf:resource="http://purl.org/dc/dcmitype/StillImage"/>
    <dc:date>2021-08-18T15:15:45.628101</dc:date>
    <dc:format>image/svg+xml</dc:format>
    <dc:creator>
     <cc:Agent>
      <dc:title>Matplotlib v3.4.2, https://matplotlib.org/</dc:title>
     </cc:Agent>
    </dc:creator>
   </cc:Work>
  </rdf:RDF>
 </metadata>
 <defs>
  <style type="text/css">*{stroke-linecap:butt;stroke-linejoin:round;}</style>
 </defs>
 <g id="figure_1">
  <g id="patch_1">
   <path d="M 0 345.6 
L 460.8 345.6 
L 460.8 0 
L 0 0 
z
" style="fill:#ffffff;"/>
  </g>
  <g id="axes_1">
   <g id="patch_2">
    <path d="M 57.6 307.584 
L 414.72 307.584 
L 414.72 41.472 
L 57.6 41.472 
z
" style="fill:#ffffff;"/>
   </g>
   <g id="matplotlib.axis_1">
    <g id="xtick_1">
     <g id="line2d_1">
      <defs>
       <path d="M 0 0 
L 0 3.5 
" id="mf439d8153b" style="stroke:#000000;stroke-width:0.8;"/>
      </defs>
      <g>
       <use style="stroke:#000000;stroke-width:0.8;" x="73.832727" xlink:href="#mf439d8153b" y="307.584"/>
      </g>
     </g>
     <g id="text_1">
      <!-- 0 -->
      <g transform="translate(70.651477 322.182437)scale(0.1 -0.1)">
       <defs>
        <path d="M 2034 4250 
Q 1547 4250 1301 3770 
Q 1056 3291 1056 2328 
Q 1056 1369 1301 889 
Q 1547 409 2034 409 
Q 2525 409 2770 889 
Q 3016 1369 3016 2328 
Q 3016 3291 2770 3770 
Q 2525 4250 2034 4250 
z
M 2034 4750 
Q 2819 4750 3233 4129 
Q 3647 3509 3647 2328 
Q 3647 1150 3233 529 
Q 2819 -91 2034 -91 
Q 1250 -91 836 529 
Q 422 1150 422 2328 
Q 422 3509 836 4129 
Q 1250 4750 2034 4750 
z
" id="DejaVuSans-30" transform="scale(0.015625)"/>
       </defs>
       <use xlink:href="#DejaVuSans-30"/>
      </g>
     </g>
    </g>
    <g id="xtick_2">
     <g id="line2d_2">
      <g>
       <use style="stroke:#000000;stroke-width:0.8;" x="114.414545" xlink:href="#mf439d8153b" y="307.584"/>
      </g>
     </g>
     <g id="text_2">
      <!-- 25 -->
      <g transform="translate(108.052045 322.182437)scale(0.1 -0.1)">
       <defs>
        <path d="M 1228 531 
L 3431 531 
L 3431 0 
L 469 0 
L 469 531 
Q 828 903 1448 1529 
Q 2069 2156 2228 2338 
Q 2531 2678 2651 2914 
Q 2772 3150 2772 3378 
Q 2772 3750 2511 3984 
Q 2250 4219 1831 4219 
Q 1534 4219 1204 4116 
Q 875 4013 500 3803 
L 500 4441 
Q 881 4594 1212 4672 
Q 1544 4750 1819 4750 
Q 2544 4750 2975 4387 
Q 3406 4025 3406 3419 
Q 3406 3131 3298 2873 
Q 3191 2616 2906 2266 
Q 2828 2175 2409 1742 
Q 1991 1309 1228 531 
z
" id="DejaVuSans-32" transform="scale(0.015625)"/>
        <path d="M 691 4666 
L 3169 4666 
L 3169 4134 
L 1269 4134 
L 1269 2991 
Q 1406 3038 1543 3061 
Q 1681 3084 1819 3084 
Q 2600 3084 3056 2656 
Q 3513 2228 3513 1497 
Q 3513 744 3044 326 
Q 2575 -91 1722 -91 
Q 1428 -91 1123 -41 
Q 819 9 494 109 
L 494 744 
Q 775 591 1075 516 
Q 1375 441 1709 441 
Q 2250 441 2565 725 
Q 2881 1009 2881 1497 
Q 2881 1984 2565 2268 
Q 2250 2553 1709 2553 
Q 1456 2553 1204 2497 
Q 953 2441 691 2322 
L 691 4666 
z
" id="DejaVuSans-35" transform="scale(0.015625)"/>
       </defs>
       <use xlink:href="#DejaVuSans-32"/>
       <use x="63.623047" xlink:href="#DejaVuSans-35"/>
      </g>
     </g>
    </g>
    <g id="xtick_3">
     <g id="line2d_3">
      <g>
       <use style="stroke:#000000;stroke-width:0.8;" x="154.996364" xlink:href="#mf439d8153b" y="307.584"/>
      </g>
     </g>
     <g id="text_3">
      <!-- 50 -->
      <g transform="translate(148.633864 322.182437)scale(0.1 -0.1)">
       <use xlink:href="#DejaVuSans-35"/>
       <use x="63.623047" xlink:href="#DejaVuSans-30"/>
      </g>
     </g>
    </g>
    <g id="xtick_4">
     <g id="line2d_4">
      <g>
       <use style="stroke:#000000;stroke-width:0.8;" x="195.578182" xlink:href="#mf439d8153b" y="307.584"/>
      </g>
     </g>
     <g id="text_4">
      <!-- 75 -->
      <g transform="translate(189.215682 322.182437)scale(0.1 -0.1)">
       <defs>
        <path d="M 525 4666 
L 3525 4666 
L 3525 4397 
L 1831 0 
L 1172 0 
L 2766 4134 
L 525 4134 
L 525 4666 
z
" id="DejaVuSans-37" transform="scale(0.015625)"/>
       </defs>
       <use xlink:href="#DejaVuSans-37"/>
       <use x="63.623047" xlink:href="#DejaVuSans-35"/>
      </g>
     </g>
    </g>
    <g id="xtick_5">
     <g id="line2d_5">
      <g>
       <use style="stroke:#000000;stroke-width:0.8;" x="236.16" xlink:href="#mf439d8153b" y="307.584"/>
      </g>
     </g>
     <g id="text_5">
      <!-- 100 -->
      <g transform="translate(226.61625 322.182437)scale(0.1 -0.1)">
       <defs>
        <path d="M 794 531 
L 1825 531 
L 1825 4091 
L 703 3866 
L 703 4441 
L 1819 4666 
L 2450 4666 
L 2450 531 
L 3481 531 
L 3481 0 
L 794 0 
L 794 531 
z
" id="DejaVuSans-31" transform="scale(0.015625)"/>
       </defs>
       <use xlink:href="#DejaVuSans-31"/>
       <use x="63.623047" xlink:href="#DejaVuSans-30"/>
       <use x="127.246094" xlink:href="#DejaVuSans-30"/>
      </g>
     </g>
    </g>
    <g id="xtick_6">
     <g id="line2d_6">
      <g>
       <use style="stroke:#000000;stroke-width:0.8;" x="276.741818" xlink:href="#mf439d8153b" y="307.584"/>
      </g>
     </g>
     <g id="text_6">
      <!-- 125 -->
      <g transform="translate(267.198068 322.182437)scale(0.1 -0.1)">
       <use xlink:href="#DejaVuSans-31"/>
       <use x="63.623047" xlink:href="#DejaVuSans-32"/>
       <use x="127.246094" xlink:href="#DejaVuSans-35"/>
      </g>
     </g>
    </g>
    <g id="xtick_7">
     <g id="line2d_7">
      <g>
       <use style="stroke:#000000;stroke-width:0.8;" x="317.323636" xlink:href="#mf439d8153b" y="307.584"/>
      </g>
     </g>
     <g id="text_7">
      <!-- 150 -->
      <g transform="translate(307.779886 322.182437)scale(0.1 -0.1)">
       <use xlink:href="#DejaVuSans-31"/>
       <use x="63.623047" xlink:href="#DejaVuSans-35"/>
       <use x="127.246094" xlink:href="#DejaVuSans-30"/>
      </g>
     </g>
    </g>
    <g id="xtick_8">
     <g id="line2d_8">
      <g>
       <use style="stroke:#000000;stroke-width:0.8;" x="357.905455" xlink:href="#mf439d8153b" y="307.584"/>
      </g>
     </g>
     <g id="text_8">
      <!-- 175 -->
      <g transform="translate(348.361705 322.182437)scale(0.1 -0.1)">
       <use xlink:href="#DejaVuSans-31"/>
       <use x="63.623047" xlink:href="#DejaVuSans-37"/>
       <use x="127.246094" xlink:href="#DejaVuSans-35"/>
      </g>
     </g>
    </g>
    <g id="xtick_9">
     <g id="line2d_9">
      <g>
       <use style="stroke:#000000;stroke-width:0.8;" x="398.487273" xlink:href="#mf439d8153b" y="307.584"/>
      </g>
     </g>
     <g id="text_9">
      <!-- 200 -->
      <g transform="translate(388.943523 322.182437)scale(0.1 -0.1)">
       <use xlink:href="#DejaVuSans-32"/>
       <use x="63.623047" xlink:href="#DejaVuSans-30"/>
       <use x="127.246094" xlink:href="#DejaVuSans-30"/>
      </g>
     </g>
    </g>
   </g>
   <g id="matplotlib.axis_2">
    <g id="ytick_1">
     <g id="line2d_10">
      <defs>
       <path d="M 0 0 
L -3.5 0 
" id="mff8f9c0f0f" style="stroke:#000000;stroke-width:0.8;"/>
      </defs>
      <g>
       <use style="stroke:#000000;stroke-width:0.8;" x="57.6" xlink:href="#mff8f9c0f0f" y="303.003885"/>
      </g>
     </g>
     <g id="text_10">
      <!-- −4 -->
      <g transform="translate(35.857813 306.803104)scale(0.1 -0.1)">
       <defs>
        <path d="M 678 2272 
L 4684 2272 
L 4684 1741 
L 678 1741 
L 678 2272 
z
" id="DejaVuSans-2212" transform="scale(0.015625)"/>
        <path d="M 2419 4116 
L 825 1625 
L 2419 1625 
L 2419 4116 
z
M 2253 4666 
L 3047 4666 
L 3047 1625 
L 3713 1625 
L 3713 1100 
L 3047 1100 
L 3047 0 
L 2419 0 
L 2419 1100 
L 313 1100 
L 313 1709 
L 2253 4666 
z
" id="DejaVuSans-34" transform="scale(0.015625)"/>
       </defs>
       <use xlink:href="#DejaVuSans-2212"/>
       <use x="83.789062" xlink:href="#DejaVuSans-34"/>
      </g>
     </g>
    </g>
    <g id="ytick_2">
     <g id="line2d_11">
      <g>
       <use style="stroke:#000000;stroke-width:0.8;" x="57.6" xlink:href="#mff8f9c0f0f" y="272.814376"/>
      </g>
     </g>
     <g id="text_11">
      <!-- −3 -->
      <g transform="translate(35.857813 276.613595)scale(0.1 -0.1)">
       <defs>
        <path d="M 2597 2516 
Q 3050 2419 3304 2112 
Q 3559 1806 3559 1356 
Q 3559 666 3084 287 
Q 2609 -91 1734 -91 
Q 1441 -91 1130 -33 
Q 819 25 488 141 
L 488 750 
Q 750 597 1062 519 
Q 1375 441 1716 441 
Q 2309 441 2620 675 
Q 2931 909 2931 1356 
Q 2931 1769 2642 2001 
Q 2353 2234 1838 2234 
L 1294 2234 
L 1294 2753 
L 1863 2753 
Q 2328 2753 2575 2939 
Q 2822 3125 2822 3475 
Q 2822 3834 2567 4026 
Q 2313 4219 1838 4219 
Q 1578 4219 1281 4162 
Q 984 4106 628 3988 
L 628 4550 
Q 988 4650 1302 4700 
Q 1616 4750 1894 4750 
Q 2613 4750 3031 4423 
Q 3450 4097 3450 3541 
Q 3450 3153 3228 2886 
Q 3006 2619 2597 2516 
z
" id="DejaVuSans-33" transform="scale(0.015625)"/>
       </defs>
       <use xlink:href="#DejaVuSans-2212"/>
       <use x="83.789062" xlink:href="#DejaVuSans-33"/>
      </g>
     </g>
    </g>
    <g id="ytick_3">
     <g id="line2d_12">
      <g>
       <use style="stroke:#000000;stroke-width:0.8;" x="57.6" xlink:href="#mff8f9c0f0f" y="242.624867"/>
      </g>
     </g>
     <g id="text_12">
      <!-- −2 -->
      <g transform="translate(35.857813 246.424086)scale(0.1 -0.1)">
       <use xlink:href="#DejaVuSans-2212"/>
       <use x="83.789062" xlink:href="#DejaVuSans-32"/>
      </g>
     </g>
    </g>
    <g id="ytick_4">
     <g id="line2d_13">
      <g>
       <use style="stroke:#000000;stroke-width:0.8;" x="57.6" xlink:href="#mff8f9c0f0f" y="212.435358"/>
      </g>
     </g>
     <g id="text_13">
      <!-- −1 -->
      <g transform="translate(35.857813 216.234576)scale(0.1 -0.1)">
       <use xlink:href="#DejaVuSans-2212"/>
       <use x="83.789062" xlink:href="#DejaVuSans-31"/>
      </g>
     </g>
    </g>
    <g id="ytick_5">
     <g id="line2d_14">
      <g>
       <use style="stroke:#000000;stroke-width:0.8;" x="57.6" xlink:href="#mff8f9c0f0f" y="182.245848"/>
      </g>
     </g>
     <g id="text_14">
      <!-- 0 -->
      <g transform="translate(44.2375 186.045067)scale(0.1 -0.1)">
       <use xlink:href="#DejaVuSans-30"/>
      </g>
     </g>
    </g>
    <g id="ytick_6">
     <g id="line2d_15">
      <g>
       <use style="stroke:#000000;stroke-width:0.8;" x="57.6" xlink:href="#mff8f9c0f0f" y="152.056339"/>
      </g>
     </g>
     <g id="text_15">
      <!-- 1 -->
      <g transform="translate(44.2375 155.855558)scale(0.1 -0.1)">
       <use xlink:href="#DejaVuSans-31"/>
      </g>
     </g>
    </g>
    <g id="ytick_7">
     <g id="line2d_16">
      <g>
       <use style="stroke:#000000;stroke-width:0.8;" x="57.6" xlink:href="#mff8f9c0f0f" y="121.86683"/>
      </g>
     </g>
     <g id="text_16">
      <!-- 2 -->
      <g transform="translate(44.2375 125.666049)scale(0.1 -0.1)">
       <use xlink:href="#DejaVuSans-32"/>
      </g>
     </g>
    </g>
    <g id="ytick_8">
     <g id="line2d_17">
      <g>
       <use style="stroke:#000000;stroke-width:0.8;" x="57.6" xlink:href="#mff8f9c0f0f" y="91.677321"/>
      </g>
     </g>
     <g id="text_17">
      <!-- 3 -->
      <g transform="translate(44.2375 95.476539)scale(0.1 -0.1)">
       <use xlink:href="#DejaVuSans-33"/>
      </g>
     </g>
    </g>
    <g id="ytick_9">
     <g id="line2d_18">
      <g>
       <use style="stroke:#000000;stroke-width:0.8;" x="57.6" xlink:href="#mff8f9c0f0f" y="61.487811"/>
      </g>
     </g>
     <g id="text_18">
      <!-- 4 -->
      <g transform="translate(44.2375 65.28703)scale(0.1 -0.1)">
       <use xlink:href="#DejaVuSans-34"/>
      </g>
     </g>
    </g>
   </g>
   <g id="line2d_19">
    <path clip-path="url(#pa10b882cac)" d="M 73.832727 63.390559 
L 77.079273 63.463516 
L 80.325818 63.733208 
L 83.572364 64.182144 
L 86.818909 64.793003 
L 91.688727 65.975578 
L 96.558545 67.427553 
L 101.428364 69.094023 
L 107.921455 71.558386 
L 117.661091 75.535758 
L 130.647273 80.816467 
L 137.140364 83.252701 
L 143.633455 85.465392 
L 150.126545 87.409395 
L 156.619636 89.055762 
L 161.489455 90.086376 
L 166.359273 90.940746 
L 171.229091 91.621883 
L 177.722182 92.271835 
L 184.215273 92.647453 
L 190.708364 92.777341 
L 197.201455 92.694479 
L 205.317818 92.345897 
L 215.057455 91.661749 
L 228.043636 90.490121 
L 252.392727 88.236861 
L 265.378909 87.295233 
L 276.741818 86.70047 
L 288.104727 86.328251 
L 301.090909 86.15188 
L 315.700364 86.207058 
L 335.179636 86.54087 
L 385.501091 87.51742 
L 398.487273 87.636972 
L 398.487273 87.636972 
" style="fill:none;stroke:#1f77b4;stroke-linecap:square;stroke-width:1.5;"/>
   </g>
   <g id="line2d_20">
    <path clip-path="url(#pa10b882cac)" d="M 73.832727 229.589613 
L 77.079273 229.86482 
L 80.325818 230.371171 
L 83.572364 231.078571 
L 86.818909 232.003642 
L 90.065455 233.15531 
L 94.935273 234.982734 
L 101.428364 237.268929 
L 111.168 241.488838 
L 114.414545 243.294647 
L 116.037818 244.352226 
L 119.284364 246.87249 
L 122.530909 249.94474 
L 124.154182 251.702529 
L 127.400727 255.717488 
L 130.647273 260.414448 
L 133.893818 265.333176 
L 137.140364 269.942631 
L 146.88 282.892609 
L 150.126545 286.855684 
L 151.749818 288.581538 
L 153.373091 290.142651 
L 154.996364 291.543745 
L 156.619636 292.666267 
L 158.242909 293.387276 
L 159.866182 293.75321 
L 161.489455 293.808874 
L 163.112727 293.599607 
L 164.736 293.109282 
L 166.359273 292.293692 
L 167.982545 291.163184 
L 169.605818 289.726885 
L 171.229091 287.993184 
L 172.852364 285.963387 
L 174.475636 283.636314 
L 176.098909 281.02665 
L 179.345455 275.077861 
L 182.592 268.385677 
L 185.838545 261.144988 
L 192.331636 246.403508 
L 195.578182 239.636044 
L 197.201455 236.609285 
L 198.824727 233.84917 
L 200.448 231.35291 
L 202.071273 229.115872 
L 203.694545 227.13175 
L 205.317818 225.373401 
L 208.564364 222.369685 
L 211.810909 219.885018 
L 215.057455 217.699869 
L 218.304 215.776681 
L 221.550545 214.325461 
L 226.420364 212.065557 
L 231.290182 209.854694 
L 237.783273 207.100393 
L 241.029818 205.395128 
L 244.276364 203.448587 
L 247.522909 201.24337 
L 249.146182 199.971226 
L 250.769455 198.552237 
L 255.639273 193.646293 
L 260.509091 188.848054 
L 262.132364 187.349937 
L 263.755636 186.015239 
L 265.378909 184.854487 
L 267.002182 183.879184 
L 268.625455 183.101899 
L 270.248727 182.52655 
L 271.872 182.145025 
L 273.495273 181.948448 
L 275.118545 181.928732 
L 278.365091 182.314451 
L 286.481455 183.368735 
L 299.467636 184.802996 
L 310.830545 186.091827 
L 312.453818 186.318853 
L 314.077091 186.387656 
L 315.700364 186.147763 
L 320.570182 184.788181 
L 322.193455 184.275383 
L 327.063273 181.991272 
L 328.686545 181.527146 
L 338.426182 180.022732 
L 344.919273 179.11844 
L 346.542545 179.045023 
L 348.165818 179.291093 
L 349.789091 179.844332 
L 351.412364 180.693926 
L 354.658909 182.998408 
L 356.282182 183.902871 
L 357.905455 184.556946 
L 359.528727 184.972803 
L 361.152 185.16149 
L 369.268364 185.605611 
L 372.514909 185.885155 
L 374.138182 185.876304 
L 375.761455 185.560054 
L 380.631273 183.979088 
L 382.254545 183.362585 
L 383.877818 182.444094 
L 387.124364 180.36477 
L 388.747636 179.536639 
L 390.370909 178.921559 
L 391.994182 178.456807 
L 393.617455 178.202724 
L 395.240727 178.221026 
L 396.864 178.575814 
L 398.487273 179.116956 
L 398.487273 179.116956 
" style="fill:none;stroke:#ff7f0e;stroke-linecap:square;stroke-width:1.5;"/>
   </g>
   <g id="line2d_21">
    <path clip-path="url(#pa10b882cac)" d="M 73.832727 243.278721 
L 75.456 243.279452 
L 77.079273 243.398628 
L 80.325818 243.97453 
L 81.949091 244.423513 
L 83.572364 244.98845 
L 85.195636 245.68235 
L 88.442182 247.447555 
L 90.065455 248.515321 
L 91.688727 249.749375 
L 93.312 251.20432 
L 94.935273 252.881737 
L 96.558545 254.783994 
L 98.181818 256.913844 
L 99.805091 259.270324 
L 101.428364 261.850952 
L 103.051636 264.656409 
L 106.298182 270.934561 
L 107.921455 274.169068 
L 109.544727 277.109081 
L 111.168 279.75852 
L 112.791273 282.123348 
L 114.414545 284.211087 
L 117.661091 287.769536 
L 119.284364 289.30308 
L 120.907636 290.678767 
L 122.530909 291.90137 
L 124.154182 292.852997 
L 125.777455 293.410896 
L 127.400727 293.620544 
L 129.024 293.525958 
L 130.647273 293.171929 
L 132.270545 292.541496 
L 133.893818 291.589409 
L 135.517091 290.32557 
L 137.140364 288.758881 
L 138.763636 286.897762 
L 140.386909 284.743751 
L 142.010182 282.2962 
L 143.633455 279.57085 
L 146.88 273.41107 
L 148.503273 270.242844 
L 150.126545 267.353105 
L 151.749818 264.770261 
L 153.373091 262.51623 
L 154.996364 260.607616 
L 156.619636 259.025608 
L 158.242909 257.711413 
L 159.866182 256.606937 
L 163.112727 254.815533 
L 164.736 254.116499 
L 166.359273 253.631199 
L 167.982545 253.349604 
L 169.605818 253.262593 
L 171.229091 253.361925 
L 172.852364 253.645981 
L 174.475636 254.130866 
L 176.098909 254.844266 
L 177.722182 255.815009 
L 179.345455 257.07603 
L 180.968727 258.608863 
L 182.592 260.366362 
L 184.215273 262.345438 
L 185.838545 264.542745 
L 187.461818 266.954231 
L 190.708364 272.399795 
L 195.578182 281.003362 
L 198.824727 286.101595 
L 200.448 288.349424 
L 202.071273 290.332581 
L 203.694545 292.010638 
L 205.317818 293.335682 
L 206.941091 294.293006 
L 208.564364 294.919236 
L 210.187636 295.246396 
L 211.810909 295.304381 
L 215.057455 295.030445 
L 218.304 294.53395 
L 219.927273 294.208736 
L 221.550545 293.708485 
L 223.173818 292.885809 
L 224.797091 291.750731 
L 226.420364 290.312008 
L 228.043636 288.577614 
L 229.666909 286.54844 
L 231.290182 284.222842 
L 232.913455 281.614894 
L 236.16 275.667548 
L 239.406545 268.970028 
L 242.653091 261.712926 
L 249.146182 246.901419 
L 252.392727 240.064032 
L 254.016 236.985288 
L 255.639273 234.174796 
L 257.262545 231.63001 
L 258.885818 229.346511 
L 260.509091 227.318166 
L 262.132364 225.519089 
L 265.378909 222.446649 
L 268.625455 219.906324 
L 271.872 217.674887 
L 275.118545 215.712012 
L 278.365091 214.22669 
L 283.234909 211.918684 
L 288.104727 209.662012 
L 294.597818 206.847878 
L 297.844364 205.108951 
L 301.090909 203.125769 
L 302.714182 202.008667 
L 307.584 198.273514 
L 310.830545 196.342537 
L 312.453818 195.1125 
L 314.077091 193.605266 
L 315.700364 191.828509 
L 318.946909 187.76169 
L 320.570182 186.005299 
L 322.193455 184.514258 
L 323.816727 183.275084 
L 325.44 182.274916 
L 327.063273 181.494305 
L 328.686545 180.913444 
L 330.309818 180.522616 
L 331.933091 180.312957 
L 335.179636 180.329129 
L 344.919273 180.515594 
L 356.282182 180.511777 
L 369.268364 180.287076 
L 383.877818 179.794912 
L 398.487273 179.192542 
L 398.487273 179.192542 
" style="fill:none;stroke:#2ca02c;stroke-linecap:square;stroke-width:1.5;"/>
   </g>
   <g id="line2d_22">
    <path clip-path="url(#pa10b882cac)" d="M 73.832727 186.893641 
L 75.456 186.739888 
L 77.079273 186.276609 
L 80.325818 185.083916 
L 81.949091 184.688034 
L 88.442182 183.833341 
L 96.558545 183.025206 
L 106.298182 182.308058 
L 119.284364 181.5933 
L 167.982545 179.26666 
L 169.605818 179.622191 
L 171.229091 180.2815 
L 172.852364 181.234186 
L 176.098909 183.67967 
L 177.722182 184.492965 
L 179.345455 184.916981 
L 180.968727 184.955944 
L 184.215273 184.224148 
L 185.838545 184.121676 
L 189.085091 184.084478 
L 190.708364 183.804107 
L 192.331636 183.173852 
L 193.954909 182.241646 
L 197.201455 180.13506 
L 198.824727 179.29324 
L 200.448 178.664323 
L 202.071273 178.185559 
L 203.694545 177.917159 
L 205.317818 177.920697 
L 206.941091 178.260138 
L 215.057455 180.986685 
L 218.304 182.168729 
L 221.550545 182.938119 
L 224.797091 183.307313 
L 242.653091 184.833016 
L 254.016 185.866306 
L 257.262545 186.258213 
L 258.885818 186.303619 
L 260.509091 186.040975 
L 265.378909 184.616572 
L 267.002182 184.051076 
L 268.625455 183.183532 
L 271.872 181.205519 
L 273.495273 180.428126 
L 275.118545 179.864212 
L 276.741818 179.45117 
L 278.365091 179.249765 
L 279.988364 179.322173 
L 281.611636 179.732927 
L 291.351273 183.422886 
L 292.974545 183.635605 
L 294.597818 183.488577 
L 296.221091 182.996191 
L 301.090909 180.559427 
L 302.714182 180.049837 
L 304.337455 179.725002 
L 307.584 179.519782 
L 317.323636 179.239142 
L 318.946909 179.618903 
L 320.570182 180.301431 
L 322.193455 181.276441 
L 325.44 183.764246 
L 327.063273 184.597733 
L 328.686545 185.041452 
L 330.309818 185.099742 
L 331.933091 184.774942 
L 333.556364 184.104983 
L 338.426182 181.382997 
L 340.049455 180.782204 
L 344.919273 179.566746 
L 346.542545 179.264188 
L 348.165818 179.079243 
L 349.789091 179.116084 
L 351.412364 179.468116 
L 353.035636 180.123549 
L 354.658909 181.072023 
L 357.905455 183.565575 
L 359.528727 184.560859 
L 361.152 185.303894 
L 362.775273 185.807303 
L 364.398545 186.082546 
L 366.021818 186.072125 
L 367.645091 185.755093 
L 372.514909 184.175244 
L 374.138182 183.560064 
L 375.761455 182.643411 
L 379.008 180.569007 
L 380.631273 179.74398 
L 382.254545 179.132477 
L 383.877818 178.671758 
L 385.501091 178.422229 
L 387.124364 178.445677 
L 388.747636 178.80627 
L 396.864 181.648597 
L 398.487273 182.235207 
L 398.487273 182.235207 
" style="fill:none;stroke:#d62728;stroke-linecap:square;stroke-width:1.5;"/>
   </g>
   <g id="line2d_23">
    <path clip-path="url(#pa10b882cac)" d="M 73.832727 93.583984 
L 80.325818 93.487453 
L 86.818909 93.187653 
L 94.935273 92.590558 
L 106.298182 91.481279 
L 140.386909 87.922083 
L 151.749818 87.058638 
L 163.112727 86.448473 
L 174.475636 86.090771 
L 185.838545 85.958822 
L 198.824727 86.028487 
L 216.680727 86.372348 
L 268.625455 87.534269 
L 291.351273 87.725504 
L 317.323636 87.707288 
L 398.487273 87.333877 
L 398.487273 87.333877 
" style="fill:none;stroke:#9467bd;stroke-linecap:square;stroke-width:1.5;"/>
   </g>
   <g id="line2d_24">
    <path clip-path="url(#pa10b882cac)" d="M 73.832727 181.799083 
L 91.688727 182.053127 
L 120.907636 182.203437 
L 200.448 182.289539 
L 281.611636 182.478015 
L 322.193455 182.773255 
L 351.412364 183.197921 
L 374.138182 183.753052 
L 391.994182 184.408072 
L 398.487273 184.711228 
L 398.487273 184.711228 
" style="fill:none;stroke:#8c564b;stroke-linecap:square;stroke-width:1.5;"/>
   </g>
   <g id="line2d_25">
    <path clip-path="url(#pa10b882cac)" d="M 73.832727 132.562906 
L 77.079273 132.179337 
L 81.949091 131.349416 
L 88.442182 129.954302 
L 98.181818 127.566169 
L 122.530909 121.25871 
L 125.777455 120.219562 
L 130.647273 118.350536 
L 135.517091 116.165613 
L 140.386909 113.726798 
L 146.88 110.184897 
L 156.619636 104.533735 
L 167.982545 97.955564 
L 174.475636 94.430264 
L 180.968727 91.193354 
L 185.838545 88.998191 
L 190.708364 87.026988 
L 195.578182 85.294367 
L 200.448 83.808283 
L 205.317818 82.570551 
L 210.187636 81.577514 
L 215.057455 80.820802 
L 219.927273 80.28811 
L 224.797091 79.963975 
L 229.666909 79.830506 
L 236.16 79.915012 
L 242.653091 80.253971 
L 249.146182 80.796574 
L 257.262545 81.684865 
L 270.248727 83.376408 
L 289.728 85.930944 
L 301.090909 87.170066 
L 310.830545 88.004063 
L 320.570182 88.607502 
L 330.309818 88.984367 
L 340.049455 89.155369 
L 351.412364 89.137936 
L 366.021818 88.8676 
L 390.370909 88.132415 
L 398.487273 87.881961 
L 398.487273 87.881961 
" style="fill:none;stroke:#e377c2;stroke-linecap:square;stroke-width:1.5;"/>
   </g>
   <g id="line2d_26">
    <path clip-path="url(#pa10b882cac)" d="M 73.832727 250.88568 
L 75.456 250.991856 
L 77.079273 251.259047 
L 78.702545 251.681346 
L 80.325818 252.253481 
L 81.949091 252.970738 
L 83.572364 253.830472 
L 85.195636 254.830756 
L 88.442182 257.238957 
L 90.065455 258.640304 
L 91.688727 260.20614 
L 93.312 261.987169 
L 94.935273 263.998715 
L 96.558545 266.254753 
L 98.181818 268.766185 
L 101.428364 274.455512 
L 106.298182 283.364556 
L 107.921455 285.997082 
L 109.544727 288.302893 
L 111.168 290.295111 
L 112.791273 291.987419 
L 114.414545 293.393585 
L 116.037818 294.459767 
L 117.661091 295.134303 
L 119.284364 295.462553 
L 120.907636 295.488 
L 122.530909 295.254447 
L 124.154182 294.746262 
L 125.777455 293.920507 
L 127.400727 292.786681 
L 129.024 291.352935 
L 130.647273 289.62654 
L 132.270545 287.607688 
L 133.893818 285.29394 
L 135.517091 282.69827 
L 138.763636 276.771742 
L 148.503273 257.350358 
L 156.619636 240.766162 
L 159.866182 234.83912 
L 161.489455 232.221762 
L 163.112727 229.852863 
L 164.736 227.737476 
L 166.359273 225.854537 
L 167.982545 224.175651 
L 169.605818 222.675582 
L 172.852364 220.099477 
L 176.098909 217.851673 
L 177.722182 216.873687 
L 180.968727 215.32937 
L 189.085091 211.719289 
L 192.331636 210.050274 
L 197.201455 207.318684 
L 200.448 205.278767 
L 205.317818 201.855002 
L 208.564364 199.1323 
L 210.187636 197.557217 
L 213.434182 193.919997 
L 219.927273 186.705029 
L 221.550545 185.127021 
L 223.173818 183.937825 
L 224.797091 183.119671 
L 226.420364 182.655767 
L 228.043636 182.530564 
L 289.728 184.706004 
L 302.714182 185.468469 
L 310.830545 186.079448 
L 312.453818 185.786485 
L 317.323636 184.273806 
L 318.946909 183.679627 
L 320.570182 182.783459 
L 323.816727 180.748617 
L 325.44 179.942834 
L 327.063273 179.350348 
L 328.686545 178.908481 
L 330.309818 178.677773 
L 331.933091 178.720159 
L 333.556364 179.099948 
L 341.672727 182.039231 
L 343.296 182.645549 
L 344.919273 182.997454 
L 346.542545 183.128869 
L 348.165818 183.072213 
L 351.412364 182.574443 
L 359.528727 181.318222 
L 370.891636 179.850461 
L 377.384727 179.078779 
L 379.008 179.034748 
L 380.631273 179.308956 
L 382.254545 179.889233 
L 383.877818 180.764897 
L 387.124364 183.118998 
L 388.747636 184.04718 
L 390.370909 184.724402 
L 391.994182 185.162947 
L 393.617455 185.373968 
L 398.487273 185.713732 
L 398.487273 185.713732 
" style="fill:none;stroke:#7f7f7f;stroke-linecap:square;stroke-width:1.5;"/>
   </g>
   <g id="line2d_27">
    <path clip-path="url(#pa10b882cac)" d="M 73.832727 53.568 
L 77.079273 53.744116 
L 80.325818 54.161475 
L 83.572364 54.799037 
L 86.818909 55.63643 
L 90.065455 56.653871 
L 94.935273 58.475585 
L 99.805091 60.595848 
L 104.674909 62.953077 
L 111.168 66.361029 
L 122.530909 72.671233 
L 132.270545 77.996925 
L 138.763636 81.311912 
L 145.256727 84.337764 
L 150.126545 86.378421 
L 154.996364 88.201382 
L 159.866182 89.79435 
L 164.736 91.151271 
L 169.605818 92.271789 
L 174.475636 93.160579 
L 179.345455 93.82662 
L 184.215273 94.282457 
L 189.085091 94.543478 
L 193.954909 94.627224 
L 200.448 94.496234 
L 206.941091 94.131714 
L 215.057455 93.421555 
L 224.797091 92.317565 
L 260.509091 87.970816 
L 270.248727 87.097333 
L 279.988364 86.440129 
L 289.728 86.002552 
L 299.467636 85.770144 
L 310.830545 85.721542 
L 323.816727 85.890105 
L 343.296 86.400625 
L 380.631273 87.416783 
L 398.487273 87.689077 
L 398.487273 87.689077 
" style="fill:none;stroke:#bcbd22;stroke-linecap:square;stroke-width:1.5;"/>
   </g>
   <g id="line2d_28">
    <path clip-path="url(#pa10b882cac)" d="M 73.832727 185.424729 
L 80.325818 185.696759 
L 81.949091 185.808057 
L 83.572364 185.764305 
L 85.195636 185.414192 
L 90.065455 183.737029 
L 91.688727 183.089955 
L 93.312 182.141391 
L 96.558545 180.00332 
L 98.181818 179.146217 
L 99.805091 178.502208 
L 101.428364 178.0085 
L 103.051636 177.725188 
L 104.674909 177.713719 
L 106.298182 178.037929 
L 114.414545 180.687705 
L 117.661091 181.838488 
L 120.907636 182.576053 
L 124.154182 182.912515 
L 140.386909 184.118604 
L 159.866182 185.571941 
L 166.359273 186.12781 
L 167.982545 185.851162 
L 172.852364 184.384752 
L 174.475636 183.805257 
L 176.098909 182.923542 
L 179.345455 180.916923 
L 180.968727 180.12502 
L 182.592 179.546354 
L 184.215273 179.118288 
L 185.838545 178.901464 
L 187.461818 178.957926 
L 189.085091 179.352089 
L 198.824727 182.934899 
L 200.448 183.128287 
L 202.071273 182.961286 
L 203.694545 182.448281 
L 208.564364 179.946218 
L 210.187636 179.413481 
L 211.810909 179.064634 
L 213.434182 178.89108 
L 215.057455 178.955592 
L 216.680727 179.333585 
L 218.304 180.01345 
L 219.927273 180.984996 
L 223.173818 183.521223 
L 224.797091 184.536337 
L 226.420364 185.298315 
L 228.043636 185.819869 
L 229.666909 186.112551 
L 231.290182 186.118959 
L 232.913455 185.818235 
L 237.783273 184.284605 
L 239.406545 183.684084 
L 241.029818 182.781851 
L 244.276364 180.735588 
L 245.899636 179.924401 
L 247.522909 179.326682 
L 249.146182 178.879729 
L 250.769455 178.644056 
L 252.392727 178.681564 
L 254.016 179.056532 
L 262.132364 181.972645 
L 263.755636 182.574447 
L 265.378909 182.921846 
L 267.002182 183.048746 
L 268.625455 182.987556 
L 271.872 182.480628 
L 279.988364 181.200694 
L 291.351273 179.696067 
L 296.221091 179.097934 
L 297.844364 179.047425 
L 299.467636 179.315467 
L 301.090909 179.889854 
L 302.714182 180.759874 
L 305.960727 183.103318 
L 307.584 184.026445 
L 309.207273 184.698762 
L 310.830545 185.132527 
L 312.453818 185.338873 
L 318.946909 185.805383 
L 320.570182 185.960768 
L 322.193455 185.959762 
L 323.816727 185.65134 
L 328.686545 184.093577 
L 330.309818 183.48473 
L 331.933091 182.57393 
L 335.179636 180.510021 
L 336.802909 179.689684 
L 338.426182 179.082522 
L 340.049455 178.625823 
L 341.672727 178.380002 
L 343.296 178.406856 
L 344.919273 178.770567 
L 353.035636 181.625405 
L 354.658909 182.214027 
L 356.282182 182.547915 
L 357.905455 182.660924 
L 359.528727 182.585434 
L 364.398545 181.780309 
L 369.268364 181.088025 
L 382.254545 179.606598 
L 387.124364 179.080833 
L 388.747636 179.052331 
L 390.370909 179.341491 
L 391.994182 179.936214 
L 393.617455 180.825881 
L 396.864 183.206822 
L 398.487273 184.147923 
L 398.487273 184.147923 
" style="fill:none;stroke:#17becf;stroke-linecap:square;stroke-width:1.5;"/>
   </g>
   <g id="patch_3">
    <path d="M 57.6 307.584 
L 57.6 41.472 
" style="fill:none;stroke:#000000;stroke-linecap:square;stroke-linejoin:miter;stroke-width:0.8;"/>
   </g>
   <g id="patch_4">
    <path d="M 414.72 307.584 
L 414.72 41.472 
" style="fill:none;stroke:#000000;stroke-linecap:square;stroke-linejoin:miter;stroke-width:0.8;"/>
   </g>
   <g id="patch_5">
    <path d="M 57.6 307.584 
L 414.72 307.584 
" style="fill:none;stroke:#000000;stroke-linecap:square;stroke-linejoin:miter;stroke-width:0.8;"/>
   </g>
   <g id="patch_6">
    <path d="M 57.6 41.472 
L 414.72 41.472 
" style="fill:none;stroke:#000000;stroke-linecap:square;stroke-linejoin:miter;stroke-width:0.8;"/>
   </g>
   <g id="legend_1">
    <g id="patch_7">
     <path d="M 64.6 249.418625 
L 109.325 249.418625 
Q 111.325 249.418625 111.325 247.418625 
L 111.325 101.637375 
Q 111.325 99.637375 109.325 99.637375 
L 64.6 99.637375 
Q 62.6 99.637375 62.6 101.637375 
L 62.6 247.418625 
Q 62.6 249.418625 64.6 249.418625 
z
" style="fill:#ffffff;opacity:0.8;stroke:#cccccc;stroke-linejoin:miter;"/>
    </g>
    <g id="line2d_29">
     <path d="M 66.6 107.735813 
L 86.6 107.735813 
" style="fill:none;stroke:#1f77b4;stroke-linecap:square;stroke-width:1.5;"/>
    </g>
    <g id="line2d_30"/>
    <g id="text_19">
     <!-- 80 -->
     <g transform="translate(94.6 111.235813)scale(0.1 -0.1)">
      <defs>
       <path d="M 2034 2216 
Q 1584 2216 1326 1975 
Q 1069 1734 1069 1313 
Q 1069 891 1326 650 
Q 1584 409 2034 409 
Q 2484 409 2743 651 
Q 3003 894 3003 1313 
Q 3003 1734 2745 1975 
Q 2488 2216 2034 2216 
z
M 1403 2484 
Q 997 2584 770 2862 
Q 544 3141 544 3541 
Q 544 4100 942 4425 
Q 1341 4750 2034 4750 
Q 2731 4750 3128 4425 
Q 3525 4100 3525 3541 
Q 3525 3141 3298 2862 
Q 3072 2584 2669 2484 
Q 3125 2378 3379 2068 
Q 3634 1759 3634 1313 
Q 3634 634 3220 271 
Q 2806 -91 2034 -91 
Q 1263 -91 848 271 
Q 434 634 434 1313 
Q 434 1759 690 2068 
Q 947 2378 1403 2484 
z
M 1172 3481 
Q 1172 3119 1398 2916 
Q 1625 2713 2034 2713 
Q 2441 2713 2670 2916 
Q 2900 3119 2900 3481 
Q 2900 3844 2670 4047 
Q 2441 4250 2034 4250 
Q 1625 4250 1398 4047 
Q 1172 3844 1172 3481 
z
" id="DejaVuSans-38" transform="scale(0.015625)"/>
      </defs>
      <use xlink:href="#DejaVuSans-38"/>
      <use x="63.623047" xlink:href="#DejaVuSans-30"/>
     </g>
    </g>
    <g id="line2d_31">
     <path d="M 66.6 122.413938 
L 86.6 122.413938 
" style="fill:none;stroke:#ff7f0e;stroke-linecap:square;stroke-width:1.5;"/>
    </g>
    <g id="line2d_32"/>
    <g id="text_20">
     <!-- 81 -->
     <g transform="translate(94.6 125.913938)scale(0.1 -0.1)">
      <use xlink:href="#DejaVuSans-38"/>
      <use x="63.623047" xlink:href="#DejaVuSans-31"/>
     </g>
    </g>
    <g id="line2d_33">
     <path d="M 66.6 137.092063 
L 86.6 137.092063 
" style="fill:none;stroke:#2ca02c;stroke-linecap:square;stroke-width:1.5;"/>
    </g>
    <g id="line2d_34"/>
    <g id="text_21">
     <!-- 82 -->
     <g transform="translate(94.6 140.592063)scale(0.1 -0.1)">
      <use xlink:href="#DejaVuSans-38"/>
      <use x="63.623047" xlink:href="#DejaVuSans-32"/>
     </g>
    </g>
    <g id="line2d_35">
     <path d="M 66.6 151.770188 
L 86.6 151.770188 
" style="fill:none;stroke:#d62728;stroke-linecap:square;stroke-width:1.5;"/>
    </g>
    <g id="line2d_36"/>
    <g id="text_22">
     <!-- 83 -->
     <g transform="translate(94.6 155.270188)scale(0.1 -0.1)">
      <use xlink:href="#DejaVuSans-38"/>
      <use x="63.623047" xlink:href="#DejaVuSans-33"/>
     </g>
    </g>
    <g id="line2d_37">
     <path d="M 66.6 166.448313 
L 86.6 166.448313 
" style="fill:none;stroke:#9467bd;stroke-linecap:square;stroke-width:1.5;"/>
    </g>
    <g id="line2d_38"/>
    <g id="text_23">
     <!-- 84 -->
     <g transform="translate(94.6 169.948313)scale(0.1 -0.1)">
      <use xlink:href="#DejaVuSans-38"/>
      <use x="63.623047" xlink:href="#DejaVuSans-34"/>
     </g>
    </g>
    <g id="line2d_39">
     <path d="M 66.6 181.126438 
L 86.6 181.126438 
" style="fill:none;stroke:#8c564b;stroke-linecap:square;stroke-width:1.5;"/>
    </g>
    <g id="line2d_40"/>
    <g id="text_24">
     <!-- 85 -->
     <g transform="translate(94.6 184.626438)scale(0.1 -0.1)">
      <use xlink:href="#DejaVuSans-38"/>
      <use x="63.623047" xlink:href="#DejaVuSans-35"/>
     </g>
    </g>
    <g id="line2d_41">
     <path d="M 66.6 195.804563 
L 86.6 195.804563 
" style="fill:none;stroke:#e377c2;stroke-linecap:square;stroke-width:1.5;"/>
    </g>
    <g id="line2d_42"/>
    <g id="text_25">
     <!-- 86 -->
     <g transform="translate(94.6 199.304563)scale(0.1 -0.1)">
      <defs>
       <path d="M 2113 2584 
Q 1688 2584 1439 2293 
Q 1191 2003 1191 1497 
Q 1191 994 1439 701 
Q 1688 409 2113 409 
Q 2538 409 2786 701 
Q 3034 994 3034 1497 
Q 3034 2003 2786 2293 
Q 2538 2584 2113 2584 
z
M 3366 4563 
L 3366 3988 
Q 3128 4100 2886 4159 
Q 2644 4219 2406 4219 
Q 1781 4219 1451 3797 
Q 1122 3375 1075 2522 
Q 1259 2794 1537 2939 
Q 1816 3084 2150 3084 
Q 2853 3084 3261 2657 
Q 3669 2231 3669 1497 
Q 3669 778 3244 343 
Q 2819 -91 2113 -91 
Q 1303 -91 875 529 
Q 447 1150 447 2328 
Q 447 3434 972 4092 
Q 1497 4750 2381 4750 
Q 2619 4750 2861 4703 
Q 3103 4656 3366 4563 
z
" id="DejaVuSans-36" transform="scale(0.015625)"/>
      </defs>
      <use xlink:href="#DejaVuSans-38"/>
      <use x="63.623047" xlink:href="#DejaVuSans-36"/>
     </g>
    </g>
    <g id="line2d_43">
     <path d="M 66.6 210.482687 
L 86.6 210.482687 
" style="fill:none;stroke:#7f7f7f;stroke-linecap:square;stroke-width:1.5;"/>
    </g>
    <g id="line2d_44"/>
    <g id="text_26">
     <!-- 87 -->
     <g transform="translate(94.6 213.982687)scale(0.1 -0.1)">
      <use xlink:href="#DejaVuSans-38"/>
      <use x="63.623047" xlink:href="#DejaVuSans-37"/>
     </g>
    </g>
    <g id="line2d_45">
     <path d="M 66.6 225.160813 
L 86.6 225.160813 
" style="fill:none;stroke:#bcbd22;stroke-linecap:square;stroke-width:1.5;"/>
    </g>
    <g id="line2d_46"/>
    <g id="text_27">
     <!-- 88 -->
     <g transform="translate(94.6 228.660813)scale(0.1 -0.1)">
      <use xlink:href="#DejaVuSans-38"/>
      <use x="63.623047" xlink:href="#DejaVuSans-38"/>
     </g>
    </g>
    <g id="line2d_47">
     <path d="M 66.6 239.838937 
L 86.6 239.838937 
" style="fill:none;stroke:#17becf;stroke-linecap:square;stroke-width:1.5;"/>
    </g>
    <g id="line2d_48"/>
    <g id="text_28">
     <!-- 89 -->
     <g transform="translate(94.6 243.338937)scale(0.1 -0.1)">
      <defs>
       <path d="M 703 97 
L 703 672 
Q 941 559 1184 500 
Q 1428 441 1663 441 
Q 2288 441 2617 861 
Q 2947 1281 2994 2138 
Q 2813 1869 2534 1725 
Q 2256 1581 1919 1581 
Q 1219 1581 811 2004 
Q 403 2428 403 3163 
Q 403 3881 828 4315 
Q 1253 4750 1959 4750 
Q 2769 4750 3195 4129 
Q 3622 3509 3622 2328 
Q 3622 1225 3098 567 
Q 2575 -91 1691 -91 
Q 1453 -91 1209 -44 
Q 966 3 703 97 
z
M 1959 2075 
Q 2384 2075 2632 2365 
Q 2881 2656 2881 3163 
Q 2881 3666 2632 3958 
Q 2384 4250 1959 4250 
Q 1534 4250 1286 3958 
Q 1038 3666 1038 3163 
Q 1038 2656 1286 2365 
Q 1534 2075 1959 2075 
z
" id="DejaVuSans-39" transform="scale(0.015625)"/>
      </defs>
      <use xlink:href="#DejaVuSans-38"/>
      <use x="63.623047" xlink:href="#DejaVuSans-39"/>
     </g>
    </g>
   </g>
  </g>
 </g>
 <defs>
  <clipPath id="pa10b882cac">
   <rect height="266.112" width="357.12" x="57.6" y="41.472"/>
  </clipPath>
 </defs>
</svg>
