<?xml version="1.0" encoding="utf-8" standalone="no"?>
<!DOCTYPE svg PUBLIC "-//W3C//DTD SVG 1.1//EN"
  "http://www.w3.org/Graphics/SVG/1.1/DTD/svg11.dtd">
<svg height="345.6pt" version="1.1" viewBox="0 0 460.8 345.6" width="460.8pt" xmlns="http://www.w3.org/2000/svg" xmlns:xlink="http://www.w3.org/1999/xlink">
 <metadata>
  <rdf:RDF xmlns:cc="http://creativecommons.org/ns#" xmlns:dc="http://purl.org/dc/elements/1.1/" xmlns:rdf="http://www.w3.org/1999/02/22-rdf-syntax-ns#">
   <cc:Work>
    <dc:type rdf:resource="http://purl.org/dc/dcmitype/StillImage"/>
    <dc:date>2021-08-18T15:15:24.625875</dc:date>
    <dc:format>image/svg+xml</dc:format>
    <dc:creator>
     <cc:Agent>
      <dc:title>Matplotlib v3.4.2, https://matplotlib.org/</dc:title>
     </cc:Agent>
    </dc:creator>
   </cc:Work>
  </rdf:RDF>
 </metadata>
 <defs>
  <style type="text/css">*{stroke-linecap:butt;stroke-linejoin:round;}</style>
 </defs>
 <g id="figure_1">
  <g id="patch_1">
   <path d="M 0 345.6 
L 460.8 345.6 
L 460.8 0 
L 0 0 
z
" style="fill:#ffffff;"/>
  </g>
  <g id="axes_1">
   <g id="patch_2">
    <path d="M 57.6 307.584 
L 414.72 307.584 
L 414.72 41.472 
L 57.6 41.472 
z
" style="fill:#ffffff;"/>
   </g>
   <g id="matplotlib.axis_1">
    <g id="xtick_1">
     <g id="line2d_1">
      <defs>
       <path d="M 0 0 
L 0 3.5 
" id="m90410864e6" style="stroke:#000000;stroke-width:0.8;"/>
      </defs>
      <g>
       <use style="stroke:#000000;stroke-width:0.8;" x="73.832727" xlink:href="#m90410864e6" y="307.584"/>
      </g>
     </g>
     <g id="text_1">
      <!-- 0 -->
      <g transform="translate(70.651477 322.182437)scale(0.1 -0.1)">
       <defs>
        <path d="M 2034 4250 
Q 1547 4250 1301 3770 
Q 1056 3291 1056 2328 
Q 1056 1369 1301 889 
Q 1547 409 2034 409 
Q 2525 409 2770 889 
Q 3016 1369 3016 2328 
Q 3016 3291 2770 3770 
Q 2525 4250 2034 4250 
z
M 2034 4750 
Q 2819 4750 3233 4129 
Q 3647 3509 3647 2328 
Q 3647 1150 3233 529 
Q 2819 -91 2034 -91 
Q 1250 -91 836 529 
Q 422 1150 422 2328 
Q 422 3509 836 4129 
Q 1250 4750 2034 4750 
z
" id="DejaVuSans-30" transform="scale(0.015625)"/>
       </defs>
       <use xlink:href="#DejaVuSans-30"/>
      </g>
     </g>
    </g>
    <g id="xtick_2">
     <g id="line2d_2">
      <g>
       <use style="stroke:#000000;stroke-width:0.8;" x="114.414545" xlink:href="#m90410864e6" y="307.584"/>
      </g>
     </g>
     <g id="text_2">
      <!-- 25 -->
      <g transform="translate(108.052045 322.182437)scale(0.1 -0.1)">
       <defs>
        <path d="M 1228 531 
L 3431 531 
L 3431 0 
L 469 0 
L 469 531 
Q 828 903 1448 1529 
Q 2069 2156 2228 2338 
Q 2531 2678 2651 2914 
Q 2772 3150 2772 3378 
Q 2772 3750 2511 3984 
Q 2250 4219 1831 4219 
Q 1534 4219 1204 4116 
Q 875 4013 500 3803 
L 500 4441 
Q 881 4594 1212 4672 
Q 1544 4750 1819 4750 
Q 2544 4750 2975 4387 
Q 3406 4025 3406 3419 
Q 3406 3131 3298 2873 
Q 3191 2616 2906 2266 
Q 2828 2175 2409 1742 
Q 1991 1309 1228 531 
z
" id="DejaVuSans-32" transform="scale(0.015625)"/>
        <path d="M 691 4666 
L 3169 4666 
L 3169 4134 
L 1269 4134 
L 1269 2991 
Q 1406 3038 1543 3061 
Q 1681 3084 1819 3084 
Q 2600 3084 3056 2656 
Q 3513 2228 3513 1497 
Q 3513 744 3044 326 
Q 2575 -91 1722 -91 
Q 1428 -91 1123 -41 
Q 819 9 494 109 
L 494 744 
Q 775 591 1075 516 
Q 1375 441 1709 441 
Q 2250 441 2565 725 
Q 2881 1009 2881 1497 
Q 2881 1984 2565 2268 
Q 2250 2553 1709 2553 
Q 1456 2553 1204 2497 
Q 953 2441 691 2322 
L 691 4666 
z
" id="DejaVuSans-35" transform="scale(0.015625)"/>
       </defs>
       <use xlink:href="#DejaVuSans-32"/>
       <use x="63.623047" xlink:href="#DejaVuSans-35"/>
      </g>
     </g>
    </g>
    <g id="xtick_3">
     <g id="line2d_3">
      <g>
       <use style="stroke:#000000;stroke-width:0.8;" x="154.996364" xlink:href="#m90410864e6" y="307.584"/>
      </g>
     </g>
     <g id="text_3">
      <!-- 50 -->
      <g transform="translate(148.633864 322.182437)scale(0.1 -0.1)">
       <use xlink:href="#DejaVuSans-35"/>
       <use x="63.623047" xlink:href="#DejaVuSans-30"/>
      </g>
     </g>
    </g>
    <g id="xtick_4">
     <g id="line2d_4">
      <g>
       <use style="stroke:#000000;stroke-width:0.8;" x="195.578182" xlink:href="#m90410864e6" y="307.584"/>
      </g>
     </g>
     <g id="text_4">
      <!-- 75 -->
      <g transform="translate(189.215682 322.182437)scale(0.1 -0.1)">
       <defs>
        <path d="M 525 4666 
L 3525 4666 
L 3525 4397 
L 1831 0 
L 1172 0 
L 2766 4134 
L 525 4134 
L 525 4666 
z
" id="DejaVuSans-37" transform="scale(0.015625)"/>
       </defs>
       <use xlink:href="#DejaVuSans-37"/>
       <use x="63.623047" xlink:href="#DejaVuSans-35"/>
      </g>
     </g>
    </g>
    <g id="xtick_5">
     <g id="line2d_5">
      <g>
       <use style="stroke:#000000;stroke-width:0.8;" x="236.16" xlink:href="#m90410864e6" y="307.584"/>
      </g>
     </g>
     <g id="text_5">
      <!-- 100 -->
      <g transform="translate(226.61625 322.182437)scale(0.1 -0.1)">
       <defs>
        <path d="M 794 531 
L 1825 531 
L 1825 4091 
L 703 3866 
L 703 4441 
L 1819 4666 
L 2450 4666 
L 2450 531 
L 3481 531 
L 3481 0 
L 794 0 
L 794 531 
z
" id="DejaVuSans-31" transform="scale(0.015625)"/>
       </defs>
       <use xlink:href="#DejaVuSans-31"/>
       <use x="63.623047" xlink:href="#DejaVuSans-30"/>
       <use x="127.246094" xlink:href="#DejaVuSans-30"/>
      </g>
     </g>
    </g>
    <g id="xtick_6">
     <g id="line2d_6">
      <g>
       <use style="stroke:#000000;stroke-width:0.8;" x="276.741818" xlink:href="#m90410864e6" y="307.584"/>
      </g>
     </g>
     <g id="text_6">
      <!-- 125 -->
      <g transform="translate(267.198068 322.182437)scale(0.1 -0.1)">
       <use xlink:href="#DejaVuSans-31"/>
       <use x="63.623047" xlink:href="#DejaVuSans-32"/>
       <use x="127.246094" xlink:href="#DejaVuSans-35"/>
      </g>
     </g>
    </g>
    <g id="xtick_7">
     <g id="line2d_7">
      <g>
       <use style="stroke:#000000;stroke-width:0.8;" x="317.323636" xlink:href="#m90410864e6" y="307.584"/>
      </g>
     </g>
     <g id="text_7">
      <!-- 150 -->
      <g transform="translate(307.779886 322.182437)scale(0.1 -0.1)">
       <use xlink:href="#DejaVuSans-31"/>
       <use x="63.623047" xlink:href="#DejaVuSans-35"/>
       <use x="127.246094" xlink:href="#DejaVuSans-30"/>
      </g>
     </g>
    </g>
    <g id="xtick_8">
     <g id="line2d_8">
      <g>
       <use style="stroke:#000000;stroke-width:0.8;" x="357.905455" xlink:href="#m90410864e6" y="307.584"/>
      </g>
     </g>
     <g id="text_8">
      <!-- 175 -->
      <g transform="translate(348.361705 322.182437)scale(0.1 -0.1)">
       <use xlink:href="#DejaVuSans-31"/>
       <use x="63.623047" xlink:href="#DejaVuSans-37"/>
       <use x="127.246094" xlink:href="#DejaVuSans-35"/>
      </g>
     </g>
    </g>
    <g id="xtick_9">
     <g id="line2d_9">
      <g>
       <use style="stroke:#000000;stroke-width:0.8;" x="398.487273" xlink:href="#m90410864e6" y="307.584"/>
      </g>
     </g>
     <g id="text_9">
      <!-- 200 -->
      <g transform="translate(388.943523 322.182437)scale(0.1 -0.1)">
       <use xlink:href="#DejaVuSans-32"/>
       <use x="63.623047" xlink:href="#DejaVuSans-30"/>
       <use x="127.246094" xlink:href="#DejaVuSans-30"/>
      </g>
     </g>
    </g>
   </g>
   <g id="matplotlib.axis_2">
    <g id="ytick_1">
     <g id="line2d_10">
      <defs>
       <path d="M 0 0 
L -3.5 0 
" id="ma6cfc34fda" style="stroke:#000000;stroke-width:0.8;"/>
      </defs>
      <g>
       <use style="stroke:#000000;stroke-width:0.8;" x="57.6" xlink:href="#ma6cfc34fda" y="301.343095"/>
      </g>
     </g>
     <g id="text_10">
      <!-- −4 -->
      <g transform="translate(35.857813 305.142314)scale(0.1 -0.1)">
       <defs>
        <path d="M 678 2272 
L 4684 2272 
L 4684 1741 
L 678 1741 
L 678 2272 
z
" id="DejaVuSans-2212" transform="scale(0.015625)"/>
        <path d="M 2419 4116 
L 825 1625 
L 2419 1625 
L 2419 4116 
z
M 2253 4666 
L 3047 4666 
L 3047 1625 
L 3713 1625 
L 3713 1100 
L 3047 1100 
L 3047 0 
L 2419 0 
L 2419 1100 
L 313 1100 
L 313 1709 
L 2253 4666 
z
" id="DejaVuSans-34" transform="scale(0.015625)"/>
       </defs>
       <use xlink:href="#DejaVuSans-2212"/>
       <use x="83.789062" xlink:href="#DejaVuSans-34"/>
      </g>
     </g>
    </g>
    <g id="ytick_2">
     <g id="line2d_11">
      <g>
       <use style="stroke:#000000;stroke-width:0.8;" x="57.6" xlink:href="#ma6cfc34fda" y="271.635781"/>
      </g>
     </g>
     <g id="text_11">
      <!-- −3 -->
      <g transform="translate(35.857813 275.435)scale(0.1 -0.1)">
       <defs>
        <path d="M 2597 2516 
Q 3050 2419 3304 2112 
Q 3559 1806 3559 1356 
Q 3559 666 3084 287 
Q 2609 -91 1734 -91 
Q 1441 -91 1130 -33 
Q 819 25 488 141 
L 488 750 
Q 750 597 1062 519 
Q 1375 441 1716 441 
Q 2309 441 2620 675 
Q 2931 909 2931 1356 
Q 2931 1769 2642 2001 
Q 2353 2234 1838 2234 
L 1294 2234 
L 1294 2753 
L 1863 2753 
Q 2328 2753 2575 2939 
Q 2822 3125 2822 3475 
Q 2822 3834 2567 4026 
Q 2313 4219 1838 4219 
Q 1578 4219 1281 4162 
Q 984 4106 628 3988 
L 628 4550 
Q 988 4650 1302 4700 
Q 1616 4750 1894 4750 
Q 2613 4750 3031 4423 
Q 3450 4097 3450 3541 
Q 3450 3153 3228 2886 
Q 3006 2619 2597 2516 
z
" id="DejaVuSans-33" transform="scale(0.015625)"/>
       </defs>
       <use xlink:href="#DejaVuSans-2212"/>
       <use x="83.789062" xlink:href="#DejaVuSans-33"/>
      </g>
     </g>
    </g>
    <g id="ytick_3">
     <g id="line2d_12">
      <g>
       <use style="stroke:#000000;stroke-width:0.8;" x="57.6" xlink:href="#ma6cfc34fda" y="241.928468"/>
      </g>
     </g>
     <g id="text_12">
      <!-- −2 -->
      <g transform="translate(35.857813 245.727687)scale(0.1 -0.1)">
       <use xlink:href="#DejaVuSans-2212"/>
       <use x="83.789062" xlink:href="#DejaVuSans-32"/>
      </g>
     </g>
    </g>
    <g id="ytick_4">
     <g id="line2d_13">
      <g>
       <use style="stroke:#000000;stroke-width:0.8;" x="57.6" xlink:href="#ma6cfc34fda" y="212.221155"/>
      </g>
     </g>
     <g id="text_13">
      <!-- −1 -->
      <g transform="translate(35.857813 216.020373)scale(0.1 -0.1)">
       <use xlink:href="#DejaVuSans-2212"/>
       <use x="83.789062" xlink:href="#DejaVuSans-31"/>
      </g>
     </g>
    </g>
    <g id="ytick_5">
     <g id="line2d_14">
      <g>
       <use style="stroke:#000000;stroke-width:0.8;" x="57.6" xlink:href="#ma6cfc34fda" y="182.513841"/>
      </g>
     </g>
     <g id="text_14">
      <!-- 0 -->
      <g transform="translate(44.2375 186.31306)scale(0.1 -0.1)">
       <use xlink:href="#DejaVuSans-30"/>
      </g>
     </g>
    </g>
    <g id="ytick_6">
     <g id="line2d_15">
      <g>
       <use style="stroke:#000000;stroke-width:0.8;" x="57.6" xlink:href="#ma6cfc34fda" y="152.806528"/>
      </g>
     </g>
     <g id="text_15">
      <!-- 1 -->
      <g transform="translate(44.2375 156.605747)scale(0.1 -0.1)">
       <use xlink:href="#DejaVuSans-31"/>
      </g>
     </g>
    </g>
    <g id="ytick_7">
     <g id="line2d_16">
      <g>
       <use style="stroke:#000000;stroke-width:0.8;" x="57.6" xlink:href="#ma6cfc34fda" y="123.099214"/>
      </g>
     </g>
     <g id="text_16">
      <!-- 2 -->
      <g transform="translate(44.2375 126.898433)scale(0.1 -0.1)">
       <use xlink:href="#DejaVuSans-32"/>
      </g>
     </g>
    </g>
    <g id="ytick_8">
     <g id="line2d_17">
      <g>
       <use style="stroke:#000000;stroke-width:0.8;" x="57.6" xlink:href="#ma6cfc34fda" y="93.391901"/>
      </g>
     </g>
     <g id="text_17">
      <!-- 3 -->
      <g transform="translate(44.2375 97.19112)scale(0.1 -0.1)">
       <use xlink:href="#DejaVuSans-33"/>
      </g>
     </g>
    </g>
    <g id="ytick_9">
     <g id="line2d_18">
      <g>
       <use style="stroke:#000000;stroke-width:0.8;" x="57.6" xlink:href="#ma6cfc34fda" y="63.684588"/>
      </g>
     </g>
     <g id="text_18">
      <!-- 4 -->
      <g transform="translate(44.2375 67.483806)scale(0.1 -0.1)">
       <use xlink:href="#DejaVuSans-34"/>
      </g>
     </g>
    </g>
   </g>
   <g id="line2d_19">
    <path clip-path="url(#p5cdc7df52c)" d="M 73.832727 119.797339 
L 77.079273 119.722464 
L 80.325818 119.413992 
L 83.572364 118.892101 
L 86.818909 118.176461 
L 90.065455 117.286259 
L 94.935273 115.664539 
L 99.805091 113.753734 
L 104.674909 111.613654 
L 111.168 108.503698 
L 122.530909 102.721904 
L 132.270545 97.832711 
L 138.763636 94.787849 
L 145.256727 92.00808 
L 150.126545 90.133194 
L 154.996364 88.458183 
L 159.866182 86.994365 
L 164.736 85.747327 
L 169.605818 84.717433 
L 174.475636 83.900431 
L 179.345455 83.288113 
L 184.215273 82.86899 
L 189.085091 82.628951 
L 195.578182 82.559422 
L 202.071273 82.737611 
L 208.564364 83.119342 
L 216.680727 83.814861 
L 228.043636 85.046767 
L 257.262545 88.3591 
L 268.625455 89.348675 
L 278.365091 89.985525 
L 288.104727 90.419859 
L 299.467636 90.685946 
L 310.830545 90.729926 
L 325.44 90.543591 
L 346.542545 90.014848 
L 380.631273 89.171877 
L 398.487273 88.92207 
L 398.487273 88.92207 
" style="fill:none;stroke:#1f77b4;stroke-linecap:square;stroke-width:1.5;"/>
   </g>
   <g id="line2d_20">
    <path clip-path="url(#p5cdc7df52c)" d="M 73.832727 174.185266 
L 75.456 174.355692 
L 77.079273 174.808452 
L 78.702545 175.534193 
L 80.325818 176.525229 
L 83.572364 179.039074 
L 85.195636 180.030195 
L 86.818909 180.761416 
L 88.442182 181.244767 
L 90.065455 181.491403 
L 99.805091 182.099894 
L 112.791273 182.662941 
L 135.517091 183.370099 
L 163.112727 184.268547 
L 180.968727 185.08032 
L 192.331636 185.78014 
L 198.824727 186.2529 
L 200.448 185.963474 
L 205.317818 184.471211 
L 206.941091 183.885186 
L 208.564364 183.001936 
L 211.810909 180.996663 
L 213.434182 180.202207 
L 215.057455 179.617575 
L 216.680727 179.18109 
L 218.304 178.952309 
L 219.927273 178.992156 
L 221.550545 179.3639 
L 229.666909 182.245317 
L 231.290182 182.839579 
L 232.913455 183.183422 
L 234.536727 183.310217 
L 236.16 183.251864 
L 239.406545 182.75659 
L 247.522909 181.505322 
L 258.885818 180.035605 
L 263.755636 179.451762 
L 265.378909 179.403692 
L 267.002182 179.669149 
L 268.625455 180.236122 
L 270.248727 181.094064 
L 273.495273 183.403853 
L 275.118545 184.314182 
L 276.741818 184.977763 
L 278.365091 185.406669 
L 281.611636 185.705243 
L 289.728 186.236821 
L 291.351273 185.935972 
L 296.221091 184.411618 
L 297.844364 183.815498 
L 299.467636 182.922363 
L 302.714182 180.897915 
L 304.337455 180.094085 
L 305.960727 179.500159 
L 307.584 179.054429 
L 309.207273 178.816384 
L 310.830545 178.846876 
L 312.453818 179.2091 
L 320.570182 182.042085 
L 322.193455 182.626445 
L 323.816727 182.960273 
L 325.44 183.076902 
L 327.063273 183.008207 
L 331.933091 182.233713 
L 336.802909 181.571868 
L 349.789091 180.175258 
L 356.282182 179.52199 
L 357.905455 179.503165 
L 359.528727 179.797008 
L 361.152 180.391632 
L 362.775273 181.276584 
L 366.021818 183.638674 
L 367.645091 184.574427 
L 369.268364 185.263126 
L 370.891636 185.716975 
L 372.514909 185.947052 
L 374.138182 185.896498 
L 375.761455 185.544498 
L 380.631273 183.871971 
L 382.254545 183.556085 
L 385.501091 183.584408 
L 387.124364 183.58976 
L 390.370909 183.115015 
L 393.617455 183.269377 
L 395.240727 183.332686 
L 396.864 183.160173 
L 398.487273 182.820366 
L 398.487273 182.820366 
" style="fill:none;stroke:#ff7f0e;stroke-linecap:square;stroke-width:1.5;"/>
   </g>
   <g id="line2d_21">
    <path clip-path="url(#p5cdc7df52c)" d="M 73.832727 159.560005 
L 75.456 159.672527 
L 77.079273 159.959358 
L 78.702545 160.396071 
L 81.949091 161.646273 
L 85.195636 163.22332 
L 88.442182 164.989643 
L 94.935273 168.911434 
L 98.181818 171.34181 
L 99.805091 172.5515 
L 101.428364 173.519396 
L 106.298182 176.096735 
L 107.921455 177.013288 
L 112.791273 179.228815 
L 116.037818 181.132361 
L 117.661091 181.83556 
L 119.284364 182.294284 
L 120.907636 182.519625 
L 122.530909 182.521713 
L 135.517091 181.704041 
L 176.098909 179.548369 
L 177.722182 179.893194 
L 179.345455 180.537021 
L 180.968727 181.469606 
L 184.215273 183.866453 
L 185.838545 184.662027 
L 187.461818 185.07453 
L 189.085091 185.108091 
L 192.331636 184.378303 
L 193.954909 184.272676 
L 197.201455 184.226466 
L 200.448 183.6486 
L 203.694545 183.712891 
L 205.317818 183.735569 
L 208.564364 183.29454 
L 211.810909 183.481513 
L 213.434182 183.560875 
L 215.057455 183.404359 
L 219.927273 182.511906 
L 226.420364 181.621257 
L 237.783273 180.32713 
L 245.899636 179.473404 
L 247.522909 179.448066 
L 249.146182 179.735473 
L 250.769455 180.323717 
L 252.392727 181.202336 
L 255.639273 183.551905 
L 257.262545 184.481452 
L 258.885818 185.163933 
L 260.509091 185.611521 
L 262.132364 185.835262 
L 263.755636 185.778247 
L 265.378909 185.419631 
L 270.248727 183.726723 
L 271.872 183.403961 
L 275.118545 183.41838 
L 276.741818 183.416615 
L 279.988364 182.927155 
L 283.234909 183.066277 
L 284.858182 183.12171 
L 286.481455 182.941098 
L 291.351273 181.975217 
L 297.844364 180.982579 
L 309.207273 179.490528 
L 310.830545 179.431522 
L 312.453818 179.686592 
L 314.077091 180.243666 
L 315.700364 181.092143 
L 318.946909 183.384116 
L 320.570182 184.286018 
L 322.193455 184.941438 
L 323.816727 185.362413 
L 327.063273 185.64568 
L 335.179636 186.141471 
L 336.802909 185.833558 
L 341.672727 184.287919 
L 343.296 183.684681 
L 344.919273 182.784344 
L 348.165818 180.745334 
L 349.789091 179.934083 
L 351.412364 179.332581 
L 353.035636 178.879108 
L 354.658909 178.633082 
L 356.282182 178.655275 
L 357.905455 179.008805 
L 366.021818 181.795226 
L 369.268364 183.002437 
L 372.514909 183.805393 
L 375.761455 184.216813 
L 398.487273 186.576717 
L 398.487273 186.576717 
" style="fill:none;stroke:#2ca02c;stroke-linecap:square;stroke-width:1.5;"/>
   </g>
   <g id="line2d_22">
    <path clip-path="url(#p5cdc7df52c)" d="M 73.832727 151.255558 
L 78.702545 151.83778 
L 83.572364 152.708082 
L 86.818909 153.581179 
L 90.065455 154.696861 
L 94.935273 156.367766 
L 99.805091 157.871932 
L 103.051636 159.19603 
L 106.298182 160.844325 
L 111.168 163.64236 
L 117.661091 167.667647 
L 120.907636 169.884524 
L 124.154182 172.38857 
L 125.777455 173.365294 
L 130.647273 175.965075 
L 132.270545 176.887681 
L 137.140364 179.118469 
L 140.386909 181.0296 
L 142.010182 181.736012 
L 143.633455 182.197596 
L 145.256727 182.425455 
L 146.88 182.429733 
L 159.866182 181.619666 
L 198.824727 179.525904 
L 200.448 179.86964 
L 202.071273 180.512344 
L 203.694545 181.443776 
L 206.941091 183.838244 
L 208.564364 184.632587 
L 210.187636 185.043814 
L 211.810909 185.076046 
L 215.057455 184.343456 
L 216.680727 184.236406 
L 219.927273 184.187274 
L 223.173818 183.60631 
L 226.420364 183.667384 
L 228.043636 183.68839 
L 231.290182 183.243848 
L 234.536727 183.427138 
L 236.16 183.504578 
L 237.783273 183.346068 
L 242.653091 182.447244 
L 249.146182 181.547169 
L 260.509091 180.233473 
L 267.002182 179.536156 
L 268.625455 179.507576 
L 270.248727 179.792081 
L 271.872 180.377737 
L 273.495273 181.254046 
L 276.741818 183.599698 
L 278.365091 184.527594 
L 279.988364 185.208625 
L 281.611636 185.654956 
L 283.234909 185.87763 
L 284.858182 185.819736 
L 286.481455 185.460426 
L 291.351273 183.766268 
L 292.974545 183.443303 
L 296.221091 183.457593 
L 297.844364 183.45591 
L 301.090909 182.966903 
L 304.337455 183.106805 
L 305.960727 183.16275 
L 307.584 182.982735 
L 312.453818 182.019104 
L 318.946909 181.03047 
L 331.933091 179.346107 
L 333.556364 179.289401 
L 335.179636 179.546174 
L 336.802909 180.104398 
L 338.426182 180.953521 
L 341.672727 183.245548 
L 343.296 184.146946 
L 344.919273 184.801495 
L 346.542545 185.221221 
L 348.165818 185.417045 
L 354.658909 185.806253 
L 357.905455 186.090207 
L 359.528727 186.085638 
L 361.152 185.778407 
L 366.021818 184.233733 
L 367.645091 183.630518 
L 369.268364 182.730048 
L 372.514909 180.690392 
L 374.138182 179.878622 
L 375.761455 179.276461 
L 377.384727 178.822197 
L 379.008 178.57523 
L 380.631273 178.596313 
L 382.254545 178.94855 
L 390.370909 181.726849 
L 393.617455 182.930145 
L 396.864 183.728809 
L 398.487273 183.964164 
L 398.487273 183.964164 
" style="fill:none;stroke:#d62728;stroke-linecap:square;stroke-width:1.5;"/>
   </g>
   <g id="line2d_23">
    <path clip-path="url(#p5cdc7df52c)" d="M 73.832727 53.696727 
L 77.079273 53.568 
L 80.325818 53.710271 
L 83.572364 54.101383 
L 86.818909 54.720058 
L 90.065455 55.545831 
L 93.312 56.558941 
L 98.181818 58.388066 
L 103.051636 60.532888 
L 107.921455 62.932313 
L 114.414545 66.424308 
L 124.154182 72.009878 
L 135.517091 78.530778 
L 142.010182 82.033901 
L 148.503273 85.256288 
L 153.373091 87.445297 
L 158.242909 89.414061 
L 163.112727 91.147581 
L 167.982545 92.637486 
L 172.852364 93.881533 
L 177.722182 94.882947 
L 182.592 95.649682 
L 187.461818 96.193642 
L 192.331636 96.529918 
L 197.201455 96.676053 
L 203.694545 96.608713 
L 210.187636 96.28664 
L 216.680727 95.760086 
L 224.797091 94.890014 
L 237.783273 93.221985 
L 257.262545 90.687874 
L 268.625455 89.452881 
L 278.365091 88.618696 
L 288.104727 88.012433 
L 297.844364 87.630908 
L 307.584 87.454178 
L 318.946909 87.464478 
L 333.556364 87.726229 
L 357.905455 88.451335 
L 383.877818 89.164706 
L 398.487273 89.423021 
L 398.487273 89.423021 
" style="fill:none;stroke:#9467bd;stroke-linecap:square;stroke-width:1.5;"/>
   </g>
   <g id="line2d_24">
    <path clip-path="url(#p5cdc7df52c)" d="M 73.832727 290.971536 
L 80.325818 290.67829 
L 81.949091 290.40151 
L 83.572364 289.880967 
L 85.195636 289.037619 
L 86.818909 287.884862 
L 88.442182 286.439447 
L 90.065455 284.722269 
L 91.688727 282.719049 
L 93.312 280.40022 
L 94.935273 277.782624 
L 96.558545 274.896809 
L 99.805091 268.67282 
L 101.428364 265.838373 
L 103.051636 263.305732 
L 104.674909 261.096049 
L 106.298182 259.225238 
L 107.921455 257.630942 
L 109.544727 256.232285 
L 111.168 255.032685 
L 112.791273 254.033924 
L 114.414545 253.237427 
L 116.037818 252.674396 
L 117.661091 252.375109 
L 119.284364 252.327272 
L 120.907636 252.520262 
L 122.530909 252.945025 
L 124.154182 253.562662 
L 125.777455 254.329371 
L 127.400727 255.240646 
L 129.024 256.292326 
L 130.647273 257.480492 
L 132.270545 258.83785 
L 133.893818 260.413328 
L 135.517091 262.221293 
L 137.140364 264.275019 
L 138.763636 266.585097 
L 142.010182 271.8789 
L 146.88 280.251028 
L 150.126545 285.205238 
L 151.749818 287.386609 
L 153.373091 289.308632 
L 154.996364 290.931999 
L 156.619636 292.191015 
L 158.242909 293.052686 
L 159.866182 293.563157 
L 161.489455 293.76659 
L 163.112727 293.70725 
L 166.359273 293.225822 
L 169.605818 292.543918 
L 171.229091 292.134094 
L 172.852364 291.555049 
L 174.475636 290.659723 
L 176.098909 289.45782 
L 177.722182 287.95796 
L 179.345455 286.168182 
L 180.968727 284.089678 
L 182.592 281.721365 
L 184.215273 279.078042 
L 187.461818 273.085254 
L 189.085091 269.996745 
L 190.708364 267.179819 
L 192.331636 264.663269 
L 193.954909 262.469649 
L 195.578182 260.616371 
L 197.201455 259.085419 
L 198.824727 257.81847 
L 200.448 256.757572 
L 203.694545 255.041593 
L 205.317818 254.375011 
L 206.941091 253.920584 
L 208.564364 253.66854 
L 210.187636 253.609957 
L 211.810909 253.736733 
L 213.434182 254.053431 
L 215.057455 254.567485 
L 216.680727 255.272351 
L 218.304 256.162245 
L 219.927273 257.232 
L 221.550545 258.495781 
L 223.173818 259.980457 
L 224.797091 261.700035 
L 226.420364 263.667567 
L 228.043636 265.893613 
L 231.290182 271.027718 
L 236.16 279.193313 
L 239.406545 284.03462 
L 241.029818 286.16562 
L 242.653091 288.039796 
L 244.276364 289.616322 
L 245.899636 290.827002 
L 247.522909 291.636902 
L 249.146182 292.092383 
L 250.769455 292.238146 
L 252.392727 292.119311 
L 254.016 291.720438 
L 255.639273 290.998492 
L 257.262545 289.964042 
L 258.885818 288.626357 
L 260.509091 286.993851 
L 262.132364 285.067866 
L 263.755636 282.847145 
L 265.378909 280.345786 
L 267.002182 277.590405 
L 270.248727 271.723154 
L 271.872 269.246061 
L 273.495273 267.168779 
L 275.118545 265.474842 
L 276.741818 264.14735 
L 278.365091 263.170253 
L 279.988364 262.540199 
L 281.611636 262.265852 
L 283.234909 262.353797 
L 284.858182 262.811322 
L 286.481455 263.600375 
L 288.104727 264.665458 
L 289.728 265.997089 
L 291.351273 267.5861 
L 294.597818 271.402932 
L 302.714182 281.410202 
L 305.960727 284.825815 
L 307.584 286.298015 
L 310.830545 288.858349 
L 314.077091 291.151604 
L 315.700364 292.051457 
L 317.323636 292.692834 
L 318.946909 293.000843 
L 320.570182 292.983269 
L 323.816727 292.428 
L 327.063273 291.696018 
L 328.686545 290.954466 
L 330.309818 289.901057 
L 331.933091 288.544987 
L 333.556364 286.894628 
L 335.179636 284.951303 
L 336.802909 282.713774 
L 338.426182 280.196219 
L 341.672727 274.435627 
L 343.296 271.530012 
L 344.919273 269.040106 
L 346.542545 266.950584 
L 348.165818 265.244804 
L 349.789091 263.90571 
L 351.412364 262.917117 
L 353.035636 262.275516 
L 354.658909 261.989384 
L 356.282182 262.065153 
L 357.905455 262.50999 
L 359.528727 263.285989 
L 361.152 264.337929 
L 362.775273 265.656422 
L 364.398545 267.232438 
L 367.645091 271.024677 
L 375.761455 280.867065 
L 377.384727 282.257407 
L 379.008 283.231544 
L 380.631273 283.803719 
L 382.254545 283.988691 
L 383.877818 283.877648 
L 385.501091 283.560519 
L 387.124364 283.015028 
L 388.747636 282.21901 
L 390.370909 281.150858 
L 391.994182 279.821276 
L 395.240727 276.594668 
L 398.487273 273.016883 
L 398.487273 273.016883 
" style="fill:none;stroke:#8c564b;stroke-linecap:square;stroke-width:1.5;"/>
   </g>
   <g id="line2d_25">
    <path clip-path="url(#p5cdc7df52c)" d="M 73.832727 108.969137 
L 77.079273 108.999853 
L 80.325818 108.855052 
L 83.572364 108.549809 
L 88.442182 107.824069 
L 93.312 106.821663 
L 98.181818 105.592069 
L 104.674909 103.682014 
L 112.791273 101.011098 
L 133.893818 93.853594 
L 142.010182 91.421879 
L 148.503273 89.712961 
L 154.996364 88.246453 
L 161.489455 87.03816 
L 167.982545 86.092107 
L 174.475636 85.402177 
L 180.968727 84.953914 
L 187.461818 84.726376 
L 193.954909 84.693918 
L 202.071273 84.883805 
L 211.810909 85.371507 
L 224.797091 86.297532 
L 257.262545 88.773367 
L 270.248727 89.487461 
L 283.234909 89.959946 
L 296.221091 90.19675 
L 310.830545 90.226186 
L 328.686545 90.027252 
L 398.487273 88.992319 
L 398.487273 88.992319 
" style="fill:none;stroke:#e377c2;stroke-linecap:square;stroke-width:1.5;"/>
   </g>
   <g id="line2d_26">
    <path clip-path="url(#p5cdc7df52c)" d="M 73.832727 265.682085 
L 75.456 265.857331 
L 77.079273 266.177729 
L 78.702545 266.663464 
L 80.325818 267.334003 
L 81.949091 268.209132 
L 83.572364 269.335907 
L 85.195636 270.752611 
L 86.818909 272.447122 
L 88.442182 274.406797 
L 91.688727 278.759376 
L 93.312 280.459229 
L 94.935273 281.730689 
L 96.558545 282.587656 
L 98.181818 283.04506 
L 99.805091 283.377621 
L 101.428364 283.901573 
L 103.051636 284.606901 
L 104.674909 285.483116 
L 107.921455 287.670212 
L 111.168 290.158265 
L 116.037818 294.038475 
L 117.661091 294.848644 
L 119.284364 295.317568 
L 120.907636 295.488 
L 122.530909 295.402561 
L 125.777455 294.872634 
L 129.024 294.13665 
L 130.647273 293.697837 
L 132.270545 293.092757 
L 133.893818 292.17896 
L 135.517091 290.965249 
L 137.140364 289.459234 
L 138.763636 287.667826 
L 140.386909 285.591102 
L 142.010182 283.22674 
L 143.633455 280.587922 
L 146.88 274.598694 
L 150.126545 267.880684 
L 153.373091 260.621754 
L 159.866182 245.847636 
L 163.112727 239.050926 
L 164.736 236.00238 
L 166.359273 233.221847 
L 167.982545 230.706561 
L 169.605818 228.451889 
L 171.229091 226.451502 
L 172.852364 224.676967 
L 176.098909 221.636395 
L 179.345455 219.108622 
L 182.592 216.872077 
L 185.838545 214.890976 
L 197.201455 209.41823 
L 205.317818 205.739826 
L 208.564364 203.921086 
L 211.810909 201.847842 
L 213.434182 200.681582 
L 218.304 196.78258 
L 223.173818 193.465485 
L 224.797091 192.057415 
L 226.420364 190.464727 
L 229.666909 187.005591 
L 231.290182 185.707845 
L 232.913455 184.782713 
L 234.536727 184.21365 
L 236.16 183.985103 
L 247.522909 183.774334 
L 260.509091 183.758326 
L 276.741818 183.977306 
L 292.974545 184.420479 
L 307.584 185.021343 
L 320.570182 185.77186 
L 327.063273 186.231072 
L 328.686545 185.938454 
L 333.556364 184.436931 
L 335.179636 183.847908 
L 336.802909 182.961672 
L 340.049455 180.950488 
L 341.672727 180.153081 
L 343.296 179.565481 
L 344.919273 179.126002 
L 346.542545 178.894177 
L 348.165818 178.930905 
L 349.789091 179.299426 
L 357.905455 182.163987 
L 359.528727 182.754727 
L 361.152 183.094984 
L 362.775273 183.218116 
L 364.398545 183.156015 
L 367.645091 182.652982 
L 375.761455 181.380663 
L 387.124364 179.87636 
L 390.370909 179.474611 
L 391.994182 179.420077 
L 393.617455 179.679393 
L 395.240727 180.240515 
L 396.864 181.092861 
L 398.487273 182.227056 
L 398.487273 182.227056 
" style="fill:none;stroke:#7f7f7f;stroke-linecap:square;stroke-width:1.5;"/>
   </g>
   <g id="line2d_27">
    <path clip-path="url(#p5cdc7df52c)" d="M 73.832727 229.455995 
L 77.079273 229.773157 
L 80.325818 230.310579 
L 83.572364 231.041969 
L 86.818909 231.999195 
L 90.065455 233.193397 
L 94.935273 235.057177 
L 104.674909 238.471979 
L 109.544727 240.392128 
L 112.791273 242.004824 
L 116.037818 243.980101 
L 119.284364 246.477873 
L 122.530909 249.525327 
L 124.154182 251.269443 
L 127.400727 255.253468 
L 130.647273 259.912973 
L 133.893818 264.788656 
L 137.140364 269.352524 
L 146.88 282.138224 
L 150.126545 286.039518 
L 151.749818 287.737151 
L 153.373091 289.271925 
L 154.996364 290.648615 
L 156.619636 291.75197 
L 158.242909 292.462583 
L 159.866182 292.825917 
L 161.489455 292.885723 
L 163.112727 292.686177 
L 164.736 292.211663 
L 166.359273 291.419205 
L 167.982545 290.318756 
L 169.605818 288.918999 
L 171.229091 287.227824 
L 172.852364 285.246124 
L 174.475636 282.972273 
L 176.098909 280.420053 
L 179.345455 274.593792 
L 180.968727 271.656846 
L 182.592 269.136744 
L 184.215273 267.018234 
L 185.838545 265.284683 
L 187.461818 263.918997 
L 189.085091 262.904924 
L 190.708364 262.23886 
L 192.331636 261.929171 
L 193.954909 261.982157 
L 195.578182 262.404851 
L 197.201455 263.159305 
L 198.824727 264.190325 
L 200.448 265.488506 
L 202.071273 267.044832 
L 203.694545 268.850285 
L 205.317818 270.884715 
L 208.564364 275.43624 
L 213.434182 282.419278 
L 216.680727 286.378274 
L 218.304 288.102264 
L 219.927273 289.661856 
L 221.550545 290.939612 
L 223.173818 291.81424 
L 224.797091 292.332408 
L 226.420364 292.539029 
L 229.666909 292.315886 
L 232.913455 292.040829 
L 234.536727 291.813799 
L 236.16 291.449634 
L 237.783273 290.847349 
L 239.406545 289.928947 
L 241.029818 288.706953 
L 242.653091 287.19721 
L 244.276364 285.419705 
L 245.899636 283.369049 
L 247.522909 281.0267 
L 249.146182 278.408267 
L 252.392727 272.465207 
L 254.016 269.402335 
L 255.639273 266.610868 
L 257.262545 264.119091 
L 258.885818 261.949037 
L 260.509091 260.11762 
L 262.132364 258.606679 
L 263.755636 257.358228 
L 265.378909 256.314756 
L 268.625455 254.632314 
L 270.248727 253.981789 
L 271.872 253.541853 
L 273.495273 253.302795 
L 275.118545 253.255764 
L 276.741818 253.392744 
L 278.365091 253.718256 
L 279.988364 254.239693 
L 281.611636 254.950631 
L 283.234909 255.84541 
L 284.858182 256.918997 
L 286.481455 258.200478 
L 288.104727 259.722157 
L 289.728 261.470352 
L 291.351273 263.42825 
L 292.974545 265.572312 
L 296.221091 270.451527 
L 301.090909 278.278986 
L 304.337455 282.926733 
L 305.960727 284.969487 
L 307.584 286.759749 
L 309.207273 288.255233 
L 310.830545 289.40527 
L 312.453818 290.192737 
L 314.077091 290.653349 
L 315.700364 290.818612 
L 317.323636 290.718312 
L 318.946909 290.330453 
L 320.570182 289.615809 
L 322.193455 288.588173 
L 323.816727 287.264457 
L 325.44 285.665444 
L 327.063273 283.786306 
L 328.686545 281.60882 
L 330.309818 279.148469 
L 331.933091 276.433299 
L 343.296 255.751287 
L 351.412364 239.623648 
L 354.658909 233.931012 
L 356.282182 231.423423 
L 357.905455 229.158101 
L 359.528727 227.137995 
L 361.152 225.340946 
L 362.775273 223.739744 
L 364.398545 222.310214 
L 367.645091 219.858043 
L 370.891636 217.719505 
L 372.514909 216.790723 
L 375.761455 215.331094 
L 383.877818 211.926583 
L 387.124364 210.350617 
L 391.994182 207.771293 
L 395.240727 205.844256 
L 398.487273 203.734668 
L 398.487273 203.734668 
" style="fill:none;stroke:#bcbd22;stroke-linecap:square;stroke-width:1.5;"/>
   </g>
   <g id="line2d_28">
    <path clip-path="url(#p5cdc7df52c)" d="M 73.832727 154.214904 
L 77.079273 154.579994 
L 80.325818 155.158273 
L 83.572364 155.933422 
L 86.818909 157.043162 
L 90.065455 158.460284 
L 94.935273 160.894216 
L 101.428364 164.235047 
L 104.674909 165.463721 
L 107.921455 166.517555 
L 111.168 167.877796 
L 112.791273 168.742176 
L 114.414545 169.777867 
L 117.661091 172.269983 
L 120.907636 175.259303 
L 124.154182 178.633241 
L 125.777455 180.152932 
L 127.400727 181.447007 
L 129.024 182.457665 
L 130.647273 183.125423 
L 132.270545 183.421813 
L 133.893818 183.359313 
L 135.517091 182.952525 
L 137.140364 182.214545 
L 140.386909 180.052648 
L 142.010182 179.214897 
L 143.633455 178.630361 
L 145.256727 178.286684 
L 146.88 178.172766 
L 148.503273 178.320347 
L 150.126545 178.769364 
L 151.749818 179.509088 
L 153.373091 180.530201 
L 156.619636 183.141996 
L 158.242909 184.192887 
L 159.866182 184.990908 
L 161.489455 185.54876 
L 163.112727 185.87803 
L 164.736 185.922349 
L 166.359273 185.661395 
L 171.229091 184.242895 
L 172.852364 183.678242 
L 174.475636 182.814881 
L 177.722182 180.845631 
L 179.345455 180.067475 
L 180.968727 179.498088 
L 182.592 179.075883 
L 184.215273 178.860462 
L 185.838545 178.912801 
L 187.461818 179.296222 
L 195.578182 182.227101 
L 197.201455 182.82985 
L 198.824727 183.181807 
L 200.448 183.316378 
L 202.071273 183.265497 
L 205.317818 182.784375 
L 213.434182 181.565071 
L 224.797091 180.136009 
L 231.290182 179.38246 
L 232.913455 179.340335 
L 234.536727 179.611268 
L 236.16 180.183293 
L 237.783273 181.045906 
L 241.029818 183.364078 
L 242.653091 184.278184 
L 244.276364 184.945285 
L 245.899636 185.37747 
L 249.146182 185.681953 
L 257.262545 186.225472 
L 258.885818 185.926605 
L 263.755636 184.407579 
L 265.378909 183.813065 
L 267.002182 182.921463 
L 270.248727 180.899891 
L 271.872 180.097418 
L 273.495273 179.504801 
L 275.118545 179.06034 
L 276.741818 178.823531 
L 278.365091 178.855232 
L 279.988364 179.218648 
L 288.104727 182.057317 
L 289.728 182.642777 
L 291.351273 182.977699 
L 292.974545 183.095421 
L 294.597818 183.027821 
L 299.467636 182.25664 
L 304.337455 181.598193 
L 317.323636 180.21151 
L 325.44 179.401904 
L 327.063273 179.383723 
L 328.686545 179.677766 
L 330.309818 180.272176 
L 331.933091 181.15654 
L 335.179636 183.516533 
L 336.802909 184.450831 
L 338.426182 185.137779 
L 340.049455 185.589571 
L 341.672727 185.817275 
L 343.296 185.763998 
L 344.919273 185.408915 
L 349.789091 183.725612 
L 351.412364 183.405777 
L 354.658909 183.425711 
L 356.282182 183.426559 
L 359.528727 182.942087 
L 362.775273 183.085933 
L 364.398545 183.143651 
L 366.021818 182.965288 
L 370.891636 182.005977 
L 377.384727 181.021914 
L 390.370909 179.343927 
L 391.994182 179.287838 
L 393.617455 179.545197 
L 395.240727 180.103979 
L 396.864 180.953636 
L 398.487273 182.08484 
L 398.487273 182.08484 
" style="fill:none;stroke:#17becf;stroke-linecap:square;stroke-width:1.5;"/>
   </g>
   <g id="patch_3">
    <path d="M 57.6 307.584 
L 57.6 41.472 
" style="fill:none;stroke:#000000;stroke-linecap:square;stroke-linejoin:miter;stroke-width:0.8;"/>
   </g>
   <g id="patch_4">
    <path d="M 414.72 307.584 
L 414.72 41.472 
" style="fill:none;stroke:#000000;stroke-linecap:square;stroke-linejoin:miter;stroke-width:0.8;"/>
   </g>
   <g id="patch_5">
    <path d="M 57.6 307.584 
L 414.72 307.584 
" style="fill:none;stroke:#000000;stroke-linecap:square;stroke-linejoin:miter;stroke-width:0.8;"/>
   </g>
   <g id="patch_6">
    <path d="M 57.6 41.472 
L 414.72 41.472 
" style="fill:none;stroke:#000000;stroke-linecap:square;stroke-linejoin:miter;stroke-width:0.8;"/>
   </g>
   <g id="legend_1">
    <g id="patch_7">
     <path d="M 362.995 249.418625 
L 407.72 249.418625 
Q 409.72 249.418625 409.72 247.418625 
L 409.72 101.637375 
Q 409.72 99.637375 407.72 99.637375 
L 362.995 99.637375 
Q 360.995 99.637375 360.995 101.637375 
L 360.995 247.418625 
Q 360.995 249.418625 362.995 249.418625 
z
" style="fill:#ffffff;opacity:0.8;stroke:#cccccc;stroke-linejoin:miter;"/>
    </g>
    <g id="line2d_29">
     <path d="M 364.995 107.735813 
L 384.995 107.735813 
" style="fill:none;stroke:#1f77b4;stroke-linecap:square;stroke-width:1.5;"/>
    </g>
    <g id="line2d_30"/>
    <g id="text_19">
     <!-- 70 -->
     <g transform="translate(392.995 111.235813)scale(0.1 -0.1)">
      <use xlink:href="#DejaVuSans-37"/>
      <use x="63.623047" xlink:href="#DejaVuSans-30"/>
     </g>
    </g>
    <g id="line2d_31">
     <path d="M 364.995 122.413938 
L 384.995 122.413938 
" style="fill:none;stroke:#ff7f0e;stroke-linecap:square;stroke-width:1.5;"/>
    </g>
    <g id="line2d_32"/>
    <g id="text_20">
     <!-- 71 -->
     <g transform="translate(392.995 125.913938)scale(0.1 -0.1)">
      <use xlink:href="#DejaVuSans-37"/>
      <use x="63.623047" xlink:href="#DejaVuSans-31"/>
     </g>
    </g>
    <g id="line2d_33">
     <path d="M 364.995 137.092063 
L 384.995 137.092063 
" style="fill:none;stroke:#2ca02c;stroke-linecap:square;stroke-width:1.5;"/>
    </g>
    <g id="line2d_34"/>
    <g id="text_21">
     <!-- 72 -->
     <g transform="translate(392.995 140.592063)scale(0.1 -0.1)">
      <use xlink:href="#DejaVuSans-37"/>
      <use x="63.623047" xlink:href="#DejaVuSans-32"/>
     </g>
    </g>
    <g id="line2d_35">
     <path d="M 364.995 151.770188 
L 384.995 151.770188 
" style="fill:none;stroke:#d62728;stroke-linecap:square;stroke-width:1.5;"/>
    </g>
    <g id="line2d_36"/>
    <g id="text_22">
     <!-- 73 -->
     <g transform="translate(392.995 155.270188)scale(0.1 -0.1)">
      <use xlink:href="#DejaVuSans-37"/>
      <use x="63.623047" xlink:href="#DejaVuSans-33"/>
     </g>
    </g>
    <g id="line2d_37">
     <path d="M 364.995 166.448313 
L 384.995 166.448313 
" style="fill:none;stroke:#9467bd;stroke-linecap:square;stroke-width:1.5;"/>
    </g>
    <g id="line2d_38"/>
    <g id="text_23">
     <!-- 74 -->
     <g transform="translate(392.995 169.948313)scale(0.1 -0.1)">
      <use xlink:href="#DejaVuSans-37"/>
      <use x="63.623047" xlink:href="#DejaVuSans-34"/>
     </g>
    </g>
    <g id="line2d_39">
     <path d="M 364.995 181.126438 
L 384.995 181.126438 
" style="fill:none;stroke:#8c564b;stroke-linecap:square;stroke-width:1.5;"/>
    </g>
    <g id="line2d_40"/>
    <g id="text_24">
     <!-- 75 -->
     <g transform="translate(392.995 184.626438)scale(0.1 -0.1)">
      <use xlink:href="#DejaVuSans-37"/>
      <use x="63.623047" xlink:href="#DejaVuSans-35"/>
     </g>
    </g>
    <g id="line2d_41">
     <path d="M 364.995 195.804563 
L 384.995 195.804563 
" style="fill:none;stroke:#e377c2;stroke-linecap:square;stroke-width:1.5;"/>
    </g>
    <g id="line2d_42"/>
    <g id="text_25">
     <!-- 76 -->
     <g transform="translate(392.995 199.304563)scale(0.1 -0.1)">
      <defs>
       <path d="M 2113 2584 
Q 1688 2584 1439 2293 
Q 1191 2003 1191 1497 
Q 1191 994 1439 701 
Q 1688 409 2113 409 
Q 2538 409 2786 701 
Q 3034 994 3034 1497 
Q 3034 2003 2786 2293 
Q 2538 2584 2113 2584 
z
M 3366 4563 
L 3366 3988 
Q 3128 4100 2886 4159 
Q 2644 4219 2406 4219 
Q 1781 4219 1451 3797 
Q 1122 3375 1075 2522 
Q 1259 2794 1537 2939 
Q 1816 3084 2150 3084 
Q 2853 3084 3261 2657 
Q 3669 2231 3669 1497 
Q 3669 778 3244 343 
Q 2819 -91 2113 -91 
Q 1303 -91 875 529 
Q 447 1150 447 2328 
Q 447 3434 972 4092 
Q 1497 4750 2381 4750 
Q 2619 4750 2861 4703 
Q 3103 4656 3366 4563 
z
" id="DejaVuSans-36" transform="scale(0.015625)"/>
      </defs>
      <use xlink:href="#DejaVuSans-37"/>
      <use x="63.623047" xlink:href="#DejaVuSans-36"/>
     </g>
    </g>
    <g id="line2d_43">
     <path d="M 364.995 210.482687 
L 384.995 210.482687 
" style="fill:none;stroke:#7f7f7f;stroke-linecap:square;stroke-width:1.5;"/>
    </g>
    <g id="line2d_44"/>
    <g id="text_26">
     <!-- 77 -->
     <g transform="translate(392.995 213.982687)scale(0.1 -0.1)">
      <use xlink:href="#DejaVuSans-37"/>
      <use x="63.623047" xlink:href="#DejaVuSans-37"/>
     </g>
    </g>
    <g id="line2d_45">
     <path d="M 364.995 225.160813 
L 384.995 225.160813 
" style="fill:none;stroke:#bcbd22;stroke-linecap:square;stroke-width:1.5;"/>
    </g>
    <g id="line2d_46"/>
    <g id="text_27">
     <!-- 78 -->
     <g transform="translate(392.995 228.660813)scale(0.1 -0.1)">
      <defs>
       <path d="M 2034 2216 
Q 1584 2216 1326 1975 
Q 1069 1734 1069 1313 
Q 1069 891 1326 650 
Q 1584 409 2034 409 
Q 2484 409 2743 651 
Q 3003 894 3003 1313 
Q 3003 1734 2745 1975 
Q 2488 2216 2034 2216 
z
M 1403 2484 
Q 997 2584 770 2862 
Q 544 3141 544 3541 
Q 544 4100 942 4425 
Q 1341 4750 2034 4750 
Q 2731 4750 3128 4425 
Q 3525 4100 3525 3541 
Q 3525 3141 3298 2862 
Q 3072 2584 2669 2484 
Q 3125 2378 3379 2068 
Q 3634 1759 3634 1313 
Q 3634 634 3220 271 
Q 2806 -91 2034 -91 
Q 1263 -91 848 271 
Q 434 634 434 1313 
Q 434 1759 690 2068 
Q 947 2378 1403 2484 
z
M 1172 3481 
Q 1172 3119 1398 2916 
Q 1625 2713 2034 2713 
Q 2441 2713 2670 2916 
Q 2900 3119 2900 3481 
Q 2900 3844 2670 4047 
Q 2441 4250 2034 4250 
Q 1625 4250 1398 4047 
Q 1172 3844 1172 3481 
z
" id="DejaVuSans-38" transform="scale(0.015625)"/>
      </defs>
      <use xlink:href="#DejaVuSans-37"/>
      <use x="63.623047" xlink:href="#DejaVuSans-38"/>
     </g>
    </g>
    <g id="line2d_47">
     <path d="M 364.995 239.838937 
L 384.995 239.838937 
" style="fill:none;stroke:#17becf;stroke-linecap:square;stroke-width:1.5;"/>
    </g>
    <g id="line2d_48"/>
    <g id="text_28">
     <!-- 79 -->
     <g transform="translate(392.995 243.338937)scale(0.1 -0.1)">
      <defs>
       <path d="M 703 97 
L 703 672 
Q 941 559 1184 500 
Q 1428 441 1663 441 
Q 2288 441 2617 861 
Q 2947 1281 2994 2138 
Q 2813 1869 2534 1725 
Q 2256 1581 1919 1581 
Q 1219 1581 811 2004 
Q 403 2428 403 3163 
Q 403 3881 828 4315 
Q 1253 4750 1959 4750 
Q 2769 4750 3195 4129 
Q 3622 3509 3622 2328 
Q 3622 1225 3098 567 
Q 2575 -91 1691 -91 
Q 1453 -91 1209 -44 
Q 966 3 703 97 
z
M 1959 2075 
Q 2384 2075 2632 2365 
Q 2881 2656 2881 3163 
Q 2881 3666 2632 3958 
Q 2384 4250 1959 4250 
Q 1534 4250 1286 3958 
Q 1038 3666 1038 3163 
Q 1038 2656 1286 2365 
Q 1534 2075 1959 2075 
z
" id="DejaVuSans-39" transform="scale(0.015625)"/>
      </defs>
      <use xlink:href="#DejaVuSans-37"/>
      <use x="63.623047" xlink:href="#DejaVuSans-39"/>
     </g>
    </g>
   </g>
  </g>
 </g>
 <defs>
  <clipPath id="p5cdc7df52c">
   <rect height="266.112" width="357.12" x="57.6" y="41.472"/>
  </clipPath>
 </defs>
</svg>
