<?xml version="1.0" encoding="utf-8" standalone="no"?>
<!DOCTYPE svg PUBLIC "-//W3C//DTD SVG 1.1//EN"
  "http://www.w3.org/Graphics/SVG/1.1/DTD/svg11.dtd">
<svg height="345.6pt" version="1.1" viewBox="0 0 460.8 345.6" width="460.8pt" xmlns="http://www.w3.org/2000/svg" xmlns:xlink="http://www.w3.org/1999/xlink">
 <metadata>
  <rdf:RDF xmlns:cc="http://creativecommons.org/ns#" xmlns:dc="http://purl.org/dc/elements/1.1/" xmlns:rdf="http://www.w3.org/1999/02/22-rdf-syntax-ns#">
   <cc:Work>
    <dc:type rdf:resource="http://purl.org/dc/dcmitype/StillImage"/>
    <dc:date>2021-08-18T15:12:52.763256</dc:date>
    <dc:format>image/svg+xml</dc:format>
    <dc:creator>
     <cc:Agent>
      <dc:title>Matplotlib v3.4.2, https://matplotlib.org/</dc:title>
     </cc:Agent>
    </dc:creator>
   </cc:Work>
  </rdf:RDF>
 </metadata>
 <defs>
  <style type="text/css">*{stroke-linecap:butt;stroke-linejoin:round;}</style>
 </defs>
 <g id="figure_1">
  <g id="patch_1">
   <path d="M 0 345.6 
L 460.8 345.6 
L 460.8 0 
L 0 0 
z
" style="fill:#ffffff;"/>
  </g>
  <g id="axes_1">
   <g id="patch_2">
    <path d="M 57.6 307.584 
L 414.72 307.584 
L 414.72 41.472 
L 57.6 41.472 
z
" style="fill:#ffffff;"/>
   </g>
   <g id="matplotlib.axis_1">
    <g id="xtick_1">
     <g id="line2d_1">
      <defs>
       <path d="M 0 0 
L 0 3.5 
" id="mf203847be2" style="stroke:#000000;stroke-width:0.8;"/>
      </defs>
      <g>
       <use style="stroke:#000000;stroke-width:0.8;" x="73.832727" xlink:href="#mf203847be2" y="307.584"/>
      </g>
     </g>
     <g id="text_1">
      <!-- 0 -->
      <g transform="translate(70.651477 322.182437)scale(0.1 -0.1)">
       <defs>
        <path d="M 2034 4250 
Q 1547 4250 1301 3770 
Q 1056 3291 1056 2328 
Q 1056 1369 1301 889 
Q 1547 409 2034 409 
Q 2525 409 2770 889 
Q 3016 1369 3016 2328 
Q 3016 3291 2770 3770 
Q 2525 4250 2034 4250 
z
M 2034 4750 
Q 2819 4750 3233 4129 
Q 3647 3509 3647 2328 
Q 3647 1150 3233 529 
Q 2819 -91 2034 -91 
Q 1250 -91 836 529 
Q 422 1150 422 2328 
Q 422 3509 836 4129 
Q 1250 4750 2034 4750 
z
" id="DejaVuSans-30" transform="scale(0.015625)"/>
       </defs>
       <use xlink:href="#DejaVuSans-30"/>
      </g>
     </g>
    </g>
    <g id="xtick_2">
     <g id="line2d_2">
      <g>
       <use style="stroke:#000000;stroke-width:0.8;" x="114.414545" xlink:href="#mf203847be2" y="307.584"/>
      </g>
     </g>
     <g id="text_2">
      <!-- 25 -->
      <g transform="translate(108.052045 322.182437)scale(0.1 -0.1)">
       <defs>
        <path d="M 1228 531 
L 3431 531 
L 3431 0 
L 469 0 
L 469 531 
Q 828 903 1448 1529 
Q 2069 2156 2228 2338 
Q 2531 2678 2651 2914 
Q 2772 3150 2772 3378 
Q 2772 3750 2511 3984 
Q 2250 4219 1831 4219 
Q 1534 4219 1204 4116 
Q 875 4013 500 3803 
L 500 4441 
Q 881 4594 1212 4672 
Q 1544 4750 1819 4750 
Q 2544 4750 2975 4387 
Q 3406 4025 3406 3419 
Q 3406 3131 3298 2873 
Q 3191 2616 2906 2266 
Q 2828 2175 2409 1742 
Q 1991 1309 1228 531 
z
" id="DejaVuSans-32" transform="scale(0.015625)"/>
        <path d="M 691 4666 
L 3169 4666 
L 3169 4134 
L 1269 4134 
L 1269 2991 
Q 1406 3038 1543 3061 
Q 1681 3084 1819 3084 
Q 2600 3084 3056 2656 
Q 3513 2228 3513 1497 
Q 3513 744 3044 326 
Q 2575 -91 1722 -91 
Q 1428 -91 1123 -41 
Q 819 9 494 109 
L 494 744 
Q 775 591 1075 516 
Q 1375 441 1709 441 
Q 2250 441 2565 725 
Q 2881 1009 2881 1497 
Q 2881 1984 2565 2268 
Q 2250 2553 1709 2553 
Q 1456 2553 1204 2497 
Q 953 2441 691 2322 
L 691 4666 
z
" id="DejaVuSans-35" transform="scale(0.015625)"/>
       </defs>
       <use xlink:href="#DejaVuSans-32"/>
       <use x="63.623047" xlink:href="#DejaVuSans-35"/>
      </g>
     </g>
    </g>
    <g id="xtick_3">
     <g id="line2d_3">
      <g>
       <use style="stroke:#000000;stroke-width:0.8;" x="154.996364" xlink:href="#mf203847be2" y="307.584"/>
      </g>
     </g>
     <g id="text_3">
      <!-- 50 -->
      <g transform="translate(148.633864 322.182437)scale(0.1 -0.1)">
       <use xlink:href="#DejaVuSans-35"/>
       <use x="63.623047" xlink:href="#DejaVuSans-30"/>
      </g>
     </g>
    </g>
    <g id="xtick_4">
     <g id="line2d_4">
      <g>
       <use style="stroke:#000000;stroke-width:0.8;" x="195.578182" xlink:href="#mf203847be2" y="307.584"/>
      </g>
     </g>
     <g id="text_4">
      <!-- 75 -->
      <g transform="translate(189.215682 322.182437)scale(0.1 -0.1)">
       <defs>
        <path d="M 525 4666 
L 3525 4666 
L 3525 4397 
L 1831 0 
L 1172 0 
L 2766 4134 
L 525 4134 
L 525 4666 
z
" id="DejaVuSans-37" transform="scale(0.015625)"/>
       </defs>
       <use xlink:href="#DejaVuSans-37"/>
       <use x="63.623047" xlink:href="#DejaVuSans-35"/>
      </g>
     </g>
    </g>
    <g id="xtick_5">
     <g id="line2d_5">
      <g>
       <use style="stroke:#000000;stroke-width:0.8;" x="236.16" xlink:href="#mf203847be2" y="307.584"/>
      </g>
     </g>
     <g id="text_5">
      <!-- 100 -->
      <g transform="translate(226.61625 322.182437)scale(0.1 -0.1)">
       <defs>
        <path d="M 794 531 
L 1825 531 
L 1825 4091 
L 703 3866 
L 703 4441 
L 1819 4666 
L 2450 4666 
L 2450 531 
L 3481 531 
L 3481 0 
L 794 0 
L 794 531 
z
" id="DejaVuSans-31" transform="scale(0.015625)"/>
       </defs>
       <use xlink:href="#DejaVuSans-31"/>
       <use x="63.623047" xlink:href="#DejaVuSans-30"/>
       <use x="127.246094" xlink:href="#DejaVuSans-30"/>
      </g>
     </g>
    </g>
    <g id="xtick_6">
     <g id="line2d_6">
      <g>
       <use style="stroke:#000000;stroke-width:0.8;" x="276.741818" xlink:href="#mf203847be2" y="307.584"/>
      </g>
     </g>
     <g id="text_6">
      <!-- 125 -->
      <g transform="translate(267.198068 322.182437)scale(0.1 -0.1)">
       <use xlink:href="#DejaVuSans-31"/>
       <use x="63.623047" xlink:href="#DejaVuSans-32"/>
       <use x="127.246094" xlink:href="#DejaVuSans-35"/>
      </g>
     </g>
    </g>
    <g id="xtick_7">
     <g id="line2d_7">
      <g>
       <use style="stroke:#000000;stroke-width:0.8;" x="317.323636" xlink:href="#mf203847be2" y="307.584"/>
      </g>
     </g>
     <g id="text_7">
      <!-- 150 -->
      <g transform="translate(307.779886 322.182437)scale(0.1 -0.1)">
       <use xlink:href="#DejaVuSans-31"/>
       <use x="63.623047" xlink:href="#DejaVuSans-35"/>
       <use x="127.246094" xlink:href="#DejaVuSans-30"/>
      </g>
     </g>
    </g>
    <g id="xtick_8">
     <g id="line2d_8">
      <g>
       <use style="stroke:#000000;stroke-width:0.8;" x="357.905455" xlink:href="#mf203847be2" y="307.584"/>
      </g>
     </g>
     <g id="text_8">
      <!-- 175 -->
      <g transform="translate(348.361705 322.182437)scale(0.1 -0.1)">
       <use xlink:href="#DejaVuSans-31"/>
       <use x="63.623047" xlink:href="#DejaVuSans-37"/>
       <use x="127.246094" xlink:href="#DejaVuSans-35"/>
      </g>
     </g>
    </g>
    <g id="xtick_9">
     <g id="line2d_9">
      <g>
       <use style="stroke:#000000;stroke-width:0.8;" x="398.487273" xlink:href="#mf203847be2" y="307.584"/>
      </g>
     </g>
     <g id="text_9">
      <!-- 200 -->
      <g transform="translate(388.943523 322.182437)scale(0.1 -0.1)">
       <use xlink:href="#DejaVuSans-32"/>
       <use x="63.623047" xlink:href="#DejaVuSans-30"/>
       <use x="127.246094" xlink:href="#DejaVuSans-30"/>
      </g>
     </g>
    </g>
   </g>
   <g id="matplotlib.axis_2">
    <g id="ytick_1">
     <g id="line2d_10">
      <defs>
       <path d="M 0 0 
L -3.5 0 
" id="mea17bee4b8" style="stroke:#000000;stroke-width:0.8;"/>
      </defs>
      <g>
       <use style="stroke:#000000;stroke-width:0.8;" x="57.6" xlink:href="#mea17bee4b8" y="281.538783"/>
      </g>
     </g>
     <g id="text_10">
      <!-- −4 -->
      <g transform="translate(35.857813 285.338002)scale(0.1 -0.1)">
       <defs>
        <path d="M 678 2272 
L 4684 2272 
L 4684 1741 
L 678 1741 
L 678 2272 
z
" id="DejaVuSans-2212" transform="scale(0.015625)"/>
        <path d="M 2419 4116 
L 825 1625 
L 2419 1625 
L 2419 4116 
z
M 2253 4666 
L 3047 4666 
L 3047 1625 
L 3713 1625 
L 3713 1100 
L 3047 1100 
L 3047 0 
L 2419 0 
L 2419 1100 
L 313 1100 
L 313 1709 
L 2253 4666 
z
" id="DejaVuSans-34" transform="scale(0.015625)"/>
       </defs>
       <use xlink:href="#DejaVuSans-2212"/>
       <use x="83.789062" xlink:href="#DejaVuSans-34"/>
      </g>
     </g>
    </g>
    <g id="ytick_2">
     <g id="line2d_11">
      <g>
       <use style="stroke:#000000;stroke-width:0.8;" x="57.6" xlink:href="#mea17bee4b8" y="251.682009"/>
      </g>
     </g>
     <g id="text_11">
      <!-- −3 -->
      <g transform="translate(35.857813 255.481228)scale(0.1 -0.1)">
       <defs>
        <path d="M 2597 2516 
Q 3050 2419 3304 2112 
Q 3559 1806 3559 1356 
Q 3559 666 3084 287 
Q 2609 -91 1734 -91 
Q 1441 -91 1130 -33 
Q 819 25 488 141 
L 488 750 
Q 750 597 1062 519 
Q 1375 441 1716 441 
Q 2309 441 2620 675 
Q 2931 909 2931 1356 
Q 2931 1769 2642 2001 
Q 2353 2234 1838 2234 
L 1294 2234 
L 1294 2753 
L 1863 2753 
Q 2328 2753 2575 2939 
Q 2822 3125 2822 3475 
Q 2822 3834 2567 4026 
Q 2313 4219 1838 4219 
Q 1578 4219 1281 4162 
Q 984 4106 628 3988 
L 628 4550 
Q 988 4650 1302 4700 
Q 1616 4750 1894 4750 
Q 2613 4750 3031 4423 
Q 3450 4097 3450 3541 
Q 3450 3153 3228 2886 
Q 3006 2619 2597 2516 
z
" id="DejaVuSans-33" transform="scale(0.015625)"/>
       </defs>
       <use xlink:href="#DejaVuSans-2212"/>
       <use x="83.789062" xlink:href="#DejaVuSans-33"/>
      </g>
     </g>
    </g>
    <g id="ytick_3">
     <g id="line2d_12">
      <g>
       <use style="stroke:#000000;stroke-width:0.8;" x="57.6" xlink:href="#mea17bee4b8" y="221.825235"/>
      </g>
     </g>
     <g id="text_12">
      <!-- −2 -->
      <g transform="translate(35.857813 225.624454)scale(0.1 -0.1)">
       <use xlink:href="#DejaVuSans-2212"/>
       <use x="83.789062" xlink:href="#DejaVuSans-32"/>
      </g>
     </g>
    </g>
    <g id="ytick_4">
     <g id="line2d_13">
      <g>
       <use style="stroke:#000000;stroke-width:0.8;" x="57.6" xlink:href="#mea17bee4b8" y="191.968461"/>
      </g>
     </g>
     <g id="text_13">
      <!-- −1 -->
      <g transform="translate(35.857813 195.76768)scale(0.1 -0.1)">
       <use xlink:href="#DejaVuSans-2212"/>
       <use x="83.789062" xlink:href="#DejaVuSans-31"/>
      </g>
     </g>
    </g>
    <g id="ytick_5">
     <g id="line2d_14">
      <g>
       <use style="stroke:#000000;stroke-width:0.8;" x="57.6" xlink:href="#mea17bee4b8" y="162.111687"/>
      </g>
     </g>
     <g id="text_14">
      <!-- 0 -->
      <g transform="translate(44.2375 165.910906)scale(0.1 -0.1)">
       <use xlink:href="#DejaVuSans-30"/>
      </g>
     </g>
    </g>
    <g id="ytick_6">
     <g id="line2d_15">
      <g>
       <use style="stroke:#000000;stroke-width:0.8;" x="57.6" xlink:href="#mea17bee4b8" y="132.254913"/>
      </g>
     </g>
     <g id="text_15">
      <!-- 1 -->
      <g transform="translate(44.2375 136.054132)scale(0.1 -0.1)">
       <use xlink:href="#DejaVuSans-31"/>
      </g>
     </g>
    </g>
    <g id="ytick_7">
     <g id="line2d_16">
      <g>
       <use style="stroke:#000000;stroke-width:0.8;" x="57.6" xlink:href="#mea17bee4b8" y="102.398139"/>
      </g>
     </g>
     <g id="text_16">
      <!-- 2 -->
      <g transform="translate(44.2375 106.197358)scale(0.1 -0.1)">
       <use xlink:href="#DejaVuSans-32"/>
      </g>
     </g>
    </g>
    <g id="ytick_8">
     <g id="line2d_17">
      <g>
       <use style="stroke:#000000;stroke-width:0.8;" x="57.6" xlink:href="#mea17bee4b8" y="72.541365"/>
      </g>
     </g>
     <g id="text_17">
      <!-- 3 -->
      <g transform="translate(44.2375 76.340583)scale(0.1 -0.1)">
       <use xlink:href="#DejaVuSans-33"/>
      </g>
     </g>
    </g>
    <g id="ytick_9">
     <g id="line2d_18">
      <g>
       <use style="stroke:#000000;stroke-width:0.8;" x="57.6" xlink:href="#mea17bee4b8" y="42.684591"/>
      </g>
     </g>
     <g id="text_18">
      <!-- 4 -->
      <g transform="translate(44.2375 46.483809)scale(0.1 -0.1)">
       <use xlink:href="#DejaVuSans-34"/>
      </g>
     </g>
    </g>
   </g>
   <g id="line2d_19">
    <path clip-path="url(#pe116f6645b)" d="M 73.832727 99.09448 
L 77.079273 98.881265 
L 80.325818 98.444903 
L 83.572364 97.805385 
L 86.818909 96.982202 
L 91.688727 95.44456 
L 96.558545 93.598862 
L 101.428364 91.505728 
L 107.921455 88.431517 
L 117.661091 83.483364 
L 130.647273 76.895958 
L 137.140364 73.841857 
L 143.633455 71.056881 
L 148.503273 69.180509 
L 153.373091 67.505863 
L 158.242909 66.04404 
L 163.112727 64.800389 
L 167.982545 63.775037 
L 172.852364 62.963498 
L 177.722182 62.357341 
L 182.592 61.944866 
L 187.461818 61.711771 
L 193.954909 61.651655 
L 200.448 61.839107 
L 206.941091 62.229645 
L 215.057455 62.935171 
L 226.420364 64.178641 
L 254.016 67.344518 
L 265.378909 68.370197 
L 275.118545 69.039714 
L 284.858182 69.505267 
L 296.221091 69.803178 
L 307.584 69.872099 
L 320.570182 69.735734 
L 340.049455 69.277111 
L 379.008 68.295742 
L 398.487273 68.031876 
L 398.487273 68.031876 
" style="fill:none;stroke:#1f77b4;stroke-linecap:square;stroke-width:1.5;"/>
   </g>
   <g id="line2d_20">
    <path clip-path="url(#pe116f6645b)" d="M 73.832727 241.901524 
L 75.456 242.011178 
L 77.079273 242.299876 
L 78.702545 242.760395 
L 80.325818 243.385839 
L 81.949091 244.169572 
L 83.572364 245.162987 
L 85.195636 246.428179 
L 86.818909 247.955481 
L 88.442182 249.735202 
L 91.688727 253.912943 
L 99.805091 264.617359 
L 103.051636 268.230603 
L 104.674909 269.787752 
L 106.298182 271.185004 
L 107.921455 272.307523 
L 109.544727 273.036461 
L 111.168 273.417415 
L 112.791273 273.494172 
L 114.414545 273.310854 
L 116.037818 272.852033 
L 117.661091 272.075014 
L 119.284364 270.989679 
L 120.907636 269.604572 
L 122.530909 267.927358 
L 124.154182 265.958652 
L 125.777455 263.696447 
L 127.400727 261.154025 
L 130.647273 255.33956 
L 140.386909 236.266074 
L 148.503273 219.973048 
L 151.749818 214.148825 
L 153.373091 211.576556 
L 154.996364 209.248254 
L 156.619636 207.16933 
L 158.242909 205.319569 
L 159.866182 203.671022 
L 161.489455 202.198847 
L 164.736 199.673177 
L 167.982545 197.47332 
L 169.605818 196.517543 
L 172.852364 195.010968 
L 180.968727 191.502596 
L 184.215273 189.883878 
L 189.085091 187.237191 
L 192.331636 185.261512 
L 197.201455 181.945938 
L 200.448 179.307224 
L 202.071273 177.779269 
L 205.317818 174.280412 
L 211.810909 167.359289 
L 213.434182 165.8516 
L 215.057455 164.727312 
L 216.680727 163.969357 
L 218.304 163.561525 
L 219.927273 163.488714 
L 247.522909 165.36929 
L 254.016 165.899055 
L 255.639273 165.620599 
L 260.509091 164.155941 
L 262.132364 163.578075 
L 263.755636 162.701291 
L 267.002182 160.707182 
L 268.625455 159.919156 
L 270.248727 159.341951 
L 271.872 158.913609 
L 273.495273 158.694061 
L 275.118545 158.744623 
L 276.741818 159.128959 
L 284.858182 162.079716 
L 286.481455 162.688233 
L 288.104727 163.045231 
L 289.728 163.184291 
L 291.351273 163.137498 
L 294.597818 162.664155 
L 302.714182 161.472165 
L 312.453818 160.284304 
L 323.816727 159.043027 
L 325.44 159.013921 
L 327.063273 159.299226 
L 328.686545 159.886959 
L 330.309818 160.766595 
L 333.556364 163.121363 
L 335.179636 164.052352 
L 336.802909 164.735061 
L 338.426182 165.181705 
L 340.049455 165.403375 
L 341.672727 165.342847 
L 343.296 164.979157 
L 348.165818 163.26781 
L 349.789091 162.940112 
L 353.035636 162.947942 
L 354.658909 162.942784 
L 357.905455 162.443916 
L 361.152 162.576587 
L 362.775273 162.628622 
L 364.398545 162.443336 
L 369.268364 161.460766 
L 375.761455 160.445959 
L 385.501091 159.122764 
L 387.124364 159.056879 
L 388.747636 159.307072 
L 390.370909 159.861168 
L 391.994182 160.708472 
L 395.240727 163.001956 
L 396.864 163.903759 
L 398.487273 164.558062 
L 398.487273 164.558062 
" style="fill:none;stroke:#ff7f0e;stroke-linecap:square;stroke-width:1.5;"/>
   </g>
   <g id="line2d_21">
    <path clip-path="url(#pe116f6645b)" d="M 73.832727 99.578313 
L 77.079273 99.457441 
L 80.325818 99.103265 
L 83.572364 98.536123 
L 86.818909 97.775817 
L 90.065455 96.841651 
L 94.935273 95.155537 
L 99.805091 93.182514 
L 104.674909 90.982769 
L 111.168 87.79793 
L 122.530909 81.900741 
L 132.270545 76.931653 
L 138.763636 73.844429 
L 145.256727 71.031309 
L 150.126545 69.137253 
L 154.996364 67.44789 
L 159.866182 65.974274 
L 164.736 64.721653 
L 169.605818 63.690003 
L 174.475636 62.874646 
L 179.345455 62.266931 
L 184.215273 61.854918 
L 189.085091 61.624053 
L 195.578182 61.569221 
L 202.071273 61.764048 
L 208.564364 62.163477 
L 216.680727 62.881432 
L 228.043636 64.1431 
L 255.639273 67.346335 
L 267.002182 68.381856 
L 276.741818 69.056867 
L 286.481455 69.525371 
L 297.844364 69.82396 
L 309.207273 69.891244 
L 322.193455 69.751135 
L 341.672727 69.285363 
L 380.631273 68.292972 
L 398.487273 68.041949 
L 398.487273 68.041949 
" style="fill:none;stroke:#2ca02c;stroke-linecap:square;stroke-width:1.5;"/>
   </g>
   <g id="line2d_22">
    <path clip-path="url(#pe116f6645b)" d="M 73.832727 258.737126 
L 75.456 258.728064 
L 77.079273 259.017886 
L 78.702545 259.593478 
L 80.325818 260.441204 
L 81.949091 261.54683 
L 91.688727 268.959864 
L 93.312 269.691887 
L 94.935273 270.096351 
L 96.558545 270.204848 
L 98.181818 270.047347 
L 99.805091 269.60113 
L 101.428364 268.825993 
L 103.051636 267.735931 
L 104.674909 266.348284 
L 106.298182 264.684488 
L 107.921455 262.730491 
L 109.544727 260.456791 
L 111.168 257.880499 
L 112.791273 255.032378 
L 116.037818 248.874512 
L 117.661091 246.071198 
L 119.284364 243.569272 
L 120.907636 241.390312 
L 122.530909 239.550731 
L 124.154182 238.032057 
L 125.777455 236.776333 
L 127.400727 235.726234 
L 130.647273 234.03369 
L 132.270545 233.379472 
L 133.893818 232.935575 
L 135.517091 232.692236 
L 137.140364 232.640577 
L 138.763636 232.772574 
L 140.386909 233.092609 
L 142.010182 233.607929 
L 143.633455 234.312185 
L 145.256727 235.199819 
L 146.88 236.265922 
L 148.503273 237.525643 
L 150.126545 238.998592 
L 151.749818 240.680613 
L 153.373091 242.567597 
L 154.996364 244.655141 
L 156.619636 246.956911 
L 159.866182 252.060491 
L 163.112727 257.190586 
L 164.736 259.41793 
L 166.359273 261.197758 
L 167.982545 262.543815 
L 169.605818 263.470572 
L 171.229091 263.993458 
L 172.852364 264.386906 
L 174.475636 264.966361 
L 176.098909 265.721669 
L 177.722182 266.642179 
L 180.968727 268.900417 
L 184.215273 271.437507 
L 189.085091 275.354012 
L 190.708364 276.177489 
L 192.331636 276.663308 
L 193.954909 276.85367 
L 195.578182 276.79044 
L 198.824727 276.301403 
L 202.071273 275.595042 
L 203.694545 275.16697 
L 205.317818 274.573171 
L 206.941091 273.674822 
L 208.564364 272.480184 
L 210.187636 270.996193 
L 211.810909 269.228934 
L 213.434182 267.177602 
L 215.057455 264.838826 
L 216.680727 262.224334 
L 219.927273 256.273315 
L 229.666909 236.797408 
L 239.406545 217.063537 
L 241.029818 214.195719 
L 242.653091 211.564307 
L 244.276364 209.181686 
L 245.899636 207.05291 
L 247.522909 205.156735 
L 249.146182 203.46468 
L 250.769455 201.951426 
L 254.016 199.348368 
L 257.262545 197.071328 
L 258.885818 196.078273 
L 262.132364 194.522626 
L 267.002182 192.61789 
L 271.872 190.809181 
L 276.741818 188.559874 
L 281.611636 186.395343 
L 284.858182 184.954341 
L 288.104727 183.257634 
L 291.351273 181.22294 
L 294.597818 179.047825 
L 296.221091 178.122132 
L 299.467636 176.63911 
L 302.714182 175.343051 
L 304.337455 174.356101 
L 305.960727 173.081817 
L 307.584 171.530133 
L 312.453818 166.190073 
L 314.077091 164.702779 
L 315.700364 163.385915 
L 317.323636 162.229637 
L 318.946909 161.25376 
L 320.570182 160.483523 
L 322.193455 159.908452 
L 323.816727 159.518936 
L 327.063273 159.186775 
L 328.686545 159.065208 
L 330.309818 159.086737 
L 331.933091 159.420842 
L 333.556364 160.055776 
L 335.179636 160.981204 
L 338.426182 163.42384 
L 340.049455 164.397198 
L 341.672727 165.121526 
L 343.296 165.609256 
L 344.919273 165.871674 
L 346.542545 165.851856 
L 348.165818 165.529036 
L 353.035636 163.940002 
L 354.658909 163.323082 
L 356.282182 162.408107 
L 359.528727 160.340011 
L 361.152 159.515874 
L 362.775273 158.902895 
L 364.398545 158.439005 
L 366.021818 158.183877 
L 367.645091 158.198543 
L 369.268364 158.546392 
L 377.384727 161.311897 
L 380.631273 162.511952 
L 383.877818 163.305914 
L 387.124364 163.706396 
L 398.487273 164.824487 
L 398.487273 164.824487 
" style="fill:none;stroke:#d62728;stroke-linecap:square;stroke-width:1.5;"/>
   </g>
   <g id="line2d_23">
    <path clip-path="url(#pe116f6645b)" d="M 73.832727 209.932512 
L 77.079273 209.902818 
L 80.325818 210.148125 
L 83.572364 210.625977 
L 86.818909 211.300336 
L 90.065455 212.19218 
L 93.312 213.347212 
L 99.805091 215.990435 
L 112.791273 220.610245 
L 116.037818 222.082409 
L 119.284364 223.946003 
L 120.907636 225.054883 
L 122.530909 226.303179 
L 125.777455 229.223264 
L 129.024 232.729111 
L 132.270545 236.901014 
L 135.517091 241.763084 
L 138.763636 246.830328 
L 142.010182 251.552314 
L 148.503273 260.311049 
L 153.373091 266.684983 
L 154.996364 268.566979 
L 156.619636 270.27725 
L 158.242909 271.820861 
L 159.866182 273.203141 
L 161.489455 274.314569 
L 163.112727 275.042172 
L 164.736 275.430545 
L 166.359273 275.522139 
L 167.982545 275.359416 
L 169.605818 274.927901 
L 171.229091 274.186909 
L 172.852364 273.145558 
L 174.475636 271.811412 
L 176.098909 270.190932 
L 177.722182 268.28349 
L 179.345455 266.085597 
L 180.968727 263.608268 
L 182.592 260.874576 
L 185.838545 254.824173 
L 193.954909 238.980453 
L 205.317818 216.041088 
L 206.941091 213.232927 
L 208.564364 210.667845 
L 210.187636 208.364721 
L 211.810909 206.314665 
L 213.434182 204.486091 
L 215.057455 202.85093 
L 218.304 200.051111 
L 221.550545 197.654917 
L 224.797091 195.501755 
L 228.043636 193.569737 
L 231.290182 191.868855 
L 234.536727 190.359182 
L 244.276364 186.183624 
L 247.522909 184.389832 
L 250.769455 182.384412 
L 254.016 180.018247 
L 257.262545 177.24874 
L 260.509091 174.054262 
L 263.755636 170.34125 
L 267.002182 166.331596 
L 268.625455 164.721221 
L 271.872 162.13523 
L 275.118545 159.870478 
L 276.741818 158.982703 
L 278.365091 158.284948 
L 279.988364 157.767294 
L 281.611636 157.420712 
L 283.234909 157.308918 
L 284.858182 157.508467 
L 286.481455 158.007309 
L 288.104727 158.795056 
L 291.351273 160.959216 
L 292.974545 161.792979 
L 294.597818 162.376638 
L 296.221091 162.721863 
L 297.844364 162.83932 
L 317.323636 162.910943 
L 338.426182 163.213903 
L 357.905455 163.702662 
L 375.761455 164.377806 
L 390.370909 165.149935 
L 396.864 165.667108 
L 398.487273 165.833453 
L 398.487273 165.833453 
" style="fill:none;stroke:#9467bd;stroke-linecap:square;stroke-width:1.5;"/>
   </g>
   <g id="line2d_24">
    <path clip-path="url(#pe116f6645b)" d="M 73.832727 160.717742 
L 90.065455 160.324526 
L 106.298182 159.70075 
L 119.284364 159.150103 
L 120.907636 159.509226 
L 122.530909 160.168442 
L 124.154182 161.117505 
L 127.400727 163.549018 
L 129.024 164.359516 
L 130.647273 164.784854 
L 132.270545 164.829246 
L 135.517091 164.116887 
L 137.140364 164.021025 
L 140.386909 163.994914 
L 142.010182 163.722906 
L 143.633455 163.104866 
L 145.256727 162.188197 
L 148.503273 160.115308 
L 150.126545 159.28804 
L 151.749818 158.671396 
L 153.373091 158.203324 
L 154.996364 157.943426 
L 156.619636 157.952652 
L 158.242909 158.294317 
L 166.359273 161.022339 
L 169.605818 162.204743 
L 172.852364 162.979556 
L 176.098909 163.359241 
L 205.317818 166.046956 
L 206.941091 165.790554 
L 211.810909 164.389845 
L 213.434182 163.832684 
L 215.057455 162.97652 
L 218.304 161.023253 
L 219.927273 160.255583 
L 221.550545 159.698831 
L 223.173818 159.291091 
L 224.797091 159.092454 
L 226.420364 159.164405 
L 228.043636 159.570762 
L 237.783273 163.217866 
L 239.406545 163.427432 
L 241.029818 163.281078 
L 242.653091 162.793039 
L 247.522909 160.379216 
L 249.146182 159.873713 
L 250.769455 159.550806 
L 254.016 159.344178 
L 262.132364 159.136578 
L 263.755636 159.513846 
L 265.378909 160.190474 
L 267.002182 161.156298 
L 270.248727 163.619646 
L 271.872 164.445361 
L 273.495273 164.885573 
L 275.118545 164.944577 
L 276.741818 164.624696 
L 278.365091 163.963445 
L 283.234909 161.275335 
L 284.858182 160.682431 
L 289.728 159.48415 
L 291.351273 159.186189 
L 292.974545 159.004559 
L 294.597818 159.042295 
L 296.221091 159.391784 
L 297.844364 160.041368 
L 299.467636 160.980797 
L 302.714182 163.449759 
L 304.337455 164.435559 
L 305.960727 165.171929 
L 307.584 165.671363 
L 309.207273 165.945202 
L 310.830545 165.936599 
L 312.453818 165.624846 
L 317.323636 164.068071 
L 318.946909 163.461641 
L 320.570182 162.557128 
L 323.816727 160.509803 
L 325.44 159.696066 
L 327.063273 159.093576 
L 328.686545 158.640288 
L 330.309818 158.395966 
L 331.933091 158.421742 
L 333.556364 158.781103 
L 341.672727 161.607087 
L 343.296 162.190465 
L 344.919273 162.522127 
L 346.542545 162.635561 
L 348.165818 162.56279 
L 353.035636 161.77341 
L 357.905455 161.097362 
L 370.891636 159.663577 
L 377.384727 158.990446 
L 379.008 158.967095 
L 380.631273 159.257752 
L 382.254545 159.850475 
L 383.877818 160.734778 
L 387.124364 163.098057 
L 388.747636 164.032947 
L 390.370909 164.71934 
L 391.994182 165.169469 
L 393.617455 165.394442 
L 395.240727 165.337051 
L 396.864 164.976349 
L 398.487273 164.432662 
L 398.487273 164.432662 
" style="fill:none;stroke:#8c564b;stroke-linecap:square;stroke-width:1.5;"/>
   </g>
   <g id="line2d_25">
    <path clip-path="url(#pe116f6645b)" d="M 73.832727 295.488 
L 77.079273 295.032151 
L 80.325818 294.283179 
L 83.572364 293.332898 
L 86.818909 292.118086 
L 90.065455 290.632085 
L 93.312 288.769507 
L 99.805091 284.599455 
L 101.428364 283.322347 
L 103.051636 281.813727 
L 104.674909 280.080558 
L 106.298182 278.142723 
L 107.921455 275.996476 
L 109.544727 273.628085 
L 112.791273 268.33539 
L 116.037818 262.769125 
L 117.661091 260.269569 
L 119.284364 258.01118 
L 120.907636 255.987636 
L 122.530909 254.190385 
L 124.154182 252.678412 
L 125.777455 251.512194 
L 127.400727 250.654127 
L 129.024 250.065976 
L 130.647273 249.708971 
L 132.270545 249.619629 
L 133.893818 249.844507 
L 135.517091 250.331444 
L 137.140364 251.02647 
L 138.763636 251.87483 
L 140.386909 252.925909 
L 142.010182 254.269632 
L 143.633455 255.892034 
L 145.256727 257.778426 
L 150.126545 264.109665 
L 153.373091 267.624813 
L 154.996364 269.13707 
L 156.619636 270.367656 
L 158.242909 271.192712 
L 159.866182 271.659087 
L 161.489455 271.812064 
L 163.112727 271.697438 
L 167.982545 270.800864 
L 171.229091 270.145761 
L 172.852364 269.681015 
L 174.475636 268.888359 
L 176.098909 267.781673 
L 177.722182 266.37819 
L 179.345455 264.699257 
L 180.968727 262.73076 
L 182.592 260.443156 
L 184.215273 257.853535 
L 185.838545 254.992671 
L 189.085091 248.811195 
L 190.708364 245.99694 
L 192.331636 243.48455 
L 193.954909 241.295502 
L 195.578182 239.446089 
L 197.201455 237.917762 
L 198.824727 236.652597 
L 200.448 235.593342 
L 203.694545 233.883821 
L 205.317818 233.221706 
L 206.941091 232.769846 
L 208.564364 232.518446 
L 210.187636 232.4586 
L 211.810909 232.582267 
L 213.434182 232.887969 
L 215.057455 233.391844 
L 216.680727 234.121556 
L 218.304 235.105908 
L 219.927273 236.377778 
L 221.550545 237.918826 
L 223.173818 239.682098 
L 224.797091 241.664462 
L 226.420364 243.862473 
L 228.043636 246.271938 
L 231.290182 251.704472 
L 236.16 260.272148 
L 239.406545 265.344378 
L 241.029818 267.580443 
L 242.653091 269.554059 
L 244.276364 271.225908 
L 245.899636 272.549474 
L 247.522909 273.510797 
L 249.146182 274.146066 
L 250.769455 274.486858 
L 252.392727 274.562572 
L 255.639273 274.326262 
L 258.885818 273.863178 
L 260.509091 273.553104 
L 262.132364 273.070299 
L 263.755636 272.271247 
L 265.378909 271.165597 
L 267.002182 269.761665 
L 268.625455 268.066904 
L 270.248727 266.081737 
L 271.872 263.80399 
L 273.495273 261.246768 
L 276.741818 255.40436 
L 286.481455 236.25693 
L 294.597818 219.917066 
L 297.844364 214.080924 
L 299.467636 211.504551 
L 301.090909 209.173318 
L 302.714182 207.091995 
L 304.337455 205.23964 
L 305.960727 203.588295 
L 307.584 202.113113 
L 310.830545 199.580527 
L 314.077091 197.37145 
L 315.700364 196.410754 
L 318.946909 194.89514 
L 327.063273 191.355265 
L 330.309818 189.71891 
L 335.179636 187.04115 
L 338.426182 185.041429 
L 343.296 181.684924 
L 346.542545 179.014656 
L 348.165818 177.46925 
L 351.412364 173.910772 
L 357.905455 166.857772 
L 359.528727 165.317607 
L 361.152 164.161582 
L 362.775273 163.372327 
L 364.398545 162.933392 
L 366.021818 162.829511 
L 398.487273 164.309107 
L 398.487273 164.309107 
" style="fill:none;stroke:#e377c2;stroke-linecap:square;stroke-width:1.5;"/>
   </g>
   <g id="line2d_26">
    <path clip-path="url(#pe116f6645b)" d="M 73.832727 200.521118 
L 77.079273 200.683471 
L 80.325818 201.178721 
L 83.572364 201.974997 
L 86.818909 203.158934 
L 90.065455 204.655246 
L 94.935273 207.261516 
L 109.544727 215.401446 
L 112.791273 216.886638 
L 119.284364 219.577518 
L 125.777455 222.481959 
L 127.400727 223.427245 
L 129.024 224.509123 
L 130.647273 225.728371 
L 132.270545 227.111573 
L 133.893818 228.692544 
L 135.517091 230.475561 
L 137.140364 232.465441 
L 138.763636 234.667177 
L 140.386909 237.079153 
L 143.633455 242.524026 
L 146.88 248.801698 
L 148.503273 252.025214 
L 150.126545 254.959556 
L 151.749818 257.607912 
L 153.373091 259.97557 
L 154.996364 262.069449 
L 158.242909 265.647461 
L 159.866182 267.193626 
L 161.489455 268.583521 
L 163.112727 269.821721 
L 164.736 270.78993 
L 166.359273 271.364938 
L 167.982545 271.592162 
L 169.605818 271.515663 
L 171.229091 271.180333 
L 172.852364 270.569985 
L 174.475636 269.64065 
L 176.098909 268.405116 
L 177.722182 266.879573 
L 179.345455 265.084443 
L 180.968727 263.014552 
L 182.592 260.651512 
L 184.215273 258.011475 
L 187.461818 252.025157 
L 189.085091 248.942457 
L 190.708364 246.133381 
L 192.331636 243.6259 
L 193.954909 241.441642 
L 195.578182 239.597066 
L 197.201455 238.073699 
L 198.824727 236.813544 
L 200.448 235.759226 
L 203.694545 234.058708 
L 205.317818 233.400725 
L 206.941091 232.953271 
L 208.564364 232.706567 
L 210.187636 232.651718 
L 211.810909 232.780686 
L 213.434182 233.097841 
L 215.057455 233.610417 
L 216.680727 234.31205 
L 218.304 235.197169 
L 219.927273 236.260852 
L 221.550545 237.518238 
L 223.173818 238.988922 
L 224.797091 240.668744 
L 226.420364 242.553591 
L 228.043636 244.63906 
L 229.666909 246.938816 
L 232.913455 252.03861 
L 236.16 257.165371 
L 237.783273 259.391229 
L 239.406545 261.16966 
L 241.029818 262.514386 
L 242.653091 263.439862 
L 244.276364 263.961498 
L 245.899636 264.353798 
L 247.522909 264.932299 
L 249.146182 265.686848 
L 250.769455 266.606796 
L 254.016 268.864488 
L 257.262545 271.401699 
L 262.132364 275.319404 
L 263.755636 276.14312 
L 265.378909 276.628993 
L 267.002182 276.819253 
L 268.625455 276.755794 
L 271.872 276.266287 
L 275.118545 275.559676 
L 276.741818 275.131557 
L 278.365091 274.537659 
L 279.988364 273.639036 
L 281.611636 272.443969 
L 283.234909 270.959412 
L 284.858182 269.191476 
L 286.481455 267.139378 
L 288.104727 264.799776 
L 289.728 262.184436 
L 292.974545 256.231849 
L 302.714182 236.754758 
L 310.830545 220.11498 
L 314.077091 214.164112 
L 315.700364 211.535321 
L 317.323636 209.155454 
L 318.946909 207.029326 
L 320.570182 205.135467 
L 322.193455 203.445431 
L 323.816727 201.933932 
L 327.063273 199.333659 
L 330.309818 197.058434 
L 331.933091 196.066063 
L 335.179636 194.511597 
L 340.049455 192.607921 
L 344.919273 190.799488 
L 349.789091 188.549668 
L 354.658909 186.384242 
L 357.905455 184.94247 
L 361.152 183.24478 
L 364.398545 181.20888 
L 367.645091 179.032426 
L 369.268364 178.10609 
L 372.514909 176.621849 
L 375.761455 175.324523 
L 377.384727 174.336793 
L 379.008 173.061619 
L 380.631273 171.508942 
L 385.501091 166.16557 
L 387.124364 164.677164 
L 388.747636 163.359179 
L 390.370909 162.201767 
L 391.994182 161.224736 
L 393.617455 160.453319 
L 395.240727 159.877034 
L 396.864 159.486267 
L 398.487273 159.27227 
L 398.487273 159.27227 
" style="fill:none;stroke:#7f7f7f;stroke-linecap:square;stroke-width:1.5;"/>
   </g>
   <g id="line2d_27">
    <path clip-path="url(#pe116f6645b)" d="M 73.832727 131.532688 
L 77.079273 131.632405 
L 80.325818 132.08348 
L 83.572364 132.809519 
L 86.818909 133.806423 
L 90.065455 135.043127 
L 93.312 136.306206 
L 103.051636 139.787121 
L 109.544727 142.629823 
L 112.791273 143.69041 
L 122.530909 146.393838 
L 125.777455 147.578064 
L 127.400727 148.392816 
L 129.024 149.382736 
L 132.270545 151.675119 
L 133.893818 152.564153 
L 138.763636 154.91556 
L 140.386909 155.7594 
L 145.256727 157.762039 
L 148.503273 159.526005 
L 150.126545 160.158991 
L 151.749818 160.546674 
L 153.373091 160.69989 
L 154.996364 160.628582 
L 169.605818 159.01339 
L 171.229091 158.984119 
L 172.852364 159.269162 
L 174.475636 159.856541 
L 176.098909 160.73574 
L 179.345455 163.089428 
L 180.968727 164.019789 
L 182.592 164.701802 
L 184.215273 165.14768 
L 185.838545 165.368508 
L 187.461818 165.307054 
L 189.085091 164.942351 
L 193.954909 163.227591 
L 195.578182 162.898669 
L 198.824727 162.903928 
L 200.448 162.897406 
L 203.694545 162.395628 
L 206.941091 162.525177 
L 208.564364 162.575564 
L 210.187636 162.388563 
L 215.057455 161.400462 
L 221.550545 160.377331 
L 231.290182 159.039356 
L 232.913455 158.970667 
L 234.536727 159.217868 
L 236.16 159.768792 
L 237.783273 160.612754 
L 241.029818 162.899155 
L 242.653091 163.797244 
L 244.276364 164.447687 
L 245.899636 164.862539 
L 247.522909 165.052741 
L 254.016 165.420513 
L 257.262545 165.695639 
L 258.885818 165.686194 
L 260.509091 165.37271 
L 265.378909 163.806896 
L 267.002182 163.196398 
L 268.625455 162.287219 
L 271.872 160.229136 
L 273.495273 159.409258 
L 275.118545 158.800053 
L 276.741818 158.339487 
L 278.365091 158.087226 
L 279.988364 158.104295 
L 281.611636 158.454079 
L 289.728 161.224599 
L 292.974545 162.424908 
L 296.221091 163.218275 
L 299.467636 163.617348 
L 325.44 166.191802 
L 327.063273 165.945641 
L 331.933091 164.575942 
L 333.556364 164.060881 
L 338.426182 161.779097 
L 340.049455 161.31272 
L 349.789091 159.781834 
L 354.658909 159.085522 
L 356.282182 159.004032 
L 357.905455 159.239079 
L 359.528727 159.778422 
L 361.152 160.611313 
L 364.398545 162.876882 
L 366.021818 163.765122 
L 367.645091 164.406032 
L 369.268364 164.81162 
L 370.891636 164.992785 
L 379.008 165.407663 
L 382.254545 165.67538 
L 383.877818 165.662377 
L 385.501091 165.345395 
L 390.370909 163.769438 
L 391.994182 163.155658 
L 393.617455 162.243215 
L 396.864 160.178675 
L 398.487273 159.355572 
L 398.487273 159.355572 
" style="fill:none;stroke:#bcbd22;stroke-linecap:square;stroke-width:1.5;"/>
   </g>
   <g id="line2d_28">
    <path clip-path="url(#pe116f6645b)" d="M 73.832727 53.849625 
L 77.079273 53.633844 
L 81.949091 53.58775 
L 86.818909 53.840256 
L 91.688727 54.351749 
L 96.558545 55.082452 
L 103.051636 56.329936 
L 109.544727 57.807327 
L 119.284364 60.270971 
L 137.140364 64.82725 
L 145.256727 66.659584 
L 153.373091 68.239655 
L 159.866182 69.294536 
L 166.359273 70.152671 
L 172.852364 70.813237 
L 179.345455 71.282689 
L 187.461818 71.620046 
L 195.578182 71.712226 
L 205.317818 71.55708 
L 216.680727 71.107019 
L 232.913455 70.188396 
L 258.885818 68.692759 
L 273.495273 68.077333 
L 288.104727 67.692356 
L 302.714182 67.528819 
L 320.570182 67.566404 
L 346.542545 67.877813 
L 390.370909 68.396257 
L 398.487273 68.445841 
L 398.487273 68.445841 
" style="fill:none;stroke:#17becf;stroke-linecap:square;stroke-width:1.5;"/>
   </g>
   <g id="patch_3">
    <path d="M 57.6 307.584 
L 57.6 41.472 
" style="fill:none;stroke:#000000;stroke-linecap:square;stroke-linejoin:miter;stroke-width:0.8;"/>
   </g>
   <g id="patch_4">
    <path d="M 414.72 307.584 
L 414.72 41.472 
" style="fill:none;stroke:#000000;stroke-linecap:square;stroke-linejoin:miter;stroke-width:0.8;"/>
   </g>
   <g id="patch_5">
    <path d="M 57.6 307.584 
L 414.72 307.584 
" style="fill:none;stroke:#000000;stroke-linecap:square;stroke-linejoin:miter;stroke-width:0.8;"/>
   </g>
   <g id="patch_6">
    <path d="M 57.6 41.472 
L 414.72 41.472 
" style="fill:none;stroke:#000000;stroke-linecap:square;stroke-linejoin:miter;stroke-width:0.8;"/>
   </g>
   <g id="legend_1">
    <g id="patch_7">
     <path d="M 64.6 249.418625 
L 109.325 249.418625 
Q 111.325 249.418625 111.325 247.418625 
L 111.325 101.637375 
Q 111.325 99.637375 109.325 99.637375 
L 64.6 99.637375 
Q 62.6 99.637375 62.6 101.637375 
L 62.6 247.418625 
Q 62.6 249.418625 64.6 249.418625 
z
" style="fill:#ffffff;opacity:0.8;stroke:#cccccc;stroke-linejoin:miter;"/>
    </g>
    <g id="line2d_29">
     <path d="M 66.6 107.735813 
L 86.6 107.735813 
" style="fill:none;stroke:#1f77b4;stroke-linecap:square;stroke-width:1.5;"/>
    </g>
    <g id="line2d_30"/>
    <g id="text_19">
     <!-- 20 -->
     <g transform="translate(94.6 111.235813)scale(0.1 -0.1)">
      <use xlink:href="#DejaVuSans-32"/>
      <use x="63.623047" xlink:href="#DejaVuSans-30"/>
     </g>
    </g>
    <g id="line2d_31">
     <path d="M 66.6 122.413938 
L 86.6 122.413938 
" style="fill:none;stroke:#ff7f0e;stroke-linecap:square;stroke-width:1.5;"/>
    </g>
    <g id="line2d_32"/>
    <g id="text_20">
     <!-- 21 -->
     <g transform="translate(94.6 125.913938)scale(0.1 -0.1)">
      <use xlink:href="#DejaVuSans-32"/>
      <use x="63.623047" xlink:href="#DejaVuSans-31"/>
     </g>
    </g>
    <g id="line2d_33">
     <path d="M 66.6 137.092063 
L 86.6 137.092063 
" style="fill:none;stroke:#2ca02c;stroke-linecap:square;stroke-width:1.5;"/>
    </g>
    <g id="line2d_34"/>
    <g id="text_21">
     <!-- 22 -->
     <g transform="translate(94.6 140.592063)scale(0.1 -0.1)">
      <use xlink:href="#DejaVuSans-32"/>
      <use x="63.623047" xlink:href="#DejaVuSans-32"/>
     </g>
    </g>
    <g id="line2d_35">
     <path d="M 66.6 151.770188 
L 86.6 151.770188 
" style="fill:none;stroke:#d62728;stroke-linecap:square;stroke-width:1.5;"/>
    </g>
    <g id="line2d_36"/>
    <g id="text_22">
     <!-- 23 -->
     <g transform="translate(94.6 155.270188)scale(0.1 -0.1)">
      <use xlink:href="#DejaVuSans-32"/>
      <use x="63.623047" xlink:href="#DejaVuSans-33"/>
     </g>
    </g>
    <g id="line2d_37">
     <path d="M 66.6 166.448313 
L 86.6 166.448313 
" style="fill:none;stroke:#9467bd;stroke-linecap:square;stroke-width:1.5;"/>
    </g>
    <g id="line2d_38"/>
    <g id="text_23">
     <!-- 24 -->
     <g transform="translate(94.6 169.948313)scale(0.1 -0.1)">
      <use xlink:href="#DejaVuSans-32"/>
      <use x="63.623047" xlink:href="#DejaVuSans-34"/>
     </g>
    </g>
    <g id="line2d_39">
     <path d="M 66.6 181.126438 
L 86.6 181.126438 
" style="fill:none;stroke:#8c564b;stroke-linecap:square;stroke-width:1.5;"/>
    </g>
    <g id="line2d_40"/>
    <g id="text_24">
     <!-- 25 -->
     <g transform="translate(94.6 184.626438)scale(0.1 -0.1)">
      <use xlink:href="#DejaVuSans-32"/>
      <use x="63.623047" xlink:href="#DejaVuSans-35"/>
     </g>
    </g>
    <g id="line2d_41">
     <path d="M 66.6 195.804563 
L 86.6 195.804563 
" style="fill:none;stroke:#e377c2;stroke-linecap:square;stroke-width:1.5;"/>
    </g>
    <g id="line2d_42"/>
    <g id="text_25">
     <!-- 26 -->
     <g transform="translate(94.6 199.304563)scale(0.1 -0.1)">
      <defs>
       <path d="M 2113 2584 
Q 1688 2584 1439 2293 
Q 1191 2003 1191 1497 
Q 1191 994 1439 701 
Q 1688 409 2113 409 
Q 2538 409 2786 701 
Q 3034 994 3034 1497 
Q 3034 2003 2786 2293 
Q 2538 2584 2113 2584 
z
M 3366 4563 
L 3366 3988 
Q 3128 4100 2886 4159 
Q 2644 4219 2406 4219 
Q 1781 4219 1451 3797 
Q 1122 3375 1075 2522 
Q 1259 2794 1537 2939 
Q 1816 3084 2150 3084 
Q 2853 3084 3261 2657 
Q 3669 2231 3669 1497 
Q 3669 778 3244 343 
Q 2819 -91 2113 -91 
Q 1303 -91 875 529 
Q 447 1150 447 2328 
Q 447 3434 972 4092 
Q 1497 4750 2381 4750 
Q 2619 4750 2861 4703 
Q 3103 4656 3366 4563 
z
" id="DejaVuSans-36" transform="scale(0.015625)"/>
      </defs>
      <use xlink:href="#DejaVuSans-32"/>
      <use x="63.623047" xlink:href="#DejaVuSans-36"/>
     </g>
    </g>
    <g id="line2d_43">
     <path d="M 66.6 210.482687 
L 86.6 210.482687 
" style="fill:none;stroke:#7f7f7f;stroke-linecap:square;stroke-width:1.5;"/>
    </g>
    <g id="line2d_44"/>
    <g id="text_26">
     <!-- 27 -->
     <g transform="translate(94.6 213.982687)scale(0.1 -0.1)">
      <use xlink:href="#DejaVuSans-32"/>
      <use x="63.623047" xlink:href="#DejaVuSans-37"/>
     </g>
    </g>
    <g id="line2d_45">
     <path d="M 66.6 225.160813 
L 86.6 225.160813 
" style="fill:none;stroke:#bcbd22;stroke-linecap:square;stroke-width:1.5;"/>
    </g>
    <g id="line2d_46"/>
    <g id="text_27">
     <!-- 28 -->
     <g transform="translate(94.6 228.660813)scale(0.1 -0.1)">
      <defs>
       <path d="M 2034 2216 
Q 1584 2216 1326 1975 
Q 1069 1734 1069 1313 
Q 1069 891 1326 650 
Q 1584 409 2034 409 
Q 2484 409 2743 651 
Q 3003 894 3003 1313 
Q 3003 1734 2745 1975 
Q 2488 2216 2034 2216 
z
M 1403 2484 
Q 997 2584 770 2862 
Q 544 3141 544 3541 
Q 544 4100 942 4425 
Q 1341 4750 2034 4750 
Q 2731 4750 3128 4425 
Q 3525 4100 3525 3541 
Q 3525 3141 3298 2862 
Q 3072 2584 2669 2484 
Q 3125 2378 3379 2068 
Q 3634 1759 3634 1313 
Q 3634 634 3220 271 
Q 2806 -91 2034 -91 
Q 1263 -91 848 271 
Q 434 634 434 1313 
Q 434 1759 690 2068 
Q 947 2378 1403 2484 
z
M 1172 3481 
Q 1172 3119 1398 2916 
Q 1625 2713 2034 2713 
Q 2441 2713 2670 2916 
Q 2900 3119 2900 3481 
Q 2900 3844 2670 4047 
Q 2441 4250 2034 4250 
Q 1625 4250 1398 4047 
Q 1172 3844 1172 3481 
z
" id="DejaVuSans-38" transform="scale(0.015625)"/>
      </defs>
      <use xlink:href="#DejaVuSans-32"/>
      <use x="63.623047" xlink:href="#DejaVuSans-38"/>
     </g>
    </g>
    <g id="line2d_47">
     <path d="M 66.6 239.838937 
L 86.6 239.838937 
" style="fill:none;stroke:#17becf;stroke-linecap:square;stroke-width:1.5;"/>
    </g>
    <g id="line2d_48"/>
    <g id="text_28">
     <!-- 29 -->
     <g transform="translate(94.6 243.338937)scale(0.1 -0.1)">
      <defs>
       <path d="M 703 97 
L 703 672 
Q 941 559 1184 500 
Q 1428 441 1663 441 
Q 2288 441 2617 861 
Q 2947 1281 2994 2138 
Q 2813 1869 2534 1725 
Q 2256 1581 1919 1581 
Q 1219 1581 811 2004 
Q 403 2428 403 3163 
Q 403 3881 828 4315 
Q 1253 4750 1959 4750 
Q 2769 4750 3195 4129 
Q 3622 3509 3622 2328 
Q 3622 1225 3098 567 
Q 2575 -91 1691 -91 
Q 1453 -91 1209 -44 
Q 966 3 703 97 
z
M 1959 2075 
Q 2384 2075 2632 2365 
Q 2881 2656 2881 3163 
Q 2881 3666 2632 3958 
Q 2384 4250 1959 4250 
Q 1534 4250 1286 3958 
Q 1038 3666 1038 3163 
Q 1038 2656 1286 2365 
Q 1534 2075 1959 2075 
z
" id="DejaVuSans-39" transform="scale(0.015625)"/>
      </defs>
      <use xlink:href="#DejaVuSans-32"/>
      <use x="63.623047" xlink:href="#DejaVuSans-39"/>
     </g>
    </g>
   </g>
  </g>
 </g>
 <defs>
  <clipPath id="pe116f6645b">
   <rect height="266.112" width="357.12" x="57.6" y="41.472"/>
  </clipPath>
 </defs>
</svg>
