<?xml version="1.0" encoding="utf-8" standalone="no"?>
<!DOCTYPE svg PUBLIC "-//W3C//DTD SVG 1.1//EN"
  "http://www.w3.org/Graphics/SVG/1.1/DTD/svg11.dtd">
<!-- Created with matplotlib (https://matplotlib.org/) -->
<svg height="345.6pt" version="1.1" viewBox="0 0 460.8 345.6" width="460.8pt" xmlns="http://www.w3.org/2000/svg" xmlns:xlink="http://www.w3.org/1999/xlink">
 <defs>
  <style type="text/css">
*{stroke-linecap:butt;stroke-linejoin:round;}
  </style>
 </defs>
 <g id="figure_1">
  <g id="patch_1">
   <path d="M 0 345.6 
L 460.8 345.6 
L 460.8 0 
L 0 0 
z
" style="fill:#ffffff;"/>
  </g>
  <g id="axes_1">
   <g id="patch_2">
    <path d="M 57.6 307.584 
L 414.72 307.584 
L 414.72 41.472 
L 57.6 41.472 
z
" style="fill:#ffffff;"/>
   </g>
   <g id="matplotlib.axis_1">
    <g id="xtick_1">
     <g id="line2d_1">
      <defs>
       <path d="M 0 0 
L 0 3.5 
" id="me3c8d92d47" style="stroke:#000000;stroke-width:0.8;"/>
      </defs>
      <g>
       <use style="stroke:#000000;stroke-width:0.8;" x="73.832727" xlink:href="#me3c8d92d47" y="307.584"/>
      </g>
     </g>
     <g id="text_1">
      <!-- 0 -->
      <defs>
       <path d="M 31.78125 66.40625 
Q 24.171875 66.40625 20.328125 58.90625 
Q 16.5 51.421875 16.5 36.375 
Q 16.5 21.390625 20.328125 13.890625 
Q 24.171875 6.390625 31.78125 6.390625 
Q 39.453125 6.390625 43.28125 13.890625 
Q 47.125 21.390625 47.125 36.375 
Q 47.125 51.421875 43.28125 58.90625 
Q 39.453125 66.40625 31.78125 66.40625 
z
M 31.78125 74.21875 
Q 44.046875 74.21875 50.515625 64.515625 
Q 56.984375 54.828125 56.984375 36.375 
Q 56.984375 17.96875 50.515625 8.265625 
Q 44.046875 -1.421875 31.78125 -1.421875 
Q 19.53125 -1.421875 13.0625 8.265625 
Q 6.59375 17.96875 6.59375 36.375 
Q 6.59375 54.828125 13.0625 64.515625 
Q 19.53125 74.21875 31.78125 74.21875 
z
" id="DejaVuSans-48"/>
      </defs>
      <g transform="translate(70.651477 322.182437)scale(0.1 -0.1)">
       <use xlink:href="#DejaVuSans-48"/>
      </g>
     </g>
    </g>
    <g id="xtick_2">
     <g id="line2d_2">
      <g>
       <use style="stroke:#000000;stroke-width:0.8;" x="138.763636" xlink:href="#me3c8d92d47" y="307.584"/>
      </g>
     </g>
     <g id="text_2">
      <!-- 20 -->
      <defs>
       <path d="M 19.1875 8.296875 
L 53.609375 8.296875 
L 53.609375 0 
L 7.328125 0 
L 7.328125 8.296875 
Q 12.9375 14.109375 22.625 23.890625 
Q 32.328125 33.6875 34.8125 36.53125 
Q 39.546875 41.84375 41.421875 45.53125 
Q 43.3125 49.21875 43.3125 52.78125 
Q 43.3125 58.59375 39.234375 62.25 
Q 35.15625 65.921875 28.609375 65.921875 
Q 23.96875 65.921875 18.8125 64.3125 
Q 13.671875 62.703125 7.8125 59.421875 
L 7.8125 69.390625 
Q 13.765625 71.78125 18.9375 73 
Q 24.125 74.21875 28.421875 74.21875 
Q 39.75 74.21875 46.484375 68.546875 
Q 53.21875 62.890625 53.21875 53.421875 
Q 53.21875 48.921875 51.53125 44.890625 
Q 49.859375 40.875 45.40625 35.40625 
Q 44.1875 33.984375 37.640625 27.21875 
Q 31.109375 20.453125 19.1875 8.296875 
z
" id="DejaVuSans-50"/>
      </defs>
      <g transform="translate(132.401136 322.182437)scale(0.1 -0.1)">
       <use xlink:href="#DejaVuSans-50"/>
       <use x="63.623047" xlink:href="#DejaVuSans-48"/>
      </g>
     </g>
    </g>
    <g id="xtick_3">
     <g id="line2d_3">
      <g>
       <use style="stroke:#000000;stroke-width:0.8;" x="203.694545" xlink:href="#me3c8d92d47" y="307.584"/>
      </g>
     </g>
     <g id="text_3">
      <!-- 40 -->
      <defs>
       <path d="M 37.796875 64.3125 
L 12.890625 25.390625 
L 37.796875 25.390625 
z
M 35.203125 72.90625 
L 47.609375 72.90625 
L 47.609375 25.390625 
L 58.015625 25.390625 
L 58.015625 17.1875 
L 47.609375 17.1875 
L 47.609375 0 
L 37.796875 0 
L 37.796875 17.1875 
L 4.890625 17.1875 
L 4.890625 26.703125 
z
" id="DejaVuSans-52"/>
      </defs>
      <g transform="translate(197.332045 322.182437)scale(0.1 -0.1)">
       <use xlink:href="#DejaVuSans-52"/>
       <use x="63.623047" xlink:href="#DejaVuSans-48"/>
      </g>
     </g>
    </g>
    <g id="xtick_4">
     <g id="line2d_4">
      <g>
       <use style="stroke:#000000;stroke-width:0.8;" x="268.625455" xlink:href="#me3c8d92d47" y="307.584"/>
      </g>
     </g>
     <g id="text_4">
      <!-- 60 -->
      <defs>
       <path d="M 33.015625 40.375 
Q 26.375 40.375 22.484375 35.828125 
Q 18.609375 31.296875 18.609375 23.390625 
Q 18.609375 15.53125 22.484375 10.953125 
Q 26.375 6.390625 33.015625 6.390625 
Q 39.65625 6.390625 43.53125 10.953125 
Q 47.40625 15.53125 47.40625 23.390625 
Q 47.40625 31.296875 43.53125 35.828125 
Q 39.65625 40.375 33.015625 40.375 
z
M 52.59375 71.296875 
L 52.59375 62.3125 
Q 48.875 64.0625 45.09375 64.984375 
Q 41.3125 65.921875 37.59375 65.921875 
Q 27.828125 65.921875 22.671875 59.328125 
Q 17.53125 52.734375 16.796875 39.40625 
Q 19.671875 43.65625 24.015625 45.921875 
Q 28.375 48.1875 33.59375 48.1875 
Q 44.578125 48.1875 50.953125 41.515625 
Q 57.328125 34.859375 57.328125 23.390625 
Q 57.328125 12.15625 50.6875 5.359375 
Q 44.046875 -1.421875 33.015625 -1.421875 
Q 20.359375 -1.421875 13.671875 8.265625 
Q 6.984375 17.96875 6.984375 36.375 
Q 6.984375 53.65625 15.1875 63.9375 
Q 23.390625 74.21875 37.203125 74.21875 
Q 40.921875 74.21875 44.703125 73.484375 
Q 48.484375 72.75 52.59375 71.296875 
z
" id="DejaVuSans-54"/>
      </defs>
      <g transform="translate(262.262955 322.182437)scale(0.1 -0.1)">
       <use xlink:href="#DejaVuSans-54"/>
       <use x="63.623047" xlink:href="#DejaVuSans-48"/>
      </g>
     </g>
    </g>
    <g id="xtick_5">
     <g id="line2d_5">
      <g>
       <use style="stroke:#000000;stroke-width:0.8;" x="333.556364" xlink:href="#me3c8d92d47" y="307.584"/>
      </g>
     </g>
     <g id="text_5">
      <!-- 80 -->
      <defs>
       <path d="M 31.78125 34.625 
Q 24.75 34.625 20.71875 30.859375 
Q 16.703125 27.09375 16.703125 20.515625 
Q 16.703125 13.921875 20.71875 10.15625 
Q 24.75 6.390625 31.78125 6.390625 
Q 38.8125 6.390625 42.859375 10.171875 
Q 46.921875 13.96875 46.921875 20.515625 
Q 46.921875 27.09375 42.890625 30.859375 
Q 38.875 34.625 31.78125 34.625 
z
M 21.921875 38.8125 
Q 15.578125 40.375 12.03125 44.71875 
Q 8.5 49.078125 8.5 55.328125 
Q 8.5 64.0625 14.71875 69.140625 
Q 20.953125 74.21875 31.78125 74.21875 
Q 42.671875 74.21875 48.875 69.140625 
Q 55.078125 64.0625 55.078125 55.328125 
Q 55.078125 49.078125 51.53125 44.71875 
Q 48 40.375 41.703125 38.8125 
Q 48.828125 37.15625 52.796875 32.3125 
Q 56.78125 27.484375 56.78125 20.515625 
Q 56.78125 9.90625 50.3125 4.234375 
Q 43.84375 -1.421875 31.78125 -1.421875 
Q 19.734375 -1.421875 13.25 4.234375 
Q 6.78125 9.90625 6.78125 20.515625 
Q 6.78125 27.484375 10.78125 32.3125 
Q 14.796875 37.15625 21.921875 38.8125 
z
M 18.3125 54.390625 
Q 18.3125 48.734375 21.84375 45.5625 
Q 25.390625 42.390625 31.78125 42.390625 
Q 38.140625 42.390625 41.71875 45.5625 
Q 45.3125 48.734375 45.3125 54.390625 
Q 45.3125 60.0625 41.71875 63.234375 
Q 38.140625 66.40625 31.78125 66.40625 
Q 25.390625 66.40625 21.84375 63.234375 
Q 18.3125 60.0625 18.3125 54.390625 
z
" id="DejaVuSans-56"/>
      </defs>
      <g transform="translate(327.193864 322.182437)scale(0.1 -0.1)">
       <use xlink:href="#DejaVuSans-56"/>
       <use x="63.623047" xlink:href="#DejaVuSans-48"/>
      </g>
     </g>
    </g>
    <g id="xtick_6">
     <g id="line2d_6">
      <g>
       <use style="stroke:#000000;stroke-width:0.8;" x="398.487273" xlink:href="#me3c8d92d47" y="307.584"/>
      </g>
     </g>
     <g id="text_6">
      <!-- 100 -->
      <defs>
       <path d="M 12.40625 8.296875 
L 28.515625 8.296875 
L 28.515625 63.921875 
L 10.984375 60.40625 
L 10.984375 69.390625 
L 28.421875 72.90625 
L 38.28125 72.90625 
L 38.28125 8.296875 
L 54.390625 8.296875 
L 54.390625 0 
L 12.40625 0 
z
" id="DejaVuSans-49"/>
      </defs>
      <g transform="translate(388.943523 322.182437)scale(0.1 -0.1)">
       <use xlink:href="#DejaVuSans-49"/>
       <use x="63.623047" xlink:href="#DejaVuSans-48"/>
       <use x="127.246094" xlink:href="#DejaVuSans-48"/>
      </g>
     </g>
    </g>
   </g>
   <g id="matplotlib.axis_2">
    <g id="ytick_1">
     <g id="line2d_7">
      <defs>
       <path d="M 0 0 
L -3.5 0 
" id="m580b08b294" style="stroke:#000000;stroke-width:0.8;"/>
      </defs>
      <g>
       <use style="stroke:#000000;stroke-width:0.8;" x="57.6" xlink:href="#m580b08b294" y="292.409815"/>
      </g>
     </g>
     <g id="text_7">
      <!-- −1 -->
      <defs>
       <path d="M 10.59375 35.5 
L 73.1875 35.5 
L 73.1875 27.203125 
L 10.59375 27.203125 
z
" id="DejaVuSans-8722"/>
      </defs>
      <g transform="translate(35.857813 296.209033)scale(0.1 -0.1)">
       <use xlink:href="#DejaVuSans-8722"/>
       <use x="83.789062" xlink:href="#DejaVuSans-49"/>
      </g>
     </g>
    </g>
    <g id="ytick_2">
     <g id="line2d_8">
      <g>
       <use style="stroke:#000000;stroke-width:0.8;" x="57.6" xlink:href="#m580b08b294" y="257.363854"/>
      </g>
     </g>
     <g id="text_8">
      <!-- 0 -->
      <g transform="translate(44.2375 261.163073)scale(0.1 -0.1)">
       <use xlink:href="#DejaVuSans-48"/>
      </g>
     </g>
    </g>
    <g id="ytick_3">
     <g id="line2d_9">
      <g>
       <use style="stroke:#000000;stroke-width:0.8;" x="57.6" xlink:href="#m580b08b294" y="222.317894"/>
      </g>
     </g>
     <g id="text_9">
      <!-- 1 -->
      <g transform="translate(44.2375 226.117113)scale(0.1 -0.1)">
       <use xlink:href="#DejaVuSans-49"/>
      </g>
     </g>
    </g>
    <g id="ytick_4">
     <g id="line2d_10">
      <g>
       <use style="stroke:#000000;stroke-width:0.8;" x="57.6" xlink:href="#m580b08b294" y="187.271934"/>
      </g>
     </g>
     <g id="text_10">
      <!-- 2 -->
      <g transform="translate(44.2375 191.071153)scale(0.1 -0.1)">
       <use xlink:href="#DejaVuSans-50"/>
      </g>
     </g>
    </g>
    <g id="ytick_5">
     <g id="line2d_11">
      <g>
       <use style="stroke:#000000;stroke-width:0.8;" x="57.6" xlink:href="#m580b08b294" y="152.225974"/>
      </g>
     </g>
     <g id="text_11">
      <!-- 3 -->
      <defs>
       <path d="M 40.578125 39.3125 
Q 47.65625 37.796875 51.625 33 
Q 55.609375 28.21875 55.609375 21.1875 
Q 55.609375 10.40625 48.1875 4.484375 
Q 40.765625 -1.421875 27.09375 -1.421875 
Q 22.515625 -1.421875 17.65625 -0.515625 
Q 12.796875 0.390625 7.625 2.203125 
L 7.625 11.71875 
Q 11.71875 9.328125 16.59375 8.109375 
Q 21.484375 6.890625 26.8125 6.890625 
Q 36.078125 6.890625 40.9375 10.546875 
Q 45.796875 14.203125 45.796875 21.1875 
Q 45.796875 27.640625 41.28125 31.265625 
Q 36.765625 34.90625 28.71875 34.90625 
L 20.21875 34.90625 
L 20.21875 43.015625 
L 29.109375 43.015625 
Q 36.375 43.015625 40.234375 45.921875 
Q 44.09375 48.828125 44.09375 54.296875 
Q 44.09375 59.90625 40.109375 62.90625 
Q 36.140625 65.921875 28.71875 65.921875 
Q 24.65625 65.921875 20.015625 65.03125 
Q 15.375 64.15625 9.8125 62.3125 
L 9.8125 71.09375 
Q 15.4375 72.65625 20.34375 73.4375 
Q 25.25 74.21875 29.59375 74.21875 
Q 40.828125 74.21875 47.359375 69.109375 
Q 53.90625 64.015625 53.90625 55.328125 
Q 53.90625 49.265625 50.4375 45.09375 
Q 46.96875 40.921875 40.578125 39.3125 
z
" id="DejaVuSans-51"/>
      </defs>
      <g transform="translate(44.2375 156.025193)scale(0.1 -0.1)">
       <use xlink:href="#DejaVuSans-51"/>
      </g>
     </g>
    </g>
    <g id="ytick_6">
     <g id="line2d_12">
      <g>
       <use style="stroke:#000000;stroke-width:0.8;" x="57.6" xlink:href="#m580b08b294" y="117.180014"/>
      </g>
     </g>
     <g id="text_12">
      <!-- 4 -->
      <g transform="translate(44.2375 120.979232)scale(0.1 -0.1)">
       <use xlink:href="#DejaVuSans-52"/>
      </g>
     </g>
    </g>
    <g id="ytick_7">
     <g id="line2d_13">
      <g>
       <use style="stroke:#000000;stroke-width:0.8;" x="57.6" xlink:href="#m580b08b294" y="82.134053"/>
      </g>
     </g>
     <g id="text_13">
      <!-- 5 -->
      <defs>
       <path d="M 10.796875 72.90625 
L 49.515625 72.90625 
L 49.515625 64.59375 
L 19.828125 64.59375 
L 19.828125 46.734375 
Q 21.96875 47.46875 24.109375 47.828125 
Q 26.265625 48.1875 28.421875 48.1875 
Q 40.625 48.1875 47.75 41.5 
Q 54.890625 34.8125 54.890625 23.390625 
Q 54.890625 11.625 47.5625 5.09375 
Q 40.234375 -1.421875 26.90625 -1.421875 
Q 22.3125 -1.421875 17.546875 -0.640625 
Q 12.796875 0.140625 7.71875 1.703125 
L 7.71875 11.625 
Q 12.109375 9.234375 16.796875 8.0625 
Q 21.484375 6.890625 26.703125 6.890625 
Q 35.15625 6.890625 40.078125 11.328125 
Q 45.015625 15.765625 45.015625 23.390625 
Q 45.015625 31 40.078125 35.4375 
Q 35.15625 39.890625 26.703125 39.890625 
Q 22.75 39.890625 18.8125 39.015625 
Q 14.890625 38.140625 10.796875 36.28125 
z
" id="DejaVuSans-53"/>
      </defs>
      <g transform="translate(44.2375 85.933272)scale(0.1 -0.1)">
       <use xlink:href="#DejaVuSans-53"/>
      </g>
     </g>
    </g>
    <g id="ytick_8">
     <g id="line2d_14">
      <g>
       <use style="stroke:#000000;stroke-width:0.8;" x="57.6" xlink:href="#m580b08b294" y="47.088093"/>
      </g>
     </g>
     <g id="text_14">
      <!-- 6 -->
      <g transform="translate(44.2375 50.887312)scale(0.1 -0.1)">
       <use xlink:href="#DejaVuSans-54"/>
      </g>
     </g>
    </g>
   </g>
   <g id="line2d_15">
    <path clip-path="url(#p31d7e06645)" d="M 73.832727 222.332414 
L 77.079273 222.18805 
L 80.325818 222.217448 
L 83.572364 222.393875 
L 86.818909 222.696374 
L 90.065455 223.108631 
L 93.312 223.618058 
L 96.558545 224.21506 
L 99.805091 224.892443 
L 103.051636 225.644942 
L 106.298182 226.468836 
L 109.544727 227.361645 
L 112.791273 228.321874 
L 116.037818 229.348812 
L 119.284364 230.442358 
L 122.530909 231.602887 
L 125.777455 232.83112 
L 129.024 234.128025 
L 132.270545 235.494719 
L 135.517091 236.916139 
L 138.763636 238.359736 
L 142.010182 239.812983 
L 145.256727 241.331251 
L 148.503273 243.011515 
L 151.749818 244.83951 
L 154.996364 246.795602 
L 158.242909 248.863798 
L 161.489455 251.004092 
L 164.736 253.176512 
L 167.982545 255.341358 
L 171.229091 257.459536 
L 174.475636 259.492928 
L 177.722182 261.384284 
L 180.968727 263.074686 
L 184.215273 264.532609 
L 187.461818 265.728053 
L 190.708364 266.632276 
L 193.954909 267.237166 
L 197.201455 267.57755 
L 200.448 267.689626 
L 203.694545 267.602956 
L 206.941091 267.368745 
L 210.187636 267.035626 
L 213.434182 266.630322 
L 216.680727 266.15452 
L 219.927273 265.609624 
L 223.173818 264.996786 
L 226.420364 264.316921 
L 229.666909 263.570734 
L 232.913455 262.778967 
L 236.16 261.965674 
L 239.406545 261.129579 
L 242.653091 260.289846 
L 245.899636 259.469132 
L 249.146182 258.674895 
L 252.392727 257.926732 
L 255.639273 257.233322 
L 258.885818 256.590749 
L 262.132364 256.015888 
L 265.378909 255.529276 
L 268.625455 255.126073 
L 271.872 254.801836 
L 275.118545 254.552495 
L 278.365091 254.374335 
L 281.611636 254.263971 
L 284.858182 254.218332 
L 288.104727 254.234637 
L 291.351273 254.310379 
L 294.597818 254.443307 
L 297.844364 254.631409 
L 301.090909 254.872894 
L 304.337455 255.16618 
L 307.584 255.509879 
L 310.830545 255.882281 
L 314.077091 256.258414 
L 317.323636 256.639038 
L 320.570182 257.014629 
L 323.816727 257.373932 
L 327.063273 257.718481 
L 330.309818 258.03945 
L 333.556364 258.326215 
L 336.802909 258.580877 
L 340.049455 258.805372 
L 343.296 259.001487 
L 346.542545 259.170866 
L 349.789091 259.315021 
L 353.035636 259.435339 
L 356.282182 259.533095 
L 359.528727 259.588972 
L 362.775273 259.58014 
L 366.021818 259.50924 
L 369.268364 259.399133 
L 372.514909 259.275854 
L 375.761455 259.139644 
L 379.008 258.990703 
L 382.254545 258.829193 
L 385.501091 258.655238 
L 388.747636 258.468926 
L 391.994182 258.270316 
L 395.240727 258.05943 
L 398.487273 257.846526 
" style="fill:none;stroke:#1f77b4;stroke-linecap:square;stroke-width:1.5;"/>
   </g>
   <g id="line2d_16">
    <path clip-path="url(#p31d7e06645)" d="M 73.832727 225.007575 
L 77.079273 224.840872 
L 80.325818 224.880158 
L 83.572364 225.093781 
L 86.818909 225.456869 
L 90.065455 225.949999 
L 93.312 226.558115 
L 96.558545 227.26967 
L 99.805091 228.075916 
L 103.051636 228.97035 
L 106.298182 229.94825 
L 109.544727 231.006307 
L 112.791273 232.142318 
L 116.037818 233.35494 
L 119.284364 234.643472 
L 122.530909 236.007686 
L 125.777455 237.431253 
L 129.024 238.880417 
L 132.270545 240.329941 
L 135.517091 241.89098 
L 138.763636 243.5986 
L 142.010182 245.433264 
L 145.256727 247.379103 
L 148.503273 249.416361 
L 151.749818 251.528979 
L 154.996364 253.676483 
L 158.242909 255.818796 
L 161.489455 257.906299 
L 164.736 259.878478 
L 167.982545 261.687408 
L 171.229091 263.299631 
L 174.475636 264.683312 
L 177.722182 265.808122 
L 180.968727 266.644953 
L 184.215273 267.205077 
L 187.461818 267.526213 
L 190.708364 267.619612 
L 193.954909 267.514746 
L 197.201455 267.262755 
L 200.448 266.912229 
L 203.694545 266.489841 
L 206.941091 265.997214 
L 210.187636 265.435696 
L 213.434182 264.806382 
L 216.680727 264.110141 
L 219.927273 263.347635 
L 223.173818 262.539588 
L 226.420364 261.710046 
L 229.666909 260.857696 
L 232.913455 260.001689 
L 236.16 259.164663 
L 239.406545 258.354047 
L 242.653091 257.589412 
L 245.899636 256.879398 
L 249.146182 256.240571 
L 252.392727 255.693179 
L 255.639273 255.232105 
L 258.885818 254.852644 
L 262.132364 254.550481 
L 265.378909 254.321666 
L 268.625455 254.162597 
L 271.872 254.069996 
L 275.118545 254.04089 
L 278.365091 254.072591 
L 281.611636 254.16268 
L 284.858182 254.308984 
L 288.104727 254.509568 
L 291.351273 254.762711 
L 294.597818 255.066895 
L 297.844364 255.420793 
L 301.090909 255.802753 
L 304.337455 256.187858 
L 307.584 256.576913 
L 310.830545 256.960439 
L 314.077091 257.32722 
L 317.323636 257.678828 
L 320.570182 258.00647 
L 323.816727 258.299554 
L 327.063273 258.560209 
L 330.309818 258.790402 
L 333.556364 258.991944 
L 336.802909 259.166503 
L 340.049455 259.315614 
L 343.296 259.440687 
L 346.542545 259.543015 
L 349.789091 259.603299 
L 353.035636 259.59873 
L 356.282182 259.531965 
L 359.528727 259.405392 
L 362.775273 259.241647 
L 366.021818 259.066552 
L 369.268364 258.880148 
L 372.514909 258.682446 
L 375.761455 258.473431 
L 379.008 258.253062 
L 382.254545 258.021271 
L 385.501091 257.788228 
L 388.747636 257.565791 
L 391.994182 257.352989 
L 395.240727 257.148912 
L 398.487273 256.962975 
" style="fill:none;stroke:#ff7f0e;stroke-linecap:square;stroke-width:1.5;"/>
   </g>
   <g id="line2d_17">
    <path clip-path="url(#p31d7e06645)" d="M 73.832727 284.477305 
L 77.079273 284.656651 
L 80.325818 284.579051 
L 83.572364 284.264597 
L 86.818909 283.729359 
L 90.065455 282.985918 
L 93.312 282.043838 
L 96.558545 280.910106 
L 99.805091 279.589527 
L 103.051636 278.085105 
L 106.298182 276.398395 
L 109.544727 274.529862 
L 112.791273 272.433829 
L 116.037818 270.163365 
L 119.284364 267.865208 
L 122.530909 265.598266 
L 125.777455 263.408314 
L 129.024 261.353293 
L 132.270545 259.459752 
L 135.517091 257.737362 
L 138.763636 256.199833 
L 142.010182 254.835837 
L 145.256727 253.634747 
L 148.503273 252.607042 
L 151.749818 251.767217 
L 154.996364 251.104989 
L 158.242909 250.610975 
L 161.489455 250.296803 
L 164.736 250.178268 
L 167.982545 250.246883 
L 171.229091 250.495174 
L 174.475636 250.896457 
L 177.722182 251.42147 
L 180.968727 252.066777 
L 184.215273 252.809114 
L 187.461818 253.622165 
L 190.708364 254.484855 
L 193.954909 255.372795 
L 197.201455 256.266702 
L 200.448 257.133563 
L 203.694545 257.964215 
L 206.941091 258.751888 
L 210.187636 259.467383 
L 213.434182 260.090728 
L 216.680727 260.627291 
L 219.927273 261.082014 
L 223.173818 261.439036 
L 226.420364 261.678748 
L 229.666909 261.806641 
L 232.913455 261.827675 
L 236.16 261.746309 
L 239.406545 261.56653 
L 242.653091 261.312273 
L 245.899636 261.01049 
L 249.146182 260.662352 
L 252.392727 260.268867 
L 255.639273 259.83089 
L 258.885818 259.369614 
L 262.132364 258.909539 
L 265.378909 258.449495 
L 268.625455 257.998622 
L 271.872 257.56782 
L 275.118545 257.165489 
L 278.365091 256.80186 
L 281.611636 256.474464 
L 284.858182 256.181019 
L 288.104727 255.919419 
L 291.351273 255.687718 
L 294.597818 255.504622 
L 297.844364 255.392388 
L 301.090909 255.34782 
L 304.337455 255.36802 
L 307.584 255.450376 
L 310.830545 255.592537 
L 314.077091 255.771899 
L 317.323636 255.962664 
L 320.570182 256.164827 
L 323.816727 256.378409 
L 327.063273 256.603459 
L 330.309818 256.82979 
L 333.556364 257.045527 
L 336.802909 257.251626 
L 340.049455 257.448978 
L 343.296 257.638417 
L 346.542545 257.810464 
L 349.789091 257.953878 
L 353.035636 258.070185 
L 356.282182 258.16078 
L 359.528727 258.22694 
L 362.775273 258.269829 
L 366.021818 258.29051 
L 369.268364 258.289944 
L 372.514909 258.269006 
L 375.761455 258.228481 
L 379.008 258.169078 
L 382.254545 258.09143 
L 385.501091 257.996099 
L 388.747636 257.883581 
L 391.994182 257.764574 
L 395.240727 257.651426 
L 398.487273 257.543622 
" style="fill:none;stroke:#2ca02c;stroke-linecap:square;stroke-width:1.5;"/>
   </g>
   <g id="line2d_18">
    <path clip-path="url(#p31d7e06645)" d="M 73.832727 295.04488 
L 77.079273 295.336295 
L 80.325818 295.479417 
L 83.572364 295.488 
L 86.818909 295.373098 
L 90.065455 295.143412 
L 93.312 294.805589 
L 96.558545 294.364475 
L 99.805091 293.823329 
L 103.051636 293.184005 
L 106.298182 292.447108 
L 109.544727 291.612126 
L 112.791273 290.677547 
L 116.037818 289.640961 
L 119.284364 288.499151 
L 122.530909 287.24818 
L 125.777455 285.883481 
L 129.024 284.399943 
L 132.270545 282.792009 
L 135.517091 281.053785 
L 138.763636 279.17917 
L 142.010182 277.162 
L 145.256727 274.996231 
L 148.503273 272.641942 
L 151.749818 270.1638 
L 154.996364 267.731568 
L 158.242909 265.378862 
L 161.489455 263.140073 
L 164.736 261.049772 
L 167.982545 259.121742 
L 171.229091 257.365518 
L 174.475636 255.794664 
L 177.722182 254.397694 
L 180.968727 253.184264 
L 184.215273 252.168058 
L 187.461818 251.337939 
L 190.708364 250.683682 
L 193.954909 250.216106 
L 197.201455 249.950208 
L 200.448 249.876729 
L 203.694545 249.98747 
L 206.941091 250.275228 
L 210.187636 250.713602 
L 213.434182 251.273591 
L 216.680727 251.951967 
L 219.927273 252.725667 
L 223.173818 253.568555 
L 226.420364 254.459708 
L 229.666909 255.374877 
L 232.913455 256.294896 
L 236.16 257.186863 
L 239.406545 258.041718 
L 242.653091 258.852785 
L 245.899636 259.590959 
L 249.146182 260.236362 
L 252.392727 260.794445 
L 255.639273 261.270235 
L 258.885818 261.647958 
L 262.132364 261.908097 
L 265.378909 262.056217 
L 268.625455 262.097345 
L 271.872 262.036001 
L 275.118545 261.876233 
L 278.365091 261.621643 
L 281.611636 261.295804 
L 284.858182 260.925343 
L 288.104727 260.511133 
L 291.351273 260.053905 
L 294.597818 259.574728 
L 297.844364 259.097989 
L 301.090909 258.622425 
L 304.337455 258.157089 
L 307.584 257.712799 
L 310.830545 257.297884 
L 314.077091 256.922506 
L 317.323636 256.584136 
L 320.570182 256.280434 
L 323.816727 256.009239 
L 327.063273 255.768556 
L 330.309818 255.577047 
L 333.556364 255.456927 
L 336.802909 255.404958 
L 340.049455 255.418207 
L 343.296 255.494023 
L 346.542545 255.630022 
L 349.789091 255.803568 
L 353.035636 255.988834 
L 356.282182 256.185787 
L 359.528727 256.394425 
L 362.775273 256.614773 
L 366.021818 256.836622 
L 369.268364 257.048079 
L 372.514909 257.250079 
L 375.761455 257.443497 
L 379.008 257.629151 
L 382.254545 257.797546 
L 385.501091 257.937428 
L 388.747636 258.050307 
L 391.994182 258.137568 
L 395.240727 258.200475 
L 398.487273 258.240181 
" style="fill:none;stroke:#d62728;stroke-linecap:square;stroke-width:1.5;"/>
   </g>
   <g id="line2d_19">
    <path clip-path="url(#p31d7e06645)" d="M 73.832727 268.762514 
L 77.079273 268.730707 
L 80.325818 268.576906 
L 83.572364 268.325069 
L 86.818909 268.001875 
L 90.065455 267.609209 
L 93.312 267.148657 
L 96.558545 266.621534 
L 99.805091 266.028905 
L 103.051636 265.371603 
L 106.298182 264.650256 
L 109.544727 263.8653 
L 112.791273 263.037202 
L 116.037818 262.189766 
L 119.284364 261.321525 
L 122.530909 260.45146 
L 125.777455 259.602058 
L 129.024 258.780634 
L 132.270545 258.006658 
L 135.517091 257.288686 
L 138.763636 256.622694 
L 142.010182 256.025455 
L 145.256727 255.51741 
L 148.503273 255.093626 
L 151.749818 254.749572 
L 154.996364 254.481096 
L 158.242909 254.284407 
L 161.489455 254.156046 
L 164.736 254.092873 
L 167.982545 254.092043 
L 171.229091 254.150988 
L 174.475636 254.267401 
L 177.722182 254.439217 
L 180.968727 254.664595 
L 184.215273 254.941908 
L 187.461818 255.269723 
L 190.708364 255.626299 
L 193.954909 255.986635 
L 197.201455 256.351451 
L 200.448 256.72145 
L 203.694545 257.087051 
L 206.941091 257.43695 
L 210.187636 257.772633 
L 213.434182 258.085231 
L 216.680727 258.36408 
L 219.927273 258.611243 
L 223.173818 258.828622 
L 226.420364 259.017969 
L 229.666909 259.180899 
L 232.913455 259.318894 
L 236.16 259.433316 
L 239.406545 259.525413 
L 242.653091 259.575844 
L 245.899636 259.561758 
L 249.146182 259.506258 
L 252.392727 259.4356 
L 255.639273 259.350237 
L 258.885818 259.250564 
L 262.132364 259.136928 
L 265.378909 259.009626 
L 268.625455 258.868911 
L 271.872 258.714991 
L 275.118545 258.548036 
L 278.365091 258.368178 
L 281.611636 258.175511 
L 284.858182 257.980355 
L 288.104727 257.794708 
L 291.351273 257.617732 
L 294.597818 257.448647 
L 297.844364 257.286719 
L 301.090909 257.131267 
L 304.337455 256.981648 
L 307.584 256.847526 
L 310.830545 256.740308 
L 314.077091 256.658627 
L 317.323636 256.601237 
L 320.570182 256.566999 
L 323.816727 256.554879 
L 327.063273 256.563937 
L 330.309818 256.593324 
L 333.556364 256.642276 
L 336.802909 256.710105 
L 340.049455 256.796199 
L 343.296 256.900016 
L 346.542545 257.010814 
L 349.789091 257.116207 
L 353.035636 257.216669 
L 356.282182 257.312645 
L 359.528727 257.404551 
L 362.775273 257.492774 
L 366.021818 257.577679 
L 369.268364 257.659606 
L 372.514909 257.738874 
L 375.761455 257.815784 
L 379.008 257.890618 
L 382.254545 257.953379 
L 385.501091 257.992349 
L 388.747636 258.008599 
L 391.994182 258.003104 
L 395.240727 257.976745 
L 398.487273 257.930317 
" style="fill:none;stroke:#9467bd;stroke-linecap:square;stroke-width:1.5;"/>
   </g>
   <g id="line2d_20">
    <path clip-path="url(#p31d7e06645)" d="M 73.832727 253.062956 
L 77.079273 253.034386 
L 80.325818 253.063983 
L 83.572364 253.149431 
L 86.818909 253.288656 
L 90.065455 253.479809 
L 93.312 253.721252 
L 96.558545 254.011543 
L 99.805091 254.349423 
L 103.051636 254.733803 
L 106.298182 255.163751 
L 109.544727 255.617994 
L 112.791273 256.071959 
L 116.037818 256.52676 
L 119.284364 256.973207 
L 122.530909 257.400352 
L 125.777455 257.799754 
L 129.024 258.161147 
L 132.270545 258.486968 
L 135.517091 258.779468 
L 138.763636 259.040728 
L 142.010182 259.272668 
L 145.256727 259.456565 
L 148.503273 259.570154 
L 151.749818 259.616612 
L 154.996364 259.59882 
L 158.242909 259.519375 
L 161.489455 259.380613 
L 164.736 259.205118 
L 167.982545 259.018668 
L 171.229091 258.82126 
L 174.475636 258.612863 
L 177.722182 258.393425 
L 180.968727 258.162866 
L 184.215273 257.931347 
L 187.461818 257.710715 
L 190.708364 257.499991 
L 193.954909 257.298262 
L 197.201455 257.104673 
L 200.448 256.928684 
L 203.694545 256.781517 
L 206.941091 256.66163 
L 210.187636 256.567612 
L 213.434182 256.498172 
L 216.680727 256.452131 
L 219.927273 256.428415 
L 223.173818 256.426048 
L 226.420364 256.444147 
L 229.666909 256.481913 
L 232.913455 256.538629 
L 236.16 256.613653 
L 239.406545 256.706412 
L 242.653091 256.816403 
L 245.899636 256.932921 
L 249.146182 257.043609 
L 252.392727 257.148976 
L 255.639273 257.249491 
L 258.885818 257.345598 
L 262.132364 257.437707 
L 265.378909 257.526206 
L 268.625455 257.611456 
L 271.872 257.693794 
L 275.118545 257.773539 
L 278.365091 257.85099 
L 281.611636 257.916165 
L 284.858182 257.957359 
L 288.104727 257.975659 
L 291.351273 257.972049 
L 294.597818 257.947423 
L 297.844364 257.902584 
L 301.090909 257.838257 
L 304.337455 257.765349 
L 307.584 257.696405 
L 310.830545 257.631097 
L 314.077091 257.569117 
L 317.323636 257.51018 
L 320.570182 257.454019 
L 323.816727 257.400385 
L 327.063273 257.349045 
L 330.309818 257.29978 
L 333.556364 257.252388 
L 336.802909 257.206677 
L 340.049455 257.162468 
L 343.296 257.119593 
L 346.542545 257.077894 
L 349.789091 257.037223 
L 353.035636 256.997439 
L 356.282182 256.95841 
L 359.528727 256.920011 
L 362.775273 256.882125 
L 366.021818 256.844638 
L 369.268364 256.807444 
L 372.514909 256.770443 
L 375.761455 256.743796 
L 379.008 256.739383 
L 382.254545 256.756277 
L 385.501091 256.793642 
L 388.747636 256.850728 
L 391.994182 256.92686 
L 395.240727 257.011178 
L 398.487273 257.09118 
" style="fill:none;stroke:#8c564b;stroke-linecap:square;stroke-width:1.5;"/>
   </g>
   <g id="line2d_21">
    <path clip-path="url(#p31d7e06645)" d="M 73.832727 273.842254 
L 77.079273 273.940119 
L 80.325818 273.931302 
L 83.572364 273.838453 
L 86.818909 273.576853 
L 90.065455 273.056212 
L 93.312 272.34697 
L 96.558545 271.475485 
L 99.805091 270.444051 
L 103.051636 269.273387 
L 106.298182 268.006561 
L 109.544727 266.646389 
L 112.791273 265.207585 
L 116.037818 263.756497 
L 119.284364 262.333888 
L 122.530909 260.959309 
L 125.777455 259.64783 
L 129.024 258.418355 
L 132.270545 257.285118 
L 135.517091 256.266191 
L 138.763636 255.354394 
L 142.010182 254.56354 
L 145.256727 253.911298 
L 148.503273 253.390218 
L 151.749818 252.993481 
L 154.996364 252.714872 
L 158.242909 252.548749 
L 161.489455 252.490013 
L 164.736 252.534077 
L 167.982545 252.676833 
L 171.229091 252.914621 
L 174.475636 253.244195 
L 177.722182 253.662692 
L 180.968727 254.147186 
L 184.215273 254.671628 
L 187.461818 255.235716 
L 190.708364 255.818758 
L 193.954909 256.396711 
L 197.201455 256.96093 
L 200.448 257.500974 
L 203.694545 258.008873 
L 206.941091 258.474807 
L 210.187636 258.901627 
L 213.434182 259.291979 
L 216.680727 259.627822 
L 219.927273 259.887536 
L 223.173818 260.074912 
L 226.420364 260.193401 
L 229.666909 260.246139 
L 232.913455 260.235966 
L 236.16 260.165446 
L 239.406545 260.03688 
L 242.653091 259.85233 
L 245.899636 259.613629 
L 249.146182 259.342887 
L 252.392727 259.065443 
L 255.639273 258.780897 
L 258.885818 258.488849 
L 262.132364 258.188899 
L 265.378909 257.890906 
L 268.625455 257.606436 
L 271.872 257.33425 
L 275.118545 257.073188 
L 278.365091 256.832426 
L 281.611636 256.622918 
L 284.858182 256.442871 
L 288.104727 256.290638 
L 291.351273 256.164707 
L 294.597818 256.06369 
L 297.844364 255.986318 
L 301.090909 255.931431 
L 304.337455 255.897969 
L 307.584 255.884972 
L 310.830545 255.891564 
L 314.077091 255.916957 
L 317.323636 255.960439 
L 320.570182 256.021371 
L 323.816727 256.099184 
L 327.063273 256.193372 
L 330.309818 256.30349 
L 333.556364 256.42915 
L 336.802909 256.570017 
L 340.049455 256.725806 
L 343.296 256.88602 
L 346.542545 257.038495 
L 349.789091 257.183917 
L 353.035636 257.322924 
L 356.282182 257.456116 
L 359.528727 257.584051 
L 362.775273 257.707254 
L 366.021818 257.826216 
L 369.268364 257.931135 
L 372.514909 258.010475 
L 375.761455 258.065479 
L 379.008 258.097282 
L 382.254545 258.106913 
L 385.501091 258.09531 
L 388.747636 258.063316 
L 391.994182 258.011693 
L 395.240727 257.941125 
L 398.487273 257.852219 
" style="fill:none;stroke:#e377c2;stroke-linecap:square;stroke-width:1.5;"/>
   </g>
   <g id="line2d_22">
    <path clip-path="url(#p31d7e06645)" d="M 73.832727 235.105036 
L 77.079273 235.040061 
L 80.325818 235.264781 
L 83.572364 235.736099 
L 86.818909 236.419732 
L 90.065455 237.288474 
L 93.312 238.320768 
L 96.558545 239.499538 
L 99.805091 240.827586 
L 103.051636 242.377236 
L 106.298182 244.117721 
L 109.544727 246.009247 
L 112.791273 248.031699 
L 116.037818 250.168669 
L 119.284364 252.359356 
L 122.530909 254.539465 
L 125.777455 256.670263 
L 129.024 258.713848 
L 132.270545 260.633519 
L 135.517091 262.394065 
L 138.763636 263.961931 
L 142.010182 265.305242 
L 145.256727 266.373692 
L 148.503273 267.134872 
L 151.749818 267.604916 
L 154.996364 267.81769 
L 158.242909 267.808474 
L 161.489455 267.625658 
L 164.736 267.323029 
L 167.982545 266.92416 
L 171.229091 266.455461 
L 174.475636 265.918323 
L 177.722182 265.313881 
L 180.968727 264.643037 
L 184.215273 263.906483 
L 187.461818 263.104718 
L 190.708364 262.258345 
L 193.954909 261.391306 
L 197.201455 260.522571 
L 200.448 259.674619 
L 203.694545 258.854761 
L 206.941091 258.072208 
L 210.187636 257.333806 
L 213.434182 256.648332 
L 216.680727 256.032475 
L 219.927273 255.506595 
L 223.173818 255.065683 
L 226.420364 254.705134 
L 229.666909 254.420731 
L 232.913455 254.208613 
L 236.16 254.065265 
L 239.406545 253.987488 
L 242.653091 253.972383 
L 245.899636 254.017332 
L 249.146182 254.119981 
L 252.392727 254.27822 
L 255.639273 254.490167 
L 258.885818 254.754157 
L 262.132364 255.06872 
L 265.378909 255.432574 
L 268.625455 255.82411 
L 271.872 256.218449 
L 275.118545 256.616432 
L 278.365091 257.008614 
L 281.611636 257.383812 
L 284.858182 257.743625 
L 288.104727 258.079292 
L 291.351273 258.380246 
L 294.597818 258.648644 
L 297.844364 258.886475 
L 301.090909 259.095575 
L 304.337455 259.277632 
L 307.584 259.434204 
L 310.830545 259.546232 
L 314.077091 259.591135 
L 317.323636 259.571785 
L 320.570182 259.490779 
L 323.816727 259.350449 
L 327.063273 259.173376 
L 330.309818 258.985334 
L 333.556364 258.786319 
L 336.802909 258.576297 
L 340.049455 258.35521 
L 343.296 258.12298 
L 346.542545 257.889761 
L 349.789091 257.667399 
L 353.035636 257.454912 
L 356.282182 257.251385 
L 359.528727 257.055957 
L 362.775273 256.878089 
L 366.021818 256.728998 
L 369.268364 256.607139 
L 372.514909 256.5111 
L 375.761455 256.439584 
L 379.008 256.39141 
L 382.254545 256.365503 
L 385.501091 256.360882 
L 388.747636 256.376661 
L 391.994182 256.41204 
L 395.240727 256.466298 
L 398.487273 256.53879 
" style="fill:none;stroke:#7f7f7f;stroke-linecap:square;stroke-width:1.5;"/>
   </g>
   <g id="line2d_23">
    <path clip-path="url(#p31d7e06645)" d="M 73.832727 206.173329 
L 77.079273 205.937378 
L 80.325818 205.700862 
L 83.572364 205.461086 
L 86.818909 205.215733 
L 90.065455 204.962787 
L 93.312 204.700459 
L 96.558545 204.427129 
L 99.805091 204.141305 
L 103.051636 203.841583 
L 106.298182 203.526621 
L 109.544727 203.195111 
L 112.791273 202.845761 
L 116.037818 202.477279 
L 119.284364 202.088359 
L 122.530909 201.677672 
L 125.777455 201.24385 
L 129.024 200.785487 
L 132.270545 200.301125 
L 135.517091 199.789253 
L 138.763636 199.248301 
L 142.010182 198.676635 
L 145.256727 198.072555 
L 148.503273 197.434292 
L 151.749818 196.76001 
L 154.996364 196.047802 
L 158.242909 195.295691 
L 161.489455 194.501634 
L 164.736 193.663526 
L 167.982545 192.7792 
L 171.229091 191.846438 
L 174.475636 190.976614 
L 177.722182 190.294079 
L 180.968727 189.778053 
L 184.215273 189.408981 
L 187.461818 189.031984 
L 190.708364 188.489075 
L 193.954909 187.800704 
L 197.201455 186.97958 
L 200.448 185.961852 
L 203.694545 184.896409 
L 206.941091 184.004135 
L 210.187636 183.288759 
L 213.434182 182.751692 
L 216.680727 182.184504 
L 219.927273 181.336573 
L 223.173818 180.212084 
L 226.420364 178.812855 
L 229.666909 177.384581 
L 232.913455 176.229928 
L 236.16 175.350452 
L 239.406545 174.744504 
L 242.653091 174.130495 
L 245.899636 173.173787 
L 249.146182 171.882265 
L 252.392727 170.261686 
L 255.639273 168.579064 
L 258.885818 167.208218 
L 262.132364 166.208905 
L 265.378909 165.57479 
L 268.625455 164.958004 
L 271.872 163.949561 
L 275.118545 162.561928 
L 278.365091 160.806208 
L 281.611636 158.692761 
L 284.858182 156.603344 
L 288.104727 154.990627 
L 291.351273 153.84404 
L 294.597818 153.150381 
L 297.844364 152.509915 
L 301.090909 151.457923 
L 304.337455 150.01198 
L 307.584 148.189834 
L 310.830545 146.009955 
L 314.077091 143.492158 
L 317.323636 141.044888 
L 320.570182 138.753015 
L 323.816727 136.156849 
L 327.063273 133.283307 
L 330.309818 130.162171 
L 333.556364 126.826351 
L 336.802909 123.311953 
L 340.049455 119.658144 
L 343.296 115.906766 
L 346.542545 112.101718 
L 349.789091 108.288125 
L 353.035636 104.511341 
L 356.282182 100.815873 
L 359.528727 97.244302 
L 362.775273 93.836281 
L 366.021818 90.627693 
L 369.268364 87.636662 
L 372.514909 84.851542 
L 375.761455 82.218319 
L 379.008 79.714408 
L 382.254545 77.392035 
L 385.501091 75.241678 
L 388.747636 73.254055 
L 391.994182 71.420176 
L 395.240727 69.73139 
L 398.487273 68.179411 
" style="fill:none;stroke:#bcbd22;stroke-linecap:square;stroke-width:1.5;"/>
   </g>
   <g id="line2d_24">
    <path clip-path="url(#p31d7e06645)" d="M 73.832727 198.381991 
L 77.079273 198.081301 
L 80.325818 197.796685 
L 83.572364 197.529031 
L 86.818909 197.278889 
L 90.065455 197.046522 
L 93.312 196.831941 
L 96.558545 196.575568 
L 99.805091 196.214135 
L 103.051636 195.826528 
L 106.298182 195.494967 
L 109.544727 195.140942 
L 112.791273 194.759149 
L 116.037818 194.445122 
L 119.284364 194.10736 
L 122.530909 193.650236 
L 125.777455 193.087428 
L 129.024 192.429391 
L 132.270545 191.790943 
L 135.517091 191.294684 
L 138.763636 190.806755 
L 142.010182 190.311308 
L 145.256727 189.825596 
L 148.503273 189.198846 
L 151.749818 188.446721 
L 154.996364 187.581278 
L 158.242909 186.753301 
L 161.489455 186.077303 
L 164.736 185.368992 
L 167.982545 184.599237 
L 171.229091 183.803872 
L 174.475636 182.752216 
L 177.722182 181.654742 
L 180.968727 180.769794 
L 184.215273 179.872341 
L 187.461818 178.923255 
L 190.708364 178.211786 
L 193.954909 177.487514 
L 197.201455 176.449598 
L 200.448 175.29848 
L 203.694545 174.0733 
L 206.941091 172.530463 
L 210.187636 170.969253 
L 213.434182 169.752811 
L 216.680727 168.87886 
L 219.927273 168.341746 
L 223.173818 167.810767 
L 226.420364 166.896916 
L 229.666909 165.611791 
L 232.913455 163.965233 
L 236.16 161.96591 
L 239.406545 159.980623 
L 242.653091 158.447097 
L 245.899636 157.357027 
L 249.146182 156.69911 
L 252.392727 156.08353 
L 255.639273 155.055781 
L 258.885818 153.632184 
L 262.132364 151.82876 
L 265.378909 149.661821 
L 268.625455 147.148647 
L 271.872 144.697932 
L 275.118545 142.39358 
L 278.365091 139.768643 
L 281.611636 136.847795 
L 284.858182 133.658619 
L 288.104727 130.232028 
L 291.351273 126.602515 
L 294.597818 122.808174 
L 297.844364 118.890469 
L 301.090909 114.893719 
L 304.337455 110.864316 
L 307.584 106.84972 
L 310.830545 102.897297 
L 314.077091 99.053102 
L 317.323636 95.360692 
L 320.570182 91.860087 
L 323.816727 88.586919 
L 327.063273 85.547144 
L 330.309818 82.714512 
L 333.556364 80.022981 
L 336.802909 77.447593 
L 340.049455 75.05464 
L 343.296 72.834155 
L 346.542545 70.77644 
L 349.789091 68.872127 
L 353.035636 67.112215 
L 356.282182 65.488099 
L 359.528727 63.991589 
L 362.775273 62.614919 
L 366.021818 61.350746 
L 369.268364 60.19215 
L 372.514909 59.132623 
L 375.761455 58.16606 
L 379.008 57.286746 
L 382.254545 56.489338 
L 385.501091 55.768852 
L 388.747636 55.120644 
L 391.994182 54.540393 
L 395.240727 54.024086 
L 398.487273 53.568 
" style="fill:none;stroke:#17becf;stroke-linecap:square;stroke-width:1.5;"/>
   </g>
   <g id="patch_3">
    <path d="M 57.6 307.584 
L 57.6 41.472 
" style="fill:none;stroke:#000000;stroke-linecap:square;stroke-linejoin:miter;stroke-width:0.8;"/>
   </g>
   <g id="patch_4">
    <path d="M 414.72 307.584 
L 414.72 41.472 
" style="fill:none;stroke:#000000;stroke-linecap:square;stroke-linejoin:miter;stroke-width:0.8;"/>
   </g>
   <g id="patch_5">
    <path d="M 57.6 307.584 
L 414.72 307.584 
" style="fill:none;stroke:#000000;stroke-linecap:square;stroke-linejoin:miter;stroke-width:0.8;"/>
   </g>
   <g id="patch_6">
    <path d="M 57.6 41.472 
L 414.72 41.472 
" style="fill:none;stroke:#000000;stroke-linecap:square;stroke-linejoin:miter;stroke-width:0.8;"/>
   </g>
   <g id="legend_1">
    <g id="patch_7">
     <path d="M 301.730938 250.80925 
L 407.72 250.80925 
Q 409.72 250.80925 409.72 248.80925 
L 409.72 100.24675 
Q 409.72 98.24675 407.72 98.24675 
L 301.730938 98.24675 
Q 299.730938 98.24675 299.730938 100.24675 
L 299.730938 248.80925 
Q 299.730938 250.80925 301.730938 250.80925 
z
" style="fill:#ffffff;opacity:0.8;stroke:#cccccc;stroke-linejoin:miter;"/>
    </g>
    <g id="line2d_25">
     <path d="M 303.730938 106.345187 
L 323.730938 106.345187 
" style="fill:none;stroke:#1f77b4;stroke-linecap:square;stroke-width:1.5;"/>
    </g>
    <g id="line2d_26"/>
    <g id="text_15">
     <!-- MPC dataset_0 -->
     <defs>
      <path d="M 9.8125 72.90625 
L 24.515625 72.90625 
L 43.109375 23.296875 
L 61.8125 72.90625 
L 76.515625 72.90625 
L 76.515625 0 
L 66.890625 0 
L 66.890625 64.015625 
L 48.09375 14.015625 
L 38.1875 14.015625 
L 19.390625 64.015625 
L 19.390625 0 
L 9.8125 0 
z
" id="DejaVuSans-77"/>
      <path d="M 19.671875 64.796875 
L 19.671875 37.40625 
L 32.078125 37.40625 
Q 38.96875 37.40625 42.71875 40.96875 
Q 46.484375 44.53125 46.484375 51.125 
Q 46.484375 57.671875 42.71875 61.234375 
Q 38.96875 64.796875 32.078125 64.796875 
z
M 9.8125 72.90625 
L 32.078125 72.90625 
Q 44.34375 72.90625 50.609375 67.359375 
Q 56.890625 61.8125 56.890625 51.125 
Q 56.890625 40.328125 50.609375 34.8125 
Q 44.34375 29.296875 32.078125 29.296875 
L 19.671875 29.296875 
L 19.671875 0 
L 9.8125 0 
z
" id="DejaVuSans-80"/>
      <path d="M 64.40625 67.28125 
L 64.40625 56.890625 
Q 59.421875 61.53125 53.78125 63.8125 
Q 48.140625 66.109375 41.796875 66.109375 
Q 29.296875 66.109375 22.65625 58.46875 
Q 16.015625 50.828125 16.015625 36.375 
Q 16.015625 21.96875 22.65625 14.328125 
Q 29.296875 6.6875 41.796875 6.6875 
Q 48.140625 6.6875 53.78125 8.984375 
Q 59.421875 11.28125 64.40625 15.921875 
L 64.40625 5.609375 
Q 59.234375 2.09375 53.4375 0.328125 
Q 47.65625 -1.421875 41.21875 -1.421875 
Q 24.65625 -1.421875 15.125 8.703125 
Q 5.609375 18.84375 5.609375 36.375 
Q 5.609375 53.953125 15.125 64.078125 
Q 24.65625 74.21875 41.21875 74.21875 
Q 47.75 74.21875 53.53125 72.484375 
Q 59.328125 70.75 64.40625 67.28125 
z
" id="DejaVuSans-67"/>
      <path id="DejaVuSans-32"/>
      <path d="M 45.40625 46.390625 
L 45.40625 75.984375 
L 54.390625 75.984375 
L 54.390625 0 
L 45.40625 0 
L 45.40625 8.203125 
Q 42.578125 3.328125 38.25 0.953125 
Q 33.9375 -1.421875 27.875 -1.421875 
Q 17.96875 -1.421875 11.734375 6.484375 
Q 5.515625 14.40625 5.515625 27.296875 
Q 5.515625 40.1875 11.734375 48.09375 
Q 17.96875 56 27.875 56 
Q 33.9375 56 38.25 53.625 
Q 42.578125 51.265625 45.40625 46.390625 
z
M 14.796875 27.296875 
Q 14.796875 17.390625 18.875 11.75 
Q 22.953125 6.109375 30.078125 6.109375 
Q 37.203125 6.109375 41.296875 11.75 
Q 45.40625 17.390625 45.40625 27.296875 
Q 45.40625 37.203125 41.296875 42.84375 
Q 37.203125 48.484375 30.078125 48.484375 
Q 22.953125 48.484375 18.875 42.84375 
Q 14.796875 37.203125 14.796875 27.296875 
z
" id="DejaVuSans-100"/>
      <path d="M 34.28125 27.484375 
Q 23.390625 27.484375 19.1875 25 
Q 14.984375 22.515625 14.984375 16.5 
Q 14.984375 11.71875 18.140625 8.90625 
Q 21.296875 6.109375 26.703125 6.109375 
Q 34.1875 6.109375 38.703125 11.40625 
Q 43.21875 16.703125 43.21875 25.484375 
L 43.21875 27.484375 
z
M 52.203125 31.203125 
L 52.203125 0 
L 43.21875 0 
L 43.21875 8.296875 
Q 40.140625 3.328125 35.546875 0.953125 
Q 30.953125 -1.421875 24.3125 -1.421875 
Q 15.921875 -1.421875 10.953125 3.296875 
Q 6 8.015625 6 15.921875 
Q 6 25.140625 12.171875 29.828125 
Q 18.359375 34.515625 30.609375 34.515625 
L 43.21875 34.515625 
L 43.21875 35.40625 
Q 43.21875 41.609375 39.140625 45 
Q 35.0625 48.390625 27.6875 48.390625 
Q 23 48.390625 18.546875 47.265625 
Q 14.109375 46.140625 10.015625 43.890625 
L 10.015625 52.203125 
Q 14.9375 54.109375 19.578125 55.046875 
Q 24.21875 56 28.609375 56 
Q 40.484375 56 46.34375 49.84375 
Q 52.203125 43.703125 52.203125 31.203125 
z
" id="DejaVuSans-97"/>
      <path d="M 18.3125 70.21875 
L 18.3125 54.6875 
L 36.8125 54.6875 
L 36.8125 47.703125 
L 18.3125 47.703125 
L 18.3125 18.015625 
Q 18.3125 11.328125 20.140625 9.421875 
Q 21.96875 7.515625 27.59375 7.515625 
L 36.8125 7.515625 
L 36.8125 0 
L 27.59375 0 
Q 17.1875 0 13.234375 3.875 
Q 9.28125 7.765625 9.28125 18.015625 
L 9.28125 47.703125 
L 2.6875 47.703125 
L 2.6875 54.6875 
L 9.28125 54.6875 
L 9.28125 70.21875 
z
" id="DejaVuSans-116"/>
      <path d="M 44.28125 53.078125 
L 44.28125 44.578125 
Q 40.484375 46.53125 36.375 47.5 
Q 32.28125 48.484375 27.875 48.484375 
Q 21.1875 48.484375 17.84375 46.4375 
Q 14.5 44.390625 14.5 40.28125 
Q 14.5 37.15625 16.890625 35.375 
Q 19.28125 33.59375 26.515625 31.984375 
L 29.59375 31.296875 
Q 39.15625 29.25 43.1875 25.515625 
Q 47.21875 21.78125 47.21875 15.09375 
Q 47.21875 7.46875 41.1875 3.015625 
Q 35.15625 -1.421875 24.609375 -1.421875 
Q 20.21875 -1.421875 15.453125 -0.5625 
Q 10.6875 0.296875 5.421875 2 
L 5.421875 11.28125 
Q 10.40625 8.6875 15.234375 7.390625 
Q 20.0625 6.109375 24.8125 6.109375 
Q 31.15625 6.109375 34.5625 8.28125 
Q 37.984375 10.453125 37.984375 14.40625 
Q 37.984375 18.0625 35.515625 20.015625 
Q 33.0625 21.96875 24.703125 23.78125 
L 21.578125 24.515625 
Q 13.234375 26.265625 9.515625 29.90625 
Q 5.8125 33.546875 5.8125 39.890625 
Q 5.8125 47.609375 11.28125 51.796875 
Q 16.75 56 26.8125 56 
Q 31.78125 56 36.171875 55.265625 
Q 40.578125 54.546875 44.28125 53.078125 
z
" id="DejaVuSans-115"/>
      <path d="M 56.203125 29.59375 
L 56.203125 25.203125 
L 14.890625 25.203125 
Q 15.484375 15.921875 20.484375 11.0625 
Q 25.484375 6.203125 34.421875 6.203125 
Q 39.59375 6.203125 44.453125 7.46875 
Q 49.3125 8.734375 54.109375 11.28125 
L 54.109375 2.78125 
Q 49.265625 0.734375 44.1875 -0.34375 
Q 39.109375 -1.421875 33.890625 -1.421875 
Q 20.796875 -1.421875 13.15625 6.1875 
Q 5.515625 13.8125 5.515625 26.8125 
Q 5.515625 40.234375 12.765625 48.109375 
Q 20.015625 56 32.328125 56 
Q 43.359375 56 49.78125 48.890625 
Q 56.203125 41.796875 56.203125 29.59375 
z
M 47.21875 32.234375 
Q 47.125 39.59375 43.09375 43.984375 
Q 39.0625 48.390625 32.421875 48.390625 
Q 24.90625 48.390625 20.390625 44.140625 
Q 15.875 39.890625 15.1875 32.171875 
z
" id="DejaVuSans-101"/>
      <path d="M 50.984375 -16.609375 
L 50.984375 -23.578125 
L -0.984375 -23.578125 
L -0.984375 -16.609375 
z
" id="DejaVuSans-95"/>
     </defs>
     <g transform="translate(331.730938 109.845187)scale(0.1 -0.1)">
      <use xlink:href="#DejaVuSans-77"/>
      <use x="86.279297" xlink:href="#DejaVuSans-80"/>
      <use x="146.582031" xlink:href="#DejaVuSans-67"/>
      <use x="216.40625" xlink:href="#DejaVuSans-32"/>
      <use x="248.193359" xlink:href="#DejaVuSans-100"/>
      <use x="311.669922" xlink:href="#DejaVuSans-97"/>
      <use x="372.949219" xlink:href="#DejaVuSans-116"/>
      <use x="412.158203" xlink:href="#DejaVuSans-97"/>
      <use x="473.4375" xlink:href="#DejaVuSans-115"/>
      <use x="525.537109" xlink:href="#DejaVuSans-101"/>
      <use x="587.060547" xlink:href="#DejaVuSans-116"/>
      <use x="626.269531" xlink:href="#DejaVuSans-95"/>
      <use x="676.269531" xlink:href="#DejaVuSans-48"/>
     </g>
    </g>
    <g id="line2d_27">
     <path d="M 303.730938 121.301437 
L 323.730938 121.301437 
" style="fill:none;stroke:#ff7f0e;stroke-linecap:square;stroke-width:1.5;"/>
    </g>
    <g id="line2d_28"/>
    <g id="text_16">
     <!-- MPC dataset_1 -->
     <g transform="translate(331.730938 124.801437)scale(0.1 -0.1)">
      <use xlink:href="#DejaVuSans-77"/>
      <use x="86.279297" xlink:href="#DejaVuSans-80"/>
      <use x="146.582031" xlink:href="#DejaVuSans-67"/>
      <use x="216.40625" xlink:href="#DejaVuSans-32"/>
      <use x="248.193359" xlink:href="#DejaVuSans-100"/>
      <use x="311.669922" xlink:href="#DejaVuSans-97"/>
      <use x="372.949219" xlink:href="#DejaVuSans-116"/>
      <use x="412.158203" xlink:href="#DejaVuSans-97"/>
      <use x="473.4375" xlink:href="#DejaVuSans-115"/>
      <use x="525.537109" xlink:href="#DejaVuSans-101"/>
      <use x="587.060547" xlink:href="#DejaVuSans-116"/>
      <use x="626.269531" xlink:href="#DejaVuSans-95"/>
      <use x="676.269531" xlink:href="#DejaVuSans-49"/>
     </g>
    </g>
    <g id="line2d_29">
     <path d="M 303.730938 136.257688 
L 323.730938 136.257688 
" style="fill:none;stroke:#2ca02c;stroke-linecap:square;stroke-width:1.5;"/>
    </g>
    <g id="line2d_30"/>
    <g id="text_17">
     <!-- MPC dataset_2 -->
     <g transform="translate(331.730938 139.757688)scale(0.1 -0.1)">
      <use xlink:href="#DejaVuSans-77"/>
      <use x="86.279297" xlink:href="#DejaVuSans-80"/>
      <use x="146.582031" xlink:href="#DejaVuSans-67"/>
      <use x="216.40625" xlink:href="#DejaVuSans-32"/>
      <use x="248.193359" xlink:href="#DejaVuSans-100"/>
      <use x="311.669922" xlink:href="#DejaVuSans-97"/>
      <use x="372.949219" xlink:href="#DejaVuSans-116"/>
      <use x="412.158203" xlink:href="#DejaVuSans-97"/>
      <use x="473.4375" xlink:href="#DejaVuSans-115"/>
      <use x="525.537109" xlink:href="#DejaVuSans-101"/>
      <use x="587.060547" xlink:href="#DejaVuSans-116"/>
      <use x="626.269531" xlink:href="#DejaVuSans-95"/>
      <use x="676.269531" xlink:href="#DejaVuSans-50"/>
     </g>
    </g>
    <g id="line2d_31">
     <path d="M 303.730938 151.213937 
L 323.730938 151.213937 
" style="fill:none;stroke:#d62728;stroke-linecap:square;stroke-width:1.5;"/>
    </g>
    <g id="line2d_32"/>
    <g id="text_18">
     <!-- MPC dataset_3 -->
     <g transform="translate(331.730938 154.713937)scale(0.1 -0.1)">
      <use xlink:href="#DejaVuSans-77"/>
      <use x="86.279297" xlink:href="#DejaVuSans-80"/>
      <use x="146.582031" xlink:href="#DejaVuSans-67"/>
      <use x="216.40625" xlink:href="#DejaVuSans-32"/>
      <use x="248.193359" xlink:href="#DejaVuSans-100"/>
      <use x="311.669922" xlink:href="#DejaVuSans-97"/>
      <use x="372.949219" xlink:href="#DejaVuSans-116"/>
      <use x="412.158203" xlink:href="#DejaVuSans-97"/>
      <use x="473.4375" xlink:href="#DejaVuSans-115"/>
      <use x="525.537109" xlink:href="#DejaVuSans-101"/>
      <use x="587.060547" xlink:href="#DejaVuSans-116"/>
      <use x="626.269531" xlink:href="#DejaVuSans-95"/>
      <use x="676.269531" xlink:href="#DejaVuSans-51"/>
     </g>
    </g>
    <g id="line2d_33">
     <path d="M 303.730938 166.170187 
L 323.730938 166.170187 
" style="fill:none;stroke:#9467bd;stroke-linecap:square;stroke-width:1.5;"/>
    </g>
    <g id="line2d_34"/>
    <g id="text_19">
     <!-- MPC dataset_4 -->
     <g transform="translate(331.730938 169.670187)scale(0.1 -0.1)">
      <use xlink:href="#DejaVuSans-77"/>
      <use x="86.279297" xlink:href="#DejaVuSans-80"/>
      <use x="146.582031" xlink:href="#DejaVuSans-67"/>
      <use x="216.40625" xlink:href="#DejaVuSans-32"/>
      <use x="248.193359" xlink:href="#DejaVuSans-100"/>
      <use x="311.669922" xlink:href="#DejaVuSans-97"/>
      <use x="372.949219" xlink:href="#DejaVuSans-116"/>
      <use x="412.158203" xlink:href="#DejaVuSans-97"/>
      <use x="473.4375" xlink:href="#DejaVuSans-115"/>
      <use x="525.537109" xlink:href="#DejaVuSans-101"/>
      <use x="587.060547" xlink:href="#DejaVuSans-116"/>
      <use x="626.269531" xlink:href="#DejaVuSans-95"/>
      <use x="676.269531" xlink:href="#DejaVuSans-52"/>
     </g>
    </g>
    <g id="line2d_35">
     <path d="M 303.730938 181.126438 
L 323.730938 181.126438 
" style="fill:none;stroke:#8c564b;stroke-linecap:square;stroke-width:1.5;"/>
    </g>
    <g id="line2d_36"/>
    <g id="text_20">
     <!-- MPC dataset_5 -->
     <g transform="translate(331.730938 184.626438)scale(0.1 -0.1)">
      <use xlink:href="#DejaVuSans-77"/>
      <use x="86.279297" xlink:href="#DejaVuSans-80"/>
      <use x="146.582031" xlink:href="#DejaVuSans-67"/>
      <use x="216.40625" xlink:href="#DejaVuSans-32"/>
      <use x="248.193359" xlink:href="#DejaVuSans-100"/>
      <use x="311.669922" xlink:href="#DejaVuSans-97"/>
      <use x="372.949219" xlink:href="#DejaVuSans-116"/>
      <use x="412.158203" xlink:href="#DejaVuSans-97"/>
      <use x="473.4375" xlink:href="#DejaVuSans-115"/>
      <use x="525.537109" xlink:href="#DejaVuSans-101"/>
      <use x="587.060547" xlink:href="#DejaVuSans-116"/>
      <use x="626.269531" xlink:href="#DejaVuSans-95"/>
      <use x="676.269531" xlink:href="#DejaVuSans-53"/>
     </g>
    </g>
    <g id="line2d_37">
     <path d="M 303.730938 196.082687 
L 323.730938 196.082687 
" style="fill:none;stroke:#e377c2;stroke-linecap:square;stroke-width:1.5;"/>
    </g>
    <g id="line2d_38"/>
    <g id="text_21">
     <!-- MPC dataset_6 -->
     <g transform="translate(331.730938 199.582687)scale(0.1 -0.1)">
      <use xlink:href="#DejaVuSans-77"/>
      <use x="86.279297" xlink:href="#DejaVuSans-80"/>
      <use x="146.582031" xlink:href="#DejaVuSans-67"/>
      <use x="216.40625" xlink:href="#DejaVuSans-32"/>
      <use x="248.193359" xlink:href="#DejaVuSans-100"/>
      <use x="311.669922" xlink:href="#DejaVuSans-97"/>
      <use x="372.949219" xlink:href="#DejaVuSans-116"/>
      <use x="412.158203" xlink:href="#DejaVuSans-97"/>
      <use x="473.4375" xlink:href="#DejaVuSans-115"/>
      <use x="525.537109" xlink:href="#DejaVuSans-101"/>
      <use x="587.060547" xlink:href="#DejaVuSans-116"/>
      <use x="626.269531" xlink:href="#DejaVuSans-95"/>
      <use x="676.269531" xlink:href="#DejaVuSans-54"/>
     </g>
    </g>
    <g id="line2d_39">
     <path d="M 303.730938 211.038937 
L 323.730938 211.038937 
" style="fill:none;stroke:#7f7f7f;stroke-linecap:square;stroke-width:1.5;"/>
    </g>
    <g id="line2d_40"/>
    <g id="text_22">
     <!-- MPC dataset_7 -->
     <defs>
      <path d="M 8.203125 72.90625 
L 55.078125 72.90625 
L 55.078125 68.703125 
L 28.609375 0 
L 18.3125 0 
L 43.21875 64.59375 
L 8.203125 64.59375 
z
" id="DejaVuSans-55"/>
     </defs>
     <g transform="translate(331.730938 214.538937)scale(0.1 -0.1)">
      <use xlink:href="#DejaVuSans-77"/>
      <use x="86.279297" xlink:href="#DejaVuSans-80"/>
      <use x="146.582031" xlink:href="#DejaVuSans-67"/>
      <use x="216.40625" xlink:href="#DejaVuSans-32"/>
      <use x="248.193359" xlink:href="#DejaVuSans-100"/>
      <use x="311.669922" xlink:href="#DejaVuSans-97"/>
      <use x="372.949219" xlink:href="#DejaVuSans-116"/>
      <use x="412.158203" xlink:href="#DejaVuSans-97"/>
      <use x="473.4375" xlink:href="#DejaVuSans-115"/>
      <use x="525.537109" xlink:href="#DejaVuSans-101"/>
      <use x="587.060547" xlink:href="#DejaVuSans-116"/>
      <use x="626.269531" xlink:href="#DejaVuSans-95"/>
      <use x="676.269531" xlink:href="#DejaVuSans-55"/>
     </g>
    </g>
    <g id="line2d_41">
     <path d="M 303.730938 225.995187 
L 323.730938 225.995187 
" style="fill:none;stroke:#bcbd22;stroke-linecap:square;stroke-width:1.5;"/>
    </g>
    <g id="line2d_42"/>
    <g id="text_23">
     <!-- MPC dataset_8 -->
     <g transform="translate(331.730938 229.495187)scale(0.1 -0.1)">
      <use xlink:href="#DejaVuSans-77"/>
      <use x="86.279297" xlink:href="#DejaVuSans-80"/>
      <use x="146.582031" xlink:href="#DejaVuSans-67"/>
      <use x="216.40625" xlink:href="#DejaVuSans-32"/>
      <use x="248.193359" xlink:href="#DejaVuSans-100"/>
      <use x="311.669922" xlink:href="#DejaVuSans-97"/>
      <use x="372.949219" xlink:href="#DejaVuSans-116"/>
      <use x="412.158203" xlink:href="#DejaVuSans-97"/>
      <use x="473.4375" xlink:href="#DejaVuSans-115"/>
      <use x="525.537109" xlink:href="#DejaVuSans-101"/>
      <use x="587.060547" xlink:href="#DejaVuSans-116"/>
      <use x="626.269531" xlink:href="#DejaVuSans-95"/>
      <use x="676.269531" xlink:href="#DejaVuSans-56"/>
     </g>
    </g>
    <g id="line2d_43">
     <path d="M 303.730938 240.951437 
L 323.730938 240.951437 
" style="fill:none;stroke:#17becf;stroke-linecap:square;stroke-width:1.5;"/>
    </g>
    <g id="line2d_44"/>
    <g id="text_24">
     <!-- MPC dataset_9 -->
     <defs>
      <path d="M 10.984375 1.515625 
L 10.984375 10.5 
Q 14.703125 8.734375 18.5 7.8125 
Q 22.3125 6.890625 25.984375 6.890625 
Q 35.75 6.890625 40.890625 13.453125 
Q 46.046875 20.015625 46.78125 33.40625 
Q 43.953125 29.203125 39.59375 26.953125 
Q 35.25 24.703125 29.984375 24.703125 
Q 19.046875 24.703125 12.671875 31.3125 
Q 6.296875 37.9375 6.296875 49.421875 
Q 6.296875 60.640625 12.9375 67.421875 
Q 19.578125 74.21875 30.609375 74.21875 
Q 43.265625 74.21875 49.921875 64.515625 
Q 56.59375 54.828125 56.59375 36.375 
Q 56.59375 19.140625 48.40625 8.859375 
Q 40.234375 -1.421875 26.421875 -1.421875 
Q 22.703125 -1.421875 18.890625 -0.6875 
Q 15.09375 0.046875 10.984375 1.515625 
z
M 30.609375 32.421875 
Q 37.25 32.421875 41.125 36.953125 
Q 45.015625 41.5 45.015625 49.421875 
Q 45.015625 57.28125 41.125 61.84375 
Q 37.25 66.40625 30.609375 66.40625 
Q 23.96875 66.40625 20.09375 61.84375 
Q 16.21875 57.28125 16.21875 49.421875 
Q 16.21875 41.5 20.09375 36.953125 
Q 23.96875 32.421875 30.609375 32.421875 
z
" id="DejaVuSans-57"/>
     </defs>
     <g transform="translate(331.730938 244.451437)scale(0.1 -0.1)">
      <use xlink:href="#DejaVuSans-77"/>
      <use x="86.279297" xlink:href="#DejaVuSans-80"/>
      <use x="146.582031" xlink:href="#DejaVuSans-67"/>
      <use x="216.40625" xlink:href="#DejaVuSans-32"/>
      <use x="248.193359" xlink:href="#DejaVuSans-100"/>
      <use x="311.669922" xlink:href="#DejaVuSans-97"/>
      <use x="372.949219" xlink:href="#DejaVuSans-116"/>
      <use x="412.158203" xlink:href="#DejaVuSans-97"/>
      <use x="473.4375" xlink:href="#DejaVuSans-115"/>
      <use x="525.537109" xlink:href="#DejaVuSans-101"/>
      <use x="587.060547" xlink:href="#DejaVuSans-116"/>
      <use x="626.269531" xlink:href="#DejaVuSans-95"/>
      <use x="676.269531" xlink:href="#DejaVuSans-57"/>
     </g>
    </g>
   </g>
  </g>
 </g>
 <defs>
  <clipPath id="p31d7e06645">
   <rect height="266.112" width="357.12" x="57.6" y="41.472"/>
  </clipPath>
 </defs>
</svg>
