<?xml version="1.0" encoding="utf-8" standalone="no"?>
<!DOCTYPE svg PUBLIC "-//W3C//DTD SVG 1.1//EN"
  "http://www.w3.org/Graphics/SVG/1.1/DTD/svg11.dtd">
<!-- Created with matplotlib (https://matplotlib.org/) -->
<svg height="345.6pt" version="1.1" viewBox="0 0 460.8 345.6" width="460.8pt" xmlns="http://www.w3.org/2000/svg" xmlns:xlink="http://www.w3.org/1999/xlink">
 <defs>
  <style type="text/css">
*{stroke-linecap:butt;stroke-linejoin:round;}
  </style>
 </defs>
 <g id="figure_1">
  <g id="patch_1">
   <path d="M 0 345.6 
L 460.8 345.6 
L 460.8 0 
L 0 0 
z
" style="fill:#ffffff;"/>
  </g>
  <g id="axes_1">
   <g id="patch_2">
    <path d="M 57.6 307.584 
L 414.72 307.584 
L 414.72 41.472 
L 57.6 41.472 
z
" style="fill:#ffffff;"/>
   </g>
   <g id="matplotlib.axis_1">
    <g id="xtick_1">
     <g id="line2d_1">
      <defs>
       <path d="M 0 0 
L 0 3.5 
" id="m45f2760768" style="stroke:#000000;stroke-width:0.8;"/>
      </defs>
      <g>
       <use style="stroke:#000000;stroke-width:0.8;" x="73.832727" xlink:href="#m45f2760768" y="307.584"/>
      </g>
     </g>
     <g id="text_1">
      <!-- 0 -->
      <defs>
       <path d="M 31.78125 66.40625 
Q 24.171875 66.40625 20.328125 58.90625 
Q 16.5 51.421875 16.5 36.375 
Q 16.5 21.390625 20.328125 13.890625 
Q 24.171875 6.390625 31.78125 6.390625 
Q 39.453125 6.390625 43.28125 13.890625 
Q 47.125 21.390625 47.125 36.375 
Q 47.125 51.421875 43.28125 58.90625 
Q 39.453125 66.40625 31.78125 66.40625 
z
M 31.78125 74.21875 
Q 44.046875 74.21875 50.515625 64.515625 
Q 56.984375 54.828125 56.984375 36.375 
Q 56.984375 17.96875 50.515625 8.265625 
Q 44.046875 -1.421875 31.78125 -1.421875 
Q 19.53125 -1.421875 13.0625 8.265625 
Q 6.59375 17.96875 6.59375 36.375 
Q 6.59375 54.828125 13.0625 64.515625 
Q 19.53125 74.21875 31.78125 74.21875 
z
" id="DejaVuSans-48"/>
      </defs>
      <g transform="translate(70.651477 322.182437)scale(0.1 -0.1)">
       <use xlink:href="#DejaVuSans-48"/>
      </g>
     </g>
    </g>
    <g id="xtick_2">
     <g id="line2d_2">
      <g>
       <use style="stroke:#000000;stroke-width:0.8;" x="117.12" xlink:href="#m45f2760768" y="307.584"/>
      </g>
     </g>
     <g id="text_2">
      <!-- 20 -->
      <defs>
       <path d="M 19.1875 8.296875 
L 53.609375 8.296875 
L 53.609375 0 
L 7.328125 0 
L 7.328125 8.296875 
Q 12.9375 14.109375 22.625 23.890625 
Q 32.328125 33.6875 34.8125 36.53125 
Q 39.546875 41.84375 41.421875 45.53125 
Q 43.3125 49.21875 43.3125 52.78125 
Q 43.3125 58.59375 39.234375 62.25 
Q 35.15625 65.921875 28.609375 65.921875 
Q 23.96875 65.921875 18.8125 64.3125 
Q 13.671875 62.703125 7.8125 59.421875 
L 7.8125 69.390625 
Q 13.765625 71.78125 18.9375 73 
Q 24.125 74.21875 28.421875 74.21875 
Q 39.75 74.21875 46.484375 68.546875 
Q 53.21875 62.890625 53.21875 53.421875 
Q 53.21875 48.921875 51.53125 44.890625 
Q 49.859375 40.875 45.40625 35.40625 
Q 44.1875 33.984375 37.640625 27.21875 
Q 31.109375 20.453125 19.1875 8.296875 
z
" id="DejaVuSans-50"/>
      </defs>
      <g transform="translate(110.7575 322.182437)scale(0.1 -0.1)">
       <use xlink:href="#DejaVuSans-50"/>
       <use x="63.623047" xlink:href="#DejaVuSans-48"/>
      </g>
     </g>
    </g>
    <g id="xtick_3">
     <g id="line2d_3">
      <g>
       <use style="stroke:#000000;stroke-width:0.8;" x="160.407273" xlink:href="#m45f2760768" y="307.584"/>
      </g>
     </g>
     <g id="text_3">
      <!-- 40 -->
      <defs>
       <path d="M 37.796875 64.3125 
L 12.890625 25.390625 
L 37.796875 25.390625 
z
M 35.203125 72.90625 
L 47.609375 72.90625 
L 47.609375 25.390625 
L 58.015625 25.390625 
L 58.015625 17.1875 
L 47.609375 17.1875 
L 47.609375 0 
L 37.796875 0 
L 37.796875 17.1875 
L 4.890625 17.1875 
L 4.890625 26.703125 
z
" id="DejaVuSans-52"/>
      </defs>
      <g transform="translate(154.044773 322.182437)scale(0.1 -0.1)">
       <use xlink:href="#DejaVuSans-52"/>
       <use x="63.623047" xlink:href="#DejaVuSans-48"/>
      </g>
     </g>
    </g>
    <g id="xtick_4">
     <g id="line2d_4">
      <g>
       <use style="stroke:#000000;stroke-width:0.8;" x="203.694545" xlink:href="#m45f2760768" y="307.584"/>
      </g>
     </g>
     <g id="text_4">
      <!-- 60 -->
      <defs>
       <path d="M 33.015625 40.375 
Q 26.375 40.375 22.484375 35.828125 
Q 18.609375 31.296875 18.609375 23.390625 
Q 18.609375 15.53125 22.484375 10.953125 
Q 26.375 6.390625 33.015625 6.390625 
Q 39.65625 6.390625 43.53125 10.953125 
Q 47.40625 15.53125 47.40625 23.390625 
Q 47.40625 31.296875 43.53125 35.828125 
Q 39.65625 40.375 33.015625 40.375 
z
M 52.59375 71.296875 
L 52.59375 62.3125 
Q 48.875 64.0625 45.09375 64.984375 
Q 41.3125 65.921875 37.59375 65.921875 
Q 27.828125 65.921875 22.671875 59.328125 
Q 17.53125 52.734375 16.796875 39.40625 
Q 19.671875 43.65625 24.015625 45.921875 
Q 28.375 48.1875 33.59375 48.1875 
Q 44.578125 48.1875 50.953125 41.515625 
Q 57.328125 34.859375 57.328125 23.390625 
Q 57.328125 12.15625 50.6875 5.359375 
Q 44.046875 -1.421875 33.015625 -1.421875 
Q 20.359375 -1.421875 13.671875 8.265625 
Q 6.984375 17.96875 6.984375 36.375 
Q 6.984375 53.65625 15.1875 63.9375 
Q 23.390625 74.21875 37.203125 74.21875 
Q 40.921875 74.21875 44.703125 73.484375 
Q 48.484375 72.75 52.59375 71.296875 
z
" id="DejaVuSans-54"/>
      </defs>
      <g transform="translate(197.332045 322.182437)scale(0.1 -0.1)">
       <use xlink:href="#DejaVuSans-54"/>
       <use x="63.623047" xlink:href="#DejaVuSans-48"/>
      </g>
     </g>
    </g>
    <g id="xtick_5">
     <g id="line2d_5">
      <g>
       <use style="stroke:#000000;stroke-width:0.8;" x="246.981818" xlink:href="#m45f2760768" y="307.584"/>
      </g>
     </g>
     <g id="text_5">
      <!-- 80 -->
      <defs>
       <path d="M 31.78125 34.625 
Q 24.75 34.625 20.71875 30.859375 
Q 16.703125 27.09375 16.703125 20.515625 
Q 16.703125 13.921875 20.71875 10.15625 
Q 24.75 6.390625 31.78125 6.390625 
Q 38.8125 6.390625 42.859375 10.171875 
Q 46.921875 13.96875 46.921875 20.515625 
Q 46.921875 27.09375 42.890625 30.859375 
Q 38.875 34.625 31.78125 34.625 
z
M 21.921875 38.8125 
Q 15.578125 40.375 12.03125 44.71875 
Q 8.5 49.078125 8.5 55.328125 
Q 8.5 64.0625 14.71875 69.140625 
Q 20.953125 74.21875 31.78125 74.21875 
Q 42.671875 74.21875 48.875 69.140625 
Q 55.078125 64.0625 55.078125 55.328125 
Q 55.078125 49.078125 51.53125 44.71875 
Q 48 40.375 41.703125 38.8125 
Q 48.828125 37.15625 52.796875 32.3125 
Q 56.78125 27.484375 56.78125 20.515625 
Q 56.78125 9.90625 50.3125 4.234375 
Q 43.84375 -1.421875 31.78125 -1.421875 
Q 19.734375 -1.421875 13.25 4.234375 
Q 6.78125 9.90625 6.78125 20.515625 
Q 6.78125 27.484375 10.78125 32.3125 
Q 14.796875 37.15625 21.921875 38.8125 
z
M 18.3125 54.390625 
Q 18.3125 48.734375 21.84375 45.5625 
Q 25.390625 42.390625 31.78125 42.390625 
Q 38.140625 42.390625 41.71875 45.5625 
Q 45.3125 48.734375 45.3125 54.390625 
Q 45.3125 60.0625 41.71875 63.234375 
Q 38.140625 66.40625 31.78125 66.40625 
Q 25.390625 66.40625 21.84375 63.234375 
Q 18.3125 60.0625 18.3125 54.390625 
z
" id="DejaVuSans-56"/>
      </defs>
      <g transform="translate(240.619318 322.182437)scale(0.1 -0.1)">
       <use xlink:href="#DejaVuSans-56"/>
       <use x="63.623047" xlink:href="#DejaVuSans-48"/>
      </g>
     </g>
    </g>
    <g id="xtick_6">
     <g id="line2d_6">
      <g>
       <use style="stroke:#000000;stroke-width:0.8;" x="290.269091" xlink:href="#m45f2760768" y="307.584"/>
      </g>
     </g>
     <g id="text_6">
      <!-- 100 -->
      <defs>
       <path d="M 12.40625 8.296875 
L 28.515625 8.296875 
L 28.515625 63.921875 
L 10.984375 60.40625 
L 10.984375 69.390625 
L 28.421875 72.90625 
L 38.28125 72.90625 
L 38.28125 8.296875 
L 54.390625 8.296875 
L 54.390625 0 
L 12.40625 0 
z
" id="DejaVuSans-49"/>
      </defs>
      <g transform="translate(280.725341 322.182437)scale(0.1 -0.1)">
       <use xlink:href="#DejaVuSans-49"/>
       <use x="63.623047" xlink:href="#DejaVuSans-48"/>
       <use x="127.246094" xlink:href="#DejaVuSans-48"/>
      </g>
     </g>
    </g>
    <g id="xtick_7">
     <g id="line2d_7">
      <g>
       <use style="stroke:#000000;stroke-width:0.8;" x="333.556364" xlink:href="#m45f2760768" y="307.584"/>
      </g>
     </g>
     <g id="text_7">
      <!-- 120 -->
      <g transform="translate(324.012614 322.182437)scale(0.1 -0.1)">
       <use xlink:href="#DejaVuSans-49"/>
       <use x="63.623047" xlink:href="#DejaVuSans-50"/>
       <use x="127.246094" xlink:href="#DejaVuSans-48"/>
      </g>
     </g>
    </g>
    <g id="xtick_8">
     <g id="line2d_8">
      <g>
       <use style="stroke:#000000;stroke-width:0.8;" x="376.843636" xlink:href="#m45f2760768" y="307.584"/>
      </g>
     </g>
     <g id="text_8">
      <!-- 140 -->
      <g transform="translate(367.299886 322.182437)scale(0.1 -0.1)">
       <use xlink:href="#DejaVuSans-49"/>
       <use x="63.623047" xlink:href="#DejaVuSans-52"/>
       <use x="127.246094" xlink:href="#DejaVuSans-48"/>
      </g>
     </g>
    </g>
   </g>
   <g id="matplotlib.axis_2">
    <g id="ytick_1">
     <g id="line2d_9">
      <defs>
       <path d="M 0 0 
L -3.5 0 
" id="m1d834697d2" style="stroke:#000000;stroke-width:0.8;"/>
      </defs>
      <g>
       <use style="stroke:#000000;stroke-width:0.8;" x="57.6" xlink:href="#m1d834697d2" y="250.302963"/>
      </g>
     </g>
     <g id="text_9">
      <!-- −2 -->
      <defs>
       <path d="M 10.59375 35.5 
L 73.1875 35.5 
L 73.1875 27.203125 
L 10.59375 27.203125 
z
" id="DejaVuSans-8722"/>
      </defs>
      <g transform="translate(35.857813 254.102181)scale(0.1 -0.1)">
       <use xlink:href="#DejaVuSans-8722"/>
       <use x="83.789062" xlink:href="#DejaVuSans-50"/>
      </g>
     </g>
    </g>
    <g id="ytick_2">
     <g id="line2d_10">
      <g>
       <use style="stroke:#000000;stroke-width:0.8;" x="57.6" xlink:href="#m1d834697d2" y="191.410122"/>
      </g>
     </g>
     <g id="text_10">
      <!-- 0 -->
      <g transform="translate(44.2375 195.209341)scale(0.1 -0.1)">
       <use xlink:href="#DejaVuSans-48"/>
      </g>
     </g>
    </g>
    <g id="ytick_3">
     <g id="line2d_11">
      <g>
       <use style="stroke:#000000;stroke-width:0.8;" x="57.6" xlink:href="#m1d834697d2" y="132.517281"/>
      </g>
     </g>
     <g id="text_11">
      <!-- 2 -->
      <g transform="translate(44.2375 136.3165)scale(0.1 -0.1)">
       <use xlink:href="#DejaVuSans-50"/>
      </g>
     </g>
    </g>
    <g id="ytick_4">
     <g id="line2d_12">
      <g>
       <use style="stroke:#000000;stroke-width:0.8;" x="57.6" xlink:href="#m1d834697d2" y="73.62444"/>
      </g>
     </g>
     <g id="text_12">
      <!-- 4 -->
      <g transform="translate(44.2375 77.423659)scale(0.1 -0.1)">
       <use xlink:href="#DejaVuSans-52"/>
      </g>
     </g>
    </g>
   </g>
   <g id="line2d_13">
    <path clip-path="url(#p2b917251d5)" d="M 73.832727 87.141719 
L 80.325818 88.044794 
L 82.490182 88.862526 
L 84.654545 90.180901 
L 91.147636 95.460009 
L 93.312 97.621258 
L 95.476364 100.23858 
L 97.640727 103.287326 
L 99.805091 106.737656 
L 101.969455 110.552707 
L 106.298182 118.968956 
L 110.626909 127.963949 
L 112.791273 132.578767 
L 114.955636 136.924842 
L 117.12 140.682372 
L 119.284364 143.876032 
L 121.448727 146.536219 
L 123.613091 148.698327 
L 125.777455 150.401501 
L 127.941818 151.687246 
L 130.106182 152.598115 
L 134.434909 153.899048 
L 143.092364 156.355402 
L 149.585455 158.464272 
L 153.914182 160.098118 
L 158.242909 161.967302 
L 162.571636 164.115509 
L 169.064727 167.735563 
L 179.886545 173.775998 
L 188.544 178.478182 
L 192.872727 181.363124 
L 197.201455 184.633995 
L 208.023273 193.142482 
L 210.187636 194.625002 
L 212.352 195.943499 
L 214.516364 197.077622 
L 216.680727 198.013232 
L 218.845091 198.731316 
L 221.009455 199.243654 
L 223.173818 199.560808 
L 225.338182 199.692143 
L 227.502545 199.645883 
L 231.831273 199.176818 
L 236.16 198.465342 
L 240.488727 197.551266 
L 244.817455 196.440223 
L 249.146182 195.13543 
L 259.968 191.751377 
L 264.296727 190.605665 
L 268.625455 189.682283 
L 272.954182 189.122028 
L 277.282909 188.919826 
L 281.611636 189.044735 
L 288.104727 189.684458 
L 309.748364 192.183056 
L 316.241455 192.526076 
L 322.734545 192.60517 
L 329.227636 192.453252 
L 335.720727 192.094468 
L 348.706909 191.296545 
L 361.693091 190.680354 
L 368.186182 190.603478 
L 374.679273 190.765534 
L 398.487273 191.79222 
L 398.487273 191.79222 
" style="fill:none;stroke:#1f77b4;stroke-linecap:square;stroke-width:1.5;"/>
   </g>
   <g id="line2d_14">
    <path clip-path="url(#p2b917251d5)" d="M 73.832727 295.488 
L 75.997091 295.045468 
L 78.161455 294.091382 
L 80.325818 292.642828 
L 82.490182 290.764795 
L 84.654545 288.531302 
L 86.818909 286.058259 
L 88.983273 283.378475 
L 91.147636 280.355696 
L 93.312 276.983036 
L 95.476364 273.291988 
L 99.805091 265.213668 
L 104.133818 256.956144 
L 106.298182 253.501771 
L 108.462545 250.493952 
L 110.626909 247.852048 
L 112.791273 245.573747 
L 114.955636 243.613855 
L 117.12 241.931424 
L 119.284364 240.490524 
L 121.448727 239.259778 
L 123.613091 238.213015 
L 125.777455 237.327617 
L 130.106182 235.940287 
L 134.434909 234.918734 
L 138.763636 234.133772 
L 145.256727 233.204919 
L 162.571636 230.88844 
L 169.064727 229.707294 
L 173.393455 228.727404 
L 177.722182 227.544405 
L 182.050909 226.108711 
L 186.379636 224.362089 
L 190.708364 222.236002 
L 195.037091 219.650345 
L 197.201455 218.15686 
L 199.365818 216.513076 
L 201.530182 214.705854 
L 203.694545 212.721651 
L 205.858909 210.546783 
L 208.023273 208.167787 
L 210.187636 205.570801 
L 212.352 202.673121 
L 218.845091 192.886627 
L 221.009455 189.940446 
L 223.173818 187.223133 
L 225.338182 184.774322 
L 227.502545 182.605279 
L 229.666909 180.695729 
L 231.831273 179.026488 
L 233.995636 177.603119 
L 236.16 176.437151 
L 238.324364 175.584915 
L 240.488727 175.060736 
L 242.653091 174.834903 
L 244.817455 174.859422 
L 246.981818 175.116777 
L 249.146182 175.59735 
L 251.310545 176.270343 
L 253.474909 177.095613 
L 255.639273 178.110376 
L 257.803636 179.334358 
L 262.132364 182.284226 
L 266.461091 185.658368 
L 275.118545 192.590677 
L 277.282909 194.142393 
L 279.447273 195.551626 
L 281.611636 196.802493 
L 283.776 197.849102 
L 285.940364 198.672982 
L 288.104727 199.28652 
L 290.269091 199.70087 
L 292.433455 199.925974 
L 294.597818 199.970593 
L 296.762182 199.867162 
L 301.090909 199.351673 
L 305.419636 198.599694 
L 309.748364 197.649983 
L 314.077091 196.507326 
L 318.405818 195.174226 
L 327.063273 192.380304 
L 331.392 191.161317 
L 335.720727 190.149994 
L 340.049455 189.427624 
L 344.378182 189.07949 
L 348.706909 189.071875 
L 353.035636 189.377254 
L 361.693091 190.412392 
L 372.514909 191.820293 
L 379.008 192.426512 
L 385.501091 192.735547 
L 391.994182 192.789103 
L 398.487273 192.618559 
L 398.487273 192.618559 
" style="fill:none;stroke:#ff7f0e;stroke-linecap:square;stroke-width:1.5;"/>
   </g>
   <g id="line2d_15">
    <path clip-path="url(#p2b917251d5)" d="M 73.832727 221.25441 
L 75.997091 221.332219 
L 78.161455 221.182488 
L 80.325818 220.821364 
L 82.490182 220.260187 
L 84.654545 219.506128 
L 86.818909 218.56274 
L 88.983273 217.430434 
L 91.147636 216.106921 
L 93.312 214.587618 
L 95.476364 212.866071 
L 97.640727 210.934389 
L 99.805091 208.783745 
L 101.969455 206.404958 
L 104.133818 203.759056 
L 112.791273 191.868015 
L 114.955636 189.305716 
L 117.12 186.985999 
L 119.284364 184.892197 
L 121.448727 183.033393 
L 123.613091 181.42309 
L 125.777455 180.044054 
L 127.941818 178.904215 
L 130.106182 178.016361 
L 132.270545 177.364845 
L 134.434909 176.958862 
L 136.599273 176.813154 
L 138.763636 176.915852 
L 140.928 177.257361 
L 143.092364 177.830171 
L 145.256727 178.628664 
L 147.421091 179.648877 
L 149.585455 180.864319 
L 151.749818 182.245008 
L 156.078545 185.374821 
L 166.900364 193.613802 
L 169.064727 195.052845 
L 171.229091 196.330861 
L 173.393455 197.427383 
L 175.557818 198.328153 
L 177.722182 199.014051 
L 179.886545 199.496668 
L 182.050909 199.786368 
L 184.215273 199.892326 
L 186.379636 199.82258 
L 190.708364 199.311313 
L 195.037091 198.562713 
L 199.365818 197.615667 
L 203.694545 196.475063 
L 208.023273 195.143487 
L 216.680727 192.351352 
L 221.009455 191.132742 
L 225.338182 190.121495 
L 229.666909 189.398917 
L 233.995636 189.0503 
L 238.324364 189.041941 
L 242.653091 189.346327 
L 251.310545 190.378813 
L 262.132364 191.782246 
L 268.625455 192.385175 
L 275.118545 192.690439 
L 281.611636 192.739716 
L 288.104727 192.564355 
L 294.597818 192.187248 
L 307.584 191.364216 
L 320.570182 190.733836 
L 327.063273 190.652799 
L 333.556364 190.812223 
L 348.706909 191.346314 
L 372.514909 191.928281 
L 387.665455 192.187291 
L 394.158545 192.040869 
L 398.487273 191.834831 
L 398.487273 191.834831 
" style="fill:none;stroke:#2ca02c;stroke-linecap:square;stroke-width:1.5;"/>
   </g>
   <g id="line2d_16">
    <path clip-path="url(#p2b917251d5)" d="M 73.832727 288.569889 
L 75.997091 288.30068 
L 78.161455 287.496104 
L 80.325818 286.178007 
L 82.490182 284.419737 
L 84.654545 282.304243 
L 86.818909 279.954709 
L 88.983273 277.435684 
L 91.147636 274.647288 
L 93.312 271.586644 
L 97.640727 264.786992 
L 101.969455 257.664177 
L 104.133818 254.740669 
L 106.298182 252.269485 
L 108.462545 250.144303 
L 110.626909 248.336091 
L 112.791273 246.848755 
L 114.955636 245.642802 
L 117.12 244.690787 
L 119.284364 243.975718 
L 121.448727 243.486907 
L 123.613091 243.210888 
L 125.777455 243.125459 
L 127.941818 243.213525 
L 130.106182 243.462392 
L 132.270545 243.863188 
L 134.434909 244.410367 
L 136.599273 245.101309 
L 138.763636 245.935979 
L 140.928 246.916649 
L 143.092364 248.039489 
L 147.421091 250.552132 
L 149.585455 251.562847 
L 151.749818 252.374656 
L 153.914182 252.986638 
L 156.078545 253.366792 
L 158.242909 253.517697 
L 160.407273 253.44577 
L 162.571636 253.160976 
L 166.900364 252.246136 
L 173.393455 251.968381 
L 175.557818 251.640575 
L 179.886545 250.756582 
L 182.050909 250.447588 
L 186.379636 249.424507 
L 190.708364 248.071149 
L 192.872727 247.305512 
L 195.037091 246.658035 
L 197.201455 246.289916 
L 199.365818 246.172195 
L 201.530182 246.282414 
L 203.694545 246.603742 
L 205.858909 247.124222 
L 208.023273 247.836127 
L 210.187636 248.735399 
L 212.352 249.821174 
L 216.680727 252.40653 
L 218.845091 253.460801 
L 221.009455 254.284569 
L 223.173818 254.878909 
L 225.338182 255.210077 
L 227.502545 255.282894 
L 229.666909 255.106295 
L 231.831273 254.693004 
L 236.16 253.481067 
L 242.653091 252.833893 
L 244.817455 252.369309 
L 249.146182 251.203608 
L 251.310545 250.762147 
L 259.968 248.497622 
L 262.132364 248.157699 
L 264.296727 248.096427 
L 266.461091 248.290018 
L 268.625455 248.720733 
L 270.789818 249.376067 
L 272.954182 250.248032 
L 275.118545 251.348286 
L 279.447273 254.090423 
L 281.611636 255.192237 
L 283.776 256.020424 
L 285.940364 256.575327 
L 288.104727 256.84072 
L 290.269091 256.823696 
L 292.433455 256.535631 
L 296.762182 255.49525 
L 301.090909 254.764362 
L 303.255273 254.523021 
L 307.584 253.685229 
L 311.912727 253.166073 
L 314.077091 253.038881 
L 316.241455 252.736379 
L 318.405818 252.257587 
L 322.734545 251.009912 
L 324.898909 250.530177 
L 329.227636 249.408385 
L 331.392 249.210399 
L 335.720727 249.125835 
L 337.885091 249.388179 
L 340.049455 249.8995 
L 342.213818 250.638916 
L 344.378182 251.623221 
L 346.542545 252.876304 
L 350.871273 255.951016 
L 353.035636 257.178158 
L 355.2 258.079683 
L 357.364364 258.654079 
L 359.528727 258.905242 
L 361.693091 258.842013 
L 363.857455 258.477747 
L 366.021818 257.829941 
L 370.350545 256.067652 
L 374.679273 254.669353 
L 376.843636 254.129097 
L 379.008 253.426662 
L 381.172364 252.581762 
L 383.336727 251.596908 
L 389.829818 248.206592 
L 391.994182 247.481626 
L 394.158545 247.055864 
L 396.322909 246.897864 
L 398.487273 246.983114 
L 398.487273 246.983114 
" style="fill:none;stroke:#d62728;stroke-linecap:square;stroke-width:1.5;"/>
   </g>
   <g id="line2d_17">
    <path clip-path="url(#p2b917251d5)" d="M 73.832727 281.021833 
L 75.997091 280.749744 
L 78.161455 279.957626 
L 80.325818 278.670183 
L 82.490182 276.91416 
L 84.654545 274.769191 
L 86.818909 272.325152 
L 88.983273 269.611633 
L 91.147636 266.661873 
L 97.640727 257.080085 
L 99.805091 254.473819 
L 101.969455 252.303059 
L 104.133818 250.465921 
L 106.298182 248.925279 
L 108.462545 247.697646 
L 110.626909 246.757015 
L 112.791273 246.084986 
L 114.955636 245.676002 
L 117.12 245.510516 
L 119.284364 245.565811 
L 121.448727 245.824737 
L 123.613091 246.274959 
L 125.777455 246.908323 
L 127.941818 247.720318 
L 130.106182 248.709604 
L 132.270545 249.877613 
L 136.599273 252.612892 
L 138.763636 253.733798 
L 140.928 254.617376 
L 143.092364 255.264143 
L 145.256727 255.639276 
L 147.421091 255.747241 
L 149.585455 255.596753 
L 151.749818 255.200441 
L 156.078545 254.002582 
L 162.571636 253.385404 
L 164.736 252.903059 
L 169.064727 251.655797 
L 171.229091 251.175685 
L 173.393455 250.537982 
L 177.722182 249.125116 
L 182.050909 248.213892 
L 184.215273 248.091759 
L 186.379636 248.229394 
L 188.544 248.607757 
L 190.708364 249.213218 
L 192.872727 250.036821 
L 195.037091 251.08268 
L 197.201455 252.384035 
L 201.530182 255.534526 
L 203.694545 256.803994 
L 205.858909 257.768034 
L 208.023273 258.426764 
L 210.187636 258.762479 
L 212.352 258.782676 
L 214.516364 258.499467 
L 216.680727 257.929187 
L 221.009455 256.309634 
L 225.338182 255.041321 
L 227.502545 254.561836 
L 229.666909 253.911546 
L 233.995636 252.333021 
L 236.16 251.675602 
L 240.488727 250.149556 
L 242.653091 249.759767 
L 246.981818 249.339544 
L 249.146182 249.457122 
L 251.310545 249.836605 
L 253.474909 250.462808 
L 255.639273 251.345803 
L 257.803636 252.497618 
L 262.132364 255.371639 
L 264.296727 256.51411 
L 266.461091 257.360603 
L 268.625455 257.912575 
L 270.789818 258.153791 
L 272.954182 258.092682 
L 275.118545 257.742106 
L 277.282909 257.118973 
L 281.611636 255.427228 
L 285.940364 254.097354 
L 288.104727 253.603083 
L 290.269091 252.968717 
L 292.433455 252.195822 
L 296.762182 250.452136 
L 301.090909 249.147324 
L 303.255273 248.86493 
L 305.419636 248.867795 
L 307.584 249.132629 
L 309.748364 249.642202 
L 311.912727 250.384516 
L 314.077091 251.369282 
L 316.241455 252.618907 
L 320.570182 255.679562 
L 322.734545 256.904529 
L 324.898909 257.824256 
L 327.063273 258.439586 
L 329.227636 258.733409 
L 331.392 258.713813 
L 333.556364 258.393441 
L 335.720727 257.789112 
L 340.049455 256.110112 
L 344.378182 254.788216 
L 346.542545 254.283738 
L 350.871273 253.020864 
L 353.035636 252.538691 
L 355.2 251.890563 
L 359.528727 250.172662 
L 361.693091 249.353427 
L 363.857455 248.859033 
L 366.021818 248.667144 
L 368.186182 248.74996 
L 370.350545 249.086329 
L 372.514909 249.66085 
L 374.679273 250.463091 
L 376.843636 251.508847 
L 379.008 252.819018 
L 383.336727 255.998881 
L 385.501091 257.274563 
L 387.665455 258.221179 
L 389.829818 258.836673 
L 391.994182 259.124492 
L 394.158545 259.093104 
L 396.322909 258.755564 
L 398.487273 258.129128 
L 398.487273 258.129128 
" style="fill:none;stroke:#9467bd;stroke-linecap:square;stroke-width:1.5;"/>
   </g>
   <g id="line2d_18">
    <path clip-path="url(#p2b917251d5)" d="M 73.832727 70.686138 
L 75.997091 71.044951 
L 78.161455 71.618357 
L 80.325818 72.373736 
L 82.490182 73.335073 
L 84.654545 74.471788 
L 86.818909 75.978892 
L 88.983273 77.858318 
L 93.312 82.374164 
L 99.805091 87.662206 
L 104.133818 91.001653 
L 108.462545 93.363264 
L 114.955636 98.480909 
L 119.284364 102.075532 
L 121.448727 104.329675 
L 123.613091 107.012209 
L 125.777455 110.088623 
L 127.941818 113.518289 
L 130.106182 117.253377 
L 134.434909 125.328085 
L 138.763636 133.779054 
L 140.928 137.634212 
L 143.092364 140.96373 
L 145.256727 143.789974 
L 147.421091 146.140488 
L 149.585455 148.047171 
L 151.749818 149.545131 
L 153.914182 150.671481 
L 156.078545 151.464214 
L 160.407273 152.592359 
L 173.393455 155.750277 
L 179.886545 157.638285 
L 184.215273 159.115794 
L 188.544 160.813919 
L 192.872727 162.771922 
L 197.201455 165.015289 
L 205.858909 169.9081 
L 216.680727 175.891778 
L 221.009455 178.302653 
L 225.338182 181.093384 
L 229.666909 184.272947 
L 240.488727 192.60455 
L 242.653091 194.07185 
L 244.817455 195.399953 
L 246.981818 196.572585 
L 249.146182 197.56883 
L 251.310545 198.373948 
L 253.474909 198.968319 
L 255.639273 199.363 
L 257.803636 199.567844 
L 259.968 199.591536 
L 262.132364 199.466542 
L 266.461091 198.906263 
L 270.789818 198.107623 
L 275.118545 197.109193 
L 279.447273 195.915512 
L 294.597818 191.3067 
L 298.926545 190.27753 
L 303.255273 189.45816 
L 307.584 188.991287 
L 311.912727 188.873597 
L 316.241455 189.075725 
L 322.734545 189.820561 
L 340.049455 192.008148 
L 346.542545 192.483885 
L 353.035636 192.679093 
L 359.528727 192.631105 
L 366.021818 192.367698 
L 394.158545 190.698769 
L 398.487273 190.650887 
L 398.487273 190.650887 
" style="fill:none;stroke:#8c564b;stroke-linecap:square;stroke-width:1.5;"/>
   </g>
   <g id="line2d_19">
    <path clip-path="url(#p2b917251d5)" d="M 73.832727 203.979432 
L 78.161455 204.185224 
L 82.490182 204.007114 
L 84.654545 203.649193 
L 86.818909 202.838931 
L 88.983273 201.731899 
L 91.147636 200.36107 
L 93.312 198.551472 
L 99.805091 192.576291 
L 101.969455 190.767638 
L 104.133818 189.117363 
L 106.298182 187.640538 
L 108.462545 186.356925 
L 110.626909 185.254618 
L 112.791273 184.322556 
L 114.955636 183.575625 
L 117.12 183.033558 
L 119.284364 182.685653 
L 121.448727 182.522416 
L 123.613091 182.53552 
L 125.777455 182.717736 
L 127.941818 183.062856 
L 130.106182 183.565616 
L 132.270545 184.221593 
L 136.599273 185.874132 
L 140.928 187.864949 
L 149.585455 192.075276 
L 153.914182 193.952114 
L 158.242909 195.483074 
L 160.407273 196.088973 
L 162.571636 196.571119 
L 164.736 196.905313 
L 166.900364 197.098731 
L 169.064727 197.157807 
L 171.229091 197.088273 
L 175.557818 196.608481 
L 179.886545 195.85653 
L 184.215273 194.875346 
L 199.365818 191.149597 
L 203.694545 190.328973 
L 208.023273 189.676014 
L 212.352 189.196752 
L 216.680727 189.039949 
L 221.009455 189.207837 
L 227.502545 189.908798 
L 244.817455 192.00967 
L 251.310545 192.460325 
L 257.803636 192.632923 
L 264.296727 192.564026 
L 270.789818 192.28077 
L 290.269091 191.144452 
L 303.255273 190.624024 
L 309.748364 190.644723 
L 316.241455 190.893667 
L 331.392 191.606676 
L 346.542545 192.145828 
L 353.035636 192.156298 
L 361.693091 191.866887 
L 379.008 191.354101 
L 398.487273 190.938149 
L 398.487273 190.938149 
" style="fill:none;stroke:#e377c2;stroke-linecap:square;stroke-width:1.5;"/>
   </g>
   <g id="line2d_20">
    <path clip-path="url(#p2b917251d5)" d="M 73.832727 184.884226 
L 75.997091 184.841283 
L 78.161455 184.923531 
L 80.325818 185.126086 
L 82.490182 185.444676 
L 86.818909 186.415609 
L 91.147636 187.705919 
L 95.476364 189.190119 
L 104.133818 192.25633 
L 108.462545 193.585674 
L 112.791273 194.60951 
L 117.12 195.247439 
L 121.448727 195.537386 
L 125.777455 195.510556 
L 130.106182 195.1922 
L 134.434909 194.602374 
L 158.242909 190.64401 
L 164.736 190.037719 
L 171.229091 189.721103 
L 177.722182 189.653158 
L 184.215273 189.802998 
L 190.708364 190.14802 
L 199.365818 190.872248 
L 210.187636 191.744867 
L 218.845091 192.279927 
L 225.338182 192.401319 
L 231.831273 192.282393 
L 242.653091 191.738946 
L 257.803636 191.101574 
L 272.954182 190.647947 
L 279.447273 190.728553 
L 290.269091 191.226278 
L 307.584 191.901276 
L 318.405818 192.197179 
L 324.898909 192.11528 
L 350.871273 191.275069 
L 381.172364 190.646633 
L 387.665455 190.720295 
L 398.487273 191.207785 
L 398.487273 191.207785 
" style="fill:none;stroke:#7f7f7f;stroke-linecap:square;stroke-width:1.5;"/>
   </g>
   <g id="line2d_21">
    <path clip-path="url(#p2b917251d5)" d="M 73.832727 283.884087 
L 75.997091 283.557968 
L 78.161455 282.704199 
L 80.325818 281.346702 
L 82.490182 279.510755 
L 84.654545 277.274988 
L 86.818909 274.728613 
L 88.983273 271.899663 
L 91.147636 268.82006 
L 95.476364 262.058157 
L 99.805091 255.115444 
L 101.969455 252.254556 
L 104.133818 249.800413 
L 106.298182 247.710642 
L 108.462545 245.950813 
L 110.626909 244.477028 
L 112.791273 243.261198 
L 114.955636 242.270574 
L 117.12 241.492252 
L 119.284364 240.915675 
L 121.448727 240.514131 
L 123.613091 240.266154 
L 125.777455 240.154747 
L 127.941818 240.166731 
L 132.270545 240.52409 
L 136.599273 241.290878 
L 140.928 242.455003 
L 145.256727 244.03269 
L 149.585455 246.057521 
L 156.078545 249.316037 
L 158.242909 250.483958 
L 166.900364 254.125335 
L 169.064727 254.629322 
L 171.229091 254.877853 
L 173.393455 254.876801 
L 175.557818 254.635978 
L 177.722182 254.168822 
L 182.050909 252.874009 
L 190.708364 251.721983 
L 195.037091 250.637991 
L 197.201455 250.235312 
L 201.530182 249.282621 
L 203.694545 249.158498 
L 208.023273 249.203753 
L 210.187636 249.524589 
L 212.352 250.091762 
L 214.516364 250.890249 
L 216.680727 251.927678 
L 218.845091 253.222163 
L 223.173818 256.38446 
L 225.338182 257.645666 
L 227.502545 258.572463 
L 229.666909 259.163434 
L 231.831273 259.422667 
L 233.995636 259.359263 
L 236.16 258.986899 
L 238.324364 258.323449 
L 242.653091 256.515176 
L 246.981818 255.072048 
L 249.146182 254.510531 
L 253.474909 253.13336 
L 255.639273 252.610388 
L 257.803636 251.937252 
L 264.296727 249.363063 
L 266.461091 248.86948 
L 268.625455 248.678501 
L 270.789818 248.762335 
L 272.954182 249.099835 
L 275.118545 249.675609 
L 277.282909 250.479231 
L 279.447273 251.526538 
L 281.611636 252.838466 
L 285.940364 256.022188 
L 288.104727 257.299301 
L 290.269091 258.246898 
L 292.433455 258.862931 
L 294.597818 259.150862 
L 296.762182 259.119178 
L 298.926545 258.780953 
L 301.090909 258.153467 
L 305.419636 256.418623 
L 309.748364 255.043608 
L 311.912727 254.514063 
L 316.241455 253.197054 
L 318.405818 252.689375 
L 320.570182 252.014294 
L 324.898909 250.240068 
L 327.063273 249.389948 
L 329.227636 248.867723 
L 331.392 248.650416 
L 333.556364 248.709628 
L 335.720727 249.02368 
L 337.885091 249.576717 
L 340.049455 250.357912 
L 342.213818 251.378634 
L 344.378182 252.662831 
L 348.706909 255.789483 
L 350.871273 257.043612 
L 353.035636 257.973222 
L 355.2 258.576273 
L 357.364364 258.856174 
L 359.528727 258.821306 
L 361.693091 258.484604 
L 363.857455 257.86317 
L 368.186182 256.149452 
L 372.514909 254.79539 
L 374.679273 254.275818 
L 376.843636 253.591134 
L 379.008 252.747758 
L 381.172364 251.746195 
L 387.665455 248.291023 
L 389.829818 247.546198 
L 391.994182 247.103254 
L 394.158545 246.930255 
L 396.322909 247.002265 
L 398.487273 247.300414 
L 398.487273 247.300414 
" style="fill:none;stroke:#bcbd22;stroke-linecap:square;stroke-width:1.5;"/>
   </g>
   <g id="line2d_22">
    <path clip-path="url(#p2b917251d5)" d="M 73.832727 53.568 
L 78.161455 54.245115 
L 82.490182 55.144999 
L 86.818909 56.249217 
L 91.147636 57.540333 
L 95.476364 59.04978 
L 97.640727 60.000929 
L 99.805091 61.114221 
L 101.969455 62.401824 
L 104.133818 63.877984 
L 106.298182 65.558955 
L 108.462545 67.462866 
L 112.791273 71.758336 
L 119.284364 77.109028 
L 121.448727 78.826651 
L 125.777455 83.058379 
L 132.270545 87.96121 
L 134.434909 89.543277 
L 140.928 95.704945 
L 143.092364 98.19303 
L 145.256727 101.122849 
L 147.421091 104.468358 
L 149.585455 108.197136 
L 153.914182 116.511025 
L 158.242909 125.455922 
L 162.571636 134.716208 
L 164.736 138.854809 
L 166.900364 142.403132 
L 169.064727 145.389468 
L 171.229091 147.847681 
L 173.393455 149.81616 
L 175.557818 151.33642 
L 177.722182 152.451689 
L 182.050909 154.040947 
L 192.872727 157.527928 
L 197.201455 159.095279 
L 201.530182 160.856095 
L 205.858909 162.861244 
L 210.187636 165.14327 
L 236.16 179.71886 
L 240.488727 182.711853 
L 244.817455 186.026178 
L 251.310545 191.0899 
L 255.639273 194.142299 
L 257.803636 195.471235 
L 259.968 196.644873 
L 262.132364 197.616896 
L 264.296727 198.368391 
L 266.461091 198.91133 
L 268.625455 199.256472 
L 270.789818 199.413383 
L 272.954182 199.390483 
L 277.282909 198.96253 
L 281.611636 198.2862 
L 285.940364 197.402312 
L 290.269091 196.317298 
L 294.597818 195.035054 
L 303.255273 192.327171 
L 307.584 191.14514 
L 311.912727 190.167643 
L 316.241455 189.394727 
L 320.570182 188.969928 
L 324.898909 188.890699 
L 329.227636 189.128366 
L 335.720727 189.922297 
L 350.871273 191.970588 
L 357.364364 192.510923 
L 363.857455 192.763652 
L 370.350545 192.768163 
L 376.843636 192.553938 
L 383.336727 192.142349 
L 396.322909 191.258766 
L 398.487273 191.132534 
L 398.487273 191.132534 
" style="fill:none;stroke:#17becf;stroke-linecap:square;stroke-width:1.5;"/>
   </g>
   <g id="patch_3">
    <path d="M 57.6 307.584 
L 57.6 41.472 
" style="fill:none;stroke:#000000;stroke-linecap:square;stroke-linejoin:miter;stroke-width:0.8;"/>
   </g>
   <g id="patch_4">
    <path d="M 414.72 307.584 
L 414.72 41.472 
" style="fill:none;stroke:#000000;stroke-linecap:square;stroke-linejoin:miter;stroke-width:0.8;"/>
   </g>
   <g id="patch_5">
    <path d="M 57.6 307.584 
L 414.72 307.584 
" style="fill:none;stroke:#000000;stroke-linecap:square;stroke-linejoin:miter;stroke-width:0.8;"/>
   </g>
   <g id="patch_6">
    <path d="M 57.6 41.472 
L 414.72 41.472 
" style="fill:none;stroke:#000000;stroke-linecap:square;stroke-linejoin:miter;stroke-width:0.8;"/>
   </g>
   <g id="legend_1">
    <g id="patch_7">
     <path d="M 64.6 199.0345 
L 176.951562 199.0345 
Q 178.951562 199.0345 178.951562 197.0345 
L 178.951562 48.472 
Q 178.951562 46.472 176.951562 46.472 
L 64.6 46.472 
Q 62.6 46.472 62.6 48.472 
L 62.6 197.0345 
Q 62.6 199.0345 64.6 199.0345 
z
" style="fill:#ffffff;opacity:0.8;stroke:#cccccc;stroke-linejoin:miter;"/>
    </g>
    <g id="line2d_23">
     <path d="M 66.6 54.570437 
L 86.6 54.570437 
" style="fill:none;stroke:#1f77b4;stroke-linecap:square;stroke-width:1.5;"/>
    </g>
    <g id="line2d_24"/>
    <g id="text_13">
     <!-- MPC dataset_10 -->
     <defs>
      <path d="M 9.8125 72.90625 
L 24.515625 72.90625 
L 43.109375 23.296875 
L 61.8125 72.90625 
L 76.515625 72.90625 
L 76.515625 0 
L 66.890625 0 
L 66.890625 64.015625 
L 48.09375 14.015625 
L 38.1875 14.015625 
L 19.390625 64.015625 
L 19.390625 0 
L 9.8125 0 
z
" id="DejaVuSans-77"/>
      <path d="M 19.671875 64.796875 
L 19.671875 37.40625 
L 32.078125 37.40625 
Q 38.96875 37.40625 42.71875 40.96875 
Q 46.484375 44.53125 46.484375 51.125 
Q 46.484375 57.671875 42.71875 61.234375 
Q 38.96875 64.796875 32.078125 64.796875 
z
M 9.8125 72.90625 
L 32.078125 72.90625 
Q 44.34375 72.90625 50.609375 67.359375 
Q 56.890625 61.8125 56.890625 51.125 
Q 56.890625 40.328125 50.609375 34.8125 
Q 44.34375 29.296875 32.078125 29.296875 
L 19.671875 29.296875 
L 19.671875 0 
L 9.8125 0 
z
" id="DejaVuSans-80"/>
      <path d="M 64.40625 67.28125 
L 64.40625 56.890625 
Q 59.421875 61.53125 53.78125 63.8125 
Q 48.140625 66.109375 41.796875 66.109375 
Q 29.296875 66.109375 22.65625 58.46875 
Q 16.015625 50.828125 16.015625 36.375 
Q 16.015625 21.96875 22.65625 14.328125 
Q 29.296875 6.6875 41.796875 6.6875 
Q 48.140625 6.6875 53.78125 8.984375 
Q 59.421875 11.28125 64.40625 15.921875 
L 64.40625 5.609375 
Q 59.234375 2.09375 53.4375 0.328125 
Q 47.65625 -1.421875 41.21875 -1.421875 
Q 24.65625 -1.421875 15.125 8.703125 
Q 5.609375 18.84375 5.609375 36.375 
Q 5.609375 53.953125 15.125 64.078125 
Q 24.65625 74.21875 41.21875 74.21875 
Q 47.75 74.21875 53.53125 72.484375 
Q 59.328125 70.75 64.40625 67.28125 
z
" id="DejaVuSans-67"/>
      <path id="DejaVuSans-32"/>
      <path d="M 45.40625 46.390625 
L 45.40625 75.984375 
L 54.390625 75.984375 
L 54.390625 0 
L 45.40625 0 
L 45.40625 8.203125 
Q 42.578125 3.328125 38.25 0.953125 
Q 33.9375 -1.421875 27.875 -1.421875 
Q 17.96875 -1.421875 11.734375 6.484375 
Q 5.515625 14.40625 5.515625 27.296875 
Q 5.515625 40.1875 11.734375 48.09375 
Q 17.96875 56 27.875 56 
Q 33.9375 56 38.25 53.625 
Q 42.578125 51.265625 45.40625 46.390625 
z
M 14.796875 27.296875 
Q 14.796875 17.390625 18.875 11.75 
Q 22.953125 6.109375 30.078125 6.109375 
Q 37.203125 6.109375 41.296875 11.75 
Q 45.40625 17.390625 45.40625 27.296875 
Q 45.40625 37.203125 41.296875 42.84375 
Q 37.203125 48.484375 30.078125 48.484375 
Q 22.953125 48.484375 18.875 42.84375 
Q 14.796875 37.203125 14.796875 27.296875 
z
" id="DejaVuSans-100"/>
      <path d="M 34.28125 27.484375 
Q 23.390625 27.484375 19.1875 25 
Q 14.984375 22.515625 14.984375 16.5 
Q 14.984375 11.71875 18.140625 8.90625 
Q 21.296875 6.109375 26.703125 6.109375 
Q 34.1875 6.109375 38.703125 11.40625 
Q 43.21875 16.703125 43.21875 25.484375 
L 43.21875 27.484375 
z
M 52.203125 31.203125 
L 52.203125 0 
L 43.21875 0 
L 43.21875 8.296875 
Q 40.140625 3.328125 35.546875 0.953125 
Q 30.953125 -1.421875 24.3125 -1.421875 
Q 15.921875 -1.421875 10.953125 3.296875 
Q 6 8.015625 6 15.921875 
Q 6 25.140625 12.171875 29.828125 
Q 18.359375 34.515625 30.609375 34.515625 
L 43.21875 34.515625 
L 43.21875 35.40625 
Q 43.21875 41.609375 39.140625 45 
Q 35.0625 48.390625 27.6875 48.390625 
Q 23 48.390625 18.546875 47.265625 
Q 14.109375 46.140625 10.015625 43.890625 
L 10.015625 52.203125 
Q 14.9375 54.109375 19.578125 55.046875 
Q 24.21875 56 28.609375 56 
Q 40.484375 56 46.34375 49.84375 
Q 52.203125 43.703125 52.203125 31.203125 
z
" id="DejaVuSans-97"/>
      <path d="M 18.3125 70.21875 
L 18.3125 54.6875 
L 36.8125 54.6875 
L 36.8125 47.703125 
L 18.3125 47.703125 
L 18.3125 18.015625 
Q 18.3125 11.328125 20.140625 9.421875 
Q 21.96875 7.515625 27.59375 7.515625 
L 36.8125 7.515625 
L 36.8125 0 
L 27.59375 0 
Q 17.1875 0 13.234375 3.875 
Q 9.28125 7.765625 9.28125 18.015625 
L 9.28125 47.703125 
L 2.6875 47.703125 
L 2.6875 54.6875 
L 9.28125 54.6875 
L 9.28125 70.21875 
z
" id="DejaVuSans-116"/>
      <path d="M 44.28125 53.078125 
L 44.28125 44.578125 
Q 40.484375 46.53125 36.375 47.5 
Q 32.28125 48.484375 27.875 48.484375 
Q 21.1875 48.484375 17.84375 46.4375 
Q 14.5 44.390625 14.5 40.28125 
Q 14.5 37.15625 16.890625 35.375 
Q 19.28125 33.59375 26.515625 31.984375 
L 29.59375 31.296875 
Q 39.15625 29.25 43.1875 25.515625 
Q 47.21875 21.78125 47.21875 15.09375 
Q 47.21875 7.46875 41.1875 3.015625 
Q 35.15625 -1.421875 24.609375 -1.421875 
Q 20.21875 -1.421875 15.453125 -0.5625 
Q 10.6875 0.296875 5.421875 2 
L 5.421875 11.28125 
Q 10.40625 8.6875 15.234375 7.390625 
Q 20.0625 6.109375 24.8125 6.109375 
Q 31.15625 6.109375 34.5625 8.28125 
Q 37.984375 10.453125 37.984375 14.40625 
Q 37.984375 18.0625 35.515625 20.015625 
Q 33.0625 21.96875 24.703125 23.78125 
L 21.578125 24.515625 
Q 13.234375 26.265625 9.515625 29.90625 
Q 5.8125 33.546875 5.8125 39.890625 
Q 5.8125 47.609375 11.28125 51.796875 
Q 16.75 56 26.8125 56 
Q 31.78125 56 36.171875 55.265625 
Q 40.578125 54.546875 44.28125 53.078125 
z
" id="DejaVuSans-115"/>
      <path d="M 56.203125 29.59375 
L 56.203125 25.203125 
L 14.890625 25.203125 
Q 15.484375 15.921875 20.484375 11.0625 
Q 25.484375 6.203125 34.421875 6.203125 
Q 39.59375 6.203125 44.453125 7.46875 
Q 49.3125 8.734375 54.109375 11.28125 
L 54.109375 2.78125 
Q 49.265625 0.734375 44.1875 -0.34375 
Q 39.109375 -1.421875 33.890625 -1.421875 
Q 20.796875 -1.421875 13.15625 6.1875 
Q 5.515625 13.8125 5.515625 26.8125 
Q 5.515625 40.234375 12.765625 48.109375 
Q 20.015625 56 32.328125 56 
Q 43.359375 56 49.78125 48.890625 
Q 56.203125 41.796875 56.203125 29.59375 
z
M 47.21875 32.234375 
Q 47.125 39.59375 43.09375 43.984375 
Q 39.0625 48.390625 32.421875 48.390625 
Q 24.90625 48.390625 20.390625 44.140625 
Q 15.875 39.890625 15.1875 32.171875 
z
" id="DejaVuSans-101"/>
      <path d="M 50.984375 -16.609375 
L 50.984375 -23.578125 
L -0.984375 -23.578125 
L -0.984375 -16.609375 
z
" id="DejaVuSans-95"/>
     </defs>
     <g transform="translate(94.6 58.070437)scale(0.1 -0.1)">
      <use xlink:href="#DejaVuSans-77"/>
      <use x="86.279297" xlink:href="#DejaVuSans-80"/>
      <use x="146.582031" xlink:href="#DejaVuSans-67"/>
      <use x="216.40625" xlink:href="#DejaVuSans-32"/>
      <use x="248.193359" xlink:href="#DejaVuSans-100"/>
      <use x="311.669922" xlink:href="#DejaVuSans-97"/>
      <use x="372.949219" xlink:href="#DejaVuSans-116"/>
      <use x="412.158203" xlink:href="#DejaVuSans-97"/>
      <use x="473.4375" xlink:href="#DejaVuSans-115"/>
      <use x="525.537109" xlink:href="#DejaVuSans-101"/>
      <use x="587.060547" xlink:href="#DejaVuSans-116"/>
      <use x="626.269531" xlink:href="#DejaVuSans-95"/>
      <use x="676.269531" xlink:href="#DejaVuSans-49"/>
      <use x="739.892578" xlink:href="#DejaVuSans-48"/>
     </g>
    </g>
    <g id="line2d_25">
     <path d="M 66.6 69.526687 
L 86.6 69.526687 
" style="fill:none;stroke:#ff7f0e;stroke-linecap:square;stroke-width:1.5;"/>
    </g>
    <g id="line2d_26"/>
    <g id="text_14">
     <!-- MPC dataset_11 -->
     <g transform="translate(94.6 73.026687)scale(0.1 -0.1)">
      <use xlink:href="#DejaVuSans-77"/>
      <use x="86.279297" xlink:href="#DejaVuSans-80"/>
      <use x="146.582031" xlink:href="#DejaVuSans-67"/>
      <use x="216.40625" xlink:href="#DejaVuSans-32"/>
      <use x="248.193359" xlink:href="#DejaVuSans-100"/>
      <use x="311.669922" xlink:href="#DejaVuSans-97"/>
      <use x="372.949219" xlink:href="#DejaVuSans-116"/>
      <use x="412.158203" xlink:href="#DejaVuSans-97"/>
      <use x="473.4375" xlink:href="#DejaVuSans-115"/>
      <use x="525.537109" xlink:href="#DejaVuSans-101"/>
      <use x="587.060547" xlink:href="#DejaVuSans-116"/>
      <use x="626.269531" xlink:href="#DejaVuSans-95"/>
      <use x="676.269531" xlink:href="#DejaVuSans-49"/>
      <use x="739.892578" xlink:href="#DejaVuSans-49"/>
     </g>
    </g>
    <g id="line2d_27">
     <path d="M 66.6 84.482937 
L 86.6 84.482937 
" style="fill:none;stroke:#2ca02c;stroke-linecap:square;stroke-width:1.5;"/>
    </g>
    <g id="line2d_28"/>
    <g id="text_15">
     <!-- MPC dataset_12 -->
     <g transform="translate(94.6 87.982937)scale(0.1 -0.1)">
      <use xlink:href="#DejaVuSans-77"/>
      <use x="86.279297" xlink:href="#DejaVuSans-80"/>
      <use x="146.582031" xlink:href="#DejaVuSans-67"/>
      <use x="216.40625" xlink:href="#DejaVuSans-32"/>
      <use x="248.193359" xlink:href="#DejaVuSans-100"/>
      <use x="311.669922" xlink:href="#DejaVuSans-97"/>
      <use x="372.949219" xlink:href="#DejaVuSans-116"/>
      <use x="412.158203" xlink:href="#DejaVuSans-97"/>
      <use x="473.4375" xlink:href="#DejaVuSans-115"/>
      <use x="525.537109" xlink:href="#DejaVuSans-101"/>
      <use x="587.060547" xlink:href="#DejaVuSans-116"/>
      <use x="626.269531" xlink:href="#DejaVuSans-95"/>
      <use x="676.269531" xlink:href="#DejaVuSans-49"/>
      <use x="739.892578" xlink:href="#DejaVuSans-50"/>
     </g>
    </g>
    <g id="line2d_29">
     <path d="M 66.6 99.439188 
L 86.6 99.439188 
" style="fill:none;stroke:#d62728;stroke-linecap:square;stroke-width:1.5;"/>
    </g>
    <g id="line2d_30"/>
    <g id="text_16">
     <!-- MPC dataset_13 -->
     <defs>
      <path d="M 40.578125 39.3125 
Q 47.65625 37.796875 51.625 33 
Q 55.609375 28.21875 55.609375 21.1875 
Q 55.609375 10.40625 48.1875 4.484375 
Q 40.765625 -1.421875 27.09375 -1.421875 
Q 22.515625 -1.421875 17.65625 -0.515625 
Q 12.796875 0.390625 7.625 2.203125 
L 7.625 11.71875 
Q 11.71875 9.328125 16.59375 8.109375 
Q 21.484375 6.890625 26.8125 6.890625 
Q 36.078125 6.890625 40.9375 10.546875 
Q 45.796875 14.203125 45.796875 21.1875 
Q 45.796875 27.640625 41.28125 31.265625 
Q 36.765625 34.90625 28.71875 34.90625 
L 20.21875 34.90625 
L 20.21875 43.015625 
L 29.109375 43.015625 
Q 36.375 43.015625 40.234375 45.921875 
Q 44.09375 48.828125 44.09375 54.296875 
Q 44.09375 59.90625 40.109375 62.90625 
Q 36.140625 65.921875 28.71875 65.921875 
Q 24.65625 65.921875 20.015625 65.03125 
Q 15.375 64.15625 9.8125 62.3125 
L 9.8125 71.09375 
Q 15.4375 72.65625 20.34375 73.4375 
Q 25.25 74.21875 29.59375 74.21875 
Q 40.828125 74.21875 47.359375 69.109375 
Q 53.90625 64.015625 53.90625 55.328125 
Q 53.90625 49.265625 50.4375 45.09375 
Q 46.96875 40.921875 40.578125 39.3125 
z
" id="DejaVuSans-51"/>
     </defs>
     <g transform="translate(94.6 102.939188)scale(0.1 -0.1)">
      <use xlink:href="#DejaVuSans-77"/>
      <use x="86.279297" xlink:href="#DejaVuSans-80"/>
      <use x="146.582031" xlink:href="#DejaVuSans-67"/>
      <use x="216.40625" xlink:href="#DejaVuSans-32"/>
      <use x="248.193359" xlink:href="#DejaVuSans-100"/>
      <use x="311.669922" xlink:href="#DejaVuSans-97"/>
      <use x="372.949219" xlink:href="#DejaVuSans-116"/>
      <use x="412.158203" xlink:href="#DejaVuSans-97"/>
      <use x="473.4375" xlink:href="#DejaVuSans-115"/>
      <use x="525.537109" xlink:href="#DejaVuSans-101"/>
      <use x="587.060547" xlink:href="#DejaVuSans-116"/>
      <use x="626.269531" xlink:href="#DejaVuSans-95"/>
      <use x="676.269531" xlink:href="#DejaVuSans-49"/>
      <use x="739.892578" xlink:href="#DejaVuSans-51"/>
     </g>
    </g>
    <g id="line2d_31">
     <path d="M 66.6 114.395437 
L 86.6 114.395437 
" style="fill:none;stroke:#9467bd;stroke-linecap:square;stroke-width:1.5;"/>
    </g>
    <g id="line2d_32"/>
    <g id="text_17">
     <!-- MPC dataset_14 -->
     <g transform="translate(94.6 117.895437)scale(0.1 -0.1)">
      <use xlink:href="#DejaVuSans-77"/>
      <use x="86.279297" xlink:href="#DejaVuSans-80"/>
      <use x="146.582031" xlink:href="#DejaVuSans-67"/>
      <use x="216.40625" xlink:href="#DejaVuSans-32"/>
      <use x="248.193359" xlink:href="#DejaVuSans-100"/>
      <use x="311.669922" xlink:href="#DejaVuSans-97"/>
      <use x="372.949219" xlink:href="#DejaVuSans-116"/>
      <use x="412.158203" xlink:href="#DejaVuSans-97"/>
      <use x="473.4375" xlink:href="#DejaVuSans-115"/>
      <use x="525.537109" xlink:href="#DejaVuSans-101"/>
      <use x="587.060547" xlink:href="#DejaVuSans-116"/>
      <use x="626.269531" xlink:href="#DejaVuSans-95"/>
      <use x="676.269531" xlink:href="#DejaVuSans-49"/>
      <use x="739.892578" xlink:href="#DejaVuSans-52"/>
     </g>
    </g>
    <g id="line2d_33">
     <path d="M 66.6 129.351687 
L 86.6 129.351687 
" style="fill:none;stroke:#8c564b;stroke-linecap:square;stroke-width:1.5;"/>
    </g>
    <g id="line2d_34"/>
    <g id="text_18">
     <!-- MPC dataset_15 -->
     <defs>
      <path d="M 10.796875 72.90625 
L 49.515625 72.90625 
L 49.515625 64.59375 
L 19.828125 64.59375 
L 19.828125 46.734375 
Q 21.96875 47.46875 24.109375 47.828125 
Q 26.265625 48.1875 28.421875 48.1875 
Q 40.625 48.1875 47.75 41.5 
Q 54.890625 34.8125 54.890625 23.390625 
Q 54.890625 11.625 47.5625 5.09375 
Q 40.234375 -1.421875 26.90625 -1.421875 
Q 22.3125 -1.421875 17.546875 -0.640625 
Q 12.796875 0.140625 7.71875 1.703125 
L 7.71875 11.625 
Q 12.109375 9.234375 16.796875 8.0625 
Q 21.484375 6.890625 26.703125 6.890625 
Q 35.15625 6.890625 40.078125 11.328125 
Q 45.015625 15.765625 45.015625 23.390625 
Q 45.015625 31 40.078125 35.4375 
Q 35.15625 39.890625 26.703125 39.890625 
Q 22.75 39.890625 18.8125 39.015625 
Q 14.890625 38.140625 10.796875 36.28125 
z
" id="DejaVuSans-53"/>
     </defs>
     <g transform="translate(94.6 132.851687)scale(0.1 -0.1)">
      <use xlink:href="#DejaVuSans-77"/>
      <use x="86.279297" xlink:href="#DejaVuSans-80"/>
      <use x="146.582031" xlink:href="#DejaVuSans-67"/>
      <use x="216.40625" xlink:href="#DejaVuSans-32"/>
      <use x="248.193359" xlink:href="#DejaVuSans-100"/>
      <use x="311.669922" xlink:href="#DejaVuSans-97"/>
      <use x="372.949219" xlink:href="#DejaVuSans-116"/>
      <use x="412.158203" xlink:href="#DejaVuSans-97"/>
      <use x="473.4375" xlink:href="#DejaVuSans-115"/>
      <use x="525.537109" xlink:href="#DejaVuSans-101"/>
      <use x="587.060547" xlink:href="#DejaVuSans-116"/>
      <use x="626.269531" xlink:href="#DejaVuSans-95"/>
      <use x="676.269531" xlink:href="#DejaVuSans-49"/>
      <use x="739.892578" xlink:href="#DejaVuSans-53"/>
     </g>
    </g>
    <g id="line2d_35">
     <path d="M 66.6 144.307937 
L 86.6 144.307937 
" style="fill:none;stroke:#e377c2;stroke-linecap:square;stroke-width:1.5;"/>
    </g>
    <g id="line2d_36"/>
    <g id="text_19">
     <!-- MPC dataset_16 -->
     <g transform="translate(94.6 147.807937)scale(0.1 -0.1)">
      <use xlink:href="#DejaVuSans-77"/>
      <use x="86.279297" xlink:href="#DejaVuSans-80"/>
      <use x="146.582031" xlink:href="#DejaVuSans-67"/>
      <use x="216.40625" xlink:href="#DejaVuSans-32"/>
      <use x="248.193359" xlink:href="#DejaVuSans-100"/>
      <use x="311.669922" xlink:href="#DejaVuSans-97"/>
      <use x="372.949219" xlink:href="#DejaVuSans-116"/>
      <use x="412.158203" xlink:href="#DejaVuSans-97"/>
      <use x="473.4375" xlink:href="#DejaVuSans-115"/>
      <use x="525.537109" xlink:href="#DejaVuSans-101"/>
      <use x="587.060547" xlink:href="#DejaVuSans-116"/>
      <use x="626.269531" xlink:href="#DejaVuSans-95"/>
      <use x="676.269531" xlink:href="#DejaVuSans-49"/>
      <use x="739.892578" xlink:href="#DejaVuSans-54"/>
     </g>
    </g>
    <g id="line2d_37">
     <path d="M 66.6 159.264187 
L 86.6 159.264187 
" style="fill:none;stroke:#7f7f7f;stroke-linecap:square;stroke-width:1.5;"/>
    </g>
    <g id="line2d_38"/>
    <g id="text_20">
     <!-- MPC dataset_17 -->
     <defs>
      <path d="M 8.203125 72.90625 
L 55.078125 72.90625 
L 55.078125 68.703125 
L 28.609375 0 
L 18.3125 0 
L 43.21875 64.59375 
L 8.203125 64.59375 
z
" id="DejaVuSans-55"/>
     </defs>
     <g transform="translate(94.6 162.764187)scale(0.1 -0.1)">
      <use xlink:href="#DejaVuSans-77"/>
      <use x="86.279297" xlink:href="#DejaVuSans-80"/>
      <use x="146.582031" xlink:href="#DejaVuSans-67"/>
      <use x="216.40625" xlink:href="#DejaVuSans-32"/>
      <use x="248.193359" xlink:href="#DejaVuSans-100"/>
      <use x="311.669922" xlink:href="#DejaVuSans-97"/>
      <use x="372.949219" xlink:href="#DejaVuSans-116"/>
      <use x="412.158203" xlink:href="#DejaVuSans-97"/>
      <use x="473.4375" xlink:href="#DejaVuSans-115"/>
      <use x="525.537109" xlink:href="#DejaVuSans-101"/>
      <use x="587.060547" xlink:href="#DejaVuSans-116"/>
      <use x="626.269531" xlink:href="#DejaVuSans-95"/>
      <use x="676.269531" xlink:href="#DejaVuSans-49"/>
      <use x="739.892578" xlink:href="#DejaVuSans-55"/>
     </g>
    </g>
    <g id="line2d_39">
     <path d="M 66.6 174.220437 
L 86.6 174.220437 
" style="fill:none;stroke:#bcbd22;stroke-linecap:square;stroke-width:1.5;"/>
    </g>
    <g id="line2d_40"/>
    <g id="text_21">
     <!-- MPC dataset_18 -->
     <g transform="translate(94.6 177.720437)scale(0.1 -0.1)">
      <use xlink:href="#DejaVuSans-77"/>
      <use x="86.279297" xlink:href="#DejaVuSans-80"/>
      <use x="146.582031" xlink:href="#DejaVuSans-67"/>
      <use x="216.40625" xlink:href="#DejaVuSans-32"/>
      <use x="248.193359" xlink:href="#DejaVuSans-100"/>
      <use x="311.669922" xlink:href="#DejaVuSans-97"/>
      <use x="372.949219" xlink:href="#DejaVuSans-116"/>
      <use x="412.158203" xlink:href="#DejaVuSans-97"/>
      <use x="473.4375" xlink:href="#DejaVuSans-115"/>
      <use x="525.537109" xlink:href="#DejaVuSans-101"/>
      <use x="587.060547" xlink:href="#DejaVuSans-116"/>
      <use x="626.269531" xlink:href="#DejaVuSans-95"/>
      <use x="676.269531" xlink:href="#DejaVuSans-49"/>
      <use x="739.892578" xlink:href="#DejaVuSans-56"/>
     </g>
    </g>
    <g id="line2d_41">
     <path d="M 66.6 189.176687 
L 86.6 189.176687 
" style="fill:none;stroke:#17becf;stroke-linecap:square;stroke-width:1.5;"/>
    </g>
    <g id="line2d_42"/>
    <g id="text_22">
     <!-- MPC dataset_19 -->
     <defs>
      <path d="M 10.984375 1.515625 
L 10.984375 10.5 
Q 14.703125 8.734375 18.5 7.8125 
Q 22.3125 6.890625 25.984375 6.890625 
Q 35.75 6.890625 40.890625 13.453125 
Q 46.046875 20.015625 46.78125 33.40625 
Q 43.953125 29.203125 39.59375 26.953125 
Q 35.25 24.703125 29.984375 24.703125 
Q 19.046875 24.703125 12.671875 31.3125 
Q 6.296875 37.9375 6.296875 49.421875 
Q 6.296875 60.640625 12.9375 67.421875 
Q 19.578125 74.21875 30.609375 74.21875 
Q 43.265625 74.21875 49.921875 64.515625 
Q 56.59375 54.828125 56.59375 36.375 
Q 56.59375 19.140625 48.40625 8.859375 
Q 40.234375 -1.421875 26.421875 -1.421875 
Q 22.703125 -1.421875 18.890625 -0.6875 
Q 15.09375 0.046875 10.984375 1.515625 
z
M 30.609375 32.421875 
Q 37.25 32.421875 41.125 36.953125 
Q 45.015625 41.5 45.015625 49.421875 
Q 45.015625 57.28125 41.125 61.84375 
Q 37.25 66.40625 30.609375 66.40625 
Q 23.96875 66.40625 20.09375 61.84375 
Q 16.21875 57.28125 16.21875 49.421875 
Q 16.21875 41.5 20.09375 36.953125 
Q 23.96875 32.421875 30.609375 32.421875 
z
" id="DejaVuSans-57"/>
     </defs>
     <g transform="translate(94.6 192.676687)scale(0.1 -0.1)">
      <use xlink:href="#DejaVuSans-77"/>
      <use x="86.279297" xlink:href="#DejaVuSans-80"/>
      <use x="146.582031" xlink:href="#DejaVuSans-67"/>
      <use x="216.40625" xlink:href="#DejaVuSans-32"/>
      <use x="248.193359" xlink:href="#DejaVuSans-100"/>
      <use x="311.669922" xlink:href="#DejaVuSans-97"/>
      <use x="372.949219" xlink:href="#DejaVuSans-116"/>
      <use x="412.158203" xlink:href="#DejaVuSans-97"/>
      <use x="473.4375" xlink:href="#DejaVuSans-115"/>
      <use x="525.537109" xlink:href="#DejaVuSans-101"/>
      <use x="587.060547" xlink:href="#DejaVuSans-116"/>
      <use x="626.269531" xlink:href="#DejaVuSans-95"/>
      <use x="676.269531" xlink:href="#DejaVuSans-49"/>
      <use x="739.892578" xlink:href="#DejaVuSans-57"/>
     </g>
    </g>
   </g>
  </g>
 </g>
 <defs>
  <clipPath id="p2b917251d5">
   <rect height="266.112" width="357.12" x="57.6" y="41.472"/>
  </clipPath>
 </defs>
</svg>
